999
dxflib 3.7.5.0
  0
SECTION
  2
HEADER
  9
$ACADVER
  1
AC1015
  9
$HANDSEED
  5
FFFF
  9
$DIMADEC
 70
0
  9
$DIMASZ
 40
2.5
  9
$DIMAUNIT
 70
0
  9
$DIMAZIN
 70
2
  9
$DIMDEC
 70
4
  9
$DIMEXE
 40
1.25
  9
$DIMEXO
 40
0.625
  9
$DIMGAP
 40
0.625
  9
$DIMLUNIT
 70
2
  9
$DIMSCALE
 40
1.0
  9
$DIMTSZ
 40
0.0
  9
$DIMTXT
 40
2.5
  9
$DIMZIN
 70
8
  9
$DWGCODEPAGE
  3
ANSI_1252
  9
$INSUNITS
 70
4
  9
$LTSCALE
 40
1
  0
ENDSEC
  0
SECTION
  2
TABLES
  0
TABLE
  2
VPORT
  5
8
100
AcDbSymbolTable
 70
1
  0
VPORT
  5
30
100
AcDbSymbolTableRecord
100
AcDbViewportTableRecord
  2
*Active
 70
0
 10
0.0
 20
0.0
 11
1.0
 21
1.0
 12
286.3055555555554861
 22
148.5
 13
0.0
 23
0.0
 14
10.0
 24
10.0
 15
10.0
 25
10.0
 16
0.0
 26
0.0
 36
1.0
 17
0.0
 27
0.0
 37
0.0
 40
297.0
 41
1.92798353909465
 42
50.0
 43
0.0
 44
0.0
 50
0.0
 51
0.0
 71
0
 72
100
 73
1
 74
3
 75
1
 76
1
 77
0
 78
0
281
0
 65
1
110
0.0
120
0.0
130
0.0
111
1.0
121
0.0
131
0.0
112
0.0
122
1.0
132
0.0
 79
0
146
0.0
  0
ENDTAB
  0
TABLE
  2
LTYPE
  5
5
100
AcDbSymbolTable
 70
3
  0
LTYPE
  5
16
100
AcDbSymbolTableRecord
100
AcDbLinetypeTableRecord
  2
Continuous
 70
0
  3
Solid line
 72
65
 73
0
 40
0.0
  0
LTYPE
  5
15
100
AcDbSymbolTableRecord
100
AcDbLinetypeTableRecord
  2
BYLAYER
 70
0
  3

 72
65
 73
0
 40
0.0
  0
LTYPE
  5
14
100
AcDbSymbolTableRecord
100
AcDbLinetypeTableRecord
  2
BYBLOCK
 70
0
  3

 72
65
 73
0
 40
0.0
  0
ENDTAB
  0
TABLE
  2
LAYER
  5
2
100
AcDbSymbolTable
 70
1
  0
LAYER
  5
10
100
AcDbSymbolTableRecord
100
AcDbLayerTableRecord
  2
0
 70
0
 62
7
420
16777215
  6
Continuous
370
25
390
F
  0
ENDTAB
  0
TABLE
  2
STYLE
  5
3
100
AcDbSymbolTable
 70
1
  0
STYLE
  5
31
100
AcDbSymbolTableRecord
100
AcDbTextStyleTableRecord
  2
Standard
 70
0
 40
0.0
 41
1.0
 50
0.0
 71
0
 42
2.5
  3

  4

1001
ACAD
1000
txt
1071
0
  0
ENDTAB
  0
TABLE
  2
VIEW
  5
6
100
AcDbSymbolTable
 70
0
  0
ENDTAB
  0
TABLE
  2
UCS
  5
7
100
AcDbSymbolTable
 70
0
  0
ENDTAB
  0
TABLE
  2
APPID
  5
9
100
AcDbSymbolTable
 70
1
  0
APPID
  5
12
100
AcDbSymbolTableRecord
100
AcDbRegAppTableRecord
  2
ACAD
 70
0
  0
APPID
  5
32
100
AcDbSymbolTableRecord
100
AcDbRegAppTableRecord
  2
QCAD
 70
0
  0
ENDTAB
  0
TABLE
  2
DIMSTYLE
  5
A
100
AcDbSymbolTable
 70
1
100
AcDbDimStyleTable
 71
0
  0
DIMSTYLE
105
27
100
AcDbSymbolTableRecord
100
AcDbDimStyleTableRecord
  2
Standard
 41
2.5
 42
0.625
 43
3.75
 44
1.25
 70
0
 73
0
 74
0
 77
1
 78
8
140
2.5
141
2.5
143
0.03937007874016
147
0.625
171
3
172
1
271
2
272
2
274
3
278
44
283
0
284
8
340
31
  0
ENDTAB
  0
TABLE
  2
BLOCK_RECORD
  5
1
100
AcDbSymbolTable
 70
1
  0
BLOCK_RECORD
  5
1F
100
AcDbSymbolTableRecord
100
AcDbBlockTableRecord
  2
*Model_Space
340
22
  0
BLOCK_RECORD
  5
1B
100
AcDbSymbolTableRecord
100
AcDbBlockTableRecord
  2
*Paper_Space
340
1E
  0
BLOCK_RECORD
  5
23
100
AcDbSymbolTableRecord
100
AcDbBlockTableRecord
  2
*Paper_Space0
340
26
  0
ENDTAB
  0
ENDSEC
  0
SECTION
  2
BLOCKS
  0
BLOCK
  5
20
100
AcDbEntity
  8
0
100
AcDbBlockBegin
  2
*Model_Space
 70
0
 10
0.0
 20
0.0
 30
0.0
  3
*Model_Space
  1

  0
ENDBLK
  5
21
100
AcDbEntity
  8
0
100
AcDbBlockEnd
  0
BLOCK
  5
1C
100
AcDbEntity
 67
1
  8
0
100
AcDbBlockBegin
  2
*Paper_Space
 70
0
 10
0.0
 20
0.0
 30
0.0
  3
*Paper_Space
  1

  0
ENDBLK
  5
1D
100
AcDbEntity
 67
1
  8
0
100
AcDbBlockEnd
  0
BLOCK
  5
24
100
AcDbEntity
  8
0
100
AcDbBlockBegin
  2
*Paper_Space0
 70
0
 10
0.0
 20
0.0
 30
0.0
  3
*Paper_Space0
  1

  0
ENDBLK
  5
25
100
AcDbEntity
  8
0
100
AcDbBlockEnd
  0
ENDSEC
  0
SECTION
  2
ENTITIES
  0
LINE
  5
33
100
AcDbEntity
100
AcDbLine
  8
0
 62
256
370
-1
 48
1.0
  6
BYLAYER
 10
80.6381443037548706
 20
-44.3585480690492844
 30
0.0
 11
80.6381443037548706
 21
-56.4585480690492432
 31
0.0
  0
LINE
  5
34
100
AcDbEntity
100
AcDbLine
  8
0
 62
256
370
-1
 48
1.0
  6
BYLAYER
 10
81.0669795844458037
 20
-106.2805546744267673
 30
0.0
 11
58.5669795844458108
 21
-106.2805546744267815
 31
0.0
  0
LINE
  5
35
100
AcDbEntity
100
AcDbLine
  8
0
 62
256
370
-1
 48
1.0
  6
BYLAYER
 10
-18.5669795844458108
 20
-106.2805546744267815
 30
0.0
 11
-41.0669795844458037
 21
-106.2805546744267673
 31
0.0
  0
LINE
  5
36
100
AcDbEntity
100
AcDbLine
  8
0
 62
256
370
-1
 48
1.0
  6
BYLAYER
 10
-18.5669795844458108
 20
-106.2805546744267815
 30
0.0
 11
-11.4959117725803281
 21
-99.2094868625613202
 31
0.0
  0
LINE
  5
37
100
AcDbEntity
100
AcDbLine
  8
0
 62
256
370
-1
 48
1.0
  6
BYLAYER
 10
51.495911772580321
 20
-99.209486862561306
 30
0.0
 11
58.5669795844458108
 21
-106.2805546744267815
 31
0.0
  0
LINE
  5
38
100
AcDbEntity
100
AcDbLine
  8
0
 62
256
370
-1
 48
1.0
  6
BYLAYER
 10
51.5040882274196861
 20
-99.209486862561306
 30
0.0
 11
-11.4959117725803281
 21
-99.2094868625613202
 31
0.0
  0
CIRCLE
  5
39
100
AcDbEntity
100
AcDbCircle
  8
0
 62
256
370
-1
 48
1.0
  6
BYLAYER
 10
-15.0
 20
-72.564024175806253
 30
0.0
 40
6.0
  0
CIRCLE
  5
3A
100
AcDbEntity
100
AcDbCircle
  8
0
 62
256
370
-1
 48
1.0
  6
BYLAYER
 10
55.0000000000000071
 20
-72.5640241758062814
 30
0.0
 40
6.0
  0
CIRCLE
  5
3B
100
AcDbEntity
100
AcDbCircle
  8
0
 62
256
370
-1
 48
1.0
  6
BYLAYER
 10
5.0000000000000107
 20
-72.5640241758062245
 30
0.0
 40
6.0
  0
CIRCLE
  5
3C
100
AcDbEntity
100
AcDbCircle
  8
0
 62
256
370
-1
 48
1.0
  6
BYLAYER
 10
35.0000000000000071
 20
-72.5640241758062672
 30
0.0
 40
6.0
  0
LINE
  5
3D
100
AcDbEntity
100
AcDbLine
  8
0
 62
256
370
-1
 48
1.0
  6
BYLAYER
 10
-41.0669795844458037
 20
-106.2805546744267673
 30
0.0
 11
-85.0836216174670597
 21
-115.6365807612259715
 31
0.0
  0
LINE
  5
3E
100
AcDbEntity
100
AcDbLine
  8
0
 62
256
370
-1
 48
1.0
  6
BYLAYER
 10
125.0836216174670597
 20
-115.6365807612259573
 30
0.0
 11
81.0669795844458037
 21
-106.2805546744267673
 31
0.0
  0
LINE
  5
3F
100
AcDbEntity
100
AcDbLine
  8
0
 62
256
370
-1
 48
1.0
  6
BYLAYER
 10
132.2820553564707211
 20
-84.4567386880983406
 30
0.0
 11
125.0836216174670597
 21
-115.6365807612259573
 31
0.0
  0
LINE
  5
40
100
AcDbEntity
100
AcDbLine
  8
0
 62
256
370
-1
 48
1.0
  6
BYLAYER
 10
-85.0836216174670597
 20
-115.6365807612259715
 30
0.0
 11
-92.2820553564707495
 21
-84.4567386880983975
 31
0.0
  0
LINE
  5
41
100
AcDbEntity
100
AcDbLine
  8
0
 62
256
370
-1
 48
1.0
  6
BYLAYER
 10
-92.2820553564707495
 20
-84.4567386880983975
 30
0.0
 11
-62.211891491321694
 21
-73.5120941016768938
 31
0.0
  0
LINE
  5
42
100
AcDbEntity
100
AcDbLine
  8
0
 62
256
370
-1
 48
1.0
  6
BYLAYER
 10
102.2118914913216656
 20
-73.5120941016769365
 30
0.0
 11
132.2820553564707211
 21
-84.4567386880983406
 31
0.0
  0
LINE
  5
43
100
AcDbEntity
100
AcDbLine
  8
0
 62
256
370
-1
 48
1.0
  6
BYLAYER
 10
102.2118914913216656
 20
-73.5120941016769365
 30
0.0
 11
80.6381443037548706
 21
-56.4585480690492432
 31
0.0
  0
LINE
  5
44
100
AcDbEntity
100
AcDbLine
  8
0
 62
256
370
-1
 48
1.0
  6
BYLAYER
 10
-62.211891491321694
 20
-73.5120941016768938
 30
0.0
 11
-40.6381443037548706
 21
-56.4585480690493284
 31
0.0
  0
LINE
  5
45
100
AcDbEntity
100
AcDbLine
  8
0
 62
256
370
-1
 48
1.0
  6
BYLAYER
 10
35.7499999999999929
 20
-91.564024175806253
 30
0.0
 11
4.25
 21
-91.5640241758062388
 31
0.0
  0
LINE
  5
46
100
AcDbEntity
100
AcDbLine
  8
0
 62
256
370
-1
 48
1.0
  6
BYLAYER
 10
35.5
 20
-85.5640241758062814
 30
0.0
 11
3.9999999999999964
 21
-85.5640241758062245
 31
0.0
  0
ARC
  5
47
100
AcDbEntity
  8
0
 62
256
370
-1
 48
1.0
  6
BYLAYER
100
AcDbCircle
 10
3.8749999999999858
 20
-88.5566514920460293
 30
0.0
 40
2.9952367609104305
100
AcDbArc
 50
87.6081847385100758
 51
274.3591421559273158
  0
ARC
  5
48
100
AcDbEntity
  8
0
 62
256
370
-1
 48
1.0
  6
BYLAYER
100
AcDbCircle
 10
35.8499999999999943
 20
-88.5640241758097773
 30
0.0
 40
2.9914925701586421
100
AcDbArc
 50
269.6702511496985721
 51
96.6544250460065939
  0
LINE
  5
49
100
AcDbEntity
100
AcDbLine
  8
0
 62
256
370
-1
 48
1.0
  6
BYLAYER
 10
35.9130627511651284
 20
-58.7290504429153799
 30
0.0
 11
4.4130627511651266
 21
-58.7290504429153799
 31
0.0
  0
LINE
  5
4A
100
AcDbEntity
100
AcDbLine
  8
0
 62
256
370
-1
 48
1.0
  6
BYLAYER
 10
35.6630627511651426
 20
-52.7290504429154083
 30
0.0
 11
4.1630627511651088
 21
-52.729050442915387
 31
0.0
  0
ARC
  5
4B
100
AcDbEntity
  8
0
 62
256
370
-1
 48
1.0
  6
BYLAYER
100
AcDbCircle
 10
4.0380627511650982
 20
-55.7216777591551775
 30
0.0
 40
2.9952367609104305
100
AcDbArc
 50
87.6081847385100758
 51
274.3591421559273158
  0
ARC
  5
4C
100
AcDbEntity
  8
0
 62
256
370
-1
 48
1.0
  6
BYLAYER
100
AcDbCircle
 10
36.0130627511651369
 20
-55.7290504429189042
 30
0.0
 40
2.9914925701586421
100
AcDbArc
 50
269.6702511496985721
 51
96.6544250460065939
  0
CIRCLE
  5
4D
100
AcDbEntity
100
AcDbCircle
  8
0
 62
256
370
-1
 48
1.0
  6
BYLAYER
 10
115.5050948113418201
 20
-109.2427616508446278
 30
0.0
 40
1.5
  0
CIRCLE
  5
4E
100
AcDbEntity
100
AcDbCircle
  8
0
 62
256
370
-1
 48
1.0
  6
BYLAYER
 10
121.4751429989027542
 20
-110.5172020984574317
 30
0.0
 40
1.5
  0
LINE
  5
4F
100
AcDbEntity
100
AcDbLine
  8
0
 62
256
370
-1
 48
1.0
  6
BYLAYER
 10
-84.9887199953427057
 20
-115.6414519309506943
 30
0.0
 11
-40.9720779623214426
 21
-106.2854258441515327
 31
0.0
  0
LINE
  5
50
100
AcDbEntity
100
AcDbLine
  8
0
 62
256
370
-1
 48
1.0
  6
BYLAYER
 10
-92.1871537343463672
 20
-84.4616098578234045
 30
0.0
 11
-84.9887199953427057
 21
-115.6414519309506943
 31
0.0
  0
CIRCLE
  5
51
100
AcDbEntity
100
AcDbCircle
  8
0
 62
256
370
-1
 48
1.0
  6
BYLAYER
 10
-75.410193189217452
 20
-109.247632820569379
 30
0.0
 40
1.5
  0
CIRCLE
  5
52
100
AcDbEntity
100
AcDbCircle
  8
0
 62
256
370
-1
 48
1.0
  6
BYLAYER
 10
-81.3802413767784003
 20
-110.5220732681821545
 30
0.0
 40
1.5
  0
LINE
  5
53
100
AcDbEntity
100
AcDbLine
  8
0
 62
256
370
-1
 48
1.0
  6
BYLAYER
 10
101.0211838108782985
 20
-80.2569334652544342
 30
0.0
 11
115.821342588256357
 21
-85.6437507226322623
 31
0.0
  0
LINE
  5
54
100
AcDbEntity
100
AcDbLine
  8
0
 62
256
370
-1
 48
1.0
  6
BYLAYER
 10
102.164705818453541
 20
-77.4806081208104871
 30
0.0
 11
116.9648645958315996
 21
-82.8674253781899779
 31
0.0
  0
ARC
  5
55
100
AcDbEntity
  8
0
 62
256
370
-1
 48
1.0
  6
BYLAYER
100
AcDbCircle
 10
116.5118259728204748
 20
-84.2948765400641093
 30
0.0
 40
1.4976183804552152
100
AcDbArc
 50
245.6408578440727126
 51
72.3918152614899242
  0
ARC
  5
56
100
AcDbEntity
  8
0
 62
256
370
-1
 48
1.0
  6
BYLAYER
100
AcDbCircle
 10
101.4872293948269828
 20
-78.8302935269091165
 30
0.0
 40
1.4957462850793211
100
AcDbArc
 50
63.3455749539934132
 51
250.329748850301371
  0
LINE
  5
57
100
AcDbEntity
100
AcDbLine
  8
0
 62
256
370
-1
 48
1.0
  6
BYLAYER
 10
-62.075122258212474
 20
-73.4238237663849702
 30
0.0
 11
-92.1452861233615295
 21
-84.3684683528063317
 31
0.0
  0
LINE
  5
58
100
AcDbEntity
100
AcDbLine
  8
0
 62
256
370
-1
 48
1.0
  6
BYLAYER
 10
-60.8844145777690926
 20
-80.1686631299639458
 30
0.0
 11
-75.6845733551471653
 21
-85.555480387340225
 31
0.0
  0
LINE
  5
59
100
AcDbEntity
100
AcDbLine
  8
0
 62
256
370
-1
 48
1.0
  6
BYLAYER
 10
-62.0279365853443494
 20
-77.3923377855186629
 30
0.0
 11
-76.8280953627224221
 21
-82.7791550428985232
 31
0.0
  0
ARC
  5
5A
100
AcDbEntity
  8
0
 62
256
370
-1
 48
1.0
  6
BYLAYER
100
AcDbCircle
 10
-76.3750567397112832
 20
-84.2066062047721431
 30
0.0
 40
1.4976183804552152
100
AcDbArc
 50
107.6081847385099621
 51
294.3591421559273158
  0
ARC
  5
5B
100
AcDbEntity
  8
0
 62
256
370
-1
 48
1.0
  6
BYLAYER
100
AcDbCircle
 10
-61.3504601617177912
 20
-78.7420231916178892
 30
0.0
 40
1.4957462850793211
100
AcDbArc
 50
289.670251149698629
 51
116.6544250460064802
  0
CIRCLE
  5
5C
100
AcDbEntity
100
AcDbCircle
  8
0
 62
256
370
-1
 48
1.0
  6
BYLAYER
 10
76.5424123119183406
 20
-49.5471208967711334
 30
0.0
 40
1.6000000000000001
  0
CIRCLE
  5
5D
100
AcDbEntity
100
AcDbCircle
  8
0
 62
256
370
-1
 48
1.0
  6
BYLAYER
 10
54.5424123119183051
 20
-49.5471208967710766
 30
0.0
 40
1.6000000000000001
  0
CIRCLE
  5
5E
100
AcDbEntity
100
AcDbCircle
  8
0
 62
256
370
-1
 48
1.0
  6
BYLAYER
 10
-14.5308357484119242
 20
-49.5692522979840078
 30
0.0
 40
1.6000000000000001
  0
CIRCLE
  5
5F
100
AcDbEntity
100
AcDbCircle
  8
0
 62
256
370
-1
 48
1.0
  6
BYLAYER
 10
-36.5308357484119597
 20
-49.5692522979840575
 30
0.0
 40
1.6000000000000001
  0
CIRCLE
  5
60
100
AcDbEntity
100
AcDbCircle
  8
0
 62
256
370
-1
 48
1.0
  6
BYLAYER
 10
-14.5
 20
-87.564024175806253
 30
0.0
 40
1.6000000000000001
  0
CIRCLE
  5
61
100
AcDbEntity
100
AcDbCircle
  8
0
 62
256
370
-1
 48
1.0
  6
BYLAYER
 10
-36.5
 20
-87.5640241758062672
 30
0.0
 40
1.6000000000000001
  0
CIRCLE
  5
62
100
AcDbEntity
100
AcDbCircle
  8
0
 62
256
370
-1
 48
1.0
  6
BYLAYER
 10
76.5
 20
-87.564024175806253
 30
0.0
 40
1.6000000000000001
  0
CIRCLE
  5
63
100
AcDbEntity
100
AcDbCircle
  8
0
 62
256
370
-1
 48
1.0
  6
BYLAYER
 10
54.5
 20
-87.564024175806253
 30
0.0
 40
1.6000000000000001
  0
LINE
  5
64
100
AcDbEntity
100
AcDbLine
  8
0
 62
256
370
-1
 48
1.0
  6
BYLAYER
 10
-14.9999999999999716
 20
-62.5640241758061961
 30
0.0
 11
-30.0
 21
-62.5640241758062459
 31
0.0
  0
LINE
  5
65
100
AcDbEntity
100
AcDbLine
  8
0
 62
256
370
-1
 48
1.0
  6
BYLAYER
 10
70.0
 20
-62.5640241758062814
 30
0.0
 11
55.0000000000000142
 21
-62.5640241758062814
 31
0.0
  0
LINE
  5
66
100
AcDbEntity
100
AcDbLine
  8
0
 62
256
370
-1
 48
1.0
  6
BYLAYER
 10
70.0000000000000142
 20
-57.5640241758062672
 30
0.0
 11
55.0000000000000142
 21
-57.564024175806253
 31
0.0
  0
LINE
  5
67
100
AcDbEntity
100
AcDbLine
  8
0
 62
256
370
-1
 48
1.0
  6
BYLAYER
 10
-15.0
 20
-57.5640241758062388
 30
0.0
 11
-30.0000000000000071
 21
-57.5640241758062388
 31
0.0
  0
ARC
  5
68
100
AcDbEntity
  8
0
 62
256
370
-1
 48
1.0
  6
BYLAYER
100
AcDbCircle
 10
55.0000000000000142
 20
-60.0640241758062814
 30
0.0
 40
2.5
100
AcDbArc
 50
90.0
 51
270.0
  0
ARC
  5
69
100
AcDbEntity
  8
0
 62
256
370
-1
 48
1.0
  6
BYLAYER
100
AcDbCircle
 10
-29.9999999999999787
 20
-60.0640241758061961
 30
0.0
 40
2.5
100
AcDbArc
 50
90.0
 51
270.0
  0
ARC
  5
6A
100
AcDbEntity
  8
0
 62
256
370
-1
 48
1.0
  6
BYLAYER
100
AcDbCircle
 10
-15.0000000000000071
 20
-60.064024175806253
 30
0.0
 40
2.5
100
AcDbArc
 50
270.0
 51
90.0
  0
ARC
  5
6B
100
AcDbEntity
  8
0
 62
256
370
-1
 48
1.0
  6
BYLAYER
100
AcDbCircle
 10
70.0
 20
-60.0640241758062743
 30
0.0
 40
2.5
100
AcDbArc
 50
270.0
 51
90.0
  0
LINE
  5
6C
100
AcDbEntity
100
AcDbLine
  8
0
 62
256
370
-1
 48
1.0
  6
BYLAYER
 10
79.9999999999999858
 20
-102.5640241758063098
 30
0.0
 11
64.9999999999999858
 21
-102.5640241758062672
 31
0.0
  0
LINE
  5
6D
100
AcDbEntity
100
AcDbLine
  8
0
 62
256
370
-1
 48
1.0
  6
BYLAYER
 10
80.0
 20
-96.564024175806253
 30
0.0
 11
65.0
 21
-96.5640241758062814
 31
0.0
  0
LINE
  5
6E
100
AcDbEntity
100
AcDbLine
  8
0
 62
256
370
-1
 48
1.0
  6
BYLAYER
 10
-25.0000000000000071
 20
-102.5640241758062388
 30
0.0
 11
-40.0
 21
-102.564024175806253
 31
0.0
  0
LINE
  5
6F
100
AcDbEntity
100
AcDbLine
  8
0
 62
256
370
-1
 48
1.0
  6
BYLAYER
 10
-25.0
 20
-96.564024175806253
 30
0.0
 11
-40.0000000000000071
 21
-96.5640241758062245
 31
0.0
  0
ARC
  5
70
100
AcDbEntity
  8
0
 62
256
370
-1
 48
1.0
  6
BYLAYER
100
AcDbCircle
 10
64.9999999999999858
 20
-99.5640241758062672
 30
0.0
 40
3.0
100
AcDbArc
 50
90.0
 51
270.0
  0
ARC
  5
71
100
AcDbEntity
  8
0
 62
256
370
-1
 48
1.0
  6
BYLAYER
100
AcDbCircle
 10
-40.0
 20
-99.5640241758062388
 30
0.0
 40
3.0
100
AcDbArc
 50
90.0
 51
270.0
  0
ARC
  5
72
100
AcDbEntity
  8
0
 62
256
370
-1
 48
1.0
  6
BYLAYER
100
AcDbCircle
 10
79.9999999999999858
 20
-99.5640241758062814
 30
0.0
 40
3.0
100
AcDbArc
 50
270.0
 51
90.0
  0
ARC
  5
73
100
AcDbEntity
  8
0
 62
256
370
-1
 48
1.0
  6
BYLAYER
100
AcDbCircle
 10
-25.0
 20
-99.564024175806253
 30
0.0
 40
3.0
100
AcDbArc
 50
270.0
 51
90.0
  0
CIRCLE
  5
74
100
AcDbEntity
100
AcDbCircle
  8
0
 62
256
370
-1
 48
1.0
  6
BYLAYER
 10
-35.0
 20
-72.5640241758062814
 30
0.0
 40
6.0
  0
CIRCLE
  5
75
100
AcDbEntity
100
AcDbCircle
  8
0
 62
256
370
-1
 48
1.0
  6
BYLAYER
 10
75.0
 20
-72.5640241758063098
 30
0.0
 40
6.0
  0
CIRCLE
  5
76
100
AcDbEntity
100
AcDbCircle
  8
0
 62
256
370
-1
 48
1.0
  6
BYLAYER
 10
-83.557125571689113
 20
-101.1189130904784719
 30
0.0
 40
1.5
  0
CIRCLE
  5
77
100
AcDbEntity
100
AcDbCircle
  8
0
 62
256
370
-1
 48
1.0
  6
BYLAYER
 10
-55.0
 20
-96.5640241758062245
 30
0.0
 40
1.5
  0
CIRCLE
  5
78
100
AcDbEntity
100
AcDbCircle
  8
0
 62
256
370
-1
 48
1.0
  6
BYLAYER
 10
94.9999999999999858
 20
-96.5640241758062814
 30
0.0
 40
1.5
  0
CIRCLE
  5
79
100
AcDbEntity
100
AcDbCircle
  8
0
 62
256
370
-1
 48
1.0
  6
BYLAYER
 10
-51.75
 20
-81.064024175805983
 30
0.0
 40
1.5
  0
CIRCLE
  5
7A
100
AcDbEntity
100
AcDbCircle
  8
0
 62
256
370
-1
 48
1.0
  6
BYLAYER
 10
91.9133328593574106
 20
-81.150821195952048
 30
0.0
 40
1.5
  0
LINE
  5
7B
100
AcDbEntity
100
AcDbLine
  8
0
 62
256
370
-1
 48
1.0
  6
BYLAYER
 10
-40.6381443037548351
 20
-44.358548069049256
 30
0.0
 11
-40.6381443037548706
 21
-56.4585480690493284
 31
0.0
  0
LINE
  5
7C
100
AcDbEntity
100
AcDbLine
  8
0
 62
256
370
-1
 48
1.0
  6
BYLAYER
 10
-8.6381443037548244
 20
-44.3585480690492986
 30
0.0
 11
-40.6381443037548351
 21
-44.358548069049256
 31
0.0
  0
LINE
  5
7D
100
AcDbEntity
100
AcDbLine
  8
0
 62
256
370
-1
 48
1.0
  6
BYLAYER
 10
80.6381443037548706
 20
-44.3585480690492844
 30
0.0
 11
48.6381443037548777
 21
-44.3585480690492773
 31
0.0
  0
LINE
  5
7E
100
AcDbEntity
100
AcDbLine
  8
0
 62
256
370
-1
 48
1.0
  6
BYLAYER
 10
-8.6381443037548244
 20
-44.3585480690492986
 30
0.0
 11
-8.6381443037548671
 21
-48.358548069049327
 31
0.0
  0
LINE
  5
7F
100
AcDbEntity
100
AcDbLine
  8
0
 62
256
370
-1
 48
1.0
  6
BYLAYER
 10
48.6381443037548777
 20
-44.3585480690492773
 30
0.0
 11
48.6381443037548564
 21
-48.3585480690492631
 31
0.0
  0
LINE
  5
80
100
AcDbEntity
100
AcDbLine
  8
0
 62
256
370
-1
 48
1.0
  6
BYLAYER
 10
48.6381443037548564
 20
-48.3585480690492631
 30
0.0
 11
-8.5618556962451571
 21
-48.3585480690492844
 31
0.0
  0
LINE
  5
81
100
AcDbEntity
100
AcDbLine
  8
0
 62
256
370
-1
 48
1.0
  6
BYLAYER
 10
22.8517796810436664
 20
-80.519908748487552
 30
0.0
 11
20.2740882274196821
 21
-82.0081396031250591
 31
0.0
  0
ARC
  5
82
100
AcDbEntity
  8
0
 62
256
370
-1
 48
1.0
  6
BYLAYER
100
AcDbCircle
 10
22.5817796810436278
 20
-80.0522550304439733
 30
0.0
 40
0.5399999999999999
100
AcDbArc
 50
299.9999999999972147
 51
0.0
  0
LINE
  5
83
100
AcDbEntity
100
AcDbLine
  8
0
 62
256
370
-1
 48
1.0
  6
BYLAYER
 10
19.7340882274196758
 20
-82.0081396031250733
 30
0.0
 11
17.1563967737956915
 21
-80.5199087484875378
 31
0.0
  0
ARC
  5
84
100
AcDbEntity
  8
0
 62
256
370
-1
 48
1.0
  6
BYLAYER
100
AcDbCircle
 10
20.0040882274196719
 20
-81.5404858850814378
 30
0.0
 40
0.5399999999999999
100
AcDbArc
 50
240.0000000000028137
 51
299.9999999999972147
  0
LINE
  5
85
100
AcDbEntity
100
AcDbLine
  8
0
 62
256
370
-1
 48
1.0
  6
BYLAYER
 10
16.8863967737956813
 20
-80.0522550304439591
 30
0.0
 11
16.8863967737956955
 21
-77.0757933211686463
 31
0.0
  0
ARC
  5
86
100
AcDbEntity
  8
0
 62
256
370
-1
 48
1.0
  6
BYLAYER
100
AcDbCircle
 10
17.4263967737956875
 20
-80.0522550304439591
 30
0.0
 40
0.5399999999999999
100
AcDbArc
 50
180.0
 51
240.0000000000028137
  0
LINE
  5
87
100
AcDbEntity
100
AcDbLine
  8
0
 62
256
370
-1
 48
1.0
  6
BYLAYER
 10
17.1563967737956951
 20
-76.6081396031250677
 30
0.0
 11
19.7340882274196794
 21
-75.1199087484875463
 31
0.0
  0
ARC
  5
88
100
AcDbEntity
  8
0
 62
256
370
-1
 48
1.0
  6
BYLAYER
100
AcDbCircle
 10
17.4263967737956875
 20
-77.0757933211686748
 30
0.0
 40
0.5399999999999999
100
AcDbArc
 50
119.9999999999972147
 51
180.0
  0
LINE
  5
89
100
AcDbEntity
100
AcDbLine
  8
0
 62
256
370
-1
 48
1.0
  6
BYLAYER
 10
20.2740882274196856
 20
-75.1199087484875463
 30
0.0
 11
22.8517796810436806
 21
-76.6081396031250819
 31
0.0
  0
ARC
  5
8A
100
AcDbEntity
  8
0
 62
256
370
-1
 48
1.0
  6
BYLAYER
100
AcDbCircle
 10
20.0040882274196896
 20
-75.5875624665310681
 30
0.0
 40
0.5399999999999999
100
AcDbArc
 50
60.0000000000027853
 51
119.9999999999972147
  0
LINE
  5
8B
100
AcDbEntity
100
AcDbLine
  8
0
 62
256
370
-1
 48
1.0
  6
BYLAYER
 10
23.121779681043634
 20
-80.0522550304439449
 30
0.0
 11
23.1217796810436376
 21
-77.0757933211686748
 31
0.0
  0
ARC
  5
8C
100
AcDbEntity
  8
0
 62
256
370
-1
 48
1.0
  6
BYLAYER
100
AcDbCircle
 10
22.5817796810436278
 20
-77.0757933211686606
 30
0.0
 40
0.5399999999999999
100
AcDbArc
 50
0.0
 51
60.0000000000027853
  0
LINE
  5
8D
100
AcDbEntity
100
AcDbLine
  8
0
 62
256
370
-1
 48
1.0
  6
BYLAYER
 10
22.8517796810436735
 20
-68.0960827127779282
 30
0.0
 11
20.2740882274196892
 21
-69.5843135674154354
 31
0.0
  0
ARC
  5
8E
100
AcDbEntity
  8
0
 62
256
370
-1
 48
1.0
  6
BYLAYER
100
AcDbCircle
 10
22.5817796810436278
 20
-67.6284289947343353
 30
0.0
 40
0.5399999999999999
100
AcDbArc
 50
299.9999999999972147
 51
0.0
  0
LINE
  5
8F
100
AcDbEntity
100
AcDbLine
  8
0
 62
256
370
-1
 48
1.0
  6
BYLAYER
 10
19.7340882274196829
 20
-69.5843135674154354
 30
0.0
 11
17.1563967737956915
 21
-68.096082712777914
 31
0.0
  0
ARC
  5
90
100
AcDbEntity
  8
0
 62
256
370
-1
 48
1.0
  6
BYLAYER
100
AcDbCircle
 10
20.004088227419679
 20
-69.1166598493717999
 30
0.0
 40
0.5399999999999999
100
AcDbArc
 50
240.0000000000028137
 51
299.9999999999972147
  0
LINE
  5
91
100
AcDbEntity
100
AcDbLine
  8
0
 62
256
370
-1
 48
1.0
  6
BYLAYER
 10
16.8863967737956706
 20
-67.6284289947343211
 30
0.0
 11
16.8863967737957026
 21
-64.6519672854590226
 31
0.0
  0
ARC
  5
92
100
AcDbEntity
  8
0
 62
256
370
-1
 48
1.0
  6
BYLAYER
100
AcDbCircle
 10
17.4263967737956946
 20
-67.6284289947343353
 30
0.0
 40
0.5399999999999999
100
AcDbArc
 50
180.0
 51
240.0000000000028137
  0
LINE
  5
93
100
AcDbEntity
100
AcDbLine
  8
0
 62
256
370
-1
 48
1.0
  6
BYLAYER
 10
17.1563967737957164
 20
-64.1843135674154439
 30
0.0
 11
19.7340882274196865
 21
-62.6960827127779083
 31
0.0
  0
ARC
  5
94
100
AcDbEntity
  8
0
 62
256
370
-1
 48
1.0
  6
BYLAYER
100
AcDbCircle
 10
17.4263967737956875
 20
-64.6519672854590368
 30
0.0
 40
0.5399999999999999
100
AcDbArc
 50
119.9999999999972147
 51
180.0
  0
LINE
  5
95
100
AcDbEntity
100
AcDbLine
  8
0
 62
256
370
-1
 48
1.0
  6
BYLAYER
 10
20.2740882274196856
 20
-62.6960827127779083
 30
0.0
 11
22.8517796810436877
 21
-64.1843135674154439
 31
0.0
  0
ARC
  5
96
100
AcDbEntity
  8
0
 62
256
370
-1
 48
1.0
  6
BYLAYER
100
AcDbCircle
 10
20.0040882274196967
 20
-63.1637364308214302
 30
0.0
 40
0.5399999999999999
100
AcDbArc
 50
60.0000000000027853
 51
119.9999999999972147
  0
LINE
  5
97
100
AcDbEntity
100
AcDbLine
  8
0
 62
256
370
-1
 48
1.0
  6
BYLAYER
 10
23.1217796810436376
 20
-67.6284289947343353
 30
0.0
 11
23.1217796810436376
 21
-64.6519672854590368
 31
0.0
  0
ARC
  5
98
100
AcDbEntity
  8
0
 62
256
370
-1
 48
1.0
  6
BYLAYER
100
AcDbCircle
 10
22.5817796810436313
 20
-64.6519672854590368
 30
0.0
 40
0.5399999999999999
100
AcDbArc
 50
0.0
 51
60.0000000000027853
  0
LINE
  5
99
100
AcDbEntity
100
AcDbLine
  8
0
 62
256
370
-1
 48
1.0
  6
BYLAYER
 10
-27.8476914536240088
 20
-80.6081396031246129
 30
0.0
 11
-25.2700000000000244
 21
-79.1199087484875321
 31
0.0
  0
ARC
  5
9A
100
AcDbEntity
  8
0
 62
256
370
-1
 48
1.0
  6
BYLAYER
100
AcDbCircle
 10
-27.5776914536239701
 20
-81.075793321168419
 30
0.0
 40
0.5399999999999999
100
AcDbArc
 50
119.9999999999972147
 51
180.0
  0
LINE
  5
9B
100
AcDbEntity
100
AcDbLine
  8
0
 62
256
370
-1
 48
1.0
  6
BYLAYER
 10
-24.7300000000000182
 20
-79.1199087484873189
 30
0.0
 11
-22.1523085463760339
 21
-80.6081396031247834
 31
0.0
  0
ARC
  5
9C
100
AcDbEntity
  8
0
 62
256
370
-1
 48
1.0
  6
BYLAYER
100
AcDbCircle
 10
-25.0000000000000142
 20
-79.5875624665310255
 30
0.0
 40
0.5399999999999999
100
AcDbArc
 50
60.0000000000028351
 51
119.9999999999972147
  0
LINE
  5
9D
100
AcDbEntity
100
AcDbLine
  8
0
 62
256
370
-1
 48
1.0
  6
BYLAYER
 10
-21.8823085463760236
 20
-81.075793321168419
 30
0.0
 11
-21.8823085463760378
 21
-84.0522550304438738
 31
0.0
  0
ARC
  5
9E
100
AcDbEntity
  8
0
 62
256
370
-1
 48
1.0
  6
BYLAYER
100
AcDbCircle
 10
-22.4223085463760299
 20
-81.0757933211686179
 30
0.0
 40
0.5399999999999999
100
AcDbArc
 50
0.0
 51
60.0000000000028351
  0
LINE
  5
9F
100
AcDbEntity
100
AcDbLine
  8
0
 62
256
370
-1
 48
1.0
  6
BYLAYER
 10
-22.1523085463760339
 20
-84.5199087484873814
 30
0.0
 11
-24.7300000000000182
 21
-86.0081396031249881
 31
0.0
  0
ARC
  5
A0
100
AcDbEntity
  8
0
 62
256
370
-1
 48
1.0
  6
BYLAYER
100
AcDbCircle
 10
-22.4223085463760299
 20
-84.0522550304438312
 30
0.0
 40
0.5399999999999999
100
AcDbArc
 50
299.9999999999972147
 51
0.0
  0
LINE
  5
A1
100
AcDbEntity
100
AcDbLine
  8
0
 62
256
370
-1
 48
1.0
  6
BYLAYER
 10
-25.2700000000000244
 20
-86.0081396031249739
 30
0.0
 11
-27.847691453624023
 21
-84.5199087484874383
 31
0.0
  0
ARC
  5
A2
100
AcDbEntity
  8
0
 62
256
370
-1
 48
1.0
  6
BYLAYER
100
AcDbCircle
 10
-25.0000000000000284
 20
-85.540485885081381
 30
0.0
 40
0.5399999999999999
100
AcDbArc
 50
240.0000000000027853
 51
299.9999999999972147
  0
LINE
  5
A3
100
AcDbEntity
100
AcDbLine
  8
0
 62
256
370
-1
 48
1.0
  6
BYLAYER
 10
-28.1176914536239764
 20
-81.07579332116849
 30
0.0
 11
-28.1176914536239764
 21
-84.0522550304437459
 31
0.0
  0
ARC
  5
A4
100
AcDbEntity
  8
0
 62
256
370
-1
 48
1.0
  6
BYLAYER
100
AcDbCircle
 10
-27.5776914536239701
 20
-84.0522550304438454
 30
0.0
 40
0.5399999999999999
100
AcDbArc
 50
180.0
 51
240.0000000000027853
  0
LINE
  5
A5
100
AcDbEntity
100
AcDbLine
  8
0
 62
256
370
-1
 48
1.0
  6
BYLAYER
 10
62.1523085463759912
 20
-80.6081396031248119
 30
0.0
 11
64.7299999999999756
 21
-79.1199087484873047
 31
0.0
  0
ARC
  5
A6
100
AcDbEntity
  8
0
 62
256
370
-1
 48
1.0
  6
BYLAYER
100
AcDbCircle
 10
62.4223085463760299
 20
-81.0757933211686179
 30
0.0
 40
0.5399999999999999
100
AcDbArc
 50
119.9999999999972147
 51
180.0
  0
LINE
  5
A7
100
AcDbEntity
100
AcDbLine
  8
0
 62
256
370
-1
 48
1.0
  6
BYLAYER
 10
65.2699999999999818
 20
-79.1199087484873189
 30
0.0
 11
67.8476914536239661
 21
-80.6081396031246271
 31
0.0
  0
ARC
  5
A8
100
AcDbEntity
  8
0
 62
256
370
-1
 48
1.0
  6
BYLAYER
100
AcDbCircle
 10
64.9999999999999858
 20
-79.5875624665310539
 30
0.0
 40
0.5399999999999999
100
AcDbArc
 50
60.0000000000028351
 51
119.9999999999972147
  0
LINE
  5
A9
100
AcDbEntity
100
AcDbLine
  8
0
 62
256
370
-1
 48
1.0
  6
BYLAYER
 10
68.1176914536239764
 20
-81.0757933211685327
 30
0.0
 11
68.1176914536239622
 21
-84.0522550304437601
 31
0.0
  0
ARC
  5
AA
100
AcDbEntity
  8
0
 62
256
370
-1
 48
1.0
  6
BYLAYER
100
AcDbCircle
 10
67.5776914536239701
 20
-81.0757933211684616
 30
0.0
 40
0.5399999999999999
100
AcDbArc
 50
0.0
 51
60.0000000000028351
  0
LINE
  5
AB
100
AcDbEntity
100
AcDbLine
  8
0
 62
256
370
-1
 48
1.0
  6
BYLAYER
 10
67.8476914536239661
 20
-84.5199087484874525
 30
0.0
 11
65.2699999999999818
 21
-86.0081396031249596
 31
0.0
  0
ARC
  5
AC
100
AcDbEntity
  8
0
 62
256
370
-1
 48
1.0
  6
BYLAYER
100
AcDbCircle
 10
67.5776914536239701
 20
-84.0522550304438312
 30
0.0
 40
0.5399999999999999
100
AcDbArc
 50
299.9999999999972147
 51
0.0
  0
LINE
  5
AD
100
AcDbEntity
100
AcDbLine
  8
0
 62
256
370
-1
 48
1.0
  6
BYLAYER
 10
64.7299999999999613
 20
-86.0081396031250023
 30
0.0
 11
62.1523085463759699
 21
-84.5199087484874099
 31
0.0
  0
ARC
  5
AE
100
AcDbEntity
  8
0
 62
256
370
-1
 48
1.0
  6
BYLAYER
100
AcDbCircle
 10
64.9999999999999716
 20
-85.5404858850813952
 30
0.0
 40
0.5399999999999999
100
AcDbArc
 50
240.0000000000027853
 51
299.9999999999972147
  0
LINE
  5
AF
100
AcDbEntity
100
AcDbLine
  8
0
 62
256
370
-1
 48
1.0
  6
BYLAYER
 10
61.8823085463760236
 20
-81.075793321168419
 30
0.0
 11
61.8823085463760236
 21
-84.0522550304437743
 31
0.0
  0
ARC
  5
B0
100
AcDbEntity
  8
0
 62
256
370
-1
 48
1.0
  6
BYLAYER
100
AcDbCircle
 10
62.4223085463760299
 20
-84.052255030443817
 30
0.0
 40
0.5399999999999999
100
AcDbArc
 50
180.0
 51
240.0000000000027853
  0
CIRCLE
  5
B1
100
AcDbEntity
100
AcDbCircle
  8
0
 62
256
370
-1
 48
1.0
  6
BYLAYER
 10
123.6520271938134528
 20
-101.1140419207536496
 30
0.0
 40
1.5
  0
LINE
  5
B2
100
AcDbEntity
100
AcDbLine
  8
0
 62
256
370
-1
 48
1.0
  6
BYLAYER
 10
320.6381443037550412
 20
95.6414519309505238
 30
0.0
 11
320.6381443037550412
 21
83.541451930950501
 31
0.0
  0
LINE
  5
B3
100
AcDbEntity
100
AcDbLine
  8
0
 62
256
370
-1
 48
1.0
  6
BYLAYER
 10
321.0669795844459031
 20
33.7194453255730622
 30
0.0
 11
298.56697958444596
 21
33.7194453255730195
 31
0.0
  0
LINE
  5
B4
100
AcDbEntity
100
AcDbLine
  8
0
 62
256
370
-1
 48
1.0
  6
BYLAYER
 10
221.4330204155542106
 20
33.7194453255732611
 30
0.0
 11
198.9330204155542106
 21
33.7194453255731688
 31
0.0
  0
LINE
  5
B5
100
AcDbEntity
100
AcDbLine
  8
0
 62
256
370
-1
 48
1.0
  6
BYLAYER
 10
221.4330204155542106
 20
33.7194453255732611
 30
0.0
 11
228.5040882274197998
 21
40.7905131374385306
 31
0.0
  0
LINE
  5
B6
100
AcDbEntity
100
AcDbLine
  8
0
 62
256
370
-1
 48
1.0
  6
BYLAYER
 10
291.4959117725803708
 20
40.7905131374385519
 30
0.0
 11
298.56697958444596
 21
33.7194453255730195
 31
0.0
  0
LINE
  5
B7
100
AcDbEntity
100
AcDbLine
  8
0
 62
256
370
-1
 48
1.0
  6
BYLAYER
 10
291.5040882274197429
 20
40.7905131374385519
 30
0.0
 11
228.5040882274197998
 21
40.7905131374385306
 31
0.0
  0
CIRCLE
  5
B8
100
AcDbEntity
100
AcDbCircle
  8
0
 62
256
370
-1
 48
1.0
  6
BYLAYER
 10
225.0000000000001137
 20
67.4359758241936476
 30
0.0
 40
6.0
  0
CIRCLE
  5
B9
100
AcDbEntity
100
AcDbCircle
  8
0
 62
256
370
-1
 48
1.0
  6
BYLAYER
 10
295.0000000000000568
 20
67.4359758241935339
 30
0.0
 40
6.0
  0
LINE
  5
BA
100
AcDbEntity
100
AcDbLine
  8
0
 62
256
370
-1
 48
1.0
  6
BYLAYER
 10
198.9330204155542106
 20
33.7194453255731688
 30
0.0
 11
154.9163783825329119
 21
24.3634192387742203
 31
0.0
  0
LINE
  5
BB
100
AcDbEntity
100
AcDbLine
  8
0
 62
256
370
-1
 48
1.0
  6
BYLAYER
 10
365.0836216174670312
 20
24.3634192387737372
 30
0.0
 11
321.0669795844459031
 21
33.7194453255730622
 31
0.0
  0
LINE
  5
BC
100
AcDbEntity
100
AcDbLine
  8
0
 62
256
370
-1
 48
1.0
  6
BYLAYER
 10
372.2820553564707211
 20
55.5432613119016594
 30
0.0
 11
365.0836216174670312
 21
24.3634192387737372
 31
0.0
  0
LINE
  5
BD
100
AcDbEntity
100
AcDbLine
  8
0
 62
256
370
-1
 48
1.0
  6
BYLAYER
 10
154.9163783825329119
 20
24.3634192387742203
 30
0.0
 11
147.7179446435293357
 21
55.5432613119022491
 31
0.0
  0
LINE
  5
BE
100
AcDbEntity
100
AcDbLine
  8
0
 62
256
370
-1
 48
1.0
  6
BYLAYER
 10
147.7179446435293357
 20
55.5432613119022491
 30
0.0
 11
177.7881085086784196
 21
66.4879058983233904
 31
0.0
  0
LINE
  5
BF
100
AcDbEntity
100
AcDbLine
  8
0
 62
256
370
-1
 48
1.0
  6
BYLAYER
 10
342.2118914913218077
 20
66.4879058983230635
 30
0.0
 11
372.2820553564707211
 21
55.5432613119016594
 31
0.0
  0
LINE
  5
C0
100
AcDbEntity
100
AcDbLine
  8
0
 62
256
370
-1
 48
1.0
  6
BYLAYER
 10
342.2118914913218077
 20
66.4879058983230635
 30
0.0
 11
320.6381443037550412
 21
83.541451930950501
 31
0.0
  0
LINE
  5
C1
100
AcDbEntity
100
AcDbLine
  8
0
 62
256
370
-1
 48
1.0
  6
BYLAYER
 10
177.7881085086784196
 20
66.4879058983233904
 30
0.0
 11
199.3618556962452431
 21
83.5414519309506289
 31
0.0
  0
LINE
  5
C2
100
AcDbEntity
100
AcDbLine
  8
0
 62
256
370
-1
 48
1.0
  6
BYLAYER
 10
275.9426627511651873
 20
81.1414519309505806
 30
0.0
 11
244.4426627511652441
 21
81.1414519309506943
 31
0.0
  0
LINE
  5
C3
100
AcDbEntity
100
AcDbLine
  8
0
 62
256
370
-1
 48
1.0
  6
BYLAYER
 10
275.6926627511652441
 20
87.1414519309505664
 30
0.0
 11
244.1926627511651589
 21
87.1414519309506801
 31
0.0
  0
ARC
  5
C4
100
AcDbEntity
  8
0
 62
256
370
-1
 48
1.0
  6
BYLAYER
100
AcDbCircle
 10
244.0676627511652441
 20
84.1488246147108754
 30
0.0
 40
2.9952367609104305
100
AcDbArc
 50
87.6081847385100758
 51
274.3591421559273158
  0
ARC
  5
C5
100
AcDbEntity
  8
0
 62
256
370
-1
 48
1.0
  6
BYLAYER
100
AcDbCircle
 10
276.0426627511651532
 20
84.1414519309471132
 30
0.0
 40
2.9914925701586421
100
AcDbArc
 50
269.6702511496985721
 51
96.6544250460065939
  0
CIRCLE
  5
C6
100
AcDbEntity
100
AcDbCircle
  8
0
 62
256
370
-1
 48
1.0
  6
BYLAYER
 10
355.5050948113419054
 20
30.7572383491551449
 30
0.0
 40
1.5
  0
CIRCLE
  5
C7
100
AcDbEntity
100
AcDbCircle
  8
0
 62
256
370
-1
 48
1.0
  6
BYLAYER
 10
361.4751429989028111
 20
29.4827979015422592
 30
0.0
 40
1.5
  0
LINE
  5
C8
100
AcDbEntity
100
AcDbLine
  8
0
 62
256
370
-1
 48
1.0
  6
BYLAYER
 10
155.011280004657408
 20
24.3585480690492915
 30
0.0
 11
199.0279220376786498
 21
33.7145741558484104
 31
0.0
  0
LINE
  5
C9
100
AcDbEntity
100
AcDbLine
  8
0
 62
256
370
-1
 48
1.0
  6
BYLAYER
 10
147.8128462656537181
 20
55.5383901421765955
 30
0.0
 11
155.011280004657408
 21
24.3585480690492915
 31
0.0
  0
CIRCLE
  5
CA
100
AcDbEntity
100
AcDbCircle
  8
0
 62
256
370
-1
 48
1.0
  6
BYLAYER
 10
164.5898068107826475
 20
30.752367179430653
 30
0.0
 40
1.5
  0
CIRCLE
  5
CB
100
AcDbEntity
100
AcDbCircle
  8
0
 62
256
370
-1
 48
1.0
  6
BYLAYER
 10
158.6197586232216281
 20
29.4779267318179947
 30
0.0
 40
1.5
  0
LINE
  5
CC
100
AcDbEntity
100
AcDbLine
  8
0
 62
256
370
-1
 48
1.0
  6
BYLAYER
 10
341.0211838108784264
 20
59.7430665347455658
 30
0.0
 11
355.8213425882564707
 21
54.3562492773675601
 31
0.0
  0
LINE
  5
CD
100
AcDbEntity
100
AcDbLine
  8
0
 62
256
370
-1
 48
1.0
  6
BYLAYER
 10
342.1647058184536263
 20
62.5193918791895129
 30
0.0
 11
356.9648645958316706
 21
57.132574621810015
 31
0.0
  0
ARC
  5
CE
100
AcDbEntity
  8
0
 62
256
370
-1
 48
1.0
  6
BYLAYER
100
AcDbCircle
 10
356.5118259728205885
 20
55.705123459935713
 30
0.0
 40
1.4976183804552152
100
AcDbArc
 50
245.6408578440727126
 51
72.3918152614899242
  0
ARC
  5
CF
100
AcDbEntity
  8
0
 62
256
370
-1
 48
1.0
  6
BYLAYER
100
AcDbCircle
 10
341.4872293948271249
 20
61.1697064730908835
 30
0.0
 40
1.4957462850793211
100
AcDbArc
 50
63.3455749539934132
 51
250.329748850301371
  0
LINE
  5
D0
100
AcDbEntity
100
AcDbLine
  8
0
 62
256
370
-1
 48
1.0
  6
BYLAYER
 10
177.9248777417875544
 20
66.576176233616053
 30
0.0
 11
147.8547138766385842
 21
55.6315316471933698
 31
0.0
  0
LINE
  5
D1
100
AcDbEntity
100
AcDbLine
  8
0
 62
256
370
-1
 48
1.0
  6
BYLAYER
 10
179.1155854222309927
 20
59.8313368700360542
 30
0.0
 11
164.3154266448529484
 21
54.4445196126597892
 31
0.0
  0
LINE
  5
D2
100
AcDbEntity
100
AcDbLine
  8
0
 62
256
370
-1
 48
1.0
  6
BYLAYER
 10
177.9720634146558496
 20
62.60766221448133
 30
0.0
 11
163.1719046372776347
 21
57.2208449571011286
 31
0.0
  0
ARC
  5
D3
100
AcDbEntity
  8
0
 62
256
370
-1
 48
1.0
  6
BYLAYER
100
AcDbCircle
 10
163.6249432602887737
 20
55.793393795227864
 30
0.0
 40
1.4976183804552152
100
AcDbArc
 50
107.6081847385099621
 51
294.3591421559273158
  0
ARC
  5
D4
100
AcDbEntity
  8
0
 62
256
370
-1
 48
1.0
  6
BYLAYER
100
AcDbCircle
 10
178.649539838282351
 20
61.2579768083821037
 30
0.0
 40
1.4957462850793211
100
AcDbArc
 50
289.670251149698629
 51
116.6544250460064802
  0
CIRCLE
  5
D5
100
AcDbEntity
100
AcDbCircle
  8
0
 62
256
370
-1
 48
1.0
  6
BYLAYER
 10
316.5424123119184969
 20
90.4528791032286961
 30
0.0
 40
1.6000000000000001
  0
CIRCLE
  5
D6
100
AcDbEntity
100
AcDbCircle
  8
0
 62
256
370
-1
 48
1.0
  6
BYLAYER
 10
294.5424123119184969
 20
90.4528791032287529
 30
0.0
 40
1.6000000000000001
  0
CIRCLE
  5
D7
100
AcDbEntity
100
AcDbCircle
  8
0
 62
256
370
-1
 48
1.0
  6
BYLAYER
 10
225.4691642515882108
 20
90.4307477020157791
 30
0.0
 40
1.6000000000000001
  0
CIRCLE
  5
D8
100
AcDbEntity
100
AcDbCircle
  8
0
 62
256
370
-1
 48
1.0
  6
BYLAYER
 10
203.469164251588154
 20
90.4307477020158785
 30
0.0
 40
1.6000000000000001
  0
CIRCLE
  5
D9
100
AcDbEntity
100
AcDbCircle
  8
0
 62
256
370
-1
 48
1.0
  6
BYLAYER
 10
225.5000000000001137
 20
52.4359758241937755
 30
0.0
 40
1.6000000000000001
  0
CIRCLE
  5
DA
100
AcDbEntity
100
AcDbCircle
  8
0
 62
256
370
-1
 48
1.0
  6
BYLAYER
 10
203.5000000000001137
 20
52.4359758241931857
 30
0.0
 40
1.6000000000000001
  0
CIRCLE
  5
DB
100
AcDbEntity
100
AcDbCircle
  8
0
 62
256
370
-1
 48
1.0
  6
BYLAYER
 10
316.5000000000001137
 20
52.4359758241935694
 30
0.0
 40
1.6000000000000001
  0
CIRCLE
  5
DC
100
AcDbEntity
100
AcDbCircle
  8
0
 62
256
370
-1
 48
1.0
  6
BYLAYER
 10
294.5000000000001137
 20
52.4359758241935552
 30
0.0
 40
1.6000000000000001
  0
LINE
  5
DD
100
AcDbEntity
100
AcDbLine
  8
0
 62
256
370
-1
 48
1.0
  6
BYLAYER
 10
225.0000000000001137
 20
77.4359758241937755
 30
0.0
 11
210.0000000000001705
 21
77.4359758241936902
 31
0.0
  0
LINE
  5
DE
100
AcDbEntity
100
AcDbLine
  8
0
 62
256
370
-1
 48
1.0
  6
BYLAYER
 10
310.0000000000001137
 20
77.4359758241935623
 30
0.0
 11
295.0000000000001705
 21
77.4359758241934912
 31
0.0
  0
LINE
  5
DF
100
AcDbEntity
100
AcDbLine
  8
0
 62
256
370
-1
 48
1.0
  6
BYLAYER
 10
310.0000000000001705
 20
82.435975824193477
 30
0.0
 11
295.0000000000001137
 21
82.4359758241935481
 31
0.0
  0
LINE
  5
E0
100
AcDbEntity
100
AcDbLine
  8
0
 62
256
370
-1
 48
1.0
  6
BYLAYER
 10
225.0000000000001137
 20
82.4359758241936902
 30
0.0
 11
210.0000000000001137
 21
82.4359758241937186
 31
0.0
  0
ARC
  5
E1
100
AcDbEntity
  8
0
 62
256
370
-1
 48
1.0
  6
BYLAYER
100
AcDbCircle
 10
295.0000000000001705
 20
79.9359758241934912
 30
0.0
 40
2.5
100
AcDbArc
 50
90.0
 51
270.0
  0
ARC
  5
E2
100
AcDbEntity
  8
0
 62
256
370
-1
 48
1.0
  6
BYLAYER
100
AcDbCircle
 10
210.0000000000001137
 20
79.9359758241937612
 30
0.0
 40
2.5
100
AcDbArc
 50
90.0
 51
270.0
  0
ARC
  5
E3
100
AcDbEntity
  8
0
 62
256
370
-1
 48
1.0
  6
BYLAYER
100
AcDbCircle
 10
225.0000000000001137
 20
79.935975824193676
 30
0.0
 40
2.5
100
AcDbArc
 50
270.0
 51
90.0
  0
ARC
  5
E4
100
AcDbEntity
  8
0
 62
256
370
-1
 48
1.0
  6
BYLAYER
100
AcDbCircle
 10
310.0000000000001137
 20
79.9359758241935197
 30
0.0
 40
2.5
100
AcDbArc
 50
270.0
 51
90.0
  0
LINE
  5
E5
100
AcDbEntity
100
AcDbLine
  8
0
 62
256
370
-1
 48
1.0
  6
BYLAYER
 10
320.0000000000001137
 20
37.4359758241935339
 30
0.0
 11
305.0
 21
37.4359758241935765
 31
0.0
  0
LINE
  5
E6
100
AcDbEntity
100
AcDbLine
  8
0
 62
256
370
-1
 48
1.0
  6
BYLAYER
 10
320.0000000000001137
 20
43.4359758241936049
 30
0.0
 11
305.0000000000001137
 21
43.4359758241935907
 31
0.0
  0
LINE
  5
E7
100
AcDbEntity
100
AcDbLine
  8
0
 62
256
370
-1
 48
1.0
  6
BYLAYER
 10
215.0000000000001137
 20
37.4359758241936973
 30
0.0
 11
200.0000000000000568
 21
37.4359758241937897
 31
0.0
  0
LINE
  5
E8
100
AcDbEntity
100
AcDbLine
  8
0
 62
256
370
-1
 48
1.0
  6
BYLAYER
 10
215.0
 20
43.4359758241937897
 30
0.0
 11
200.0000000000000568
 21
43.4359758241937044
 31
0.0
  0
ARC
  5
E9
100
AcDbEntity
  8
0
 62
256
370
-1
 48
1.0
  6
BYLAYER
100
AcDbCircle
 10
305.0000000000001137
 20
40.4359758241935836
 30
0.0
 40
3.0
100
AcDbArc
 50
90.0
 51
270.0
  0
ARC
  5
EA
100
AcDbEntity
  8
0
 62
256
370
-1
 48
1.0
  6
BYLAYER
100
AcDbCircle
 10
200.0
 20
40.4359758241939176
 30
0.0
 40
3.0
100
AcDbArc
 50
90.0
 51
270.0
  0
ARC
  5
EB
100
AcDbEntity
  8
0
 62
256
370
-1
 48
1.0
  6
BYLAYER
100
AcDbCircle
 10
320.0000000000001137
 20
40.4359758241935054
 30
0.0
 40
3.0
100
AcDbArc
 50
270.0
 51
90.0
  0
ARC
  5
EC
100
AcDbEntity
  8
0
 62
256
370
-1
 48
1.0
  6
BYLAYER
100
AcDbCircle
 10
215.0000000000000568
 20
40.4359758241938181
 30
0.0
 40
3.0
100
AcDbArc
 50
270.0
 51
90.0
  0
CIRCLE
  5
ED
100
AcDbEntity
100
AcDbCircle
  8
0
 62
256
370
-1
 48
1.0
  6
BYLAYER
 10
205.0000000000001137
 20
67.4359758241936049
 30
0.0
 40
6.0
  0
CIRCLE
  5
EE
100
AcDbEntity
100
AcDbCircle
  8
0
 62
256
370
-1
 48
1.0
  6
BYLAYER
 10
315.0000000000001137
 20
67.4359758241935054
 30
0.0
 40
6.0
  0
CIRCLE
  5
EF
100
AcDbEntity
100
AcDbCircle
  8
0
 62
256
370
-1
 48
1.0
  6
BYLAYER
 10
156.4428744283109154
 20
38.8810869095216276
 30
0.0
 40
1.5
  0
CIRCLE
  5
F0
100
AcDbEntity
100
AcDbCircle
  8
0
 62
256
370
-1
 48
1.0
  6
BYLAYER
 10
363.6520271938135238
 20
38.8859580792459525
 30
0.0
 40
1.5
  0
CIRCLE
  5
F1
100
AcDbEntity
100
AcDbCircle
  8
0
 62
256
370
-1
 48
1.0
  6
BYLAYER
 10
185.0
 20
43.4359758241937755
 30
0.0
 40
1.5
  0
CIRCLE
  5
F2
100
AcDbEntity
100
AcDbCircle
  8
0
 62
256
370
-1
 48
1.0
  6
BYLAYER
 10
335.0000000000001137
 20
43.4359758241935481
 30
0.0
 40
1.5
  0
CIRCLE
  5
F3
100
AcDbEntity
100
AcDbCircle
  8
0
 62
256
370
-1
 48
1.0
  6
BYLAYER
 10
188.25
 20
58.9359758241940099
 30
0.0
 40
1.5
  0
CIRCLE
  5
F4
100
AcDbEntity
100
AcDbCircle
  8
0
 62
256
370
-1
 48
1.0
  6
BYLAYER
 10
331.9133328593575243
 20
58.849178804047952
 30
0.0
 40
1.5
  0
LINE
  5
F5
100
AcDbEntity
100
AcDbLine
  8
0
 62
256
370
-1
 48
1.0
  6
BYLAYER
 10
199.3618556962452999
 20
95.6414519309506659
 30
0.0
 11
199.3618556962452431
 21
83.5414519309506289
 31
0.0
  0
LINE
  5
F6
100
AcDbEntity
100
AcDbLine
  8
0
 62
256
370
-1
 48
1.0
  6
BYLAYER
 10
231.3618556962453283
 20
95.6414519309506517
 30
0.0
 11
199.3618556962452999
 21
95.6414519309506659
 31
0.0
  0
LINE
  5
F7
100
AcDbEntity
100
AcDbLine
  8
0
 62
256
370
-1
 48
1.0
  6
BYLAYER
 10
320.6381443037550412
 20
95.6414519309505238
 30
0.0
 11
288.6381443037549843
 21
95.641451930950609
 31
0.0
  0
LINE
  5
F8
100
AcDbEntity
100
AcDbLine
  8
0
 62
256
370
-1
 48
1.0
  6
BYLAYER
 10
231.3618556962453283
 20
95.6414519309506517
 30
0.0
 11
231.3618556962453852
 21
91.6414519309506233
 31
0.0
  0
LINE
  5
F9
100
AcDbEntity
100
AcDbLine
  8
0
 62
256
370
-1
 48
1.0
  6
BYLAYER
 10
288.6381443037549843
 20
95.641451930950609
 30
0.0
 11
288.6381443037550412
 21
91.6414519309505664
 31
0.0
  0
LINE
  5
FA
100
AcDbEntity
100
AcDbLine
  8
0
 62
256
370
-1
 48
1.0
  6
BYLAYER
 10
288.6381443037550412
 20
91.6414519309505664
 30
0.0
 11
231.4381443037549957
 21
91.6414519309506659
 31
0.0
  0
CIRCLE
  5
FB
100
AcDbEntity
100
AcDbCircle
  8
0
 62
256
370
-1
 48
1.0
  6
BYLAYER
 10
280.9936871955501942
 20
57.8564836580897435
 30
0.0
 40
1.55
  0
CIRCLE
  5
FC
100
AcDbEntity
100
AcDbCircle
  8
0
 62
256
370
-1
 48
1.0
  6
BYLAYER
 10
238.9936871955497395
 20
57.8564836580898856
 30
0.0
 40
1.55
  0
LINE
  5
FD
100
AcDbEntity
100
AcDbLine
  8
0
 62
256
370
-1
 48
1.0
  6
BYLAYER
 10
249.993687195549569
 20
43.7564836580891665
 30
0.0
 11
249.993687195549569
 21
45.7564836580891097
 31
0.0
  0
LINE
  5
FE
100
AcDbEntity
100
AcDbLine
  8
0
 62
256
370
-1
 48
1.0
  6
BYLAYER
 10
269.9936871955496258
 20
43.7564836580891097
 30
0.0
 11
269.993687195549569
 21
45.7564836580891097
 31
0.0
  0
LINE
  5
FF
100
AcDbEntity
100
AcDbLine
  8
0
 62
256
370
-1
 48
1.0
  6
BYLAYER
 10
263.993687195549569
 20
43.7564836580891097
 30
0.0
 11
269.9936871955496258
 21
43.7564836580890528
 31
0.0
  0
LINE
  5
100
100
AcDbEntity
100
AcDbLine
  8
0
 62
256
370
-1
 48
1.0
  6
BYLAYER
 10
249.993687195549569
 20
43.7564836580891665
 30
0.0
 11
255.993687195549569
 21
43.7564836580891097
 31
0.0
  0
LINE
  5
101
100
AcDbEntity
100
AcDbLine
  8
0
 62
256
370
-1
 48
1.0
  6
BYLAYER
 10
263.993687195549569
 20
43.7564836580891097
 30
0.0
 11
263.993687195549569
 21
45.7564836580891097
 31
0.0
  0
LINE
  5
102
100
AcDbEntity
100
AcDbLine
  8
0
 62
256
370
-1
 48
1.0
  6
BYLAYER
 10
255.993687195549569
 20
43.7564836580891097
 30
0.0
 11
255.9936871955496827
 21
45.7564836580890812
 31
0.0
  0
LINE
  5
103
100
AcDbEntity
100
AcDbLine
  8
0
 62
256
370
-1
 48
1.0
  6
BYLAYER
 10
249.993687195549569
 20
45.7564836580891097
 30
0.0
 11
255.9936871955496827
 21
45.7564836580890812
 31
0.0
  0
LINE
  5
104
100
AcDbEntity
100
AcDbLine
  8
0
 62
256
370
-1
 48
1.0
  6
BYLAYER
 10
263.993687195549569
 20
45.7564836580891097
 30
0.0
 11
269.993687195549569
 21
45.7564836580891097
 31
0.0
  0
LINE
  5
105
100
AcDbEntity
100
AcDbLine
  8
0
 62
256
370
-1
 48
1.0
  6
BYLAYER
 10
252.3179446435293585
 20
60.1432613119020587
 30
0.0
 11
267.3179446435293016
 21
60.1432613119021013
 31
0.0
  0
LINE
  5
106
100
AcDbEntity
100
AcDbLine
  8
0
 62
256
370
-1
 48
1.0
  6
BYLAYER
 10
252.3179446435293585
 20
54.1432613119021084
 30
0.0
 11
267.3179446435293585
 21
54.1432613119021653
 31
0.0
  0
ARC
  5
107
100
AcDbEntity
  8
0
 62
256
370
-1
 48
1.0
  6
BYLAYER
100
AcDbCircle
 10
267.3179446435293585
 20
57.1432613119020516
 30
0.0
 40
3.0
100
AcDbArc
 50
270.0
 51
90.0
  0
ARC
  5
108
100
AcDbEntity
  8
0
 62
256
370
-1
 48
1.0
  6
BYLAYER
100
AcDbCircle
 10
252.3179446435293585
 20
57.1432613119020516
 30
0.0
 40
3.0
100
AcDbArc
 50
90.0
 51
270.0
  0
LINE
  5
109
100
AcDbEntity
100
AcDbLine
  8
0
 62
256
370
-1
 48
1.0
  6
BYLAYER
 10
252.4936871955496827
 20
72.1564836580890869
 30
0.0
 11
267.4936871955496827
 21
72.1564836580890869
 31
0.0
  0
LINE
  5
10A
100
AcDbEntity
100
AcDbLine
  8
0
 62
256
370
-1
 48
1.0
  6
BYLAYER
 10
252.4936871955496258
 20
66.1564836580892006
 30
0.0
 11
267.493687195549569
 21
66.1564836580892575
 31
0.0
  0
ARC
  5
10B
100
AcDbEntity
  8
0
 62
256
370
-1
 48
1.0
  6
BYLAYER
100
AcDbCircle
 10
267.493687195549569
 20
69.1564836580891438
 30
0.0
 40
3.0
100
AcDbArc
 50
270.0
 51
90.0
  0
ARC
  5
10C
100
AcDbEntity
  8
0
 62
256
370
-1
 48
1.0
  6
BYLAYER
100
AcDbCircle
 10
252.493687195549569
 20
69.1564836580891438
 30
0.0
 40
3.0
100
AcDbArc
 50
90.0
 51
270.0
  0
LINE
  5
10D
100
AcDbEntity
100
AcDbLine
  8
0
 62
256
370
-1
 48
1.0
  6
BYLAYER
 10
280.2936871955498646
 20
44.8564836580902409
 30
0.0
 11
281.99368719554991
 21
44.856483658090248
 31
0.0
  0
LINE
  5
10E
100
AcDbEntity
100
AcDbLine
  8
0
 62
256
370
-1
 48
1.0
  6
BYLAYER
 10
280.2936871955498646
 20
44.8564836580902409
 30
0.0
 11
280.2936871955499214
 21
52.856483658090248
 31
0.0
  0
LINE
  5
10F
100
AcDbEntity
100
AcDbLine
  8
0
 62
256
370
-1
 48
1.0
  6
BYLAYER
 10
280.2936871955499214
 20
52.856483658090248
 30
0.0
 11
281.99368719554991
 21
52.8564836580902409
 31
0.0
  0
LINE
  5
110
100
AcDbEntity
100
AcDbLine
  8
0
 62
256
370
-1
 48
1.0
  6
BYLAYER
 10
237.9936871657474171
 20
62.8564836580894095
 30
0.0
 11
239.6936871657474626
 21
62.8564836580894166
 31
0.0
  0
LINE
  5
111
100
AcDbEntity
100
AcDbLine
  8
0
 62
256
370
-1
 48
1.0
  6
BYLAYER
 10
239.6936871657474626
 20
62.8564836580894166
 30
0.0
 11
239.6936871657474626
 21
70.8564836580894308
 31
0.0
  0
LINE
  5
112
100
AcDbEntity
100
AcDbLine
  8
0
 62
256
370
-1
 48
1.0
  6
BYLAYER
 10
237.9936871657474171
 20
62.8564836580894095
 30
0.0
 11
237.993687165747474
 21
70.8564836580894308
 31
0.0
  0
LINE
  5
113
100
AcDbEntity
100
AcDbLine
  8
0
 62
256
370
-1
 48
1.0
  6
BYLAYER
 10
237.993687165747474
 20
70.8564836580894308
 30
0.0
 11
239.6936871657474626
 21
70.8564836580894308
 31
0.0
  0
LINE
  5
114
100
AcDbEntity
100
AcDbLine
  8
0
 62
256
370
-1
 48
1.0
  6
BYLAYER
 10
237.993686957130933
 20
44.8564836580904114
 30
0.0
 11
239.6936869571309785
 21
44.8564836580904114
 31
0.0
  0
LINE
  5
115
100
AcDbEntity
100
AcDbLine
  8
0
 62
256
370
-1
 48
1.0
  6
BYLAYER
 10
239.6936869571309785
 20
44.8564836580904114
 30
0.0
 11
239.6936869571309785
 21
52.8564836580904114
 31
0.0
  0
LINE
  5
116
100
AcDbEntity
100
AcDbLine
  8
0
 62
256
370
-1
 48
1.0
  6
BYLAYER
 10
237.993686957130933
 20
44.8564836580904114
 30
0.0
 11
237.9936869571309899
 21
52.8564836580904185
 31
0.0
  0
LINE
  5
117
100
AcDbEntity
100
AcDbLine
  8
0
 62
256
370
-1
 48
1.0
  6
BYLAYER
 10
237.9936869571309899
 20
52.8564836580904185
 30
0.0
 11
239.6936869571309785
 21
52.8564836580904114
 31
0.0
  0
LINE
  5
118
100
AcDbEntity
100
AcDbLine
  8
0
 62
256
370
-1
 48
1.0
  6
BYLAYER
 10
280.2936876714548475
 20
62.8564836580893527
 30
0.0
 11
281.993687671454893
 21
62.8564836580893385
 31
0.0
  0
LINE
  5
119
100
AcDbEntity
100
AcDbLine
  8
0
 62
256
370
-1
 48
1.0
  6
BYLAYER
 10
281.993687671454893
 20
62.8564836580893385
 30
0.0
 11
281.993687671454893
 21
70.8564836580893598
 31
0.0
  0
LINE
  5
11A
100
AcDbEntity
100
AcDbLine
  8
0
 62
256
370
-1
 48
1.0
  6
BYLAYER
 10
280.2936876714548475
 20
62.8564836580893527
 30
0.0
 11
280.2936876714549044
 21
70.8564836580893598
 31
0.0
  0
LINE
  5
11B
100
AcDbEntity
100
AcDbLine
  8
0
 62
256
370
-1
 48
1.0
  6
BYLAYER
 10
280.2936876714549044
 20
70.8564836580893598
 30
0.0
 11
281.993687671454893
 21
70.8564836580893598
 31
0.0
  0
LINE
  5
11C
100
AcDbEntity
100
AcDbLine
  8
0
 62
256
370
-1
 48
1.0
  6
BYLAYER
 10
281.99368719554991
 20
44.856483658090248
 30
0.0
 11
281.99368719554991
 21
52.8564836580902409
 31
0.0
  0
ARC
  5
11D
100
AcDbEntity
  8
0
 62
256
370
-1
 48
1.0
  6
BYLAYER
100
AcDbCircle
 10
228.2093326758273975
 20
-7.3705963867100515
 30
0.0
 40
1.0
100
AcDbArc
 50
315.0000000000090949
 51
135.0000000000091234
  0
ARC
  5
11E
100
AcDbEntity
  8
0
 62
256
370
-1
 48
1.0
  6
BYLAYER
100
AcDbCircle
 10
226.6183424181577948
 20
-8.9615866443801444
 30
0.0
 40
1.0
100
AcDbArc
 50
135.0000000000091234
 51
315.0000000000090949
  0
LINE
  5
11F
100
AcDbEntity
100
AcDbLine
  8
0
 62
256
370
-1
 48
1.0
  6
BYLAYER
 10
228.9164394570136096
 20
-8.0777031678966047
 30
0.0
 11
227.325449199344007
 21
-9.6686934255662784
 31
0.0
  0
LINE
  5
120
100
AcDbEntity
100
AcDbLine
  8
0
 62
256
370
-1
 48
1.0
  6
BYLAYER
 10
227.5022258946406737
 20
-6.6634896055233739
 30
0.0
 11
225.911235636971071
 21
-8.2544798631933425
 31
0.0
  0
ARC
  5
121
100
AcDbEntity
  8
0
 62
256
370
-1
 48
1.0
  6
BYLAYER
100
AcDbCircle
 10
253.6651767985428023
 20
18.0852477360054351
 30
0.0
 40
1.0
100
AcDbArc
 50
135.0000000000091234
 51
315.0000000000090949
  0
ARC
  5
122
100
AcDbEntity
  8
0
 62
256
370
-1
 48
1.0
  6
BYLAYER
100
AcDbCircle
 10
255.256167056212405
 20
19.676237993675386
 30
0.0
 40
1.0
100
AcDbArc
 50
315.0000000000090949
 51
135.0000000000091234
  0
LINE
  5
123
100
AcDbEntity
100
AcDbLine
  8
0
 62
256
370
-1
 48
1.0
  6
BYLAYER
 10
254.3722835797294692
 20
17.3781409548192087
 30
0.0
 11
255.9632738373990151
 21
18.9691312124886267
 31
0.0
  0
LINE
  5
124
100
AcDbEntity
100
AcDbLine
  8
0
 62
256
370
-1
 48
1.0
  6
BYLAYER
 10
252.9580700173561922
 20
18.7923545171921376
 30
0.0
 11
254.5490602750257381
 21
20.3833447748620422
 31
0.0
  0
ARC
  5
125
100
AcDbEntity
  8
0
 62
256
370
-1
 48
1.0
  6
BYLAYER
100
AcDbCircle
 10
228.2093326758273975
 20
18.0852477360058792
 30
0.0
 40
1.0
100
AcDbArc
 50
225.0000000000277396
 51
45.0000000000277396
  0
ARC
  5
126
100
AcDbEntity
  8
0
 62
256
370
-1
 48
1.0
  6
BYLAYER
100
AcDbCircle
 10
226.6183424181573116
 20
19.6762379936754499
 30
0.0
 40
1.0
100
AcDbArc
 50
45.0000000000277396
 51
225.0000000000277396
  0
LINE
  5
127
100
AcDbEntity
100
AcDbLine
  8
0
 62
256
370
-1
 48
1.0
  6
BYLAYER
 10
227.5022258946406737
 20
17.3781409548190666
 30
0.0
 11
225.911235636971071
 21
18.9691312124888505
 31
0.0
  0
LINE
  5
128
100
AcDbEntity
100
AcDbLine
  8
0
 62
256
370
-1
 48
1.0
  6
BYLAYER
 10
228.9164394570140075
 20
18.7923545171925852
 30
0.0
 11
227.3254491993440922
 21
20.3833447748619179
 31
0.0
  0
ARC
  5
129
100
AcDbEntity
  8
0
 62
256
370
-1
 48
1.0
  6
BYLAYER
100
AcDbCircle
 10
253.6651767985428023
 20
-7.3705963867101083
 30
0.0
 40
1.0
100
AcDbArc
 50
45.0000000000277396
 51
225.0000000000277396
  0
ARC
  5
12A
100
AcDbEntity
  8
0
 62
256
370
-1
 48
1.0
  6
BYLAYER
100
AcDbCircle
 10
255.2561670562123481
 20
-8.9615866443796968
 30
0.0
 40
1.0
100
AcDbArc
 50
225.0000000000277396
 51
45.0000000000277396
  0
LINE
  5
12B
100
AcDbEntity
100
AcDbLine
  8
0
 62
256
370
-1
 48
1.0
  6
BYLAYER
 10
252.9580700173561922
 20
-8.0777031678962636
 30
0.0
 11
254.5490602750260791
 21
-9.6686934255663068
 31
0.0
  0
LINE
  5
12C
100
AcDbEntity
100
AcDbLine
  8
0
 62
256
370
-1
 48
1.0
  6
BYLAYER
 10
254.3722835797294124
 20
-6.6634896055233419
 30
0.0
 11
255.9632738373990151
 21
-8.2544798631929801
 31
0.0
  0
LWPOLYLINE
  5
12D
  8
0
 62
256
370
-1
 48
1.0
  6
BYLAYER
100
AcDbEntity
100
AcDbPolyline
 90
12
 70
1
 10
243.6872547371854694
 20
-7.6737632385978181
 30
0.0
 10
250.8475087750300077
 20
-3.5397886423821099
 30
0.0
 42
0.2679491924311264
 10
253.5975087750300077
 20
1.2233510784321879
 30
0.0
 10
253.5975087750300077
 20
9.4913002708634338
 30
0.0
 42
0.2679491924311259
 10
250.8475087750300077
 20
14.2544399916777369
 30
0.0
 10
243.6872547371854694
 20
18.3884145878933332
 30
0.0
 42
0.2679491924311232
 10
238.1872547371855831
 20
18.3884145878932337
 30
0.0
 10
231.0270006993411016
 20
14.2544399916778275
 30
0.0
 42
0.2679491924311264
 10
228.2770006993411016
 20
9.4913002708634266
 30
0.0
 10
228.2770006993411016
 20
1.2233510784322448
 30
0.0
 42
0.2679491924311259
 10
231.0270006993411016
 20
-3.5397886423822555
 30
0.0
 10
238.1872547371855831
 20
-7.6737632385977754
 30
0.0
 42
0.2679491924311232
  0
LINE
  5
12E
100
AcDbEntity
100
AcDbLine
  8
0
 62
256
370
-1
 48
1.0
  6
BYLAYER
 10
260.9372547371850715
 20
23.3573256746475586
 30
0.0
 11
220.9372547371850715
 21
23.3573256746533851
 31
0.0
  0
LINE
  5
12F
100
AcDbEntity
100
AcDbLine
  8
0
 62
256
370
-1
 48
1.0
  6
BYLAYER
 10
260.9372547371850715
 20
-12.6426743253521501
 30
0.0
 11
250.9372547371850146
 21
-12.6426743253520577
 31
0.0
  0
LINE
  5
130
100
AcDbEntity
100
AcDbLine
  8
0
 62
256
370
-1
 48
1.0
  6
BYLAYER
 10
230.9372547371850146
 20
-12.6426743253520364
 30
0.0
 11
220.9372547371850715
 21
-12.642674325352079
 31
0.0
  0
LINE
  5
131
100
AcDbEntity
100
AcDbLine
  8
0
 62
256
370
-1
 48
1.0
  6
BYLAYER
 10
250.9372547371850146
 20
-12.6426743253520577
 30
0.0
 11
250.9372547371850715
 21
-14.6426743253521074
 31
0.0
  0
LINE
  5
132
100
AcDbEntity
100
AcDbLine
  8
0
 62
256
370
-1
 48
1.0
  6
BYLAYER
 10
230.9372547371850146
 20
-12.6426743253520364
 30
0.0
 11
230.9372547371850715
 21
-14.6426743253521217
 31
0.0
  0
LINE
  5
133
100
AcDbEntity
100
AcDbLine
  8
0
 62
256
370
-1
 48
1.0
  6
BYLAYER
 10
236.9372547371850715
 20
-14.6426743253520648
 30
0.0
 11
230.9372547371850715
 21
-14.6426743253521217
 31
0.0
  0
LINE
  5
134
100
AcDbEntity
100
AcDbLine
  8
0
 62
256
370
-1
 48
1.0
  6
BYLAYER
 10
250.9372547371850715
 20
-14.6426743253521074
 30
0.0
 11
244.9372547371850146
 21
-14.6426743253520506
 31
0.0
  0
LINE
  5
135
100
AcDbEntity
100
AcDbLine
  8
0
 62
256
370
-1
 48
1.0
  6
BYLAYER
 10
236.9372547371850715
 20
-12.6426743253520506
 30
0.0
 11
236.9372547371850715
 21
-14.6426743253520648
 31
0.0
  0
LINE
  5
136
100
AcDbEntity
100
AcDbLine
  8
0
 62
256
370
-1
 48
1.0
  6
BYLAYER
 10
244.9372547371850715
 20
-12.642674325352079
 30
0.0
 11
244.9372547371850146
 21
-14.6426743253520506
 31
0.0
  0
LINE
  5
137
100
AcDbEntity
100
AcDbLine
  8
0
 62
256
370
-1
 48
1.0
  6
BYLAYER
 10
244.9372547371850715
 20
-12.642674325352079
 30
0.0
 11
236.9372547371850715
 21
-12.6426743253520506
 31
0.0
  0
LINE
  5
138
100
AcDbEntity
100
AcDbLine
  8
0
 62
256
370
-1
 48
1.0
  6
BYLAYER
 10
220.9372547371850146
 20
10.3573256746477842
 30
0.0
 11
218.9372547371850146
 21
10.3573256746477718
 31
0.0
  0
LINE
  5
139
100
AcDbEntity
100
AcDbLine
  8
0
 62
256
370
-1
 48
1.0
  6
BYLAYER
 10
220.9372547371850146
 20
18.3573256746477185
 30
0.0
 11
218.9372547371850146
 21
18.3573256746477185
 31
0.0
  0
LINE
  5
13A
100
AcDbEntity
100
AcDbLine
  8
0
 62
256
370
-1
 48
1.0
  6
BYLAYER
 10
220.9372547371850146
 20
0.3573256746476332
 30
0.0
 11
218.9372547371850146
 21
0.3573256746476439
 31
0.0
  0
LINE
  5
13B
100
AcDbEntity
100
AcDbLine
  8
0
 62
256
370
-1
 48
1.0
  6
BYLAYER
 10
220.9372547371850715
 20
-7.6426743253525977
 30
0.0
 11
218.9372547371850715
 21
-7.6426743253525764
 31
0.0
  0
LINE
  5
13C
100
AcDbEntity
100
AcDbLine
  8
0
 62
256
370
-1
 48
1.0
  6
BYLAYER
 10
218.9372547371850146
 20
0.3573256746476439
 30
0.0
 11
218.9372547371850146
 21
-7.6426743253523561
 31
0.0
  0
LINE
  5
13D
100
AcDbEntity
100
AcDbLine
  8
0
 62
256
370
-1
 48
1.0
  6
BYLAYER
 10
218.9372547371850146
 20
18.3573256746477185
 30
0.0
 11
218.9372547371850146
 21
10.3573256746476865
 31
0.0
  0
LINE
  5
13E
100
AcDbEntity
100
AcDbLine
  8
0
 62
256
370
-1
 48
1.0
  6
BYLAYER
 10
220.9372547371850715
 20
23.3573256746533851
 30
0.0
 11
220.9372547371850715
 21
18.3573256746534028
 31
0.0
  0
LINE
  5
13F
100
AcDbEntity
100
AcDbLine
  8
0
 62
256
370
-1
 48
1.0
  6
BYLAYER
 10
220.9372547371850715
 20
-7.6426743253525977
 30
0.0
 11
220.9372547371850715
 21
-12.6426743253525906
 31
0.0
  0
LINE
  5
140
100
AcDbEntity
100
AcDbLine
  8
0
 62
256
370
-1
 48
1.0
  6
BYLAYER
 10
220.9372547371850146
 20
10.3573256746477842
 30
0.0
 11
220.9372547371850146
 21
0.3573256746477504
 31
0.0
  0
LINE
  5
141
100
AcDbEntity
100
AcDbLine
  8
0
 62
256
370
-1
 48
1.0
  6
BYLAYER
 10
260.9372547371851283
 20
0.3573256746534739
 30
0.0
 11
262.9372547371851283
 21
0.3573256746534845
 31
0.0
  0
LINE
  5
142
100
AcDbEntity
100
AcDbLine
  8
0
 62
256
370
-1
 48
1.0
  6
BYLAYER
 10
260.9372547371851283
 20
-7.6426743253464799
 30
0.0
 11
262.9372547371851283
 21
-7.6426743253464515
 31
0.0
  0
LINE
  5
143
100
AcDbEntity
100
AcDbLine
  8
0
 62
256
370
-1
 48
1.0
  6
BYLAYER
 10
260.9372547371851283
 20
10.3573256746536035
 30
0.0
 11
262.9372547371851283
 21
10.3573256746536018
 31
0.0
  0
LINE
  5
144
100
AcDbEntity
100
AcDbLine
  8
0
 62
256
370
-1
 48
1.0
  6
BYLAYER
 10
260.9372547371850715
 20
18.357325674653822
 30
0.0
 11
262.9372547371850715
 21
18.357325674653822
 31
0.0
  0
LINE
  5
145
100
AcDbEntity
100
AcDbLine
  8
0
 62
256
370
-1
 48
1.0
  6
BYLAYER
 10
262.9372547371851283
 20
10.3573256746536018
 30
0.0
 11
262.9372547371851283
 21
18.3573256746535947
 31
0.0
  0
LINE
  5
146
100
AcDbEntity
100
AcDbLine
  8
0
 62
256
370
-1
 48
1.0
  6
BYLAYER
 10
262.9372547371851283
 20
-7.6426743253464515
 30
0.0
 11
262.9372547371851283
 21
0.3573256746535272
 31
0.0
  0
LINE
  5
147
100
AcDbEntity
100
AcDbLine
  8
0
 62
256
370
-1
 48
1.0
  6
BYLAYER
 10
260.9372547371850715
 20
-12.6426743253521501
 30
0.0
 11
260.9372547371850715
 21
-7.6426743253521501
 31
0.0
  0
LINE
  5
148
100
AcDbEntity
100
AcDbLine
  8
0
 62
256
370
-1
 48
1.0
  6
BYLAYER
 10
260.9372547371850715
 20
18.357325674653822
 30
0.0
 11
260.9372547371850715
 21
23.3573256746538398
 31
0.0
  0
LINE
  5
149
100
AcDbEntity
100
AcDbLine
  8
0
 62
256
370
-1
 48
1.0
  6
BYLAYER
 10
260.9372547371851283
 20
0.3573256746534739
 30
0.0
 11
260.9372547371851283
 21
10.3573256746534774
 31
0.0
  0
LINE
  5
14A
100
AcDbEntity
100
AcDbLine
  8
0
 62
256
370
-1
 48
1.0
  6
BYLAYER
 10
310.7642277887998716
 20
23.7211663683793219
 30
0.0
 11
274.7642277888026001
 21
23.7211663683793361
 31
0.0
  0
LINE
  5
14B
100
AcDbEntity
100
AcDbLine
  8
0
 62
256
370
-1
 48
1.0
  6
BYLAYER
 10
310.7642277887998716
 20
23.7211663683793219
 30
0.0
 11
310.7642277887999285
 21
13.721166368383102
 31
0.0
  0
LINE
  5
14C
100
AcDbEntity
100
AcDbLine
  8
0
 62
256
370
-1
 48
1.0
  6
BYLAYER
 10
274.764227788802657
 20
-12.2788336316167594
 30
0.0
 11
284.7642277888024864
 21
-12.2788336316167523
 31
0.0
  0
LINE
  5
14D
100
AcDbEntity
100
AcDbLine
  8
0
 62
256
370
-1
 48
1.0
  6
BYLAYER
 10
284.7642277888024864
 20
-12.2788336316167523
 30
0.0
 11
310.7642277887999285
 21
13.721166368383102
 31
0.0
  0
LWPOLYLINE
  5
14E
  8
0
 62
256
370
-1
 48
1.0
  6
BYLAYER
100
AcDbEntity
100
AcDbPolyline
 90
2
 70
0
 10
293.7480682512908743
 20
12.8041086411706875
 30
0.0
 10
293.7480682512908743
 20
12.8041086411706875
 30
0.0
  0
LWPOLYLINE
  5
14F
  8
0
 62
256
370
-1
 48
1.0
  6
BYLAYER
100
AcDbEntity
100
AcDbPolyline
 90
2
 70
0
 10
292.2480682512897943
 20
14.3041086411706999
 30
0.0
 10
280.2480682512907038
 20
14.3041086411706573
 30
0.0
  0
LWPOLYLINE
  5
150
  8
0
 62
256
370
-1
 48
1.0
  6
BYLAYER
100
AcDbEntity
100
AcDbPolyline
 90
2
 70
0
 10
280.2480682512907038
 20
14.3041086411706573
 30
0.0
 42
0.4142135623730951
 10
278.7480682512907038
 20
12.8041086411705987
 30
0.0
  0
LWPOLYLINE
  5
151
  8
0
 62
256
370
-1
 48
1.0
  6
BYLAYER
100
AcDbEntity
100
AcDbPolyline
 90
2
 70
0
 10
278.7480682512907038
 20
12.8041086411705987
 30
0.0
 10
278.7480682512907038
 20
12.8041086411705987
 30
0.0
  0
LWPOLYLINE
  5
152
  8
0
 62
256
370
-1
 48
1.0
  6
BYLAYER
100
AcDbEntity
100
AcDbPolyline
 90
2
 70
0
 10
278.7480682512907038
 20
12.8041086411705987
 30
0.0
 42
0.4142135623730951
 10
280.2480682512907038
 20
11.3041086411708527
 30
0.0
  0
LWPOLYLINE
  5
153
  8
0
 62
256
370
-1
 48
1.0
  6
BYLAYER
100
AcDbEntity
100
AcDbPolyline
 90
2
 70
0
 10
280.2480682512907038
 20
11.3041086411708527
 30
0.0
 10
292.2480682512912153
 20
11.3041086411706857
 30
0.0
  0
LWPOLYLINE
  5
154
  8
0
 62
256
370
-1
 48
1.0
  6
BYLAYER
100
AcDbEntity
100
AcDbPolyline
 90
2
 70
0
 10
292.2480682512912153
 20
11.3041086411706857
 30
0.0
 42
0.4142135623730951
 10
293.7480682512908743
 20
12.8041086411706875
 30
0.0
  0
LWPOLYLINE
  5
155
  8
0
 62
256
370
-1
 48
1.0
  6
BYLAYER
100
AcDbEntity
100
AcDbPolyline
 90
2
 70
0
 10
293.7480682512908743
 20
12.8041086411706875
 30
0.0
 42
0.4142135623730951
 10
292.2480682512897943
 20
14.3041086411706999
 30
0.0
  0
LINE
  5
156
100
AcDbEntity
100
AcDbLine
  8
0
 62
256
370
-1
 48
1.0
  6
BYLAYER
 10
306.2483764209776496
 20
17.702452545373319
 30
0.0
 11
306.2483764209776496
 21
19.4024525453732011
 31
0.0
  0
LINE
  5
157
100
AcDbEntity
100
AcDbLine
  8
0
 62
256
370
-1
 48
1.0
  6
BYLAYER
 10
306.2483764209776496
 20
19.4024525453732011
 30
0.0
 11
298.2483764209776496
 21
19.4024525453732295
 31
0.0
  0
LINE
  5
158
100
AcDbEntity
100
AcDbLine
  8
0
 62
256
370
-1
 48
1.0
  6
BYLAYER
 10
306.2483764209776496
 20
17.702452545373319
 30
0.0
 11
298.2483764209776496
 21
17.7024525453732267
 31
0.0
  0
LINE
  5
159
100
AcDbEntity
100
AcDbLine
  8
0
 62
256
370
-1
 48
1.0
  6
BYLAYER
 10
298.2483764209776496
 20
17.7024525453732267
 30
0.0
 11
298.2483764209776496
 21
19.4024525453732295
 31
0.0
  0
LINE
  5
15A
100
AcDbEntity
100
AcDbLine
  8
0
 62
256
370
-1
 48
1.0
  6
BYLAYER
 10
287.2483764209776496
 20
17.7024525453732409
 30
0.0
 11
287.2483764209776496
 21
19.4024525453732508
 31
0.0
  0
LINE
  5
15B
100
AcDbEntity
100
AcDbLine
  8
0
 62
256
370
-1
 48
1.0
  6
BYLAYER
 10
287.2483764209776496
 20
19.4024525453732508
 30
0.0
 11
279.2483764209776496
 21
19.4024525453732792
 31
0.0
  0
LINE
  5
15C
100
AcDbEntity
100
AcDbLine
  8
0
 62
256
370
-1
 48
1.0
  6
BYLAYER
 10
287.2483764209776496
 20
17.7024525453732409
 30
0.0
 11
279.2483764209776496
 21
17.7024525453732835
 31
0.0
  0
LINE
  5
15D
100
AcDbEntity
100
AcDbLine
  8
0
 62
256
370
-1
 48
1.0
  6
BYLAYER
 10
279.2483764209776496
 20
17.7024525453732835
 30
0.0
 11
279.2483764209776496
 21
19.4024525453732792
 31
0.0
  0
LINE
  5
15E
100
AcDbEntity
100
AcDbLine
  8
0
 62
256
370
-1
 48
1.0
  6
BYLAYER
 10
274.764227788802657
 20
18.7211663683832121
 30
0.0
 11
272.764227788802657
 21
18.7211663683832441
 31
0.0
  0
LINE
  5
15F
100
AcDbEntity
100
AcDbLine
  8
0
 62
256
370
-1
 48
1.0
  6
BYLAYER
 10
274.764227788802657
 20
10.7211663683832246
 30
0.0
 11
272.764227788802657
 21
10.7211663683832175
 31
0.0
  0
LINE
  5
160
100
AcDbEntity
100
AcDbLine
  8
0
 62
256
370
-1
 48
1.0
  6
BYLAYER
 10
274.764227788802657
 20
0.7211663683832406
 30
0.0
 11
272.764227788802657
 21
0.7211663683832228
 31
0.0
  0
LINE
  5
161
100
AcDbEntity
100
AcDbLine
  8
0
 62
256
370
-1
 48
1.0
  6
BYLAYER
 10
274.764227788802657
 20
-7.2788336316167737
 30
0.0
 11
272.764227788802657
 21
-7.2788336316167737
 31
0.0
  0
LINE
  5
162
100
AcDbEntity
100
AcDbLine
  8
0
 62
256
370
-1
 48
1.0
  6
BYLAYER
 10
272.764227788802657
 20
18.7211663683832441
 30
0.0
 11
272.764227788802657
 21
10.7211663683832175
 31
0.0
  0
LINE
  5
163
100
AcDbEntity
100
AcDbLine
  8
0
 62
256
370
-1
 48
1.0
  6
BYLAYER
 10
272.764227788802657
 20
0.7211663683832228
 30
0.0
 11
272.764227788802657
 21
-7.2788336316167737
 31
0.0
  0
LINE
  5
164
100
AcDbEntity
100
AcDbLine
  8
0
 62
256
370
-1
 48
1.0
  6
BYLAYER
 10
274.764227788802657
 20
-12.2788336316167594
 30
0.0
 11
274.764227788802657
 21
-7.2788336316167737
 31
0.0
  0
LINE
  5
165
100
AcDbEntity
100
AcDbLine
  8
0
 62
256
370
-1
 48
1.0
  6
BYLAYER
 10
274.764227788802657
 20
0.7211663683832406
 30
0.0
 11
274.764227788802657
 21
10.7211663683832246
 31
0.0
  0
LINE
  5
166
100
AcDbEntity
100
AcDbLine
  8
0
 62
256
370
-1
 48
1.0
  6
BYLAYER
 10
274.764227788802657
 20
18.7211663683832121
 30
0.0
 11
274.7642277888026001
 21
23.7211663683793361
 31
0.0
  0
LINE
  5
167
100
AcDbEntity
100
AcDbLine
  8
0
 62
256
370
-1
 48
1.0
  6
BYLAYER
 10
284.0957597049147694
 20
-6.1517759315106275
 30
0.0
 11
281.5180682512907993
 21
-7.6400067861481311
 31
0.0
  0
ARC
  5
168
100
AcDbEntity
  8
0
 62
256
370
-1
 48
1.0
  6
BYLAYER
100
AcDbCircle
 10
283.8257597049147307
 20
-5.6841222134670382
 30
0.0
 40
0.5399999999999999
100
AcDbArc
 50
299.9999999999972147
 51
0.0
  0
LINE
  5
169
100
AcDbEntity
100
AcDbLine
  8
0
 62
256
370
-1
 48
1.0
  6
BYLAYER
 10
280.9780682512907788
 20
-7.640006786148124
 30
0.0
 11
278.4003767976668087
 21
-6.1517759315106026
 31
0.0
  0
ARC
  5
16A
100
AcDbEntity
  8
0
 62
256
370
-1
 48
1.0
  6
BYLAYER
100
AcDbCircle
 10
281.2480682512907606
 20
-7.1723530681045027
 30
0.0
 40
0.5399999999999999
100
AcDbArc
 50
240.0000000000028137
 51
299.9999999999972147
  0
LINE
  5
16B
100
AcDbEntity
100
AcDbLine
  8
0
 62
256
370
-1
 48
1.0
  6
BYLAYER
 10
278.13037679766677
 20
-5.6841222134670275
 30
0.0
 11
278.13037679766677
 21
-2.7076605041916757
 31
0.0
  0
ARC
  5
16C
100
AcDbEntity
  8
0
 62
256
370
-1
 48
1.0
  6
BYLAYER
100
AcDbCircle
 10
278.6703767976667905
 20
-5.6841222134670488
 30
0.0
 40
0.5399999999999999
100
AcDbArc
 50
180.0
 51
240.0000000000028137
  0
LINE
  5
16D
100
AcDbEntity
100
AcDbLine
  8
0
 62
256
370
-1
 48
1.0
  6
BYLAYER
 10
278.4003767976668087
 20
-2.2400067861481254
 30
0.0
 11
280.9780682512907788
 21
-0.7517759315106254
 31
0.0
  0
ARC
  5
16E
100
AcDbEntity
  8
0
 62
256
370
-1
 48
1.0
  6
BYLAYER
100
AcDbCircle
 10
278.6703767976667905
 20
-2.7076605041917539
 30
0.0
 40
0.5399999999999999
100
AcDbArc
 50
119.9999999999972147
 51
180.0
  0
LINE
  5
16F
100
AcDbEntity
100
AcDbLine
  8
0
 62
256
370
-1
 48
1.0
  6
BYLAYER
 10
281.5180682512907993
 20
-0.7517759315105685
 30
0.0
 11
284.0957597049147694
 21
-2.2400067861481467
 31
0.0
  0
ARC
  5
170
100
AcDbEntity
  8
0
 62
256
370
-1
 48
1.0
  6
BYLAYER
100
AcDbCircle
 10
281.2480682512908174
 20
-1.2194296495541401
 30
0.0
 40
0.5399999999999999
100
AcDbArc
 50
60.0000000000027853
 51
119.9999999999972147
  0
LINE
  5
171
100
AcDbEntity
100
AcDbLine
  8
0
 62
256
370
-1
 48
1.0
  6
BYLAYER
 10
284.3657597049147512
 20
-5.6841222134670382
 30
0.0
 11
284.3657597049147512
 21
-2.7076605041917361
 31
0.0
  0
ARC
  5
172
100
AcDbEntity
  8
0
 62
256
370
-1
 48
1.0
  6
BYLAYER
100
AcDbCircle
 10
283.8257597049147307
 20
-2.7076605041917041
 30
0.0
 40
0.5399999999999999
100
AcDbArc
 50
0.0
 51
60.0000000000027853
  0
LINE
  5
173
100
AcDbEntity
100
AcDbLine
  8
0
 62
256
370
-1
 48
1.0
  6
BYLAYER
 10
293.0957597049148262
 20
-0.1517759315105316
 30
0.0
 11
290.5180682512907993
 21
-1.6400067861480352
 31
0.0
  0
ARC
  5
174
100
AcDbEntity
  8
0
 62
256
370
-1
 48
1.0
  6
BYLAYER
100
AcDbCircle
 10
292.8257597049147876
 20
0.3158777865329583
 30
0.0
 40
0.5399999999999999
100
AcDbArc
 50
299.9999999999972147
 51
0.0
  0
LINE
  5
175
100
AcDbEntity
100
AcDbLine
  8
0
 62
256
370
-1
 48
1.0
  6
BYLAYER
 10
289.9780682512908356
 20
-1.6400067861479961
 30
0.0
 11
287.4003767976668655
 21
-0.1517759315105351
 31
0.0
  0
ARC
  5
176
100
AcDbEntity
  8
0
 62
256
370
-1
 48
1.0
  6
BYLAYER
100
AcDbCircle
 10
290.2480682512908174
 20
-1.1723530681044565
 30
0.0
 40
0.5399999999999999
100
AcDbArc
 50
240.0000000000028137
 51
299.9999999999972147
  0
LINE
  5
177
100
AcDbEntity
100
AcDbLine
  8
0
 62
256
370
-1
 48
1.0
  6
BYLAYER
 10
287.1303767976668837
 20
0.3158777865329938
 30
0.0
 11
287.1303767976668837
 21
3.2923394958082426
 31
0.0
  0
ARC
  5
178
100
AcDbEntity
  8
0
 62
256
370
-1
 48
1.0
  6
BYLAYER
100
AcDbCircle
 10
287.6703767976668473
 20
0.3158777865330862
 30
0.0
 40
0.5399999999999999
100
AcDbArc
 50
180.0
 51
240.0000000000028137
  0
LINE
  5
179
100
AcDbEntity
100
AcDbLine
  8
0
 62
256
370
-1
 48
1.0
  6
BYLAYER
 10
287.4003767976668655
 20
3.7599932138519279
 30
0.0
 11
289.9780682512908356
 21
5.2482240684890513
 31
0.0
  0
ARC
  5
17A
100
AcDbEntity
  8
0
 62
256
370
-1
 48
1.0
  6
BYLAYER
100
AcDbCircle
 10
287.6703767976668473
 20
3.2923394958083385
 30
0.0
 40
0.5399999999999999
100
AcDbArc
 50
119.9999999999972147
 51
180.0
  0
LINE
  5
17B
100
AcDbEntity
100
AcDbLine
  8
0
 62
256
370
-1
 48
1.0
  6
BYLAYER
 10
290.5180682512908561
 20
5.2482240684891366
 30
0.0
 11
293.0957597049148262
 21
3.7599932138520558
 31
0.0
  0
ARC
  5
17C
100
AcDbEntity
  8
0
 62
256
370
-1
 48
1.0
  6
BYLAYER
100
AcDbCircle
 10
290.2480682512908174
 20
4.7805703504466877
 30
0.0
 40
0.5399999999999999
100
AcDbArc
 50
60.0000000000027853
 51
119.9999999999972147
  0
LINE
  5
17D
100
AcDbEntity
100
AcDbLine
  8
0
 62
256
370
-1
 48
1.0
  6
BYLAYER
 10
293.3657597049147512
 20
0.3158777865330364
 30
0.0
 11
293.365759704914808
 21
3.2923394958084735
 31
0.0
  0
ARC
  5
17E
100
AcDbEntity
  8
0
 62
256
370
-1
 48
1.0
  6
BYLAYER
100
AcDbCircle
 10
292.8257597049147876
 20
3.2923394958082639
 30
0.0
 40
0.5399999999999999
100
AcDbArc
 50
0.0
 51
60.0000000000027853
  0
LINE
  5
17F
100
AcDbEntity
100
AcDbLine
  8
0
 62
256
370
-1
 48
1.0
  6
BYLAYER
 10
284.6119192424266657
 20
2.7652817957020588
 30
0.0
 11
282.0342277888026388
 21
1.2770509410644415
 31
0.0
  0
ARC
  5
180
100
AcDbEntity
  8
0
 62
256
370
-1
 48
1.0
  6
BYLAYER
100
AcDbCircle
 10
284.3419192424266271
 20
3.2329355137454208
 30
0.0
 40
0.5399999999999999
100
AcDbArc
 50
299.9999999999972147
 51
0.0
  0
LINE
  5
181
100
AcDbEntity
100
AcDbLine
  8
0
 62
256
370
-1
 48
1.0
  6
BYLAYER
 10
281.4942277888026751
 20
1.2770509410644522
 30
0.0
 11
278.916536335178705
 21
2.7652817957019558
 31
0.0
  0
ARC
  5
182
100
AcDbEntity
  8
0
 62
256
370
-1
 48
1.0
  6
BYLAYER
100
AcDbCircle
 10
281.764227788802657
 20
1.744704659108006
 30
0.0
 40
0.5399999999999999
100
AcDbArc
 50
240.0000000000028137
 51
299.9999999999972147
  0
LINE
  5
183
100
AcDbEntity
100
AcDbLine
  8
0
 62
256
370
-1
 48
1.0
  6
BYLAYER
 10
278.6465363351786664
 20
3.2329355137454598
 30
0.0
 11
278.6465363351786664
 21
6.2093972230207619
 31
0.0
  0
ARC
  5
184
100
AcDbEntity
  8
0
 62
256
370
-1
 48
1.0
  6
BYLAYER
100
AcDbCircle
 10
279.1865363351786868
 20
3.2329355137455487
 30
0.0
 40
0.5399999999999999
100
AcDbArc
 50
180.0
 51
240.0000000000028137
  0
LINE
  5
185
100
AcDbEntity
100
AcDbLine
  8
0
 62
256
370
-1
 48
1.0
  6
BYLAYER
 10
278.916536335178705
 20
6.6770509410643442
 30
0.0
 11
281.4942277888026751
 21
8.1652817957018833
 31
0.0
  0
ARC
  5
186
100
AcDbEntity
  8
0
 62
256
370
-1
 48
1.0
  6
BYLAYER
100
AcDbCircle
 10
279.1865363351786868
 20
6.2093972230206909
 30
0.0
 40
0.5399999999999999
100
AcDbArc
 50
119.9999999999972147
 51
180.0
  0
LINE
  5
187
100
AcDbEntity
100
AcDbLine
  8
0
 62
256
370
-1
 48
1.0
  6
BYLAYER
 10
282.0342277888026956
 20
8.165281795701933
 30
0.0
 11
284.6119192424266657
 21
6.6770509410644436
 31
0.0
  0
ARC
  5
188
100
AcDbEntity
  8
0
 62
256
370
-1
 48
1.0
  6
BYLAYER
100
AcDbCircle
 10
281.764227788802657
 20
7.6976280776584289
 30
0.0
 40
0.5399999999999999
100
AcDbArc
 50
60.0000000000027853
 51
119.9999999999972147
  0
LINE
  5
189
100
AcDbEntity
100
AcDbLine
  8
0
 62
256
370
-1
 48
1.0
  6
BYLAYER
 10
284.8819192424265907
 20
3.2329355137453639
 30
0.0
 11
284.8819192424266475
 21
6.2093972230207122
 31
0.0
  0
ARC
  5
18A
100
AcDbEntity
  8
0
 62
256
370
-1
 48
1.0
  6
BYLAYER
100
AcDbCircle
 10
284.3419192424266271
 20
6.2093972230209005
 30
0.0
 40
0.5399999999999999
100
AcDbArc
 50
0.0
 51
60.0000000000027853
  0
LINE
  5
18B
100
AcDbEntity
100
AcDbLine
  8
0
 62
256
370
-1
 48
1.0
  6
BYLAYER
 10
174.0886818559883409
 20
-13.2057753255483625
 30
0.0
 11
210.0886818559856124
 21
-13.2057753255483838
 31
0.0
  0
LINE
  5
18C
100
AcDbEntity
100
AcDbLine
  8
0
 62
256
370
-1
 48
1.0
  6
BYLAYER
 10
174.0886818559883409
 20
-13.2057753255483625
 30
0.0
 11
174.088681855988284
 21
-3.2057753255521675
 31
0.0
  0
LINE
  5
18D
100
AcDbEntity
100
AcDbLine
  8
0
 62
256
370
-1
 48
1.0
  6
BYLAYER
 10
210.0886818559855556
 20
22.794224674447694
 30
0.0
 11
200.0886818559857545
 21
22.7942246744477366
 31
0.0
  0
LINE
  5
18E
100
AcDbEntity
100
AcDbLine
  8
0
 62
256
370
-1
 48
1.0
  6
BYLAYER
 10
200.0886818559857545
 20
22.7942246744477366
 30
0.0
 11
174.088681855988284
 21
-3.2057753255521675
 31
0.0
  0
LWPOLYLINE
  5
18F
  8
0
 62
256
370
-1
 48
1.0
  6
BYLAYER
100
AcDbEntity
100
AcDbPolyline
 90
2
 70
0
 10
191.1048413934973382
 20
-2.2887175983397334
 30
0.0
 10
191.1048413934973382
 20
-2.2887175983397334
 30
0.0
  0
LWPOLYLINE
  5
190
  8
0
 62
256
370
-1
 48
1.0
  6
BYLAYER
100
AcDbEntity
100
AcDbPolyline
 90
2
 70
0
 10
192.6048413934984183
 20
-3.7887175983397974
 30
0.0
 10
204.6048413934975088
 20
-3.7887175983397192
 30
0.0
  0
LWPOLYLINE
  5
191
  8
0
 62
256
370
-1
 48
1.0
  6
BYLAYER
100
AcDbEntity
100
AcDbPolyline
 90
2
 70
0
 10
204.6048413934975088
 20
-3.7887175983397192
 30
0.0
 42
0.4142135623730951
 10
206.1048413934975088
 20
-2.2887175983396908
 30
0.0
  0
LWPOLYLINE
  5
192
  8
0
 62
256
370
-1
 48
1.0
  6
BYLAYER
100
AcDbEntity
100
AcDbPolyline
 90
2
 70
0
 10
206.1048413934975088
 20
-2.2887175983396908
 30
0.0
 10
206.1048413934975088
 20
-2.2887175983396908
 30
0.0
  0
LWPOLYLINE
  5
193
  8
0
 62
256
370
-1
 48
1.0
  6
BYLAYER
100
AcDbEntity
100
AcDbPolyline
 90
2
 70
0
 10
206.1048413934975088
 20
-2.2887175983396908
 30
0.0
 42
0.4142135623730951
 10
204.6048413934975088
 20
-0.7887175983399004
 30
0.0
  0
LWPOLYLINE
  5
194
  8
0
 62
256
370
-1
 48
1.0
  6
BYLAYER
100
AcDbEntity
100
AcDbPolyline
 90
2
 70
0
 10
204.6048413934975088
 20
-0.7887175983399004
 30
0.0
 10
192.6048413934969972
 20
-0.7887175983398116
 30
0.0
  0
LWPOLYLINE
  5
195
  8
0
 62
256
370
-1
 48
1.0
  6
BYLAYER
100
AcDbEntity
100
AcDbPolyline
 90
2
 70
0
 10
192.6048413934969972
 20
-0.7887175983398116
 30
0.0
 42
0.4142135623730951
 10
191.1048413934973382
 20
-2.2887175983397334
 30
0.0
  0
LWPOLYLINE
  5
196
  8
0
 62
256
370
-1
 48
1.0
  6
BYLAYER
100
AcDbEntity
100
AcDbPolyline
 90
2
 70
0
 10
191.1048413934973382
 20
-2.2887175983397334
 30
0.0
 42
0.4142135623730951
 10
192.6048413934984183
 20
-3.7887175983397974
 30
0.0
  0
LINE
  5
197
100
AcDbEntity
100
AcDbLine
  8
0
 62
256
370
-1
 48
1.0
  6
BYLAYER
 10
178.604533223810563
 20
-7.1870615025423312
 30
0.0
 11
178.604533223810563
 21
-8.8870615025422914
 31
0.0
  0
LINE
  5
198
100
AcDbEntity
100
AcDbLine
  8
0
 62
256
370
-1
 48
1.0
  6
BYLAYER
 10
178.604533223810563
 20
-8.8870615025422914
 30
0.0
 11
186.604533223810563
 21
-8.8870615025422914
 31
0.0
  0
LINE
  5
199
100
AcDbEntity
100
AcDbLine
  8
0
 62
256
370
-1
 48
1.0
  6
BYLAYER
 10
178.604533223810563
 20
-7.1870615025423312
 30
0.0
 11
186.604533223810563
 21
-7.1870615025423312
 31
0.0
  0
LINE
  5
19A
100
AcDbEntity
100
AcDbLine
  8
0
 62
256
370
-1
 48
1.0
  6
BYLAYER
 10
186.604533223810563
 20
-7.1870615025423312
 30
0.0
 11
186.604533223810563
 21
-8.8870615025422914
 31
0.0
  0
LINE
  5
19B
100
AcDbEntity
100
AcDbLine
  8
0
 62
256
370
-1
 48
1.0
  6
BYLAYER
 10
197.604533223810563
 20
-7.1870615025422957
 30
0.0
 11
197.604533223810563
 21
-8.8870615025423199
 31
0.0
  0
LINE
  5
19C
100
AcDbEntity
100
AcDbLine
  8
0
 62
256
370
-1
 48
1.0
  6
BYLAYER
 10
197.604533223810563
 20
-8.8870615025423199
 30
0.0
 11
205.604533223810563
 21
-8.8870615025423483
 31
0.0
  0
LINE
  5
19D
100
AcDbEntity
100
AcDbLine
  8
0
 62
256
370
-1
 48
1.0
  6
BYLAYER
 10
197.604533223810563
 20
-7.1870615025422957
 30
0.0
 11
205.604533223810563
 21
-7.187061502542349
 31
0.0
  0
LINE
  5
19E
100
AcDbEntity
100
AcDbLine
  8
0
 62
256
370
-1
 48
1.0
  6
BYLAYER
 10
205.604533223810563
 20
-7.187061502542349
 30
0.0
 11
205.604533223810563
 21
-8.8870615025423483
 31
0.0
  0
LINE
  5
19F
100
AcDbEntity
100
AcDbLine
  8
0
 62
256
370
-1
 48
1.0
  6
BYLAYER
 10
210.0886818559855556
 20
-8.2057753255522989
 30
0.0
 11
212.0886818559855556
 21
-8.2057753255522847
 31
0.0
  0
LINE
  5
1A0
100
AcDbEntity
100
AcDbLine
  8
0
 62
256
370
-1
 48
1.0
  6
BYLAYER
 10
210.0886818559855556
 20
-0.2057753255522883
 30
0.0
 11
212.0886818559855556
 21
-0.205775325552267
 31
0.0
  0
LINE
  5
1A1
100
AcDbEntity
100
AcDbLine
  8
0
 62
256
370
-1
 48
1.0
  6
BYLAYER
 10
210.0886818559855556
 20
9.7942246744477579
 30
0.0
 11
212.0886818559855556
 21
9.7942246744477188
 31
0.0
  0
LINE
  5
1A2
100
AcDbEntity
100
AcDbLine
  8
0
 62
256
370
-1
 48
1.0
  6
BYLAYER
 10
210.0886818559855556
 20
17.7942246744477046
 30
0.0
 11
212.088681855985584
 21
17.7942246744477544
 31
0.0
  0
LINE
  5
1A3
100
AcDbEntity
100
AcDbLine
  8
0
 62
256
370
-1
 48
1.0
  6
BYLAYER
 10
212.0886818559855556
 20
-8.2057753255522847
 30
0.0
 11
212.0886818559855556
 21
-0.205775325552267
 31
0.0
  0
LINE
  5
1A4
100
AcDbEntity
100
AcDbLine
  8
0
 62
256
370
-1
 48
1.0
  6
BYLAYER
 10
212.0886818559855556
 20
9.7942246744477188
 30
0.0
 11
212.088681855985584
 21
17.7942246744477544
 31
0.0
  0
LINE
  5
1A5
100
AcDbEntity
100
AcDbLine
  8
0
 62
256
370
-1
 48
1.0
  6
BYLAYER
 10
210.0886818559855556
 20
22.794224674447694
 30
0.0
 11
210.0886818559855556
 21
17.7942246744477046
 31
0.0
  0
LINE
  5
1A6
100
AcDbEntity
100
AcDbLine
  8
0
 62
256
370
-1
 48
1.0
  6
BYLAYER
 10
210.0886818559855556
 20
9.7942246744477579
 30
0.0
 11
210.0886818559855556
 21
-0.2057753255522883
 31
0.0
  0
LINE
  5
1A7
100
AcDbEntity
100
AcDbLine
  8
0
 62
256
370
-1
 48
1.0
  6
BYLAYER
 10
210.0886818559855556
 20
-8.2057753255522989
 30
0.0
 11
210.0886818559856124
 21
-13.2057753255483838
 31
0.0
  0
LINE
  5
1A8
100
AcDbEntity
100
AcDbLine
  8
0
 62
256
370
-1
 48
1.0
  6
BYLAYER
 10
200.7571499398734431
 20
16.6671669743415265
 30
0.0
 11
203.3348413934974701
 21
18.1553978289790656
 31
0.0
  0
ARC
  5
1A9
100
AcDbEntity
  8
0
 62
256
370
-1
 48
1.0
  6
BYLAYER
100
AcDbCircle
 10
201.0271499398734818
 20
16.1995132562979514
 30
0.0
 40
0.5399999999999999
100
AcDbArc
 50
119.9999999999972147
 51
180.0
  0
LINE
  5
1AA
100
AcDbEntity
100
AcDbLine
  8
0
 62
256
370
-1
 48
1.0
  6
BYLAYER
 10
203.8748413934974337
 20
18.1553978289791118
 30
0.0
 11
206.4525328471214038
 21
16.6671669743415762
 31
0.0
  0
ARC
  5
1AB
100
AcDbEntity
  8
0
 62
256
370
-1
 48
1.0
  6
BYLAYER
100
AcDbCircle
 10
203.6048413934974519
 20
17.6877441109354478
 30
0.0
 40
0.5399999999999999
100
AcDbArc
 50
60.0000000000028351
 51
119.9999999999972147
  0
LINE
  5
1AC
100
AcDbEntity
100
AcDbLine
  8
0
 62
256
370
-1
 48
1.0
  6
BYLAYER
 10
206.7225328471214425
 20
16.1995132562979585
 30
0.0
 11
206.7225328471214425
 21
13.223051547022699
 31
0.0
  0
ARC
  5
1AD
100
AcDbEntity
  8
0
 62
256
370
-1
 48
1.0
  6
BYLAYER
100
AcDbCircle
 10
206.182532847121422
 20
16.1995132562980118
 30
0.0
 40
0.5399999999999999
100
AcDbArc
 50
0.0
 51
60.0000000000028351
  0
LINE
  5
1AE
100
AcDbEntity
100
AcDbLine
  8
0
 62
256
370
-1
 48
1.0
  6
BYLAYER
 10
206.4525328471214038
 20
12.7553978289791239
 30
0.0
 11
203.8748413934974337
 21
11.2671669743415581
 31
0.0
  0
ARC
  5
1AF
100
AcDbEntity
  8
0
 62
256
370
-1
 48
1.0
  6
BYLAYER
100
AcDbCircle
 10
206.182532847121422
 20
13.2230515470226599
 30
0.0
 40
0.5399999999999999
100
AcDbArc
 50
299.9999999999972147
 51
0.0
  0
LINE
  5
1B0
100
AcDbEntity
100
AcDbLine
  8
0
 62
256
370
-1
 48
1.0
  6
BYLAYER
 10
203.3348413934974133
 20
11.2671669743415688
 30
0.0
 11
200.7571499398734431
 21
12.7553978289790884
 31
0.0
  0
ARC
  5
1B1
100
AcDbEntity
  8
0
 62
256
370
-1
 48
1.0
  6
BYLAYER
100
AcDbCircle
 10
203.6048413934974519
 20
11.734820692385096
 30
0.0
 40
0.5399999999999999
100
AcDbArc
 50
240.0000000000027853
 51
299.9999999999972147
  0
LINE
  5
1B2
100
AcDbEntity
100
AcDbLine
  8
0
 62
256
370
-1
 48
1.0
  6
BYLAYER
 10
200.4871499398735182
 20
16.1995132562979762
 30
0.0
 11
200.4871499398734613
 21
13.2230515470226671
 31
0.0
  0
ARC
  5
1B3
100
AcDbEntity
  8
0
 62
256
370
-1
 48
1.0
  6
BYLAYER
100
AcDbCircle
 10
201.0271499398734818
 20
13.2230515470227363
 30
0.0
 40
0.5399999999999999
100
AcDbArc
 50
180.0
 51
240.0000000000027853
  0
LINE
  5
1B4
100
AcDbEntity
100
AcDbLine
  8
0
 62
256
370
-1
 48
1.0
  6
BYLAYER
 10
191.7571499398733863
 20
10.6671669743415301
 30
0.0
 11
194.3348413934973564
 21
12.1553978289790265
 31
0.0
  0
ARC
  5
1B5
100
AcDbEntity
  8
0
 62
256
370
-1
 48
1.0
  6
BYLAYER
100
AcDbCircle
 10
192.027149939873425
 20
10.1995132562978252
 30
0.0
 40
0.5399999999999999
100
AcDbArc
 50
119.9999999999972147
 51
180.0
  0
LINE
  5
1B6
100
AcDbEntity
100
AcDbLine
  8
0
 62
256
370
-1
 48
1.0
  6
BYLAYER
 10
194.8748413934973769
 20
12.1553978289790336
 30
0.0
 11
197.4525328471214038
 21
10.6671669743414483
 31
0.0
  0
ARC
  5
1B7
100
AcDbEntity
  8
0
 62
256
370
-1
 48
1.0
  6
BYLAYER
100
AcDbCircle
 10
194.6048413934973382
 20
11.6877441109354088
 30
0.0
 40
0.5399999999999999
100
AcDbArc
 50
60.0000000000028351
 51
119.9999999999972147
  0
LINE
  5
1B8
100
AcDbEntity
100
AcDbLine
  8
0
 62
256
370
-1
 48
1.0
  6
BYLAYER
 10
197.7225328471213857
 20
10.1995132562979212
 30
0.0
 11
197.7225328471213857
 21
7.2230515470225107
 31
0.0
  0
ARC
  5
1B9
100
AcDbEntity
  8
0
 62
256
370
-1
 48
1.0
  6
BYLAYER
100
AcDbCircle
 10
197.1825328471213652
 20
10.1995132562978732
 30
0.0
 40
0.5399999999999999
100
AcDbArc
 50
0.0
 51
60.0000000000028351
  0
LINE
  5
1BA
100
AcDbEntity
100
AcDbLine
  8
0
 62
256
370
-1
 48
1.0
  6
BYLAYER
 10
197.4525328471214038
 20
6.755397828979099
 30
0.0
 11
194.8748413934973769
 21
5.2671669743413538
 31
0.0
  0
ARC
  5
1BB
100
AcDbEntity
  8
0
 62
256
370
-1
 48
1.0
  6
BYLAYER
100
AcDbCircle
 10
197.1825328471213652
 20
7.2230515470226742
 30
0.0
 40
0.5399999999999999
100
AcDbArc
 50
299.9999999999972147
 51
0.0
  0
LINE
  5
1BC
100
AcDbEntity
100
AcDbLine
  8
0
 62
256
370
-1
 48
1.0
  6
BYLAYER
 10
194.3348413934973564
 20
5.2671669743415528
 30
0.0
 11
191.7571499398733863
 21
6.7553978289789391
 31
0.0
  0
ARC
  5
1BD
100
AcDbEntity
  8
0
 62
256
370
-1
 48
1.0
  6
BYLAYER
100
AcDbCircle
 10
194.6048413934973951
 20
5.7348206923851706
 30
0.0
 40
0.5399999999999999
100
AcDbArc
 50
240.0000000000027853
 51
299.9999999999972147
  0
LINE
  5
1BE
100
AcDbEntity
100
AcDbLine
  8
0
 62
256
370
-1
 48
1.0
  6
BYLAYER
 10
191.4871499398734613
 20
10.1995132562979549
 30
0.0
 11
191.4871499398734045
 21
7.2230515470225072
 31
0.0
  0
ARC
  5
1BF
100
AcDbEntity
  8
0
 62
256
370
-1
 48
1.0
  6
BYLAYER
100
AcDbCircle
 10
192.027149939873425
 20
7.2230515470225889
 30
0.0
 40
0.5399999999999999
100
AcDbArc
 50
180.0
 51
240.0000000000027853
  0
LINE
  5
1C0
100
AcDbEntity
100
AcDbLine
  8
0
 62
256
370
-1
 48
1.0
  6
BYLAYER
 10
200.2409904023615468
 20
7.750109247129032
 30
0.0
 11
202.8186818559855737
 21
9.2383401017665712
 31
0.0
  0
ARC
  5
1C1
100
AcDbEntity
  8
0
 62
256
370
-1
 48
1.0
  6
BYLAYER
100
AcDbCircle
 10
200.5109904023615854
 20
7.2824555290854001
 30
0.0
 40
0.5399999999999999
100
AcDbArc
 50
119.9999999999972147
 51
180.0
  0
LINE
  5
1C2
100
AcDbEntity
100
AcDbLine
  8
0
 62
256
370
-1
 48
1.0
  6
BYLAYER
 10
203.3586818559855374
 20
9.2383401017665641
 30
0.0
 11
205.9363733096095075
 21
7.7501092471290001
 31
0.0
  0
ARC
  5
1C3
100
AcDbEntity
  8
0
 62
256
370
-1
 48
1.0
  6
BYLAYER
100
AcDbCircle
 10
203.0886818559854987
 20
8.7706863837228184
 30
0.0
 40
0.5399999999999999
100
AcDbArc
 50
60.0000000000028351
 51
119.9999999999972147
  0
LINE
  5
1C4
100
AcDbEntity
100
AcDbLine
  8
0
 62
256
370
-1
 48
1.0
  6
BYLAYER
 10
206.2063733096095461
 20
7.2824555290853894
 30
0.0
 11
206.2063733096095461
 21
4.305993819810304
 31
0.0
  0
ARC
  5
1C5
100
AcDbEntity
  8
0
 62
256
370
-1
 48
1.0
  6
BYLAYER
100
AcDbCircle
 10
205.6663733096095257
 20
7.2824555290854036
 30
0.0
 40
0.5399999999999999
100
AcDbArc
 50
0.0
 51
60.0000000000028351
  0
LINE
  5
1C6
100
AcDbEntity
100
AcDbLine
  8
0
 62
256
370
-1
 48
1.0
  6
BYLAYER
 10
205.9363733096095075
 20
3.8383401017666188
 30
0.0
 11
203.3586818559855374
 21
2.3501092471289482
 31
0.0
  0
ARC
  5
1C7
100
AcDbEntity
  8
0
 62
256
370
-1
 48
1.0
  6
BYLAYER
100
AcDbCircle
 10
205.6663733096095257
 20
4.3059938198104675
 30
0.0
 40
0.5399999999999999
100
AcDbArc
 50
299.9999999999972147
 51
0.0
  0
LINE
  5
1C8
100
AcDbEntity
100
AcDbLine
  8
0
 62
256
370
-1
 48
1.0
  6
BYLAYER
 10
202.8186818559855169
 20
2.3501092471290548
 30
0.0
 11
200.2409904023615468
 21
3.8383401017665122
 31
0.0
  0
ARC
  5
1C9
100
AcDbEntity
  8
0
 62
256
370
-1
 48
1.0
  6
BYLAYER
100
AcDbCircle
 10
203.0886818559854987
 20
2.8177629651725589
 30
0.0
 40
0.5399999999999999
100
AcDbArc
 50
240.0000000000027853
 51
299.9999999999972147
  0
LINE
  5
1CA
100
AcDbEntity
100
AcDbLine
  8
0
 62
256
370
-1
 48
1.0
  6
BYLAYER
 10
199.970990402361565
 20
7.282455529085432
 30
0.0
 11
199.970990402361565
 21
4.3059938198107695
 31
0.0
  0
ARC
  5
1CB
100
AcDbEntity
  8
0
 62
256
370
-1
 48
1.0
  6
BYLAYER
100
AcDbCircle
 10
200.5109904023615854
 20
4.3059938198111993
 30
0.0
 40
0.5399999999999999
100
AcDbArc
 50
180.0
 51
240.0000000000027853
  0
CIRCLE
  5
1CC
100
AcDbEntity
100
AcDbCircle
  8
0
 62
256
370
-1
 48
1.0
  6
BYLAYER
 10
-86.32916457234343
 20
-89.0859318429069731
 30
0.0
 40
1.5
  0
CIRCLE
  5
1CD
100
AcDbEntity
100
AcDbCircle
  8
0
 62
256
370
-1
 48
1.0
  6
BYLAYER
 10
126.4240661944677839
 20
-89.0810606731822645
 30
0.0
 40
1.5
  0
CIRCLE
  5
1CE
100
AcDbEntity
100
AcDbCircle
  8
0
 62
256
370
-1
 48
1.0
  6
BYLAYER
 10
86.9644096637923809
 20
-102.5869626212272294
 30
0.0
 40
1.5
  0
CIRCLE
  5
1CF
100
AcDbEntity
100
AcDbCircle
  8
0
 62
256
370
-1
 48
1.0
  6
BYLAYER
 10
-46.8010768044349632
 20
-102.5001656010811644
 30
0.0
 40
1.5
  0
CIRCLE
  5
1D0
100
AcDbEntity
100
AcDbCircle
  8
0
 62
256
370
-1
 48
1.0
  6
BYLAYER
 10
153.6708354276565842
 20
50.914068157093169
 30
0.0
 40
1.5
  0
CIRCLE
  5
1D1
100
AcDbEntity
100
AcDbCircle
  8
0
 62
256
370
-1
 48
1.0
  6
BYLAYER
 10
366.424066194467855
 20
50.9189393268174371
 30
0.0
 40
1.5
  0
CIRCLE
  5
1D2
100
AcDbEntity
100
AcDbCircle
  8
0
 62
256
370
-1
 48
1.0
  6
BYLAYER
 10
326.9644096637924804
 20
37.4130373787727777
 30
0.0
 40
1.5
  0
CIRCLE
  5
1D3
100
AcDbEntity
100
AcDbCircle
  8
0
 62
256
370
-1
 48
1.0
  6
BYLAYER
 10
193.1989231955650439
 20
37.4998343989188356
 30
0.0
 40
1.5
  0
LINE
  5
1D4
100
AcDbEntity
100
AcDbLine
  8
0
 62
256
370
-1
 48
1.0
  6
BYLAYER
 10
80.6381443037548848
 20
35.6414519309506872
 30
0.0
 11
80.6381443037548848
 21
23.5414519309507284
 31
0.0
  0
LINE
  5
1D5
100
AcDbEntity
100
AcDbLine
  8
0
 62
256
370
-1
 48
1.0
  6
BYLAYER
 10
81.0669795844458179
 20
-26.2805546744267957
 30
0.0
 11
58.566979584445825
 21
-26.2805546744268099
 31
0.0
  0
LINE
  5
1D6
100
AcDbEntity
100
AcDbLine
  8
0
 62
256
370
-1
 48
1.0
  6
BYLAYER
 10
-18.5669795844457965
 20
-26.2805546744268099
 30
0.0
 11
-41.0669795844457894
 21
-26.2805546744267957
 31
0.0
  0
LINE
  5
1D7
100
AcDbEntity
100
AcDbLine
  8
0
 62
256
370
-1
 48
1.0
  6
BYLAYER
 10
-18.5669795844457965
 20
-26.2805546744268099
 30
0.0
 11
-11.4959117725803139
 21
-19.2094868625613486
 31
0.0
  0
LINE
  5
1D8
100
AcDbEntity
100
AcDbLine
  8
0
 62
256
370
-1
 48
1.0
  6
BYLAYER
 10
51.4959117725803353
 20
-19.2094868625613344
 30
0.0
 11
58.566979584445825
 21
-26.2805546744268099
 31
0.0
  0
LINE
  5
1D9
100
AcDbEntity
100
AcDbLine
  8
0
 62
256
370
-1
 48
1.0
  6
BYLAYER
 10
51.5040882274197003
 20
-19.2094868625613344
 30
0.0
 11
-11.4959117725803139
 21
-19.2094868625613486
 31
0.0
  0
CIRCLE
  5
1DA
100
AcDbEntity
100
AcDbCircle
  8
0
 62
256
370
-1
 48
1.0
  6
BYLAYER
 10
-14.9999999999999858
 20
7.4359758241937186
 30
0.0
 40
6.0
  0
CIRCLE
  5
1DB
100
AcDbEntity
100
AcDbCircle
  8
0
 62
256
370
-1
 48
1.0
  6
BYLAYER
 10
55.0000000000000213
 20
7.4359758241936902
 30
0.0
 40
6.0
  0
CIRCLE
  5
1DC
100
AcDbEntity
100
AcDbCircle
  8
0
 62
256
370
-1
 48
1.0
  6
BYLAYER
 10
5.0000000000000249
 20
7.435975824193747
 30
0.0
 40
6.0
  0
CIRCLE
  5
1DD
100
AcDbEntity
100
AcDbCircle
  8
0
 62
256
370
-1
 48
1.0
  6
BYLAYER
 10
35.0000000000000213
 20
7.4359758241937044
 30
0.0
 40
6.0
  0
LINE
  5
1DE
100
AcDbEntity
100
AcDbLine
  8
0
 62
256
370
-1
 48
1.0
  6
BYLAYER
 10
-41.0669795844457894
 20
-26.2805546744267957
 30
0.0
 11
-85.0836216174670454
 21
-35.6365807612259999
 31
0.0
  0
LINE
  5
1DF
100
AcDbEntity
100
AcDbLine
  8
0
 62
256
370
-1
 48
1.0
  6
BYLAYER
 10
125.0836216174670739
 20
-35.6365807612259857
 30
0.0
 11
81.0669795844458179
 21
-26.2805546744267957
 31
0.0
  0
LINE
  5
1E0
100
AcDbEntity
100
AcDbLine
  8
0
 62
256
370
-1
 48
1.0
  6
BYLAYER
 10
132.2820553564707211
 20
-4.456738688098369
 30
0.0
 11
125.0836216174670739
 21
-35.6365807612259857
 31
0.0
  0
LINE
  5
1E1
100
AcDbEntity
100
AcDbLine
  8
0
 62
256
370
-1
 48
1.0
  6
BYLAYER
 10
-85.0836216174670454
 20
-35.6365807612259999
 30
0.0
 11
-92.2820553564707353
 21
-4.4567386880984259
 31
0.0
  0
LINE
  5
1E2
100
AcDbEntity
100
AcDbLine
  8
0
 62
256
370
-1
 48
1.0
  6
BYLAYER
 10
-92.2820553564707353
 20
-4.4567386880984259
 30
0.0
 11
-62.2118914913216798
 21
6.4879058983230777
 31
0.0
  0
LINE
  5
1E3
100
AcDbEntity
100
AcDbLine
  8
0
 62
256
370
-1
 48
1.0
  6
BYLAYER
 10
102.2118914913216798
 20
6.4879058983230351
 30
0.0
 11
132.2820553564707211
 21
-4.456738688098369
 31
0.0
  0
LINE
  5
1E4
100
AcDbEntity
100
AcDbLine
  8
0
 62
256
370
-1
 48
1.0
  6
BYLAYER
 10
102.2118914913216798
 20
6.4879058983230351
 30
0.0
 11
80.6381443037548848
 21
23.5414519309507284
 31
0.0
  0
LINE
  5
1E5
100
AcDbEntity
100
AcDbLine
  8
0
 62
256
370
-1
 48
1.0
  6
BYLAYER
 10
-62.2118914913216798
 20
6.4879058983230777
 30
0.0
 11
-40.6381443037548564
 21
23.5414519309506431
 31
0.0
  0
LINE
  5
1E6
100
AcDbEntity
100
AcDbLine
  8
0
 62
256
370
-1
 48
1.0
  6
BYLAYER
 10
35.7500000000000071
 20
-11.5640241758062814
 30
0.0
 11
4.2500000000000142
 21
-11.5640241758062672
 31
0.0
  0
LINE
  5
1E7
100
AcDbEntity
100
AcDbLine
  8
0
 62
256
370
-1
 48
1.0
  6
BYLAYER
 10
35.5000000000000142
 20
-5.5640241758063098
 30
0.0
 11
4.0000000000000107
 21
-5.564024175806253
 31
0.0
  0
ARC
  5
1E8
100
AcDbEntity
  8
0
 62
256
370
-1
 48
1.0
  6
BYLAYER
100
AcDbCircle
 10
3.875
 20
-8.5566514920460577
 30
0.0
 40
2.9952367609104305
100
AcDbArc
 50
87.6081847385100758
 51
274.3591421559273158
  0
ARC
  5
1E9
100
AcDbEntity
  8
0
 62
256
370
-1
 48
1.0
  6
BYLAYER
100
AcDbCircle
 10
35.8500000000000085
 20
-8.5640241758098057
 30
0.0
 40
2.9914925701586421
100
AcDbArc
 50
269.6702511496985721
 51
96.6544250460065939
  0
LINE
  5
1EA
100
AcDbEntity
100
AcDbLine
  8
0
 62
256
370
-1
 48
1.0
  6
BYLAYER
 10
35.9130627511651426
 20
21.2709495570845917
 30
0.0
 11
4.4130627511651408
 21
21.2709495570845917
 31
0.0
  0
LINE
  5
1EB
100
AcDbEntity
100
AcDbLine
  8
0
 62
256
370
-1
 48
1.0
  6
BYLAYER
 10
35.6630627511651568
 20
27.2709495570845633
 30
0.0
 11
4.163062751165123
 21
27.2709495570845846
 31
0.0
  0
ARC
  5
1EC
100
AcDbEntity
  8
0
 62
256
370
-1
 48
1.0
  6
BYLAYER
100
AcDbCircle
 10
4.0380627511651124
 20
24.2783222408447941
 30
0.0
 40
2.9952367609104305
100
AcDbArc
 50
87.6081847385100758
 51
274.3591421559273158
  0
ARC
  5
1ED
100
AcDbEntity
  8
0
 62
256
370
-1
 48
1.0
  6
BYLAYER
100
AcDbCircle
 10
36.0130627511651511
 20
24.2709495570810674
 30
0.0
 40
2.9914925701586421
100
AcDbArc
 50
269.6702511496985721
 51
96.6544250460065939
  0
CIRCLE
  5
1EE
100
AcDbEntity
100
AcDbCircle
  8
0
 62
256
370
-1
 48
1.0
  6
BYLAYER
 10
115.5050948113418343
 20
-29.2427616508446562
 30
0.0
 40
1.5
  0
CIRCLE
  5
1EF
100
AcDbEntity
100
AcDbCircle
  8
0
 62
256
370
-1
 48
1.0
  6
BYLAYER
 10
121.4751429989027685
 20
-30.5172020984574601
 30
0.0
 40
1.5
  0
LINE
  5
1F0
100
AcDbEntity
100
AcDbLine
  8
0
 62
256
370
-1
 48
1.0
  6
BYLAYER
 10
-84.9887199953426915
 20
-35.6414519309507227
 30
0.0
 11
-40.9720779623214284
 21
-26.2854258441515611
 31
0.0
  0
LINE
  5
1F1
100
AcDbEntity
100
AcDbLine
  8
0
 62
256
370
-1
 48
1.0
  6
BYLAYER
 10
-92.187153734346353
 20
-4.4616098578234329
 30
0.0
 11
-84.9887199953426915
 21
-35.6414519309507227
 31
0.0
  0
CIRCLE
  5
1F2
100
AcDbEntity
100
AcDbCircle
  8
0
 62
256
370
-1
 48
1.0
  6
BYLAYER
 10
-75.4101931892174377
 20
-29.2476328205694074
 30
0.0
 40
1.5
  0
CIRCLE
  5
1F3
100
AcDbEntity
100
AcDbCircle
  8
0
 62
256
370
-1
 48
1.0
  6
BYLAYER
 10
-81.3802413767783861
 20
-30.5220732681821829
 30
0.0
 40
1.5
  0
LINE
  5
1F4
100
AcDbEntity
100
AcDbLine
  8
0
 62
256
370
-1
 48
1.0
  6
BYLAYER
 10
101.0211838108783127
 20
-0.2569334652544626
 30
0.0
 11
115.8213425882563712
 21
-5.6437507226322907
 31
0.0
  0
LINE
  5
1F5
100
AcDbEntity
100
AcDbLine
  8
0
 62
256
370
-1
 48
1.0
  6
BYLAYER
 10
102.1647058184535553
 20
2.5193918791894845
 30
0.0
 11
116.9648645958316138
 21
-2.8674253781900063
 31
0.0
  0
ARC
  5
1F6
100
AcDbEntity
  8
0
 62
256
370
-1
 48
1.0
  6
BYLAYER
100
AcDbCircle
 10
116.511825972820489
 20
-4.2948765400641378
 30
0.0
 40
1.4976183804552152
100
AcDbArc
 50
245.6408578440727126
 51
72.3918152614899242
  0
ARC
  5
1F7
100
AcDbEntity
  8
0
 62
256
370
-1
 48
1.0
  6
BYLAYER
100
AcDbCircle
 10
101.487229394826997
 20
1.1697064730908551
 30
0.0
 40
1.4957462850793211
100
AcDbArc
 50
63.3455749539934132
 51
250.329748850301371
  0
LINE
  5
1F8
100
AcDbEntity
100
AcDbLine
  8
0
 62
256
370
-1
 48
1.0
  6
BYLAYER
 10
-62.0751222582124598
 20
6.5761762336150014
 30
0.0
 11
-92.1452861233615153
 21
-4.3684683528063601
 31
0.0
  0
LINE
  5
1F9
100
AcDbEntity
100
AcDbLine
  8
0
 62
256
370
-1
 48
1.0
  6
BYLAYER
 10
-60.8844145777690784
 20
-0.1686631299639743
 30
0.0
 11
-75.6845733551471511
 21
-5.5554803873402534
 31
0.0
  0
LINE
  5
1FA
100
AcDbEntity
100
AcDbLine
  8
0
 62
256
370
-1
 48
1.0
  6
BYLAYER
 10
-62.0279365853443352
 20
2.6076622144813086
 30
0.0
 11
-76.8280953627224079
 21
-2.7791550428985516
 31
0.0
  0
ARC
  5
1FB
100
AcDbEntity
  8
0
 62
256
370
-1
 48
1.0
  6
BYLAYER
100
AcDbCircle
 10
-76.375056739711269
 20
-4.2066062047721715
 30
0.0
 40
1.4976183804552152
100
AcDbArc
 50
107.6081847385099621
 51
294.3591421559273158
  0
ARC
  5
1FC
100
AcDbEntity
  8
0
 62
256
370
-1
 48
1.0
  6
BYLAYER
100
AcDbCircle
 10
-61.3504601617177769
 20
1.2579768083820824
 30
0.0
 40
1.4957462850793211
100
AcDbArc
 50
289.670251149698629
 51
116.6544250460064802
  0
CIRCLE
  5
1FD
100
AcDbEntity
100
AcDbCircle
  8
0
 62
256
370
-1
 48
1.0
  6
BYLAYER
 10
76.5424123119183548
 20
30.4528791032288382
 30
0.0
 40
1.6000000000000001
  0
CIRCLE
  5
1FE
100
AcDbEntity
100
AcDbCircle
  8
0
 62
256
370
-1
 48
1.0
  6
BYLAYER
 10
54.5424123119183193
 20
30.452879103228895
 30
0.0
 40
1.6000000000000001
  0
CIRCLE
  5
1FF
100
AcDbEntity
100
AcDbCircle
  8
0
 62
256
370
-1
 48
1.0
  6
BYLAYER
 10
-14.5308357484119099
 20
30.4307477020159638
 30
0.0
 40
1.6000000000000001
  0
CIRCLE
  5
200
100
AcDbEntity
100
AcDbCircle
  8
0
 62
256
370
-1
 48
1.0
  6
BYLAYER
 10
-36.5308357484119455
 20
30.4307477020159141
 30
0.0
 40
1.6000000000000001
  0
CIRCLE
  5
201
100
AcDbEntity
100
AcDbCircle
  8
0
 62
256
370
-1
 48
1.0
  6
BYLAYER
 10
-14.4999999999999858
 20
-7.5640241758062814
 30
0.0
 40
1.6000000000000001
  0
CIRCLE
  5
202
100
AcDbEntity
100
AcDbCircle
  8
0
 62
256
370
-1
 48
1.0
  6
BYLAYER
 10
-36.4999999999999858
 20
-7.5640241758062956
 30
0.0
 40
1.6000000000000001
  0
CIRCLE
  5
203
100
AcDbEntity
100
AcDbCircle
  8
0
 62
256
370
-1
 48
1.0
  6
BYLAYER
 10
76.5000000000000142
 20
-7.5640241758062814
 30
0.0
 40
1.6000000000000001
  0
CIRCLE
  5
204
100
AcDbEntity
100
AcDbCircle
  8
0
 62
256
370
-1
 48
1.0
  6
BYLAYER
 10
54.5000000000000142
 20
-7.5640241758062814
 30
0.0
 40
1.6000000000000001
  0
LINE
  5
205
100
AcDbEntity
100
AcDbLine
  8
0
 62
256
370
-1
 48
1.0
  6
BYLAYER
 10
-14.9999999999999574
 20
17.4359758241937755
 30
0.0
 11
-29.9999999999999858
 21
17.4359758241937257
 31
0.0
  0
LINE
  5
206
100
AcDbEntity
100
AcDbLine
  8
0
 62
256
370
-1
 48
1.0
  6
BYLAYER
 10
70.0000000000000142
 20
17.4359758241936902
 30
0.0
 11
55.0000000000000284
 21
17.4359758241936902
 31
0.0
  0
LINE
  5
207
100
AcDbEntity
100
AcDbLine
  8
0
 62
256
370
-1
 48
1.0
  6
BYLAYER
 10
70.0000000000000284
 20
22.4359758241937044
 30
0.0
 11
55.0000000000000284
 21
22.4359758241937186
 31
0.0
  0
LINE
  5
208
100
AcDbEntity
100
AcDbLine
  8
0
 62
256
370
-1
 48
1.0
  6
BYLAYER
 10
-14.9999999999999858
 20
22.4359758241937328
 30
0.0
 11
-29.9999999999999929
 21
22.4359758241937328
 31
0.0
  0
ARC
  5
209
100
AcDbEntity
  8
0
 62
256
370
-1
 48
1.0
  6
BYLAYER
100
AcDbCircle
 10
55.0000000000000284
 20
19.9359758241936902
 30
0.0
 40
2.5
100
AcDbArc
 50
90.0
 51
270.0
  0
ARC
  5
20A
100
AcDbEntity
  8
0
 62
256
370
-1
 48
1.0
  6
BYLAYER
100
AcDbCircle
 10
-29.9999999999999645
 20
19.9359758241937755
 30
0.0
 40
2.5
100
AcDbArc
 50
90.0
 51
270.0
  0
ARC
  5
20B
100
AcDbEntity
  8
0
 62
256
370
-1
 48
1.0
  6
BYLAYER
100
AcDbCircle
 10
-14.9999999999999929
 20
19.9359758241937186
 30
0.0
 40
2.5
100
AcDbArc
 50
270.0
 51
90.0
  0
ARC
  5
20C
100
AcDbEntity
  8
0
 62
256
370
-1
 48
1.0
  6
BYLAYER
100
AcDbCircle
 10
70.0000000000000142
 20
19.9359758241936973
 30
0.0
 40
2.5
100
AcDbArc
 50
270.0
 51
90.0
  0
LINE
  5
20D
100
AcDbEntity
100
AcDbLine
  8
0
 62
256
370
-1
 48
1.0
  6
BYLAYER
 10
80.0
 20
-22.5640241758063382
 30
0.0
 11
65.0
 21
-22.5640241758062956
 31
0.0
  0
LINE
  5
20E
100
AcDbEntity
100
AcDbLine
  8
0
 62
256
370
-1
 48
1.0
  6
BYLAYER
 10
80.0000000000000142
 20
-16.5640241758062814
 30
0.0
 11
65.0000000000000142
 21
-16.5640241758063098
 31
0.0
  0
LINE
  5
20F
100
AcDbEntity
100
AcDbLine
  8
0
 62
256
370
-1
 48
1.0
  6
BYLAYER
 10
-24.9999999999999929
 20
-22.5640241758062672
 30
0.0
 11
-39.9999999999999858
 21
-22.5640241758062814
 31
0.0
  0
LINE
  5
210
100
AcDbEntity
100
AcDbLine
  8
0
 62
256
370
-1
 48
1.0
  6
BYLAYER
 10
-24.9999999999999858
 20
-16.5640241758062814
 30
0.0
 11
-39.9999999999999929
 21
-16.564024175806253
 31
0.0
  0
ARC
  5
211
100
AcDbEntity
  8
0
 62
256
370
-1
 48
1.0
  6
BYLAYER
100
AcDbCircle
 10
65.0
 20
-19.5640241758062956
 30
0.0
 40
3.0
100
AcDbArc
 50
90.0
 51
270.0
  0
ARC
  5
212
100
AcDbEntity
  8
0
 62
256
370
-1
 48
1.0
  6
BYLAYER
100
AcDbCircle
 10
-39.9999999999999858
 20
-19.5640241758062672
 30
0.0
 40
3.0
100
AcDbArc
 50
90.0
 51
270.0
  0
ARC
  5
213
100
AcDbEntity
  8
0
 62
256
370
-1
 48
1.0
  6
BYLAYER
100
AcDbCircle
 10
80.0
 20
-19.5640241758063098
 30
0.0
 40
3.0
100
AcDbArc
 50
270.0
 51
90.0
  0
ARC
  5
214
100
AcDbEntity
  8
0
 62
256
370
-1
 48
1.0
  6
BYLAYER
100
AcDbCircle
 10
-24.9999999999999858
 20
-19.5640241758062814
 30
0.0
 40
3.0
100
AcDbArc
 50
270.0
 51
90.0
  0
CIRCLE
  5
215
100
AcDbEntity
100
AcDbCircle
  8
0
 62
256
370
-1
 48
1.0
  6
BYLAYER
 10
-34.9999999999999858
 20
7.4359758241936902
 30
0.0
 40
6.0
  0
CIRCLE
  5
216
100
AcDbEntity
100
AcDbCircle
  8
0
 62
256
370
-1
 48
1.0
  6
BYLAYER
 10
75.0000000000000142
 20
7.4359758241936618
 30
0.0
 40
6.0
  0
CIRCLE
  5
217
100
AcDbEntity
100
AcDbCircle
  8
0
 62
256
370
-1
 48
1.0
  6
BYLAYER
 10
-83.5571255716890988
 20
-21.1189130904785003
 30
0.0
 40
1.5
  0
CIRCLE
  5
218
100
AcDbEntity
100
AcDbCircle
  8
0
 62
256
370
-1
 48
1.0
  6
BYLAYER
 10
-54.9999999999999858
 20
-16.564024175806253
 30
0.0
 40
1.5
  0
CIRCLE
  5
219
100
AcDbEntity
100
AcDbCircle
  8
0
 62
256
370
-1
 48
1.0
  6
BYLAYER
 10
95.0
 20
-16.5640241758063098
 30
0.0
 40
1.5
  0
CIRCLE
  5
21A
100
AcDbEntity
100
AcDbCircle
  8
0
 62
256
370
-1
 48
1.0
  6
BYLAYER
 10
-51.7499999999999858
 20
-1.0640241758060114
 30
0.0
 40
1.5
  0
CIRCLE
  5
21B
100
AcDbEntity
100
AcDbCircle
  8
0
 62
256
370
-1
 48
1.0
  6
BYLAYER
 10
91.9133328593574248
 20
-1.1508211959520764
 30
0.0
 40
1.5
  0
LINE
  5
21C
100
AcDbEntity
100
AcDbLine
  8
0
 62
256
370
-1
 48
1.0
  6
BYLAYER
 10
-40.6381443037548209
 20
35.6414519309507156
 30
0.0
 11
-40.6381443037548564
 21
23.5414519309506431
 31
0.0
  0
LINE
  5
21D
100
AcDbEntity
100
AcDbLine
  8
0
 62
256
370
-1
 48
1.0
  6
BYLAYER
 10
-8.6381443037548102
 20
35.641451930950673
 30
0.0
 11
-40.6381443037548209
 21
35.6414519309507156
 31
0.0
  0
LINE
  5
21E
100
AcDbEntity
100
AcDbLine
  8
0
 62
256
370
-1
 48
1.0
  6
BYLAYER
 10
80.6381443037548848
 20
35.6414519309506872
 30
0.0
 11
48.638144303754892
 21
35.6414519309506943
 31
0.0
  0
LINE
  5
21F
100
AcDbEntity
100
AcDbLine
  8
0
 62
256
370
-1
 48
1.0
  6
BYLAYER
 10
-8.6381443037548102
 20
35.641451930950673
 30
0.0
 11
-8.6381443037548529
 21
31.6414519309506446
 31
0.0
  0
LINE
  5
220
100
AcDbEntity
100
AcDbLine
  8
0
 62
256
370
-1
 48
1.0
  6
BYLAYER
 10
48.638144303754892
 20
35.6414519309506943
 30
0.0
 11
48.6381443037548706
 21
31.6414519309507085
 31
0.0
  0
LINE
  5
221
100
AcDbEntity
100
AcDbLine
  8
0
 62
256
370
-1
 48
1.0
  6
BYLAYER
 10
48.6381443037548706
 20
31.6414519309507085
 30
0.0
 11
-8.5618556962451429
 21
31.6414519309506872
 31
0.0
  0
LINE
  5
222
100
AcDbEntity
100
AcDbLine
  8
0
 62
256
370
-1
 48
1.0
  6
BYLAYER
 10
22.8517796810436806
 20
-0.5199087484875804
 30
0.0
 11
20.2740882274196963
 21
-2.0081396031250875
 31
0.0
  0
ARC
  5
223
100
AcDbEntity
  8
0
 62
256
370
-1
 48
1.0
  6
BYLAYER
100
AcDbCircle
 10
22.581779681043642
 20
-0.0522550304440017
 30
0.0
 40
0.5399999999999999
100
AcDbArc
 50
299.9999999999972147
 51
0.0
  0
LINE
  5
224
100
AcDbEntity
100
AcDbLine
  8
0
 62
256
370
-1
 48
1.0
  6
BYLAYER
 10
19.73408822741969
 20
-2.0081396031251018
 30
0.0
 11
17.1563967737957057
 21
-0.5199087484875662
 31
0.0
  0
ARC
  5
225
100
AcDbEntity
  8
0
 62
256
370
-1
 48
1.0
  6
BYLAYER
100
AcDbCircle
 10
20.0040882274196861
 20
-1.5404858850814662
 30
0.0
 40
0.5399999999999999
100
AcDbArc
 50
240.0000000000028137
 51
299.9999999999972147
  0
LINE
  5
226
100
AcDbEntity
100
AcDbLine
  8
0
 62
256
370
-1
 48
1.0
  6
BYLAYER
 10
16.8863967737956955
 20
-0.0522550304439875
 30
0.0
 11
16.8863967737957097
 21
2.9242066788313252
 31
0.0
  0
ARC
  5
227
100
AcDbEntity
  8
0
 62
256
370
-1
 48
1.0
  6
BYLAYER
100
AcDbCircle
 10
17.4263967737957017
 20
-0.0522550304439875
 30
0.0
 40
0.5399999999999999
100
AcDbArc
 50
180.0
 51
240.0000000000028137
  0
LINE
  5
228
100
AcDbEntity
100
AcDbLine
  8
0
 62
256
370
-1
 48
1.0
  6
BYLAYER
 10
17.1563967737957093
 20
3.3918603968749039
 30
0.0
 11
19.7340882274196936
 21
4.8800912515124253
 31
0.0
  0
ARC
  5
229
100
AcDbEntity
  8
0
 62
256
370
-1
 48
1.0
  6
BYLAYER
100
AcDbCircle
 10
17.4263967737957017
 20
2.9242066788312968
 30
0.0
 40
0.5399999999999999
100
AcDbArc
 50
119.9999999999972147
 51
180.0
  0
LINE
  5
22A
100
AcDbEntity
100
AcDbLine
  8
0
 62
256
370
-1
 48
1.0
  6
BYLAYER
 10
20.2740882274196998
 20
4.8800912515124253
 30
0.0
 11
22.8517796810436948
 21
3.3918603968748897
 31
0.0
  0
ARC
  5
22B
100
AcDbEntity
  8
0
 62
256
370
-1
 48
1.0
  6
BYLAYER
100
AcDbCircle
 10
20.0040882274197038
 20
4.4124375334689034
 30
0.0
 40
0.5399999999999999
100
AcDbArc
 50
60.0000000000027853
 51
119.9999999999972147
  0
LINE
  5
22C
100
AcDbEntity
100
AcDbLine
  8
0
 62
256
370
-1
 48
1.0
  6
BYLAYER
 10
23.1217796810436482
 20
-0.0522550304439733
 30
0.0
 11
23.1217796810436518
 21
2.9242066788312968
 31
0.0
  0
ARC
  5
22D
100
AcDbEntity
  8
0
 62
256
370
-1
 48
1.0
  6
BYLAYER
100
AcDbCircle
 10
22.581779681043642
 20
2.924206678831311
 30
0.0
 40
0.5399999999999999
100
AcDbArc
 50
0.0
 51
60.0000000000027853
  0
LINE
  5
22E
100
AcDbEntity
100
AcDbLine
  8
0
 62
256
370
-1
 48
1.0
  6
BYLAYER
 10
22.8517796810436877
 20
11.9039172872220433
 30
0.0
 11
20.2740882274197034
 21
10.4156864325845362
 31
0.0
  0
ARC
  5
22F
100
AcDbEntity
  8
0
 62
256
370
-1
 48
1.0
  6
BYLAYER
100
AcDbCircle
 10
22.581779681043642
 20
12.3715710052656362
 30
0.0
 40
0.5399999999999999
100
AcDbArc
 50
299.9999999999972147
 51
0.0
  0
LINE
  5
230
100
AcDbEntity
100
AcDbLine
  8
0
 62
256
370
-1
 48
1.0
  6
BYLAYER
 10
19.7340882274196971
 20
10.4156864325845362
 30
0.0
 11
17.1563967737957057
 21
11.9039172872220576
 31
0.0
  0
ARC
  5
231
100
AcDbEntity
  8
0
 62
256
370
-1
 48
1.0
  6
BYLAYER
100
AcDbCircle
 10
20.0040882274196932
 20
10.8833401506281717
 30
0.0
 40
0.5399999999999999
100
AcDbArc
 50
240.0000000000028137
 51
299.9999999999972147
  0
LINE
  5
232
100
AcDbEntity
100
AcDbLine
  8
0
 62
256
370
-1
 48
1.0
  6
BYLAYER
 10
16.8863967737956848
 20
12.3715710052656505
 30
0.0
 11
16.8863967737957168
 21
15.348032714540949
 31
0.0
  0
ARC
  5
233
100
AcDbEntity
  8
0
 62
256
370
-1
 48
1.0
  6
BYLAYER
100
AcDbCircle
 10
17.4263967737957088
 20
12.3715710052656362
 30
0.0
 40
0.5399999999999999
100
AcDbArc
 50
180.0
 51
240.0000000000028137
  0
LINE
  5
234
100
AcDbEntity
100
AcDbLine
  8
0
 62
256
370
-1
 48
1.0
  6
BYLAYER
 10
17.1563967737957306
 20
15.8156864325845277
 30
0.0
 11
19.7340882274197007
 21
17.3039172872220632
 31
0.0
  0
ARC
  5
235
100
AcDbEntity
  8
0
 62
256
370
-1
 48
1.0
  6
BYLAYER
100
AcDbCircle
 10
17.4263967737957017
 20
15.3480327145409348
 30
0.0
 40
0.5399999999999999
100
AcDbArc
 50
119.9999999999972147
 51
180.0
  0
LINE
  5
236
100
AcDbEntity
100
AcDbLine
  8
0
 62
256
370
-1
 48
1.0
  6
BYLAYER
 10
20.2740882274196998
 20
17.3039172872220632
 30
0.0
 11
22.8517796810437019
 21
15.8156864325845277
 31
0.0
  0
ARC
  5
237
100
AcDbEntity
  8
0
 62
256
370
-1
 48
1.0
  6
BYLAYER
100
AcDbCircle
 10
20.0040882274197109
 20
16.8362635691785414
 30
0.0
 40
0.5399999999999999
100
AcDbArc
 50
60.0000000000027853
 51
119.9999999999972147
  0
LINE
  5
238
100
AcDbEntity
100
AcDbLine
  8
0
 62
256
370
-1
 48
1.0
  6
BYLAYER
 10
23.1217796810436518
 20
12.3715710052656362
 30
0.0
 11
23.1217796810436518
 21
15.3480327145409348
 31
0.0
  0
ARC
  5
239
100
AcDbEntity
  8
0
 62
256
370
-1
 48
1.0
  6
BYLAYER
100
AcDbCircle
 10
22.5817796810436455
 20
15.3480327145409348
 30
0.0
 40
0.5399999999999999
100
AcDbArc
 50
0.0
 51
60.0000000000027853
  0
LINE
  5
23A
100
AcDbEntity
100
AcDbLine
  8
0
 62
256
370
-1
 48
1.0
  6
BYLAYER
 10
-27.8476914536239946
 20
-0.6081396031246413
 30
0.0
 11
-25.2700000000000102
 21
0.8800912515124395
 31
0.0
  0
ARC
  5
23B
100
AcDbEntity
  8
0
 62
256
370
-1
 48
1.0
  6
BYLAYER
100
AcDbCircle
 10
-27.5776914536239559
 20
-1.0757933211684474
 30
0.0
 40
0.5399999999999999
100
AcDbArc
 50
119.9999999999972147
 51
180.0
  0
LINE
  5
23C
100
AcDbEntity
100
AcDbLine
  8
0
 62
256
370
-1
 48
1.0
  6
BYLAYER
 10
-24.730000000000004
 20
0.8800912515126527
 30
0.0
 11
-22.1523085463760196
 21
-0.6081396031248119
 31
0.0
  0
ARC
  5
23D
100
AcDbEntity
  8
0
 62
256
370
-1
 48
1.0
  6
BYLAYER
100
AcDbCircle
 10
-25.0
 20
0.4124375334689461
 30
0.0
 40
0.5399999999999999
100
AcDbArc
 50
60.0000000000028351
 51
119.9999999999972147
  0
LINE
  5
23E
100
AcDbEntity
100
AcDbLine
  8
0
 62
256
370
-1
 48
1.0
  6
BYLAYER
 10
-21.8823085463760094
 20
-1.0757933211684474
 30
0.0
 11
-21.8823085463760236
 21
-4.0522550304439022
 31
0.0
  0
ARC
  5
23F
100
AcDbEntity
  8
0
 62
256
370
-1
 48
1.0
  6
BYLAYER
100
AcDbCircle
 10
-22.4223085463760157
 20
-1.0757933211686463
 30
0.0
 40
0.5399999999999999
100
AcDbArc
 50
0.0
 51
60.0000000000028351
  0
LINE
  5
240
100
AcDbEntity
100
AcDbLine
  8
0
 62
256
370
-1
 48
1.0
  6
BYLAYER
 10
-22.1523085463760196
 20
-4.5199087484874099
 30
0.0
 11
-24.730000000000004
 21
-6.0081396031250165
 31
0.0
  0
ARC
  5
241
100
AcDbEntity
  8
0
 62
256
370
-1
 48
1.0
  6
BYLAYER
100
AcDbCircle
 10
-22.4223085463760157
 20
-4.0522550304438596
 30
0.0
 40
0.5399999999999999
100
AcDbArc
 50
299.9999999999972147
 51
0.0
  0
LINE
  5
242
100
AcDbEntity
100
AcDbLine
  8
0
 62
256
370
-1
 48
1.0
  6
BYLAYER
 10
-25.2700000000000102
 20
-6.0081396031250023
 30
0.0
 11
-27.8476914536240088
 21
-4.5199087484874667
 31
0.0
  0
ARC
  5
243
100
AcDbEntity
  8
0
 62
256
370
-1
 48
1.0
  6
BYLAYER
100
AcDbCircle
 10
-25.0000000000000142
 20
-5.5404858850814094
 30
0.0
 40
0.5399999999999999
100
AcDbArc
 50
240.0000000000027853
 51
299.9999999999972147
  0
LINE
  5
244
100
AcDbEntity
100
AcDbLine
  8
0
 62
256
370
-1
 48
1.0
  6
BYLAYER
 10
-28.1176914536239622
 20
-1.0757933211685184
 30
0.0
 11
-28.1176914536239622
 21
-4.0522550304437743
 31
0.0
  0
ARC
  5
245
100
AcDbEntity
  8
0
 62
256
370
-1
 48
1.0
  6
BYLAYER
100
AcDbCircle
 10
-27.5776914536239559
 20
-4.0522550304438738
 30
0.0
 40
0.5399999999999999
100
AcDbArc
 50
180.0
 51
240.0000000000027853
  0
LINE
  5
246
100
AcDbEntity
100
AcDbLine
  8
0
 62
256
370
-1
 48
1.0
  6
BYLAYER
 10
62.1523085463760054
 20
-0.6081396031248403
 30
0.0
 11
64.7299999999999898
 21
0.8800912515126669
 31
0.0
  0
ARC
  5
247
100
AcDbEntity
  8
0
 62
256
370
-1
 48
1.0
  6
BYLAYER
100
AcDbCircle
 10
62.4223085463760441
 20
-1.0757933211686463
 30
0.0
 40
0.5399999999999999
100
AcDbArc
 50
119.9999999999972147
 51
180.0
  0
LINE
  5
248
100
AcDbEntity
100
AcDbLine
  8
0
 62
256
370
-1
 48
1.0
  6
BYLAYER
 10
65.269999999999996
 20
0.8800912515126527
 30
0.0
 11
67.8476914536239804
 21
-0.6081396031246555
 31
0.0
  0
ARC
  5
249
100
AcDbEntity
  8
0
 62
256
370
-1
 48
1.0
  6
BYLAYER
100
AcDbCircle
 10
65.0
 20
0.4124375334689176
 30
0.0
 40
0.5399999999999999
100
AcDbArc
 50
60.0000000000028351
 51
119.9999999999972147
  0
LINE
  5
24A
100
AcDbEntity
100
AcDbLine
  8
0
 62
256
370
-1
 48
1.0
  6
BYLAYER
 10
68.1176914536239906
 20
-1.0757933211685611
 30
0.0
 11
68.1176914536239764
 21
-4.0522550304437885
 31
0.0
  0
ARC
  5
24B
100
AcDbEntity
  8
0
 62
256
370
-1
 48
1.0
  6
BYLAYER
100
AcDbCircle
 10
67.5776914536239843
 20
-1.07579332116849
 30
0.0
 40
0.5399999999999999
100
AcDbArc
 50
0.0
 51
60.0000000000028351
  0
LINE
  5
24C
100
AcDbEntity
100
AcDbLine
  8
0
 62
256
370
-1
 48
1.0
  6
BYLAYER
 10
67.8476914536239804
 20
-4.5199087484874809
 30
0.0
 11
65.269999999999996
 21
-6.0081396031249881
 31
0.0
  0
ARC
  5
24D
100
AcDbEntity
  8
0
 62
256
370
-1
 48
1.0
  6
BYLAYER
100
AcDbCircle
 10
67.5776914536239843
 20
-4.0522550304438596
 30
0.0
 40
0.5399999999999999
100
AcDbArc
 50
299.9999999999972147
 51
0.0
  0
LINE
  5
24E
100
AcDbEntity
100
AcDbLine
  8
0
 62
256
370
-1
 48
1.0
  6
BYLAYER
 10
64.7299999999999756
 20
-6.0081396031250307
 30
0.0
 11
62.1523085463759841
 21
-4.5199087484874383
 31
0.0
  0
ARC
  5
24F
100
AcDbEntity
  8
0
 62
256
370
-1
 48
1.0
  6
BYLAYER
100
AcDbCircle
 10
64.9999999999999858
 20
-5.5404858850814236
 30
0.0
 40
0.5399999999999999
100
AcDbArc
 50
240.0000000000027853
 51
299.9999999999972147
  0
LINE
  5
250
100
AcDbEntity
100
AcDbLine
  8
0
 62
256
370
-1
 48
1.0
  6
BYLAYER
 10
61.8823085463760378
 20
-1.0757933211684474
 30
0.0
 11
61.8823085463760378
 21
-4.0522550304438028
 31
0.0
  0
ARC
  5
251
100
AcDbEntity
  8
0
 62
256
370
-1
 48
1.0
  6
BYLAYER
100
AcDbCircle
 10
62.4223085463760441
 20
-4.0522550304438454
 30
0.0
 40
0.5399999999999999
100
AcDbArc
 50
180.0
 51
240.0000000000027853
  0
CIRCLE
  5
252
100
AcDbEntity
100
AcDbCircle
  8
0
 62
256
370
-1
 48
1.0
  6
BYLAYER
 10
123.652027193813467
 20
-21.114041920753678
 30
0.0
 40
1.5
  0
CIRCLE
  5
253
100
AcDbEntity
100
AcDbCircle
  8
0
 62
256
370
-1
 48
1.0
  6
BYLAYER
 10
-86.3291645723434158
 20
-9.0859318429070015
 30
0.0
 40
1.5
  0
CIRCLE
  5
254
100
AcDbEntity
100
AcDbCircle
  8
0
 62
256
370
-1
 48
1.0
  6
BYLAYER
 10
126.4240661944677981
 20
-9.0810606731822929
 30
0.0
 40
1.5
  0
CIRCLE
  5
255
100
AcDbEntity
100
AcDbCircle
  8
0
 62
256
370
-1
 48
1.0
  6
BYLAYER
 10
86.9644096637923951
 20
-22.5869626212272578
 30
0.0
 40
1.5
  0
CIRCLE
  5
256
100
AcDbEntity
100
AcDbCircle
  8
0
 62
256
370
-1
 48
1.0
  6
BYLAYER
 10
-46.8010768044349561
 20
-22.5001656010811928
 30
0.0
 40
1.5
  0
LINE
  5
257
100
AcDbEntity
100
AcDbLine
  8
0
 62
256
370
-1
 48
1.0
  6
BYLAYER
 10
80.6381443037548848
 20
105.6414519309506943
 30
0.0
 11
80.6381443037548848
 21
93.5414519309507284
 31
0.0
  0
LINE
  5
258
100
AcDbEntity
100
AcDbLine
  8
0
 62
256
370
-1
 48
1.0
  6
BYLAYER
 10
81.0669795844458179
 20
43.7194453255732043
 30
0.0
 11
58.566979584445825
 21
43.7194453255731901
 31
0.0
  0
LINE
  5
259
100
AcDbEntity
100
AcDbLine
  8
0
 62
256
370
-1
 48
1.0
  6
BYLAYER
 10
-18.5669795844457965
 20
43.7194453255731901
 30
0.0
 11
-41.0669795844457894
 21
43.7194453255732043
 31
0.0
  0
LINE
  5
25A
100
AcDbEntity
100
AcDbLine
  8
0
 62
256
370
-1
 48
1.0
  6
BYLAYER
 10
-18.5669795844457965
 20
43.7194453255731901
 30
0.0
 11
-11.4959117725803139
 21
50.7905131374386514
 31
0.0
  0
LINE
  5
25B
100
AcDbEntity
100
AcDbLine
  8
0
 62
256
370
-1
 48
1.0
  6
BYLAYER
 10
51.4959117725803353
 20
50.7905131374386656
 30
0.0
 11
58.566979584445825
 21
43.7194453255731901
 31
0.0
  0
LINE
  5
25C
100
AcDbEntity
100
AcDbLine
  8
0
 62
256
370
-1
 48
1.0
  6
BYLAYER
 10
51.5040882274197003
 20
50.7905131374386656
 30
0.0
 11
-11.4959117725803139
 21
50.7905131374386514
 31
0.0
  0
CIRCLE
  5
25D
100
AcDbEntity
100
AcDbCircle
  8
0
 62
256
370
-1
 48
1.0
  6
BYLAYER
 10
-14.9999999999999858
 20
77.4359758241937186
 30
0.0
 40
6.0
  0
CIRCLE
  5
25E
100
AcDbEntity
100
AcDbCircle
  8
0
 62
256
370
-1
 48
1.0
  6
BYLAYER
 10
55.0000000000000213
 20
77.4359758241936902
 30
0.0
 40
6.0
  0
CIRCLE
  5
25F
100
AcDbEntity
100
AcDbCircle
  8
0
 62
256
370
-1
 48
1.0
  6
BYLAYER
 10
5.0000000000000249
 20
77.435975824193747
 30
0.0
 40
6.0
  0
CIRCLE
  5
260
100
AcDbEntity
100
AcDbCircle
  8
0
 62
256
370
-1
 48
1.0
  6
BYLAYER
 10
35.0000000000000213
 20
77.4359758241937044
 30
0.0
 40
6.0
  0
LINE
  5
261
100
AcDbEntity
100
AcDbLine
  8
0
 62
256
370
-1
 48
1.0
  6
BYLAYER
 10
-41.0669795844457894
 20
43.7194453255732043
 30
0.0
 11
-85.0836216174670454
 21
34.3634192387740001
 31
0.0
  0
LINE
  5
262
100
AcDbEntity
100
AcDbLine
  8
0
 62
256
370
-1
 48
1.0
  6
BYLAYER
 10
125.0836216174670739
 20
34.3634192387740143
 30
0.0
 11
81.0669795844458179
 21
43.7194453255732043
 31
0.0
  0
LINE
  5
263
100
AcDbEntity
100
AcDbLine
  8
0
 62
256
370
-1
 48
1.0
  6
BYLAYER
 10
132.2820553564707211
 20
65.543261311901631
 30
0.0
 11
125.0836216174670739
 21
34.3634192387740143
 31
0.0
  0
LINE
  5
264
100
AcDbEntity
100
AcDbLine
  8
0
 62
256
370
-1
 48
1.0
  6
BYLAYER
 10
-85.0836216174670454
 20
34.3634192387740001
 30
0.0
 11
-92.2820553564707353
 21
65.5432613119015741
 31
0.0
  0
LINE
  5
265
100
AcDbEntity
100
AcDbLine
  8
0
 62
256
370
-1
 48
1.0
  6
BYLAYER
 10
-92.2820553564707353
 20
65.5432613119015741
 30
0.0
 11
-62.2118914913216798
 21
76.4879058983230777
 31
0.0
  0
LINE
  5
266
100
AcDbEntity
100
AcDbLine
  8
0
 62
256
370
-1
 48
1.0
  6
BYLAYER
 10
102.2118914913216798
 20
76.4879058983230351
 30
0.0
 11
132.2820553564707211
 21
65.543261311901631
 31
0.0
  0
LINE
  5
267
100
AcDbEntity
100
AcDbLine
  8
0
 62
256
370
-1
 48
1.0
  6
BYLAYER
 10
102.2118914913216798
 20
76.4879058983230351
 30
0.0
 11
80.6381443037548848
 21
93.5414519309507284
 31
0.0
  0
LINE
  5
268
100
AcDbEntity
100
AcDbLine
  8
0
 62
256
370
-1
 48
1.0
  6
BYLAYER
 10
-62.2118914913216798
 20
76.4879058983230777
 30
0.0
 11
-40.6381443037548564
 21
93.5414519309506431
 31
0.0
  0
LINE
  5
269
100
AcDbEntity
100
AcDbLine
  8
0
 62
256
370
-1
 48
1.0
  6
BYLAYER
 10
35.7500000000000071
 20
58.4359758241937186
 30
0.0
 11
4.2500000000000142
 21
58.4359758241937328
 31
0.0
  0
LINE
  5
26A
100
AcDbEntity
100
AcDbLine
  8
0
 62
256
370
-1
 48
1.0
  6
BYLAYER
 10
35.5000000000000142
 20
64.4359758241936902
 30
0.0
 11
4.0000000000000107
 21
64.435975824193747
 31
0.0
  0
ARC
  5
26B
100
AcDbEntity
  8
0
 62
256
370
-1
 48
1.0
  6
BYLAYER
100
AcDbCircle
 10
3.875
 20
61.4433485079539423
 30
0.0
 40
2.9952367609104305
100
AcDbArc
 50
87.6081847385100758
 51
274.3591421559273158
  0
ARC
  5
26C
100
AcDbEntity
  8
0
 62
256
370
-1
 48
1.0
  6
BYLAYER
100
AcDbCircle
 10
35.8500000000000085
 20
61.4359758241901943
 30
0.0
 40
2.9914925701586421
100
AcDbArc
 50
269.6702511496985721
 51
96.6544250460065939
  0
LINE
  5
26D
100
AcDbEntity
100
AcDbLine
  8
0
 62
256
370
-1
 48
1.0
  6
BYLAYER
 10
35.9130627511651426
 20
91.2709495570845917
 30
0.0
 11
4.4130627511651408
 21
91.2709495570845917
 31
0.0
  0
LINE
  5
26E
100
AcDbEntity
100
AcDbLine
  8
0
 62
256
370
-1
 48
1.0
  6
BYLAYER
 10
35.6630627511651568
 20
97.2709495570845633
 30
0.0
 11
4.163062751165123
 21
97.2709495570845775
 31
0.0
  0
ARC
  5
26F
100
AcDbEntity
  8
0
 62
256
370
-1
 48
1.0
  6
BYLAYER
100
AcDbCircle
 10
4.0380627511651124
 20
94.2783222408448012
 30
0.0
 40
2.9952367609104305
100
AcDbArc
 50
87.6081847385100758
 51
274.3591421559273158
  0
ARC
  5
270
100
AcDbEntity
  8
0
 62
256
370
-1
 48
1.0
  6
BYLAYER
100
AcDbCircle
 10
36.0130627511651511
 20
94.2709495570810674
 30
0.0
 40
2.9914925701586421
100
AcDbArc
 50
269.6702511496985721
 51
96.6544250460065939
  0
CIRCLE
  5
271
100
AcDbEntity
100
AcDbCircle
  8
0
 62
256
370
-1
 48
1.0
  6
BYLAYER
 10
115.5050948113418343
 20
40.7572383491553438
 30
0.0
 40
1.5
  0
CIRCLE
  5
272
100
AcDbEntity
100
AcDbCircle
  8
0
 62
256
370
-1
 48
1.0
  6
BYLAYER
 10
121.4751429989027685
 20
39.4827979015425399
 30
0.0
 40
1.5
  0
LINE
  5
273
100
AcDbEntity
100
AcDbLine
  8
0
 62
256
370
-1
 48
1.0
  6
BYLAYER
 10
-84.9887199953426915
 20
34.3585480690492773
 30
0.0
 11
-40.9720779623214284
 21
43.7145741558484389
 31
0.0
  0
LINE
  5
274
100
AcDbEntity
100
AcDbLine
  8
0
 62
256
370
-1
 48
1.0
  6
BYLAYER
 10
-92.187153734346353
 20
65.5383901421765671
 30
0.0
 11
-84.9887199953426915
 21
34.3585480690492773
 31
0.0
  0
CIRCLE
  5
275
100
AcDbEntity
100
AcDbCircle
  8
0
 62
256
370
-1
 48
1.0
  6
BYLAYER
 10
-75.4101931892174377
 20
40.7523671794305926
 30
0.0
 40
1.5
  0
CIRCLE
  5
276
100
AcDbEntity
100
AcDbCircle
  8
0
 62
256
370
-1
 48
1.0
  6
BYLAYER
 10
-81.3802413767783861
 20
39.4779267318178171
 30
0.0
 40
1.5
  0
LINE
  5
277
100
AcDbEntity
100
AcDbLine
  8
0
 62
256
370
-1
 48
1.0
  6
BYLAYER
 10
101.0211838108783127
 20
69.7430665347455374
 30
0.0
 11
115.8213425882563712
 21
64.3562492773677093
 31
0.0
  0
LINE
  5
278
100
AcDbEntity
100
AcDbLine
  8
0
 62
256
370
-1
 48
1.0
  6
BYLAYER
 10
102.1647058184535553
 20
72.5193918791894845
 30
0.0
 11
116.9648645958316138
 21
67.1325746218099937
 31
0.0
  0
ARC
  5
279
100
AcDbEntity
  8
0
 62
256
370
-1
 48
1.0
  6
BYLAYER
100
AcDbCircle
 10
116.511825972820489
 20
65.7051234599358622
 30
0.0
 40
1.4976183804552152
100
AcDbArc
 50
245.6408578440727126
 51
72.3918152614899242
  0
ARC
  5
27A
100
AcDbEntity
  8
0
 62
256
370
-1
 48
1.0
  6
BYLAYER
100
AcDbCircle
 10
101.487229394826997
 20
71.1697064730908551
 30
0.0
 40
1.4957462850793211
100
AcDbArc
 50
63.3455749539934132
 51
250.329748850301371
  0
LINE
  5
27B
100
AcDbEntity
100
AcDbLine
  8
0
 62
256
370
-1
 48
1.0
  6
BYLAYER
 10
-62.0751222582124598
 20
76.5761762336150014
 30
0.0
 11
-92.1452861233615153
 21
65.6315316471936399
 31
0.0
  0
LINE
  5
27C
100
AcDbEntity
100
AcDbLine
  8
0
 62
256
370
-1
 48
1.0
  6
BYLAYER
 10
-60.8844145777690784
 20
69.8313368700360257
 30
0.0
 11
-75.6845733551471511
 21
64.4445196126597466
 31
0.0
  0
LINE
  5
27D
100
AcDbEntity
100
AcDbLine
  8
0
 62
256
370
-1
 48
1.0
  6
BYLAYER
 10
-62.0279365853443352
 20
72.6076622144813086
 30
0.0
 11
-76.8280953627224079
 21
67.2208449571014484
 31
0.0
  0
ARC
  5
27E
100
AcDbEntity
  8
0
 62
256
370
-1
 48
1.0
  6
BYLAYER
100
AcDbCircle
 10
-76.375056739711269
 20
65.7933937952278285
 30
0.0
 40
1.4976183804552152
100
AcDbArc
 50
107.6081847385099621
 51
294.3591421559273158
  0
ARC
  5
27F
100
AcDbEntity
  8
0
 62
256
370
-1
 48
1.0
  6
BYLAYER
100
AcDbCircle
 10
-61.3504601617177769
 20
71.2579768083820824
 30
0.0
 40
1.4957462850793211
100
AcDbArc
 50
289.670251149698629
 51
116.6544250460064802
  0
CIRCLE
  5
280
100
AcDbEntity
100
AcDbCircle
  8
0
 62
256
370
-1
 48
1.0
  6
BYLAYER
 10
76.5424123119183548
 20
100.4528791032288382
 30
0.0
 40
1.6000000000000001
  0
CIRCLE
  5
281
100
AcDbEntity
100
AcDbCircle
  8
0
 62
256
370
-1
 48
1.0
  6
BYLAYER
 10
54.5424123119183193
 20
100.452879103228895
 30
0.0
 40
1.6000000000000001
  0
CIRCLE
  5
282
100
AcDbEntity
100
AcDbCircle
  8
0
 62
256
370
-1
 48
1.0
  6
BYLAYER
 10
-14.5308357484119099
 20
100.4307477020159638
 30
0.0
 40
1.6000000000000001
  0
CIRCLE
  5
283
100
AcDbEntity
100
AcDbCircle
  8
0
 62
256
370
-1
 48
1.0
  6
BYLAYER
 10
-36.5308357484119455
 20
100.430747702015907
 30
0.0
 40
1.6000000000000001
  0
CIRCLE
  5
284
100
AcDbEntity
100
AcDbCircle
  8
0
 62
256
370
-1
 48
1.0
  6
BYLAYER
 10
-14.4999999999999858
 20
62.4359758241937186
 30
0.0
 40
1.6000000000000001
  0
CIRCLE
  5
285
100
AcDbEntity
100
AcDbCircle
  8
0
 62
256
370
-1
 48
1.0
  6
BYLAYER
 10
-36.4999999999999858
 20
62.4359758241937044
 30
0.0
 40
1.6000000000000001
  0
CIRCLE
  5
286
100
AcDbEntity
100
AcDbCircle
  8
0
 62
256
370
-1
 48
1.0
  6
BYLAYER
 10
76.5000000000000142
 20
62.4359758241937186
 30
0.0
 40
1.6000000000000001
  0
CIRCLE
  5
287
100
AcDbEntity
100
AcDbCircle
  8
0
 62
256
370
-1
 48
1.0
  6
BYLAYER
 10
54.5000000000000142
 20
62.4359758241937186
 30
0.0
 40
1.6000000000000001
  0
LINE
  5
288
100
AcDbEntity
100
AcDbLine
  8
0
 62
256
370
-1
 48
1.0
  6
BYLAYER
 10
-14.9999999999999574
 20
87.4359758241937755
 30
0.0
 11
-29.9999999999999858
 21
87.4359758241937186
 31
0.0
  0
LINE
  5
289
100
AcDbEntity
100
AcDbLine
  8
0
 62
256
370
-1
 48
1.0
  6
BYLAYER
 10
70.0000000000000142
 20
87.4359758241936902
 30
0.0
 11
55.0000000000000284
 21
87.4359758241936902
 31
0.0
  0
LINE
  5
28A
100
AcDbEntity
100
AcDbLine
  8
0
 62
256
370
-1
 48
1.0
  6
BYLAYER
 10
70.0000000000000284
 20
92.4359758241937044
 30
0.0
 11
55.0000000000000284
 21
92.4359758241937186
 31
0.0
  0
LINE
  5
28B
100
AcDbEntity
100
AcDbLine
  8
0
 62
256
370
-1
 48
1.0
  6
BYLAYER
 10
-14.9999999999999858
 20
92.4359758241937328
 30
0.0
 11
-29.9999999999999929
 21
92.4359758241937328
 31
0.0
  0
ARC
  5
28C
100
AcDbEntity
  8
0
 62
256
370
-1
 48
1.0
  6
BYLAYER
100
AcDbCircle
 10
55.0000000000000284
 20
89.9359758241936902
 30
0.0
 40
2.5
100
AcDbArc
 50
90.0
 51
270.0
  0
ARC
  5
28D
100
AcDbEntity
  8
0
 62
256
370
-1
 48
1.0
  6
BYLAYER
100
AcDbCircle
 10
-29.9999999999999645
 20
89.9359758241937755
 30
0.0
 40
2.5
100
AcDbArc
 50
90.0
 51
270.0
  0
ARC
  5
28E
100
AcDbEntity
  8
0
 62
256
370
-1
 48
1.0
  6
BYLAYER
100
AcDbCircle
 10
-14.9999999999999929
 20
89.9359758241937186
 30
0.0
 40
2.5
100
AcDbArc
 50
270.0
 51
90.0
  0
ARC
  5
28F
100
AcDbEntity
  8
0
 62
256
370
-1
 48
1.0
  6
BYLAYER
100
AcDbCircle
 10
70.0000000000000142
 20
89.9359758241936902
 30
0.0
 40
2.5
100
AcDbArc
 50
270.0
 51
90.0
  0
LINE
  5
290
100
AcDbEntity
100
AcDbLine
  8
0
 62
256
370
-1
 48
1.0
  6
BYLAYER
 10
80.0
 20
47.4359758241936618
 30
0.0
 11
65.0
 21
47.4359758241937044
 31
0.0
  0
LINE
  5
291
100
AcDbEntity
100
AcDbLine
  8
0
 62
256
370
-1
 48
1.0
  6
BYLAYER
 10
80.0000000000000142
 20
53.4359758241937186
 30
0.0
 11
65.0000000000000142
 21
53.4359758241936902
 31
0.0
  0
LINE
  5
292
100
AcDbEntity
100
AcDbLine
  8
0
 62
256
370
-1
 48
1.0
  6
BYLAYER
 10
-24.9999999999999929
 20
47.4359758241937328
 30
0.0
 11
-39.9999999999999858
 21
47.4359758241937186
 31
0.0
  0
LINE
  5
293
100
AcDbEntity
100
AcDbLine
  8
0
 62
256
370
-1
 48
1.0
  6
BYLAYER
 10
-24.9999999999999858
 20
53.4359758241937186
 30
0.0
 11
-39.9999999999999929
 21
53.435975824193747
 31
0.0
  0
ARC
  5
294
100
AcDbEntity
  8
0
 62
256
370
-1
 48
1.0
  6
BYLAYER
100
AcDbCircle
 10
65.0
 20
50.4359758241937044
 30
0.0
 40
3.0
100
AcDbArc
 50
90.0
 51
270.0
  0
ARC
  5
295
100
AcDbEntity
  8
0
 62
256
370
-1
 48
1.0
  6
BYLAYER
100
AcDbCircle
 10
-39.9999999999999858
 20
50.4359758241937328
 30
0.0
 40
3.0
100
AcDbArc
 50
90.0
 51
270.0
  0
ARC
  5
296
100
AcDbEntity
  8
0
 62
256
370
-1
 48
1.0
  6
BYLAYER
100
AcDbCircle
 10
80.0
 20
50.4359758241936902
 30
0.0
 40
3.0
100
AcDbArc
 50
270.0
 51
90.0
  0
ARC
  5
297
100
AcDbEntity
  8
0
 62
256
370
-1
 48
1.0
  6
BYLAYER
100
AcDbCircle
 10
-24.9999999999999858
 20
50.4359758241937186
 30
0.0
 40
3.0
100
AcDbArc
 50
270.0
 51
90.0
  0
CIRCLE
  5
298
100
AcDbEntity
100
AcDbCircle
  8
0
 62
256
370
-1
 48
1.0
  6
BYLAYER
 10
-34.9999999999999858
 20
77.4359758241936902
 30
0.0
 40
6.0
  0
CIRCLE
  5
299
100
AcDbEntity
100
AcDbCircle
  8
0
 62
256
370
-1
 48
1.0
  6
BYLAYER
 10
75.0000000000000142
 20
77.4359758241936618
 30
0.0
 40
6.0
  0
CIRCLE
  5
29A
100
AcDbEntity
100
AcDbCircle
  8
0
 62
256
370
-1
 48
1.0
  6
BYLAYER
 10
-83.5571255716890988
 20
48.8810869095214997
 30
0.0
 40
1.5
  0
CIRCLE
  5
29B
100
AcDbEntity
100
AcDbCircle
  8
0
 62
256
370
-1
 48
1.0
  6
BYLAYER
 10
-54.9999999999999858
 20
53.435975824193747
 30
0.0
 40
1.5
  0
CIRCLE
  5
29C
100
AcDbEntity
100
AcDbCircle
  8
0
 62
256
370
-1
 48
1.0
  6
BYLAYER
 10
95.0
 20
53.4359758241936902
 30
0.0
 40
1.5
  0
CIRCLE
  5
29D
100
AcDbEntity
100
AcDbCircle
  8
0
 62
256
370
-1
 48
1.0
  6
BYLAYER
 10
-51.7499999999999858
 20
68.9359758241939886
 30
0.0
 40
1.5
  0
CIRCLE
  5
29E
100
AcDbEntity
100
AcDbCircle
  8
0
 62
256
370
-1
 48
1.0
  6
BYLAYER
 10
91.9133328593574248
 20
68.8491788040479236
 30
0.0
 40
1.5
  0
LINE
  5
29F
100
AcDbEntity
100
AcDbLine
  8
0
 62
256
370
-1
 48
1.0
  6
BYLAYER
 10
-40.6381443037548209
 20
105.6414519309507227
 30
0.0
 11
-40.6381443037548564
 21
93.5414519309506431
 31
0.0
  0
LINE
  5
2A0
100
AcDbEntity
100
AcDbLine
  8
0
 62
256
370
-1
 48
1.0
  6
BYLAYER
 10
-8.6381443037548102
 20
105.6414519309506659
 30
0.0
 11
-40.6381443037548209
 21
105.6414519309507227
 31
0.0
  0
LINE
  5
2A1
100
AcDbEntity
100
AcDbLine
  8
0
 62
256
370
-1
 48
1.0
  6
BYLAYER
 10
80.6381443037548848
 20
105.6414519309506943
 30
0.0
 11
48.638144303754892
 21
105.6414519309506943
 31
0.0
  0
LINE
  5
2A2
100
AcDbEntity
100
AcDbLine
  8
0
 62
256
370
-1
 48
1.0
  6
BYLAYER
 10
-8.6381443037548102
 20
105.6414519309506659
 30
0.0
 11
-8.6381443037548529
 21
101.6414519309506375
 31
0.0
  0
LINE
  5
2A3
100
AcDbEntity
100
AcDbLine
  8
0
 62
256
370
-1
 48
1.0
  6
BYLAYER
 10
48.638144303754892
 20
105.6414519309506943
 30
0.0
 11
48.6381443037548706
 21
101.6414519309507085
 31
0.0
  0
LINE
  5
2A4
100
AcDbEntity
100
AcDbLine
  8
0
 62
256
370
-1
 48
1.0
  6
BYLAYER
 10
48.6381443037548706
 20
101.6414519309507085
 30
0.0
 11
-8.5618556962451429
 21
101.6414519309506943
 31
0.0
  0
LINE
  5
2A5
100
AcDbEntity
100
AcDbLine
  8
0
 62
256
370
-1
 48
1.0
  6
BYLAYER
 10
22.8517796810436806
 20
69.4800912515124196
 30
0.0
 11
20.2740882274196963
 21
67.9918603968749125
 31
0.0
  0
ARC
  5
2A6
100
AcDbEntity
  8
0
 62
256
370
-1
 48
1.0
  6
BYLAYER
100
AcDbCircle
 10
22.581779681043642
 20
69.9477449695559983
 30
0.0
 40
0.5399999999999999
100
AcDbArc
 50
299.9999999999972147
 51
0.0
  0
LINE
  5
2A7
100
AcDbEntity
100
AcDbLine
  8
0
 62
256
370
-1
 48
1.0
  6
BYLAYER
 10
19.73408822741969
 20
67.9918603968748982
 30
0.0
 11
17.1563967737957057
 21
69.4800912515124338
 31
0.0
  0
ARC
  5
2A8
100
AcDbEntity
  8
0
 62
256
370
-1
 48
1.0
  6
BYLAYER
100
AcDbCircle
 10
20.0040882274196861
 20
68.4595141149185338
 30
0.0
 40
0.5399999999999999
100
AcDbArc
 50
240.0000000000028137
 51
299.9999999999972147
  0
LINE
  5
2A9
100
AcDbEntity
100
AcDbLine
  8
0
 62
256
370
-1
 48
1.0
  6
BYLAYER
 10
16.8863967737956955
 20
69.9477449695560125
 30
0.0
 11
16.8863967737957097
 21
72.9242066788313252
 31
0.0
  0
ARC
  5
2AA
100
AcDbEntity
  8
0
 62
256
370
-1
 48
1.0
  6
BYLAYER
100
AcDbCircle
 10
17.4263967737957017
 20
69.9477449695560125
 30
0.0
 40
0.5399999999999999
100
AcDbArc
 50
180.0
 51
240.0000000000028137
  0
LINE
  5
2AB
100
AcDbEntity
100
AcDbLine
  8
0
 62
256
370
-1
 48
1.0
  6
BYLAYER
 10
17.1563967737957093
 20
73.3918603968749039
 30
0.0
 11
19.7340882274196936
 21
74.8800912515124253
 31
0.0
  0
ARC
  5
2AC
100
AcDbEntity
  8
0
 62
256
370
-1
 48
1.0
  6
BYLAYER
100
AcDbCircle
 10
17.4263967737957017
 20
72.9242066788312968
 30
0.0
 40
0.5399999999999999
100
AcDbArc
 50
119.9999999999972147
 51
180.0
  0
LINE
  5
2AD
100
AcDbEntity
100
AcDbLine
  8
0
 62
256
370
-1
 48
1.0
  6
BYLAYER
 10
20.2740882274196998
 20
74.8800912515124253
 30
0.0
 11
22.8517796810436948
 21
73.3918603968748897
 31
0.0
  0
ARC
  5
2AE
100
AcDbEntity
  8
0
 62
256
370
-1
 48
1.0
  6
BYLAYER
100
AcDbCircle
 10
20.0040882274197038
 20
74.4124375334689034
 30
0.0
 40
0.5399999999999999
100
AcDbArc
 50
60.0000000000027853
 51
119.9999999999972147
  0
LINE
  5
2AF
100
AcDbEntity
100
AcDbLine
  8
0
 62
256
370
-1
 48
1.0
  6
BYLAYER
 10
23.1217796810436482
 20
69.9477449695560267
 30
0.0
 11
23.1217796810436518
 21
72.9242066788312968
 31
0.0
  0
ARC
  5
2B0
100
AcDbEntity
  8
0
 62
256
370
-1
 48
1.0
  6
BYLAYER
100
AcDbCircle
 10
22.581779681043642
 20
72.924206678831311
 30
0.0
 40
0.5399999999999999
100
AcDbArc
 50
0.0
 51
60.0000000000027853
  0
LINE
  5
2B1
100
AcDbEntity
100
AcDbLine
  8
0
 62
256
370
-1
 48
1.0
  6
BYLAYER
 10
22.8517796810436877
 20
81.9039172872220433
 30
0.0
 11
20.2740882274197034
 21
80.4156864325845362
 31
0.0
  0
ARC
  5
2B2
100
AcDbEntity
  8
0
 62
256
370
-1
 48
1.0
  6
BYLAYER
100
AcDbCircle
 10
22.581779681043642
 20
82.3715710052656362
 30
0.0
 40
0.5399999999999999
100
AcDbArc
 50
299.9999999999972147
 51
0.0
  0
LINE
  5
2B3
100
AcDbEntity
100
AcDbLine
  8
0
 62
256
370
-1
 48
1.0
  6
BYLAYER
 10
19.7340882274196971
 20
80.4156864325845362
 30
0.0
 11
17.1563967737957057
 21
81.9039172872220576
 31
0.0
  0
ARC
  5
2B4
100
AcDbEntity
  8
0
 62
256
370
-1
 48
1.0
  6
BYLAYER
100
AcDbCircle
 10
20.0040882274196932
 20
80.8833401506281717
 30
0.0
 40
0.5399999999999999
100
AcDbArc
 50
240.0000000000028137
 51
299.9999999999972147
  0
LINE
  5
2B5
100
AcDbEntity
100
AcDbLine
  8
0
 62
256
370
-1
 48
1.0
  6
BYLAYER
 10
16.8863967737956848
 20
82.3715710052656505
 30
0.0
 11
16.8863967737957168
 21
85.348032714540949
 31
0.0
  0
ARC
  5
2B6
100
AcDbEntity
  8
0
 62
256
370
-1
 48
1.0
  6
BYLAYER
100
AcDbCircle
 10
17.4263967737957088
 20
82.3715710052656362
 30
0.0
 40
0.5399999999999999
100
AcDbArc
 50
180.0
 51
240.0000000000028137
  0
LINE
  5
2B7
100
AcDbEntity
100
AcDbLine
  8
0
 62
256
370
-1
 48
1.0
  6
BYLAYER
 10
17.1563967737957306
 20
85.8156864325845277
 30
0.0
 11
19.7340882274197007
 21
87.3039172872220632
 31
0.0
  0
ARC
  5
2B8
100
AcDbEntity
  8
0
 62
256
370
-1
 48
1.0
  6
BYLAYER
100
AcDbCircle
 10
17.4263967737957017
 20
85.3480327145409348
 30
0.0
 40
0.5399999999999999
100
AcDbArc
 50
119.9999999999972147
 51
180.0
  0
LINE
  5
2B9
100
AcDbEntity
100
AcDbLine
  8
0
 62
256
370
-1
 48
1.0
  6
BYLAYER
 10
20.2740882274196998
 20
87.3039172872220632
 30
0.0
 11
22.8517796810437019
 21
85.8156864325845277
 31
0.0
  0
ARC
  5
2BA
100
AcDbEntity
  8
0
 62
256
370
-1
 48
1.0
  6
BYLAYER
100
AcDbCircle
 10
20.0040882274197109
 20
86.8362635691785414
 30
0.0
 40
0.5399999999999999
100
AcDbArc
 50
60.0000000000027853
 51
119.9999999999972147
  0
LINE
  5
2BB
100
AcDbEntity
100
AcDbLine
  8
0
 62
256
370
-1
 48
1.0
  6
BYLAYER
 10
23.1217796810436518
 20
82.3715710052656362
 30
0.0
 11
23.1217796810436518
 21
85.3480327145409348
 31
0.0
  0
ARC
  5
2BC
100
AcDbEntity
  8
0
 62
256
370
-1
 48
1.0
  6
BYLAYER
100
AcDbCircle
 10
22.5817796810436455
 20
85.3480327145409348
 30
0.0
 40
0.5399999999999999
100
AcDbArc
 50
0.0
 51
60.0000000000027853
  0
LINE
  5
2BD
100
AcDbEntity
100
AcDbLine
  8
0
 62
256
370
-1
 48
1.0
  6
BYLAYER
 10
-27.8476914536239946
 20
69.3918603968753587
 30
0.0
 11
-25.2700000000000102
 21
70.8800912515124395
 31
0.0
  0
ARC
  5
2BE
100
AcDbEntity
  8
0
 62
256
370
-1
 48
1.0
  6
BYLAYER
100
AcDbCircle
 10
-27.5776914536239559
 20
68.9242066788315526
 30
0.0
 40
0.5399999999999999
100
AcDbArc
 50
119.9999999999972147
 51
180.0
  0
LINE
  5
2BF
100
AcDbEntity
100
AcDbLine
  8
0
 62
256
370
-1
 48
1.0
  6
BYLAYER
 10
-24.730000000000004
 20
70.8800912515126527
 30
0.0
 11
-22.1523085463760196
 21
69.3918603968751881
 31
0.0
  0
ARC
  5
2C0
100
AcDbEntity
  8
0
 62
256
370
-1
 48
1.0
  6
BYLAYER
100
AcDbCircle
 10
-25.0
 20
70.4124375334689461
 30
0.0
 40
0.5399999999999999
100
AcDbArc
 50
60.0000000000028351
 51
119.9999999999972147
  0
LINE
  5
2C1
100
AcDbEntity
100
AcDbLine
  8
0
 62
256
370
-1
 48
1.0
  6
BYLAYER
 10
-21.8823085463760094
 20
68.9242066788315526
 30
0.0
 11
-21.8823085463760236
 21
65.9477449695560978
 31
0.0
  0
ARC
  5
2C2
100
AcDbEntity
  8
0
 62
256
370
-1
 48
1.0
  6
BYLAYER
100
AcDbCircle
 10
-22.4223085463760157
 20
68.9242066788313537
 30
0.0
 40
0.5399999999999999
100
AcDbArc
 50
0.0
 51
60.0000000000028351
  0
LINE
  5
2C3
100
AcDbEntity
100
AcDbLine
  8
0
 62
256
370
-1
 48
1.0
  6
BYLAYER
 10
-22.1523085463760196
 20
65.4800912515125901
 30
0.0
 11
-24.730000000000004
 21
63.9918603968749835
 31
0.0
  0
ARC
  5
2C4
100
AcDbEntity
  8
0
 62
256
370
-1
 48
1.0
  6
BYLAYER
100
AcDbCircle
 10
-22.4223085463760157
 20
65.9477449695561404
 30
0.0
 40
0.5399999999999999
100
AcDbArc
 50
299.9999999999972147
 51
0.0
  0
LINE
  5
2C5
100
AcDbEntity
100
AcDbLine
  8
0
 62
256
370
-1
 48
1.0
  6
BYLAYER
 10
-25.2700000000000102
 20
63.9918603968749977
 30
0.0
 11
-27.8476914536240088
 21
65.4800912515125333
 31
0.0
  0
ARC
  5
2C6
100
AcDbEntity
  8
0
 62
256
370
-1
 48
1.0
  6
BYLAYER
100
AcDbCircle
 10
-25.0000000000000142
 20
64.4595141149185906
 30
0.0
 40
0.5399999999999999
100
AcDbArc
 50
240.0000000000027853
 51
299.9999999999972147
  0
LINE
  5
2C7
100
AcDbEntity
100
AcDbLine
  8
0
 62
256
370
-1
 48
1.0
  6
BYLAYER
 10
-28.1176914536239622
 20
68.9242066788314816
 30
0.0
 11
-28.1176914536239622
 21
65.9477449695562257
 31
0.0
  0
ARC
  5
2C8
100
AcDbEntity
  8
0
 62
256
370
-1
 48
1.0
  6
BYLAYER
100
AcDbCircle
 10
-27.5776914536239559
 20
65.9477449695561262
 30
0.0
 40
0.5399999999999999
100
AcDbArc
 50
180.0
 51
240.0000000000027853
  0
LINE
  5
2C9
100
AcDbEntity
100
AcDbLine
  8
0
 62
256
370
-1
 48
1.0
  6
BYLAYER
 10
62.1523085463760054
 20
69.3918603968751597
 30
0.0
 11
64.7299999999999898
 21
70.8800912515126669
 31
0.0
  0
ARC
  5
2CA
100
AcDbEntity
  8
0
 62
256
370
-1
 48
1.0
  6
BYLAYER
100
AcDbCircle
 10
62.4223085463760441
 20
68.9242066788313537
 30
0.0
 40
0.5399999999999999
100
AcDbArc
 50
119.9999999999972147
 51
180.0
  0
LINE
  5
2CB
100
AcDbEntity
100
AcDbLine
  8
0
 62
256
370
-1
 48
1.0
  6
BYLAYER
 10
65.269999999999996
 20
70.8800912515126527
 30
0.0
 11
67.8476914536239804
 21
69.3918603968753445
 31
0.0
  0
ARC
  5
2CC
100
AcDbEntity
  8
0
 62
256
370
-1
 48
1.0
  6
BYLAYER
100
AcDbCircle
 10
65.0
 20
70.4124375334689176
 30
0.0
 40
0.5399999999999999
100
AcDbArc
 50
60.0000000000028351
 51
119.9999999999972147
  0
LINE
  5
2CD
100
AcDbEntity
100
AcDbLine
  8
0
 62
256
370
-1
 48
1.0
  6
BYLAYER
 10
68.1176914536239906
 20
68.9242066788314389
 30
0.0
 11
68.1176914536239764
 21
65.9477449695562115
 31
0.0
  0
ARC
  5
2CE
100
AcDbEntity
  8
0
 62
256
370
-1
 48
1.0
  6
BYLAYER
100
AcDbCircle
 10
67.5776914536239843
 20
68.92420667883151
 30
0.0
 40
0.5399999999999999
100
AcDbArc
 50
0.0
 51
60.0000000000028351
  0
LINE
  5
2CF
100
AcDbEntity
100
AcDbLine
  8
0
 62
256
370
-1
 48
1.0
  6
BYLAYER
 10
67.8476914536239804
 20
65.4800912515125191
 30
0.0
 11
65.269999999999996
 21
63.9918603968750119
 31
0.0
  0
ARC
  5
2D0
100
AcDbEntity
  8
0
 62
256
370
-1
 48
1.0
  6
BYLAYER
100
AcDbCircle
 10
67.5776914536239843
 20
65.9477449695561404
 30
0.0
 40
0.5399999999999999
100
AcDbArc
 50
299.9999999999972147
 51
0.0
  0
LINE
  5
2D1
100
AcDbEntity
100
AcDbLine
  8
0
 62
256
370
-1
 48
1.0
  6
BYLAYER
 10
64.7299999999999756
 20
63.9918603968749693
 30
0.0
 11
62.1523085463759841
 21
65.4800912515125617
 31
0.0
  0
ARC
  5
2D2
100
AcDbEntity
  8
0
 62
256
370
-1
 48
1.0
  6
BYLAYER
100
AcDbCircle
 10
64.9999999999999858
 20
64.4595141149185764
 30
0.0
 40
0.5399999999999999
100
AcDbArc
 50
240.0000000000027853
 51
299.9999999999972147
  0
LINE
  5
2D3
100
AcDbEntity
100
AcDbLine
  8
0
 62
256
370
-1
 48
1.0
  6
BYLAYER
 10
61.8823085463760378
 20
68.9242066788315526
 30
0.0
 11
61.8823085463760378
 21
65.9477449695561972
 31
0.0
  0
ARC
  5
2D4
100
AcDbEntity
  8
0
 62
256
370
-1
 48
1.0
  6
BYLAYER
100
AcDbCircle
 10
62.4223085463760441
 20
65.9477449695561546
 30
0.0
 40
0.5399999999999999
100
AcDbArc
 50
180.0
 51
240.0000000000027853
  0
CIRCLE
  5
2D5
100
AcDbEntity
100
AcDbCircle
  8
0
 62
256
370
-1
 48
1.0
  6
BYLAYER
 10
123.652027193813467
 20
48.885958079246322
 30
0.0
 40
1.5
  0
CIRCLE
  5
2D6
100
AcDbEntity
100
AcDbCircle
  8
0
 62
256
370
-1
 48
1.0
  6
BYLAYER
 10
-86.3291645723434158
 20
60.9140681570929985
 30
0.0
 40
1.5
  0
CIRCLE
  5
2D7
100
AcDbEntity
100
AcDbCircle
  8
0
 62
256
370
-1
 48
1.0
  6
BYLAYER
 10
126.4240661944677981
 20
60.9189393268177071
 30
0.0
 40
1.5
  0
CIRCLE
  5
2D8
100
AcDbEntity
100
AcDbCircle
  8
0
 62
256
370
-1
 48
1.0
  6
BYLAYER
 10
86.9644096637923951
 20
47.4130373787727422
 30
0.0
 40
1.5
  0
CIRCLE
  5
2D9
100
AcDbEntity
100
AcDbCircle
  8
0
 62
256
370
-1
 48
1.0
  6
BYLAYER
 10
-46.8010768044349561
 20
47.4998343989188072
 30
0.0
 40
1.5
  0
ENDSEC
  0
SECTION
  2
OBJECTS
  0
DICTIONARY
  5
C
100
AcDbDictionary
280
0
281
1
  3
ACAD_GROUP
350
D
  3
ACAD_LAYOUT
350
1A
  3
ACAD_MLINESTYLE
350
17
  3
ACAD_PLOTSETTINGS
350
19
  3
ACAD_PLOTSTYLENAME
350
E
  3
AcDbVariableDictionary
350
2DA
  3
QCAD_OBJECTS
350
2DB
  0
DICTIONARY
  5
D
100
AcDbDictionary
280
0
281
1
  0
ACDBDICTIONARYWDFLT
  5
E
100
AcDbDictionary
281
1
  3
Normal
350
F
100
AcDbDictionaryWithDefault
340
F
  0
ACDBPLACEHOLDER
  5
F
  0
DICTIONARY
  5
17
100
AcDbDictionary
280
0
281
1
  3
Standard
350
18
  0
MLINESTYLE
  5
18
100
AcDbMlineStyle
  2
STANDARD
 70
0
  3

 62
256
 51
90.0
 52
90.0
 71
2
 49
0.5
 62
256
  6
BYLAYER
 49
-0.5
 62
256
  6
BYLAYER
  0
DICTIONARY
  5
19
100
AcDbDictionary
280
0
281
1
  0
DICTIONARY
  5
1A
100
AcDbDictionary
281
1
  3
Layout1
350
1E
  3
Layout2
350
26
  3
Model
350
22
  0
LAYOUT
  5
1E
100
AcDbPlotSettings
  1

  2
none_device
  4

  6

 40
0.0
 41
0.0
 42
0.0
 43
0.0
 44
0.0
 45
0.0
 46
0.0
 47
0.0
 48
0.0
 49
0.0
140
0.0
141
0.0
142
1.0
143
1.0
 70
688
 72
0
 73
0
 74
5
  7

 75
16
147
1.0
148
0.0
149
0.0
100
AcDbLayout
  1
Layout1
 70
1
 71
1
 10
0.0
 20
0.0
 11
420.0
 21
297.0
 12
0.0
 22
0.0
 32
0.0
 14
100000000000000000000.0
 24
100000000000000000000.0
 34
100000000000000000000.0
 15
-100000000000000000000.0
 25
-100000000000000000000.0
 35
-100000000000000000000.0
146
0.0
 13
0.0
 23
0.0
 33
0.0
 16
1.0
 26
0.0
 36
0.0
 17
0.0
 27
1.0
 37
0.0
 76
0
330
1B
  0
LAYOUT
  5
22
100
AcDbPlotSettings
  1

  2
none_device
  4

  6

 40
0.0
 41
0.0
 42
0.0
 43
0.0
 44
0.0
 45
0.0
 46
0.0
 47
0.0
 48
0.0
 49
0.0
140
0.0
141
0.0
142
1.0
143
1.0
 70
1712
 72
0
 73
0
 74
0
  7

 75
0
147
1.0
148
0.0
149
0.0
100
AcDbLayout
  1
Model
 70
1
 71
0
 10
0.0
 20
0.0
 11
12.0
 21
9.0
 12
0.0
 22
0.0
 32
0.0
 14
0.0
 24
0.0
 34
0.0
 15
0.0
 25
0.0
 35
0.0
146
0.0
 13
0.0
 23
0.0
 33
0.0
 16
1.0
 26
0.0
 36
0.0
 17
0.0
 27
1.0
 37
0.0
 76
0
330
1F
  0
LAYOUT
  5
26
100
AcDbPlotSettings
  1

  2
none_device
  4

  6

 40
0.0
 41
0.0
 42
0.0
 43
0.0
 44
0.0
 45
0.0
 46
0.0
 47
0.0
 48
0.0
 49
0.0
140
0.0
141
0.0
142
1.0
143
1.0
 70
688
 72
0
 73
0
 74
5
  7

 75
16
147
1.0
148
0.0
149
0.0
100
AcDbLayout
  1
Layout2
 70
1
 71
2
 10
0.0
 20
0.0
 11
12.0
 21
9.0
 12
0.0
 22
0.0
 32
0.0
 14
0.0
 24
0.0
 34
0.0
 15
0.0
 25
0.0
 35
0.0
146
0.0
 13
0.0
 23
0.0
 33
0.0
 16
1.0
 26
0.0
 36
0.0
 17
0.0
 27
1.0
 37
0.0
 76
0
330
23
  0
DICTIONARY
  5
2DA
100
AcDbDictionary
281
1
  3
DIMASSOC
350
2DD
  3
HIDETEXT
350
2DC
  0
DICTIONARYVAR
  5
2DC
100
DictionaryVariables
280
0
  1
2
  0
DICTIONARYVAR
  5
2DD
100
DictionaryVariables
280
0
  1
1
  0
DICTIONARY
  5
2DB
100
AcDbDictionary
281
1
  3
ColorSettings/BackgroundColor
350
2DE
  3
ColorSettings/ColorMode
350
2DF
  3
Grid/DisplayGrid00
350
2E0
  3
Grid/DisplayGrid01
350
2E1
  3
Grid/DisplayGrid02
350
2E2
  3
Grid/DisplayGrid03
350
2E3
  3
Grid/GridSpacingX00
350
2E4
  3
Grid/GridSpacingX01
350
2E5
  3
Grid/GridSpacingX02
350
2E6
  3
Grid/GridSpacingX03
350
2E7
  3
Grid/GridSpacingY00
350
2E8
  3
Grid/GridSpacingY01
350
2E9
  3
Grid/GridSpacingY02
350
2EA
  3
Grid/GridSpacingY03
350
2EB
  3
Grid/IsometricGrid00
350
2EC
  3
Grid/IsometricGrid01
350
2ED
  3
Grid/IsometricGrid02
350
2EE
  3
Grid/IsometricGrid03
350
2EF
  3
Grid/IsometricProjection00
350
2F0
  3
Grid/IsometricProjection01
350
2F1
  3
Grid/IsometricProjection02
350
2F2
  3
Grid/IsometricProjection03
350
2F3
  3
Grid/MetaGridSpacingX00
350
2F4
  3
Grid/MetaGridSpacingX01
350
2F5
  3
Grid/MetaGridSpacingX02
350
2F6
  3
Grid/MetaGridSpacingX03
350
2F7
  3
Grid/MetaGridSpacingY00
350
2F8
  3
Grid/MetaGridSpacingY01
350
2F9
  3
Grid/MetaGridSpacingY02
350
2FA
  3
Grid/MetaGridSpacingY03
350
2FB
  3
MultiPageSettings/Columns
350
2FC
  3
MultiPageSettings/GlueMarginsBottom
350
2FD
  3
MultiPageSettings/GlueMarginsLeft
350
2FE
  3
MultiPageSettings/GlueMarginsRight
350
2FF
  3
MultiPageSettings/GlueMarginsTop
350
300
  3
MultiPageSettings/PrintCropMarks
350
301
  3
MultiPageSettings/Rows
350
302
  3
PageSettings/OffsetX
350
303
  3
PageSettings/OffsetY
350
304
  3
PageSettings/PageOrientation
350
305
  3
PageSettings/PaperHeight
350
306
  3
PageSettings/PaperWidth
350
307
  3
PageSettings/Scale
350
308
  3
PageSettings/ShowPaperBorders
350
309
  3
UnitSettings/PaperUnit
350
30A
  0
XRECORD
  5
2DE
330
2DB
100
AcDbXrecord
280
1
1000
White
  0
XRECORD
  5
2DF
330
2DB
100
AcDbXrecord
280
1
1000
FullColor
  0
XRECORD
  5
2E0
330
2DB
100
AcDbXrecord
280
1
290
1
  0
XRECORD
  5
2E1
330
2DB
100
AcDbXrecord
280
1
290
1
  0
XRECORD
  5
2E2
330
2DB
100
AcDbXrecord
280
1
290
1
  0
XRECORD
  5
2E3
330
2DB
100
AcDbXrecord
280
1
290
1
  0
XRECORD
  5
2E4
330
2DB
100
AcDbXrecord
280
1
1000
auto
  0
XRECORD
  5
2E5
330
2DB
100
AcDbXrecord
280
1
1000
auto
  0
XRECORD
  5
2E6
330
2DB
100
AcDbXrecord
280
1
1000
auto
  0
XRECORD
  5
2E7
330
2DB
100
AcDbXrecord
280
1
1000
auto
  0
XRECORD
  5
2E8
330
2DB
100
AcDbXrecord
280
1
1000
auto
  0
XRECORD
  5
2E9
330
2DB
100
AcDbXrecord
280
1
1000
auto
  0
XRECORD
  5
2EA
330
2DB
100
AcDbXrecord
280
1
1000
auto
  0
XRECORD
  5
2EB
330
2DB
100
AcDbXrecord
280
1
1000
auto
  0
XRECORD
  5
2EC
330
2DB
100
AcDbXrecord
280
1
290
0
  0
XRECORD
  5
2ED
330
2DB
100
AcDbXrecord
280
1
290
0
  0
XRECORD
  5
2EE
330
2DB
100
AcDbXrecord
280
1
290
0
  0
XRECORD
  5
2EF
330
2DB
100
AcDbXrecord
280
1
290
0
  0
XRECORD
  5
2F0
330
2DB
100
AcDbXrecord
280
1
 90
0
  0
XRECORD
  5
2F1
330
2DB
100
AcDbXrecord
280
1
 90
0
  0
XRECORD
  5
2F2
330
2DB
100
AcDbXrecord
280
1
 90
0
  0
XRECORD
  5
2F3
330
2DB
100
AcDbXrecord
280
1
 90
0
  0
XRECORD
  5
2F4
330
2DB
100
AcDbXrecord
280
1
1000
auto
  0
XRECORD
  5
2F5
330
2DB
100
AcDbXrecord
280
1
1000
auto
  0
XRECORD
  5
2F6
330
2DB
100
AcDbXrecord
280
1
1000
auto
  0
XRECORD
  5
2F7
330
2DB
100
AcDbXrecord
280
1
1000
auto
  0
XRECORD
  5
2F8
330
2DB
100
AcDbXrecord
280
1
1000
auto
  0
XRECORD
  5
2F9
330
2DB
100
AcDbXrecord
280
1
1000
auto
  0
XRECORD
  5
2FA
330
2DB
100
AcDbXrecord
280
1
1000
auto
  0
XRECORD
  5
2FB
330
2DB
100
AcDbXrecord
280
1
1000
auto
  0
XRECORD
  5
2FC
330
2DB
100
AcDbXrecord
280
1
 90
1
  0
XRECORD
  5
2FD
330
2DB
100
AcDbXrecord
280
1
 40
10.0
  0
XRECORD
  5
2FE
330
2DB
100
AcDbXrecord
280
1
 40
10.0
  0
XRECORD
  5
2FF
330
2DB
100
AcDbXrecord
280
1
 40
10.0
  0
XRECORD
  5
300
330
2DB
100
AcDbXrecord
280
1
 40
10.0
  0
XRECORD
  5
301
330
2DB
100
AcDbXrecord
280
1
290
0
  0
XRECORD
  5
302
330
2DB
100
AcDbXrecord
280
1
 90
1
  0
XRECORD
  5
303
330
2DB
100
AcDbXrecord
280
1
 40
0.0
  0
XRECORD
  5
304
330
2DB
100
AcDbXrecord
280
1
 40
0.0
  0
XRECORD
  5
305
330
2DB
100
AcDbXrecord
280
1
1000
Portrait
  0
XRECORD
  5
306
330
2DB
100
AcDbXrecord
280
1
 40
297.0
  0
XRECORD
  5
307
330
2DB
100
AcDbXrecord
280
1
 40
210.0
  0
XRECORD
  5
308
330
2DB
100
AcDbXrecord
280
1
1000
1:1
  0
XRECORD
  5
309
330
2DB
100
AcDbXrecord
280
1
290
1
  0
XRECORD
  5
30A
330
2DB
100
AcDbXrecord
280
1
 90
4
  0
ENDSEC
  0
EOF
