999
dxflib 3.7.5.0
  0
SECTION
  2
HEADER
  9
$ACADVER
  1
AC1015
  9
$HANDSEED
  5
FFFF
  9
$DIMADEC
 70
0
  9
$DIMASZ
 40
2.5
  9
$DIMAUNIT
 70
0
  9
$DIMAZIN
 70
2
  9
$DIMDEC
 70
4
  9
$DIMEXE
 40
1.25
  9
$DIMEXO
 40
0.625
  9
$DIMGAP
 40
0.625
  9
$DIMLUNIT
 70
2
  9
$DIMSCALE
 40
1.0
  9
$DIMTSZ
 40
0.0
  9
$DIMTXT
 40
2.5
  9
$DIMZIN
 70
8
  9
$DWGCODEPAGE
  3
ANSI_1252
  9
$INSUNITS
 70
4
  9
$LTSCALE
 40
1
  0
ENDSEC
  0
SECTION
  2
TABLES
  0
TABLE
  2
VPORT
  5
8
100
AcDbSymbolTable
 70
1
  0
VPORT
  5
30
100
AcDbSymbolTableRecord
100
AcDbViewportTableRecord
  2
*Active
 70
0
 10
0.0
 20
0.0
 11
1.0
 21
1.0
 12
286.3055555555554861
 22
148.5
 13
0.0
 23
0.0
 14
10.0
 24
10.0
 15
10.0
 25
10.0
 16
0.0
 26
0.0
 36
1.0
 17
0.0
 27
0.0
 37
0.0
 40
297.0
 41
1.92798353909465
 42
50.0
 43
0.0
 44
0.0
 50
0.0
 51
0.0
 71
0
 72
100
 73
1
 74
3
 75
1
 76
1
 77
0
 78
0
281
0
 65
1
110
0.0
120
0.0
130
0.0
111
1.0
121
0.0
131
0.0
112
0.0
122
1.0
132
0.0
 79
0
146
0.0
  0
ENDTAB
  0
TABLE
  2
LTYPE
  5
5
100
AcDbSymbolTable
 70
3
  0
LTYPE
  5
16
100
AcDbSymbolTableRecord
100
AcDbLinetypeTableRecord
  2
Continuous
 70
0
  3
Solid line
 72
65
 73
0
 40
0.0
  0
LTYPE
  5
15
100
AcDbSymbolTableRecord
100
AcDbLinetypeTableRecord
  2
BYLAYER
 70
0
  3

 72
65
 73
0
 40
0.0
  0
LTYPE
  5
14
100
AcDbSymbolTableRecord
100
AcDbLinetypeTableRecord
  2
BYBLOCK
 70
0
  3

 72
65
 73
0
 40
0.0
  0
ENDTAB
  0
TABLE
  2
LAYER
  5
2
100
AcDbSymbolTable
 70
1
  0
LAYER
  5
10
100
AcDbSymbolTableRecord
100
AcDbLayerTableRecord
  2
0
 70
0
 62
7
420
16777215
  6
Continuous
370
25
390
F
  0
ENDTAB
  0
TABLE
  2
STYLE
  5
3
100
AcDbSymbolTable
 70
1
  0
STYLE
  5
31
100
AcDbSymbolTableRecord
100
AcDbTextStyleTableRecord
  2
Standard
 70
0
 40
0.0
 41
1.0
 50
0.0
 71
0
 42
2.5
  3

  4

1001
ACAD
1000
txt
1071
0
  0
ENDTAB
  0
TABLE
  2
VIEW
  5
6
100
AcDbSymbolTable
 70
0
  0
ENDTAB
  0
TABLE
  2
UCS
  5
7
100
AcDbSymbolTable
 70
0
  0
ENDTAB
  0
TABLE
  2
APPID
  5
9
100
AcDbSymbolTable
 70
1
  0
APPID
  5
12
100
AcDbSymbolTableRecord
100
AcDbRegAppTableRecord
  2
ACAD
 70
0
  0
APPID
  5
32
100
AcDbSymbolTableRecord
100
AcDbRegAppTableRecord
  2
QCAD
 70
0
  0
ENDTAB
  0
TABLE
  2
DIMSTYLE
  5
A
100
AcDbSymbolTable
 70
1
100
AcDbDimStyleTable
 71
0
  0
DIMSTYLE
105
27
100
AcDbSymbolTableRecord
100
AcDbDimStyleTableRecord
  2
Standard
 41
2.5
 42
0.625
 43
3.75
 44
1.25
 70
0
 73
0
 74
0
 77
1
 78
8
140
2.5
141
2.5
143
0.03937007874016
147
0.625
171
3
172
1
271
2
272
2
274
3
278
44
283
0
284
8
340
31
  0
ENDTAB
  0
TABLE
  2
BLOCK_RECORD
  5
1
100
AcDbSymbolTable
 70
1
  0
BLOCK_RECORD
  5
1F
100
AcDbSymbolTableRecord
100
AcDbBlockTableRecord
  2
*Model_Space
340
22
  0
BLOCK_RECORD
  5
1B
100
AcDbSymbolTableRecord
100
AcDbBlockTableRecord
  2
*Paper_Space
340
1E
  0
BLOCK_RECORD
  5
23
100
AcDbSymbolTableRecord
100
AcDbBlockTableRecord
  2
*Paper_Space0
340
26
  0
ENDTAB
  0
ENDSEC
  0
SECTION
  2
BLOCKS
  0
BLOCK
  5
20
100
AcDbEntity
  8
0
100
AcDbBlockBegin
  2
*Model_Space
 70
0
 10
0.0
 20
0.0
 30
0.0
  3
*Model_Space
  1

  0
ENDBLK
  5
21
100
AcDbEntity
  8
0
100
AcDbBlockEnd
  0
BLOCK
  5
1C
100
AcDbEntity
 67
1
  8
0
100
AcDbBlockBegin
  2
*Paper_Space
 70
0
 10
0.0
 20
0.0
 30
0.0
  3
*Paper_Space
  1

  0
ENDBLK
  5
1D
100
AcDbEntity
 67
1
  8
0
100
AcDbBlockEnd
  0
BLOCK
  5
24
100
AcDbEntity
  8
0
100
AcDbBlockBegin
  2
*Paper_Space0
 70
0
 10
0.0
 20
0.0
 30
0.0
  3
*Paper_Space0
  1

  0
ENDBLK
  5
25
100
AcDbEntity
  8
0
100
AcDbBlockEnd
  0
ENDSEC
  0
SECTION
  2
ENTITIES
  0
LINE
  5
33
100
AcDbEntity
100
AcDbLine
  8
0
 62
256
370
-1
 48
1.0
  6
BYLAYER
 10
19.3933982822017867
 20
40.6066017177982133
 30
0.0
 11
30.0
 21
30.0
 31
0.0
  0
LINE
  5
34
100
AcDbEntity
100
AcDbLine
  8
0
 62
256
370
-1
 48
1.0
  6
BYLAYER
 10
19.3933982822017867
 20
40.6066017177982133
 30
0.0
 11
19.3933982822017903
 21
79.6066017177982133
 31
0.0
  0
LINE
  5
35
100
AcDbEntity
100
AcDbLine
  8
0
 62
256
370
-1
 48
1.0
  6
BYLAYER
 10
19.3933982822017903
 20
79.6066017177982133
 30
0.0
 11
30.0000000000000036
 21
90.2132034355964265
 31
0.0
  0
LINE
  5
36
100
AcDbEntity
100
AcDbLine
  8
0
 62
256
370
-1
 48
1.0
  6
BYLAYER
 10
30.0000000000000036
 20
90.2132034355964265
 30
0.0
 11
57.5
 21
90.2132034355964265
 31
0.0
  0
LINE
  5
37
100
AcDbEntity
100
AcDbLine
  8
0
 62
256
370
-1
 48
1.0
  6
BYLAYER
 10
57.5
 20
90.2132034355964265
 30
0.0
 11
68.1066017177982133
 21
79.6066017177982133
 31
0.0
  0
LINE
  5
38
100
AcDbEntity
100
AcDbLine
  8
0
 62
256
370
-1
 48
1.0
  6
BYLAYER
 10
68.1066017177982133
 20
79.6066017177982133
 30
0.0
 11
88.1066017177982133
 21
79.6066017177982133
 31
0.0
  0
LINE
  5
39
100
AcDbEntity
100
AcDbLine
  8
0
 62
256
370
-1
 48
1.0
  6
BYLAYER
 10
88.1066017177982133
 20
79.6066017177982133
 30
0.0
 11
98.7132034355964265
 21
90.2132034355964265
 31
0.0
  0
LINE
  5
3A
100
AcDbEntity
100
AcDbLine
  8
0
 62
256
370
-1
 48
1.0
  6
BYLAYER
 10
98.7132034355964265
 20
90.2132034355964265
 30
0.0
 11
143.7132034355964265
 21
90.2132034355964265
 31
0.0
  0
LINE
  5
3B
100
AcDbEntity
100
AcDbLine
  8
0
 62
256
370
-1
 48
1.0
  6
BYLAYER
 10
143.7132034355964265
 20
90.2132034355964265
 30
0.0
 11
154.3198051533946398
 21
79.6066017177982133
 31
0.0
  0
LINE
  5
3C
100
AcDbEntity
100
AcDbLine
  8
0
 62
256
370
-1
 48
1.0
  6
BYLAYER
 10
30.0
 20
30.0
 30
0.0
 11
57.5
 21
30.0
 31
0.0
  0
LINE
  5
3D
100
AcDbEntity
100
AcDbLine
  8
0
 62
256
370
-1
 48
1.0
  6
BYLAYER
 10
57.5
 20
30.0
 30
0.0
 11
68.1066017177982133
 21
40.6066017177982133
 31
0.0
  0
LINE
  5
3E
100
AcDbEntity
100
AcDbLine
  8
0
 62
256
370
-1
 48
1.0
  6
BYLAYER
 10
68.1066017177982133
 20
40.6066017177982133
 30
0.0
 11
88.1066017177982133
 21
40.6066017177982133
 31
0.0
  0
LINE
  5
3F
100
AcDbEntity
100
AcDbLine
  8
0
 62
256
370
-1
 48
1.0
  6
BYLAYER
 10
88.1066017177982133
 20
40.6066017177982133
 30
0.0
 11
98.7132034355964265
 21
30.0
 31
0.0
  0
LINE
  5
40
100
AcDbEntity
100
AcDbLine
  8
0
 62
256
370
-1
 48
1.0
  6
BYLAYER
 10
98.7132034355964265
 20
30.0
 30
0.0
 11
143.7132034355964265
 21
30.0
 31
0.0
  0
LINE
  5
41
100
AcDbEntity
100
AcDbLine
  8
0
 62
256
370
-1
 48
1.0
  6
BYLAYER
 10
143.7132034355964265
 20
30.0
 30
0.0
 11
154.3198051533946398
 21
40.6066017177982133
 31
0.0
  0
LINE
  5
42
100
AcDbEntity
100
AcDbLine
  8
0
 62
256
370
-1
 48
1.0
  6
BYLAYER
 10
33.0
 20
80.0
 30
0.0
 11
53.0
 21
80.0
 31
0.0
  0
LINE
  5
43
100
AcDbEntity
100
AcDbLine
  8
0
 62
256
370
-1
 48
1.0
  6
BYLAYER
 10
33.0
 20
76.0
 30
0.0
 11
53.0
 21
76.0
 31
0.0
  0
ARC
  5
44
100
AcDbEntity
  8
0
 62
256
370
-1
 48
1.0
  6
BYLAYER
100
AcDbCircle
 10
53.0
 20
78.0
 30
0.0
 40
2.0
100
AcDbArc
 50
270.0
 51
90.0
  0
ARC
  5
45
100
AcDbEntity
  8
0
 62
256
370
-1
 48
1.0
  6
BYLAYER
100
AcDbCircle
 10
33.0
 20
78.0
 30
0.0
 40
2.0
100
AcDbArc
 50
90.0
 51
270.0
  0
CIRCLE
  5
46
100
AcDbEntity
100
AcDbCircle
  8
0
 62
256
370
-1
 48
1.0
  6
BYLAYER
 10
100.0
 20
60.0
 30
0.0
 40
7.5
  0
CIRCLE
  5
47
100
AcDbEntity
100
AcDbCircle
  8
0
 62
256
370
-1
 48
1.0
  6
BYLAYER
 10
120.0
 20
60.0
 30
0.0
 40
7.5
  0
CIRCLE
  5
48
100
AcDbEntity
100
AcDbCircle
  8
0
 62
256
370
-1
 48
1.0
  6
BYLAYER
 10
140.0
 20
60.0
 30
0.0
 40
7.5
  0
LINE
  5
49
100
AcDbEntity
100
AcDbLine
  8
0
 62
256
370
-1
 48
1.0
  6
BYLAYER
 10
193.0367965644035166
 20
29.8933982822017725
 30
0.0
 11
203.6433982822017867
 21
40.4999999999999858
 31
0.0
  0
LINE
  5
4A
100
AcDbEntity
100
AcDbLine
  8
0
 62
256
370
-1
 48
1.0
  6
BYLAYER
 10
203.6433982822017867
 20
40.4999999999999858
 30
0.0
 11
203.6433982822017867
 21
79.5
 31
0.0
  0
LINE
  5
4B
100
AcDbEntity
100
AcDbLine
  8
0
 62
256
370
-1
 48
1.0
  6
BYLAYER
 10
193.0367965644035735
 20
90.1066017177982133
 30
0.0
 11
203.6433982822017867
 21
79.5
 31
0.0
  0
LINE
  5
4C
100
AcDbEntity
100
AcDbLine
  8
0
 62
256
370
-1
 48
1.0
  6
BYLAYER
 10
162.3566017177982133
 20
79.5
 30
0.0
 11
172.9632034355964265
 21
90.1066017177982133
 31
0.0
  0
LINE
  5
4D
100
AcDbEntity
100
AcDbLine
  8
0
 62
256
370
-1
 48
1.0
  6
BYLAYER
 10
172.9632034355964265
 20
90.1066017177982133
 30
0.0
 11
192.9632034355964549
 21
90.1066017177982133
 31
0.0
  0
LINE
  5
4E
100
AcDbEntity
100
AcDbLine
  8
0
 62
256
370
-1
 48
1.0
  6
BYLAYER
 10
162.3566017177982133
 20
40.5000000000000142
 30
0.0
 11
172.9632034355964549
 21
29.8933982822017796
 31
0.0
  0
LINE
  5
4F
100
AcDbEntity
100
AcDbLine
  8
0
 62
256
370
-1
 48
1.0
  6
BYLAYER
 10
172.9632034355964549
 20
29.8933982822017796
 30
0.0
 11
192.9632034355964265
 21
29.8933982822017832
 31
0.0
  0
LINE
  5
50
100
AcDbEntity
100
AcDbLine
  8
0
 62
256
370
-1
 48
1.0
  6
BYLAYER
 10
186.0367965644035735
 20
49.8933982822017867
 30
0.0
 11
186.0367965644035735
 21
69.8933982822017867
 31
0.0
  0
LINE
  5
51
100
AcDbEntity
100
AcDbLine
  8
0
 62
256
370
-1
 48
1.0
  6
BYLAYER
 10
190.0367965644035735
 20
49.8933982822017796
 30
0.0
 11
190.0367965644035735
 21
69.8933982822017867
 31
0.0
  0
ARC
  5
52
100
AcDbEntity
  8
0
 62
256
370
-1
 48
1.0
  6
BYLAYER
100
AcDbCircle
 10
188.0367965644035735
 20
69.8933982822017867
 30
0.0
 40
2.0
100
AcDbArc
 50
0.0
 51
180.0
  0
ARC
  5
53
100
AcDbEntity
  8
0
 62
256
370
-1
 48
1.0
  6
BYLAYER
100
AcDbCircle
 10
188.0367965644035735
 20
49.8933982822017867
 30
0.0
 40
2.0
100
AcDbArc
 50
180.0
 51
0.0
  0
LINE
  5
54
100
AcDbEntity
100
AcDbLine
  8
0
 62
256
370
-1
 48
1.0
  6
BYLAYER
 10
176.0367965644035735
 20
49.8933982822017867
 30
0.0
 11
176.0367965644035735
 21
69.8933982822017867
 31
0.0
  0
LINE
  5
55
100
AcDbEntity
100
AcDbLine
  8
0
 62
256
370
-1
 48
1.0
  6
BYLAYER
 10
180.0367965644035735
 20
49.8933982822017867
 30
0.0
 11
180.0367965644035735
 21
69.8933982822017867
 31
0.0
  0
ARC
  5
56
100
AcDbEntity
  8
0
 62
256
370
-1
 48
1.0
  6
BYLAYER
100
AcDbCircle
 10
178.0367965644035735
 20
69.8933982822017867
 30
0.0
 40
2.0
100
AcDbArc
 50
0.0
 51
180.0
  0
ARC
  5
57
100
AcDbEntity
  8
0
 62
256
370
-1
 48
1.0
  6
BYLAYER
100
AcDbCircle
 10
178.0367965644035735
 20
49.8933982822017938
 30
0.0
 40
2.0
100
AcDbArc
 50
180.0
 51
0.0
  0
LINE
  5
58
100
AcDbEntity
100
AcDbLine
  8
0
 62
256
370
-1
 48
1.0
  6
BYLAYER
 10
154.3198051533946398
 20
79.6066017177982133
 30
0.0
 11
162.3198051533946398
 21
79.6066017177982133
 31
0.0
  0
LINE
  5
59
100
AcDbEntity
100
AcDbLine
  8
0
 62
256
370
-1
 48
1.0
  6
BYLAYER
 10
154.3198051533946398
 20
40.6066017177982133
 30
0.0
 11
162.3198051533946398
 21
40.6066017177982133
 31
0.0
  0
CIRCLE
  5
5A
100
AcDbEntity
100
AcDbCircle
  8
0
 62
256
370
-1
 48
1.0
  6
BYLAYER
 10
60.0
 20
60.0
 30
0.0
 40
7.5
  0
CIRCLE
  5
5B
100
AcDbEntity
100
AcDbCircle
  8
0
 62
256
370
-1
 48
1.0
  6
BYLAYER
 10
40.0
 20
60.0
 30
0.0
 40
7.5
  0
LINE
  5
5C
100
AcDbEntity
100
AcDbLine
  8
0
 62
256
370
-1
 48
1.0
  6
BYLAYER
 10
104.1106279046240957
 20
80.001304722335334
 30
0.0
 11
135.6106279046240957
 21
80.0013047223353198
 31
0.0
  0
LINE
  5
5D
100
AcDbEntity
100
AcDbLine
  8
0
 62
256
370
-1
 48
1.0
  6
BYLAYER
 10
104.3606279046240957
 20
74.0013047223353624
 30
0.0
 11
135.8606279046240957
 21
74.0013047223353055
 31
0.0
  0
ARC
  5
5E
100
AcDbEntity
  8
0
 62
256
370
-1
 48
1.0
  6
BYLAYER
100
AcDbCircle
 10
135.9856279046240957
 20
76.9939320385747124
 30
0.0
 40
2.9952367609104305
100
AcDbArc
 50
267.60818473851009
 51
94.35914215592733
  0
ARC
  5
5F
100
AcDbEntity
  8
0
 62
256
370
-1
 48
1.0
  6
BYLAYER
100
AcDbCircle
 10
104.0106279046241013
 20
77.0013047223384604
 30
0.0
 40
2.9914925701586421
100
AcDbArc
 50
89.6702511496986006
 51
276.6544250460066223
  0
LINE
  5
60
100
AcDbEntity
100
AcDbLine
  8
0
 62
256
370
-1
 48
1.0
  6
BYLAYER
 10
104.1106279046240957
 20
46.0013047223353411
 30
0.0
 11
135.6106279046240957
 21
46.0013047223353269
 31
0.0
  0
LINE
  5
61
100
AcDbEntity
100
AcDbLine
  8
0
 62
256
370
-1
 48
1.0
  6
BYLAYER
 10
104.3606279046240957
 20
40.0013047223353553
 30
0.0
 11
135.8606279046240957
 21
40.0013047223352984
 31
0.0
  0
ARC
  5
62
100
AcDbEntity
  8
0
 62
256
370
-1
 48
1.0
  6
BYLAYER
100
AcDbCircle
 10
135.9856279046240957
 20
42.9939320385747195
 30
0.0
 40
2.9952367609104305
100
AcDbArc
 50
267.60818473851009
 51
94.35914215592733
  0
ARC
  5
63
100
AcDbEntity
  8
0
 62
256
370
-1
 48
1.0
  6
BYLAYER
100
AcDbCircle
 10
104.0106279046241013
 20
43.0013047223384604
 30
0.0
 40
2.9914925701586421
100
AcDbArc
 50
89.6702511496986006
 51
276.6544250460066223
  0
LINE
  5
64
100
AcDbEntity
100
AcDbLine
  8
0
 62
256
370
-1
 48
1.0
  6
BYLAYER
 10
78.499347638832333
 20
52.0553139523120478
 30
0.0
 11
78.499347638832333
 21
67.8053139523120478
 31
0.0
  0
LINE
  5
65
100
AcDbEntity
100
AcDbLine
  8
0
 62
256
370
-1
 48
1.0
  6
BYLAYER
 10
81.4993476388323188
 20
52.1803139523120478
 30
0.0
 11
81.4993476388323472
 21
67.9303139523120478
 31
0.0
  0
ARC
  5
66
100
AcDbEntity
  8
0
 62
256
370
-1
 48
1.0
  6
BYLAYER
100
AcDbCircle
 10
80.0030339807126438
 20
67.9928139523120478
 30
0.0
 40
1.4976183804552152
100
AcDbArc
 50
357.60818473851009
 51
184.3591421559273158
  0
ARC
  5
67
100
AcDbEntity
  8
0
 62
256
370
-1
 48
1.0
  6
BYLAYER
100
AcDbCircle
 10
79.9993476388307698
 20
52.0053139523120507
 30
0.0
 40
1.4957462850793211
100
AcDbArc
 50
179.6702511496986006
 51
6.6544250460066054
  0
LINE
  5
68
100
AcDbEntity
100
AcDbLine
  8
0
 62
256
370
-1
 48
1.0
  6
BYLAYER
 10
193.4993476388323188
 20
52.0553139523120478
 30
0.0
 11
193.4993476388323472
 21
67.8053139523120478
 31
0.0
  0
LINE
  5
69
100
AcDbEntity
100
AcDbLine
  8
0
 62
256
370
-1
 48
1.0
  6
BYLAYER
 10
196.4993476388323188
 20
52.1803139523120478
 30
0.0
 11
196.4993476388323472
 21
67.9303139523120478
 31
0.0
  0
ARC
  5
6A
100
AcDbEntity
  8
0
 62
256
370
-1
 48
1.0
  6
BYLAYER
100
AcDbCircle
 10
195.0030339807126438
 20
67.9928139523120478
 30
0.0
 40
1.4976183804552152
100
AcDbArc
 50
357.60818473851009
 51
184.3591421559273158
  0
ARC
  5
6B
100
AcDbEntity
  8
0
 62
256
370
-1
 48
1.0
  6
BYLAYER
100
AcDbCircle
 10
194.999347638830784
 20
52.0053139523120507
 30
0.0
 40
1.4957462850793211
100
AcDbArc
 50
179.6702511496986006
 51
6.6544250460066054
  0
LINE
  5
6C
100
AcDbEntity
100
AcDbLine
  8
0
 62
256
370
-1
 48
1.0
  6
BYLAYER
 10
169.4993476388323188
 20
52.0553139523120478
 30
0.0
 11
169.4993476388323472
 21
67.8053139523120478
 31
0.0
  0
LINE
  5
6D
100
AcDbEntity
100
AcDbLine
  8
0
 62
256
370
-1
 48
1.0
  6
BYLAYER
 10
172.4993476388323188
 20
52.1803139523120478
 30
0.0
 11
172.4993476388323472
 21
67.9303139523120478
 31
0.0
  0
ARC
  5
6E
100
AcDbEntity
  8
0
 62
256
370
-1
 48
1.0
  6
BYLAYER
100
AcDbCircle
 10
171.0030339807126438
 20
67.9928139523120478
 30
0.0
 40
1.4976183804552152
100
AcDbArc
 50
357.60818473851009
 51
184.3591421559273158
  0
ARC
  5
6F
100
AcDbEntity
  8
0
 62
256
370
-1
 48
1.0
  6
BYLAYER
100
AcDbCircle
 10
170.999347638830784
 20
52.0053139523120507
 30
0.0
 40
1.4957462850793211
100
AcDbArc
 50
179.6702511496986006
 51
6.6544250460066054
  0
LINE
  5
70
100
AcDbEntity
100
AcDbLine
  8
0
 62
256
370
-1
 48
1.0
  6
BYLAYER
 10
22.499347638832333
 20
52.0553139523120478
 30
0.0
 11
22.4993476388323401
 21
67.8053139523120478
 31
0.0
  0
LINE
  5
71
100
AcDbEntity
100
AcDbLine
  8
0
 62
256
370
-1
 48
1.0
  6
BYLAYER
 10
25.4993476388323224
 20
52.1803139523120478
 30
0.0
 11
25.4993476388323401
 21
67.9303139523120478
 31
0.0
  0
ARC
  5
72
100
AcDbEntity
  8
0
 62
256
370
-1
 48
1.0
  6
BYLAYER
100
AcDbCircle
 10
24.0030339807126403
 20
67.9928139523120478
 30
0.0
 40
1.4976183804552152
100
AcDbArc
 50
357.60818473851009
 51
184.3591421559273158
  0
ARC
  5
73
100
AcDbEntity
  8
0
 62
256
370
-1
 48
1.0
  6
BYLAYER
100
AcDbCircle
 10
23.9993476388307698
 20
52.0053139523120507
 30
0.0
 40
1.4957462850793211
100
AcDbArc
 50
179.6702511496986006
 51
6.6544250460066054
  0
LINE
  5
74
100
AcDbEntity
100
AcDbLine
  8
0
 62
256
370
-1
 48
1.0
  6
BYLAYER
 10
70.499347638832333
 20
52.0553139523120478
 30
0.0
 11
70.499347638832333
 21
67.8053139523120478
 31
0.0
  0
LINE
  5
75
100
AcDbEntity
100
AcDbLine
  8
0
 62
256
370
-1
 48
1.0
  6
BYLAYER
 10
73.4993476388323188
 20
52.1803139523120478
 30
0.0
 11
73.4993476388323472
 21
67.9303139523120478
 31
0.0
  0
ARC
  5
76
100
AcDbEntity
  8
0
 62
256
370
-1
 48
1.0
  6
BYLAYER
100
AcDbCircle
 10
72.0030339807126438
 20
67.9928139523120478
 30
0.0
 40
1.4976183804552152
100
AcDbArc
 50
357.60818473851009
 51
184.3591421559273158
  0
ARC
  5
77
100
AcDbEntity
  8
0
 62
256
370
-1
 48
1.0
  6
BYLAYER
100
AcDbCircle
 10
71.9993476388307698
 20
52.0053139523120507
 30
0.0
 40
1.4957462850793211
100
AcDbArc
 50
179.6702511496986006
 51
6.6544250460066054
  0
LINE
  5
78
100
AcDbEntity
100
AcDbLine
  8
0
 62
256
370
-1
 48
1.0
  6
BYLAYER
 10
85.499347638832333
 20
52.0553139523120478
 30
0.0
 11
85.499347638832333
 21
67.8053139523120478
 31
0.0
  0
LINE
  5
79
100
AcDbEntity
100
AcDbLine
  8
0
 62
256
370
-1
 48
1.0
  6
BYLAYER
 10
88.4993476388323188
 20
52.1803139523120478
 30
0.0
 11
88.4993476388323472
 21
67.9303139523120478
 31
0.0
  0
ARC
  5
7A
100
AcDbEntity
  8
0
 62
256
370
-1
 48
1.0
  6
BYLAYER
100
AcDbCircle
 10
87.0030339807126438
 20
67.9928139523120478
 30
0.0
 40
1.4976183804552152
100
AcDbArc
 50
357.60818473851009
 51
184.3591421559273158
  0
ARC
  5
7B
100
AcDbEntity
  8
0
 62
256
370
-1
 48
1.0
  6
BYLAYER
100
AcDbCircle
 10
86.9993476388307698
 20
52.0053139523120507
 30
0.0
 40
1.4957462850793211
100
AcDbArc
 50
179.6702511496986006
 51
6.6544250460066054
  0
LINE
  5
7C
100
AcDbEntity
100
AcDbLine
  8
0
 62
256
370
-1
 48
1.0
  6
BYLAYER
 10
151.4993476388323188
 20
52.0553139523120478
 30
0.0
 11
151.4993476388323472
 21
67.8053139523120478
 31
0.0
  0
LINE
  5
7D
100
AcDbEntity
100
AcDbLine
  8
0
 62
256
370
-1
 48
1.0
  6
BYLAYER
 10
154.4993476388323188
 20
52.1803139523120478
 30
0.0
 11
154.4993476388323472
 21
67.9303139523120478
 31
0.0
  0
ARC
  5
7E
100
AcDbEntity
  8
0
 62
256
370
-1
 48
1.0
  6
BYLAYER
100
AcDbCircle
 10
153.0030339807126438
 20
67.9928139523120478
 30
0.0
 40
1.4976183804552152
100
AcDbArc
 50
357.60818473851009
 51
184.3591421559273158
  0
ARC
  5
7F
100
AcDbEntity
  8
0
 62
256
370
-1
 48
1.0
  6
BYLAYER
100
AcDbCircle
 10
152.999347638830784
 20
52.0053139523120507
 30
0.0
 40
1.4957462850793211
100
AcDbArc
 50
179.6702511496986006
 51
6.6544250460066054
  0
LINE
  5
80
100
AcDbEntity
100
AcDbLine
  8
0
 62
256
370
-1
 48
1.0
  6
BYLAYER
 10
163.4993476388323188
 20
52.0553139523120478
 30
0.0
 11
163.4993476388323472
 21
67.8053139523120478
 31
0.0
  0
LINE
  5
81
100
AcDbEntity
100
AcDbLine
  8
0
 62
256
370
-1
 48
1.0
  6
BYLAYER
 10
166.4993476388323188
 20
52.1803139523120478
 30
0.0
 11
166.4993476388323472
 21
67.9303139523120478
 31
0.0
  0
ARC
  5
82
100
AcDbEntity
  8
0
 62
256
370
-1
 48
1.0
  6
BYLAYER
100
AcDbCircle
 10
165.0030339807126438
 20
67.9928139523120478
 30
0.0
 40
1.4976183804552152
100
AcDbArc
 50
357.60818473851009
 51
184.3591421559273158
  0
ARC
  5
83
100
AcDbEntity
  8
0
 62
256
370
-1
 48
1.0
  6
BYLAYER
100
AcDbCircle
 10
164.999347638830784
 20
52.0053139523120507
 30
0.0
 40
1.4957462850793211
100
AcDbArc
 50
179.6702511496986006
 51
6.6544250460066054
  0
LINE
  5
84
100
AcDbEntity
100
AcDbLine
  8
0
 62
256
370
-1
 48
1.0
  6
BYLAYER
 10
87.9446860476879522
 20
76.5006523611677665
 30
0.0
 11
72.1946860476879522
 21
76.500652361167738
 31
0.0
  0
LINE
  5
85
100
AcDbEntity
100
AcDbLine
  8
0
 62
256
370
-1
 48
1.0
  6
BYLAYER
 10
87.8196860476879522
 20
73.5006523611677665
 30
0.0
 11
72.0696860476879522
 21
73.500652361167738
 31
0.0
  0
ARC
  5
86
100
AcDbEntity
  8
0
 62
256
370
-1
 48
1.0
  6
BYLAYER
100
AcDbCircle
 10
72.0071860476879522
 20
74.9969660192874414
 30
0.0
 40
1.4976183804552152
100
AcDbArc
 50
85.6408578440727268
 51
272.3918152614898531
  0
ARC
  5
87
100
AcDbEntity
  8
0
 62
256
370
-1
 48
1.0
  6
BYLAYER
100
AcDbCircle
 10
87.9946860476879493
 20
75.0006523611693012
 30
0.0
 40
1.4957462850793211
100
AcDbArc
 50
263.3455749539933777
 51
90.3297488503013284
  0
LINE
  5
88
100
AcDbEntity
100
AcDbLine
  8
0
 62
256
370
-1
 48
1.0
  6
BYLAYER
 10
87.9446860476879522
 20
46.5006523611677665
 30
0.0
 11
72.1946860476879522
 21
46.500652361167738
 31
0.0
  0
LINE
  5
89
100
AcDbEntity
100
AcDbLine
  8
0
 62
256
370
-1
 48
1.0
  6
BYLAYER
 10
87.8196860476879522
 20
43.5006523611677594
 30
0.0
 11
72.0696860476879522
 21
43.500652361167738
 31
0.0
  0
ARC
  5
8A
100
AcDbEntity
  8
0
 62
256
370
-1
 48
1.0
  6
BYLAYER
100
AcDbCircle
 10
72.0071860476879522
 20
44.9969660192874414
 30
0.0
 40
1.4976183804552152
100
AcDbArc
 50
85.6408578440727268
 51
272.3918152614898531
  0
ARC
  5
8B
100
AcDbEntity
  8
0
 62
256
370
-1
 48
1.0
  6
BYLAYER
100
AcDbCircle
 10
87.9946860476879493
 20
45.0006523611692941
 30
0.0
 40
1.4957462850793211
100
AcDbArc
 50
263.3455749539933777
 51
90.3297488503013284
  0
LINE
  5
8C
100
AcDbEntity
100
AcDbLine
  8
0
 62
256
370
-1
 48
1.0
  6
BYLAYER
 10
33.0
 20
40.0000000000000071
 30
0.0
 11
53.0
 21
40.0
 31
0.0
  0
LINE
  5
8D
100
AcDbEntity
100
AcDbLine
  8
0
 62
256
370
-1
 48
1.0
  6
BYLAYER
 10
33.0
 20
44.0
 30
0.0
 11
53.0
 21
43.9999999999999929
 31
0.0
  0
ARC
  5
8E
100
AcDbEntity
  8
0
 62
256
370
-1
 48
1.0
  6
BYLAYER
100
AcDbCircle
 10
53.0
 20
42.0
 30
0.0
 40
2.0
100
AcDbArc
 50
270.0
 51
90.0
  0
ARC
  5
8F
100
AcDbEntity
  8
0
 62
256
370
-1
 48
1.0
  6
BYLAYER
100
AcDbCircle
 10
33.0
 20
42.0
 30
0.0
 40
2.0
100
AcDbArc
 50
90.0
 51
270.0
  0
LINE
  5
90
100
AcDbEntity
100
AcDbLine
  8
0
 62
256
370
-1
 48
1.0
  6
BYLAYER
 10
166.9446860476879522
 20
76.5006523611677665
 30
0.0
 11
151.1946860476879522
 21
76.5006523611677522
 31
0.0
  0
LINE
  5
91
100
AcDbEntity
100
AcDbLine
  8
0
 62
256
370
-1
 48
1.0
  6
BYLAYER
 10
166.8196860476879522
 20
73.5006523611677949
 30
0.0
 11
151.0696860476879522
 21
73.5006523611677522
 31
0.0
  0
ARC
  5
92
100
AcDbEntity
  8
0
 62
256
370
-1
 48
1.0
  6
BYLAYER
100
AcDbCircle
 10
151.0071860476879522
 20
74.9969660192873562
 30
0.0
 40
1.4976183804552152
100
AcDbArc
 50
85.64085784407267
 51
272.39181526148991
  0
ARC
  5
93
100
AcDbEntity
  8
0
 62
256
370
-1
 48
1.0
  6
BYLAYER
100
AcDbCircle
 10
166.9946860476879351
 20
75.0006523611692302
 30
0.0
 40
1.4957462850793211
100
AcDbArc
 50
263.3455749539933777
 51
90.3297488503013994
  0
LINE
  5
94
100
AcDbEntity
100
AcDbLine
  8
0
 62
256
370
-1
 48
1.0
  6
BYLAYER
 10
166.9446860476879522
 20
46.5006523611677665
 30
0.0
 11
151.1946860476879522
 21
46.5006523611677522
 31
0.0
  0
LINE
  5
95
100
AcDbEntity
100
AcDbLine
  8
0
 62
256
370
-1
 48
1.0
  6
BYLAYER
 10
166.8196860476879522
 20
43.5006523611677878
 30
0.0
 11
151.0696860476879522
 21
43.5006523611677522
 31
0.0
  0
ARC
  5
96
100
AcDbEntity
  8
0
 62
256
370
-1
 48
1.0
  6
BYLAYER
100
AcDbCircle
 10
151.0071860476879522
 20
44.9969660192873633
 30
0.0
 40
1.4976183804552152
100
AcDbArc
 50
85.64085784407267
 51
272.39181526148991
  0
ARC
  5
97
100
AcDbEntity
  8
0
 62
256
370
-1
 48
1.0
  6
BYLAYER
100
AcDbCircle
 10
166.9946860476879351
 20
45.0006523611692231
 30
0.0
 40
1.4957462850793211
100
AcDbArc
 50
263.3455749539933777
 51
90.3297488503013994
  0
LINE
  5
98
100
AcDbEntity
100
AcDbLine
  8
0
 62
256
370
-1
 48
1.0
  6
BYLAYER
 10
190.9446860476879522
 20
41.5006523611677665
 30
0.0
 11
175.1946860476879522
 21
41.5006523611677522
 31
0.0
  0
LINE
  5
99
100
AcDbEntity
100
AcDbLine
  8
0
 62
256
370
-1
 48
1.0
  6
BYLAYER
 10
190.8196860476879522
 20
38.5006523611677878
 30
0.0
 11
175.0696860476879522
 21
38.5006523611677522
 31
0.0
  0
ARC
  5
9A
100
AcDbEntity
  8
0
 62
256
370
-1
 48
1.0
  6
BYLAYER
100
AcDbCircle
 10
175.0071860476879522
 20
39.9969660192873633
 30
0.0
 40
1.4976183804552152
100
AcDbArc
 50
85.64085784407267
 51
272.39181526148991
  0
ARC
  5
9B
100
AcDbEntity
  8
0
 62
256
370
-1
 48
1.0
  6
BYLAYER
100
AcDbCircle
 10
190.9946860476879351
 20
40.0006523611692231
 30
0.0
 40
1.4957462850793211
100
AcDbArc
 50
263.3455749539933777
 51
90.3297488503013994
  0
LINE
  5
9C
100
AcDbEntity
100
AcDbLine
  8
0
 62
256
370
-1
 48
1.0
  6
BYLAYER
 10
190.9446860476879522
 20
81.5006523611677665
 30
0.0
 11
175.1946860476879522
 21
81.5006523611677522
 31
0.0
  0
LINE
  5
9D
100
AcDbEntity
100
AcDbLine
  8
0
 62
256
370
-1
 48
1.0
  6
BYLAYER
 10
190.8196860476879522
 20
78.5006523611677949
 30
0.0
 11
175.0696860476879522
 21
78.5006523611677522
 31
0.0
  0
ARC
  5
9E
100
AcDbEntity
  8
0
 62
256
370
-1
 48
1.0
  6
BYLAYER
100
AcDbCircle
 10
175.0071860476879522
 20
79.9969660192873562
 30
0.0
 40
1.4976183804552152
100
AcDbArc
 50
85.64085784407267
 51
272.39181526148991
  0
ARC
  5
9F
100
AcDbEntity
  8
0
 62
256
370
-1
 48
1.0
  6
BYLAYER
100
AcDbCircle
 10
190.9946860476879351
 20
80.0006523611692302
 30
0.0
 40
1.4957462850793211
100
AcDbArc
 50
263.3455749539933777
 51
90.3297488503013994
  0
LINE
  5
A0
100
AcDbEntity
100
AcDbLine
  8
0
 62
256
370
-1
 48
1.0
  6
BYLAYER
 10
33.0553139523120478
 20
86.5006523611678091
 30
0.0
 11
48.8053139523120478
 21
86.5006523611677949
 31
0.0
  0
LINE
  5
A1
100
AcDbEntity
100
AcDbLine
  8
0
 62
256
370
-1
 48
1.0
  6
BYLAYER
 10
33.1803139523120478
 20
83.5006523611678233
 30
0.0
 11
48.9303139523120478
 21
83.5006523611677949
 31
0.0
  0
ARC
  5
A2
100
AcDbEntity
  8
0
 62
256
370
-1
 48
1.0
  6
BYLAYER
100
AcDbCircle
 10
48.9928139523120478
 20
84.9969660192873562
 30
0.0
 40
1.4976183804552152
100
AcDbArc
 50
267.60818473851009
 51
94.35914215592733
  0
ARC
  5
A3
100
AcDbEntity
  8
0
 62
256
370
-1
 48
1.0
  6
BYLAYER
100
AcDbCircle
 10
33.0053139523120649
 20
85.0006523611692302
 30
0.0
 40
1.4957462850793211
100
AcDbArc
 50
89.6702511496986006
 51
276.6544250460066223
  0
LINE
  5
A4
100
AcDbEntity
100
AcDbLine
  8
0
 62
256
370
-1
 48
1.0
  6
BYLAYER
 10
33.0553139523120478
 20
36.5006523611678162
 30
0.0
 11
48.8053139523120478
 21
36.5006523611677949
 31
0.0
  0
LINE
  5
A5
100
AcDbEntity
100
AcDbLine
  8
0
 62
256
370
-1
 48
1.0
  6
BYLAYER
 10
33.1803139523120478
 20
33.5006523611678304
 30
0.0
 11
48.9303139523120478
 21
33.5006523611677949
 31
0.0
  0
ARC
  5
A6
100
AcDbEntity
  8
0
 62
256
370
-1
 48
1.0
  6
BYLAYER
100
AcDbCircle
 10
48.9928139523120478
 20
34.9969660192873633
 30
0.0
 40
1.4976183804552152
100
AcDbArc
 50
267.60818473851009
 51
94.35914215592733
  0
ARC
  5
A7
100
AcDbEntity
  8
0
 62
256
370
-1
 48
1.0
  6
BYLAYER
100
AcDbCircle
 10
33.0053139523120649
 20
35.0006523611692302
 30
0.0
 40
1.4957462850793211
100
AcDbArc
 50
89.6702511496986006
 51
276.6544250460066223
  0
LINE
  5
A8
100
AcDbEntity
100
AcDbLine
  8
0
 62
256
370
-1
 48
1.0
  6
BYLAYER
 10
102.5226228020300425
 20
36.5
 30
0.0
 11
137.5226228020300425
 21
36.4999999999999929
 31
0.0
  0
LINE
  5
A9
100
AcDbEntity
100
AcDbLine
  8
0
 62
256
370
-1
 48
1.0
  6
BYLAYER
 10
102.5226228020300425
 20
33.5000000000000142
 30
0.0
 11
137.5226228020300425
 21
33.5
 31
0.0
  0
ARC
  5
AA
100
AcDbEntity
  8
0
 62
256
370
-1
 48
1.0
  6
BYLAYER
100
AcDbCircle
 10
102.3602525914468231
 20
34.9998445562265061
 30
0.0
 40
1.4976183804552152
100
AcDbArc
 50
85.64085784407267
 51
272.39181526148991
  0
ARC
  5
AB
100
AcDbEntity
  8
0
 62
256
370
-1
 48
1.0
  6
BYLAYER
100
AcDbCircle
 10
137.6397474085532053
 20
34.999844555782019
 30
0.0
 40
1.4976183804552152
100
AcDbArc
 50
267.60818473851009
 51
94.35914215592733
  0
LINE
  5
AC
100
AcDbEntity
100
AcDbLine
  8
0
 62
256
370
-1
 48
1.0
  6
BYLAYER
 10
102.5226228020300425
 20
86.7132034355964265
 30
0.0
 11
137.5226228020300425
 21
86.7132034355964265
 31
0.0
  0
LINE
  5
AD
100
AcDbEntity
100
AcDbLine
  8
0
 62
256
370
-1
 48
1.0
  6
BYLAYER
 10
102.5226228020300425
 20
83.7132034355964407
 30
0.0
 11
137.5226228020300425
 21
83.7132034355964265
 31
0.0
  0
ARC
  5
AE
100
AcDbEntity
  8
0
 62
256
370
-1
 48
1.0
  6
BYLAYER
100
AcDbCircle
 10
102.3602525914468231
 20
85.2130479918229327
 30
0.0
 40
1.4976183804552152
100
AcDbArc
 50
85.64085784407267
 51
272.39181526148991
  0
ARC
  5
AF
100
AcDbEntity
  8
0
 62
256
370
-1
 48
1.0
  6
BYLAYER
100
AcDbCircle
 10
137.6397474085532053
 20
85.2130479913784455
 30
0.0
 40
1.4976183804552152
100
AcDbArc
 50
267.60818473851009
 51
94.35914215592733
  0
CIRCLE
  5
B0
100
AcDbEntity
100
AcDbCircle
  8
0
 62
256
370
-1
 48
1.0
  6
BYLAYER
 10
55.0
 20
35.0
 30
0.0
 40
1.5
  0
CIRCLE
  5
B1
100
AcDbEntity
100
AcDbCircle
  8
0
 62
256
370
-1
 48
1.0
  6
BYLAYER
 10
55.0
 20
85.0
 30
0.0
 40
1.5
  0
CIRCLE
  5
B2
100
AcDbEntity
100
AcDbCircle
  8
0
 62
256
370
-1
 48
1.0
  6
BYLAYER
 10
59.0
 20
78.0
 30
0.0
 40
1.5
  0
CIRCLE
  5
B3
100
AcDbEntity
100
AcDbCircle
  8
0
 62
256
370
-1
 48
1.0
  6
BYLAYER
 10
59.0
 20
42.0
 30
0.0
 40
1.5
  0
CIRCLE
  5
B4
100
AcDbEntity
100
AcDbCircle
  8
0
 62
256
370
-1
 48
1.0
  6
BYLAYER
 10
59.0
 20
47.0
 30
0.0
 40
1.5
  0
CIRCLE
  5
B5
100
AcDbEntity
100
AcDbCircle
  8
0
 62
256
370
-1
 48
1.0
  6
BYLAYER
 10
59.0
 20
73.0
 30
0.0
 40
1.5
  0
CIRCLE
  5
B6
100
AcDbEntity
100
AcDbCircle
  8
0
 62
256
370
-1
 48
1.0
  6
BYLAYER
 10
64.0
 20
73.0
 30
0.0
 40
1.5
  0
CIRCLE
  5
B7
100
AcDbEntity
100
AcDbCircle
  8
0
 62
256
370
-1
 48
1.0
  6
BYLAYER
 10
64.0
 20
78.0
 30
0.0
 40
1.5
  0
CIRCLE
  5
B8
100
AcDbEntity
100
AcDbCircle
  8
0
 62
256
370
-1
 48
1.0
  6
BYLAYER
 10
64.0
 20
47.0
 30
0.0
 40
1.5
  0
CIRCLE
  5
B9
100
AcDbEntity
100
AcDbCircle
  8
0
 62
256
370
-1
 48
1.0
  6
BYLAYER
 10
64.0
 20
42.0
 30
0.0
 40
1.5
  0
CIRCLE
  5
BA
100
AcDbEntity
100
AcDbCircle
  8
0
 62
256
370
-1
 48
1.0
  6
BYLAYER
 10
54.0
 20
47.0
 30
0.0
 40
1.5
  0
CIRCLE
  5
BB
100
AcDbEntity
100
AcDbCircle
  8
0
 62
256
370
-1
 48
1.0
  6
BYLAYER
 10
54.0
 20
73.0
 30
0.0
 40
1.5
  0
LINE
  5
BC
100
AcDbEntity
100
AcDbLine
  8
0
 62
256
370
-1
 48
1.0
  6
BYLAYER
 10
175.0185173879084459
 20
36.3940506433696171
 30
0.0
 11
190.7685173879084459
 21
36.3940506433695958
 31
0.0
  0
LINE
  5
BD
100
AcDbEntity
100
AcDbLine
  8
0
 62
256
370
-1
 48
1.0
  6
BYLAYER
 10
175.1435173879084459
 20
33.3940506433696314
 30
0.0
 11
190.8935173879084459
 21
33.3940506433695958
 31
0.0
  0
ARC
  5
BE
100
AcDbEntity
  8
0
 62
256
370
-1
 48
1.0
  6
BYLAYER
100
AcDbCircle
 10
190.9560173879084459
 20
34.89036430148915
 30
0.0
 40
1.4976183804552152
100
AcDbArc
 50
267.60818473851009
 51
94.35914215592733
  0
ARC
  5
BF
100
AcDbEntity
  8
0
 62
256
370
-1
 48
1.0
  6
BYLAYER
100
AcDbCircle
 10
174.968517387908463
 20
34.8940506433710169
 30
0.0
 40
1.4957462850793211
100
AcDbArc
 50
89.6702511496986006
 51
276.6544250460066223
  0
LINE
  5
C0
100
AcDbEntity
100
AcDbLine
  8
0
 62
256
370
-1
 48
1.0
  6
BYLAYER
 10
175.0185173879084743
 20
86.6072540789660366
 30
0.0
 11
190.7685173879084743
 21
86.6072540789660223
 31
0.0
  0
LINE
  5
C1
100
AcDbEntity
100
AcDbLine
  8
0
 62
256
370
-1
 48
1.0
  6
BYLAYER
 10
175.1435173879084743
 20
83.607254078966065
 30
0.0
 11
190.8935173879084743
 21
83.6072540789660223
 31
0.0
  0
ARC
  5
C2
100
AcDbEntity
  8
0
 62
256
370
-1
 48
1.0
  6
BYLAYER
100
AcDbCircle
 10
190.9560173879084743
 20
85.1035677370855694
 30
0.0
 40
1.4976183804552152
100
AcDbArc
 50
267.60818473851009
 51
94.35914215592733
  0
ARC
  5
C3
100
AcDbEntity
  8
0
 62
256
370
-1
 48
1.0
  6
BYLAYER
100
AcDbCircle
 10
174.9685173879084914
 20
85.1072540789674434
 30
0.0
 40
1.4957462850793211
100
AcDbArc
 50
89.6702511496986006
 51
276.6544250460066223
  0
LINE
  5
C4
100
AcDbEntity
100
AcDbLine
  8
0
 62
256
370
-1
 48
1.0
  6
BYLAYER
 10
160.5006523611678233
 20
67.9446860476879522
 30
0.0
 11
160.5006523611677949
 21
52.1946860476879522
 31
0.0
  0
LINE
  5
C5
100
AcDbEntity
100
AcDbLine
  8
0
 62
256
370
-1
 48
1.0
  6
BYLAYER
 10
157.5006523611678517
 20
67.8196860476879522
 30
0.0
 11
157.5006523611678233
 21
52.0696860476879522
 31
0.0
  0
ARC
  5
C6
100
AcDbEntity
  8
0
 62
256
370
-1
 48
1.0
  6
BYLAYER
100
AcDbCircle
 10
158.9969660192873562
 20
52.0071860476879522
 30
0.0
 40
1.4976183804552152
100
AcDbArc
 50
177.60818473851009
 51
4.35914215592733
  0
ARC
  5
C7
100
AcDbEntity
  8
0
 62
256
370
-1
 48
1.0
  6
BYLAYER
100
AcDbCircle
 10
159.0006523611692444
 20
67.9946860476879351
 30
0.0
 40
1.4957462850793211
100
AcDbArc
 50
359.6702511496985721
 51
186.6544250460066223
  0
ENDSEC
  0
SECTION
  2
OBJECTS
  0
DICTIONARY
  5
C
100
AcDbDictionary
280
0
281
1
  3
ACAD_GROUP
350
D
  3
ACAD_LAYOUT
350
1A
  3
ACAD_MLINESTYLE
350
17
  3
ACAD_PLOTSETTINGS
350
19
  3
ACAD_PLOTSTYLENAME
350
E
  3
AcDbVariableDictionary
350
C8
  3
QCAD_OBJECTS
350
C9
  0
DICTIONARY
  5
D
100
AcDbDictionary
280
0
281
1
  0
ACDBDICTIONARYWDFLT
  5
E
100
AcDbDictionary
281
1
  3
Normal
350
F
100
AcDbDictionaryWithDefault
340
F
  0
ACDBPLACEHOLDER
  5
F
  0
DICTIONARY
  5
17
100
AcDbDictionary
280
0
281
1
  3
Standard
350
18
  0
MLINESTYLE
  5
18
100
AcDbMlineStyle
  2
STANDARD
 70
0
  3

 62
256
 51
90.0
 52
90.0
 71
2
 49
0.5
 62
256
  6
BYLAYER
 49
-0.5
 62
256
  6
BYLAYER
  0
DICTIONARY
  5
19
100
AcDbDictionary
280
0
281
1
  0
DICTIONARY
  5
1A
100
AcDbDictionary
281
1
  3
Layout1
350
1E
  3
Layout2
350
26
  3
Model
350
22
  0
LAYOUT
  5
1E
100
AcDbPlotSettings
  1

  2
none_device
  4

  6

 40
0.0
 41
0.0
 42
0.0
 43
0.0
 44
0.0
 45
0.0
 46
0.0
 47
0.0
 48
0.0
 49
0.0
140
0.0
141
0.0
142
1.0
143
1.0
 70
688
 72
0
 73
0
 74
5
  7

 75
16
147
1.0
148
0.0
149
0.0
100
AcDbLayout
  1
Layout1
 70
1
 71
1
 10
0.0
 20
0.0
 11
420.0
 21
297.0
 12
0.0
 22
0.0
 32
0.0
 14
100000000000000000000.0
 24
100000000000000000000.0
 34
100000000000000000000.0
 15
-100000000000000000000.0
 25
-100000000000000000000.0
 35
-100000000000000000000.0
146
0.0
 13
0.0
 23
0.0
 33
0.0
 16
1.0
 26
0.0
 36
0.0
 17
0.0
 27
1.0
 37
0.0
 76
0
330
1B
  0
LAYOUT
  5
22
100
AcDbPlotSettings
  1

  2
none_device
  4

  6

 40
0.0
 41
0.0
 42
0.0
 43
0.0
 44
0.0
 45
0.0
 46
0.0
 47
0.0
 48
0.0
 49
0.0
140
0.0
141
0.0
142
1.0
143
1.0
 70
1712
 72
0
 73
0
 74
0
  7

 75
0
147
1.0
148
0.0
149
0.0
100
AcDbLayout
  1
Model
 70
1
 71
0
 10
0.0
 20
0.0
 11
12.0
 21
9.0
 12
0.0
 22
0.0
 32
0.0
 14
0.0
 24
0.0
 34
0.0
 15
0.0
 25
0.0
 35
0.0
146
0.0
 13
0.0
 23
0.0
 33
0.0
 16
1.0
 26
0.0
 36
0.0
 17
0.0
 27
1.0
 37
0.0
 76
0
330
1F
  0
LAYOUT
  5
26
100
AcDbPlotSettings
  1

  2
none_device
  4

  6

 40
0.0
 41
0.0
 42
0.0
 43
0.0
 44
0.0
 45
0.0
 46
0.0
 47
0.0
 48
0.0
 49
0.0
140
0.0
141
0.0
142
1.0
143
1.0
 70
688
 72
0
 73
0
 74
5
  7

 75
16
147
1.0
148
0.0
149
0.0
100
AcDbLayout
  1
Layout2
 70
1
 71
2
 10
0.0
 20
0.0
 11
12.0
 21
9.0
 12
0.0
 22
0.0
 32
0.0
 14
0.0
 24
0.0
 34
0.0
 15
0.0
 25
0.0
 35
0.0
146
0.0
 13
0.0
 23
0.0
 33
0.0
 16
1.0
 26
0.0
 36
0.0
 17
0.0
 27
1.0
 37
0.0
 76
0
330
23
  0
DICTIONARY
  5
C8
100
AcDbDictionary
281
1
  3
DIMASSOC
350
CB
  3
HIDETEXT
350
CA
  0
DICTIONARYVAR
  5
CA
100
DictionaryVariables
280
0
  1
2
  0
DICTIONARYVAR
  5
CB
100
DictionaryVariables
280
0
  1
1
  0
DICTIONARY
  5
C9
100
AcDbDictionary
281
1
  3
ColorSettings/BackgroundColor
350
CC
  3
ColorSettings/ColorMode
350
CD
  3
Grid/DisplayGrid00
350
CE
  3
Grid/DisplayGrid01
350
CF
  3
Grid/DisplayGrid02
350
D0
  3
Grid/DisplayGrid03
350
D1
  3
Grid/GridSpacingX00
350
D2
  3
Grid/GridSpacingX01
350
D3
  3
Grid/GridSpacingX02
350
D4
  3
Grid/GridSpacingX03
350
D5
  3
Grid/GridSpacingY00
350
D6
  3
Grid/GridSpacingY01
350
D7
  3
Grid/GridSpacingY02
350
D8
  3
Grid/GridSpacingY03
350
D9
  3
Grid/IsometricGrid00
350
DA
  3
Grid/IsometricGrid01
350
DB
  3
Grid/IsometricGrid02
350
DC
  3
Grid/IsometricGrid03
350
DD
  3
Grid/IsometricProjection00
350
DE
  3
Grid/IsometricProjection01
350
DF
  3
Grid/IsometricProjection02
350
E0
  3
Grid/IsometricProjection03
350
E1
  3
Grid/MetaGridSpacingX00
350
E2
  3
Grid/MetaGridSpacingX01
350
E3
  3
Grid/MetaGridSpacingX02
350
E4
  3
Grid/MetaGridSpacingX03
350
E5
  3
Grid/MetaGridSpacingY00
350
E6
  3
Grid/MetaGridSpacingY01
350
E7
  3
Grid/MetaGridSpacingY02
350
E8
  3
Grid/MetaGridSpacingY03
350
E9
  3
MultiPageSettings/Columns
350
EA
  3
MultiPageSettings/GlueMarginsBottom
350
EB
  3
MultiPageSettings/GlueMarginsLeft
350
EC
  3
MultiPageSettings/GlueMarginsRight
350
ED
  3
MultiPageSettings/GlueMarginsTop
350
EE
  3
MultiPageSettings/PrintCropMarks
350
EF
  3
MultiPageSettings/Rows
350
F0
  3
PageSettings/OffsetX
350
F1
  3
PageSettings/OffsetY
350
F2
  3
PageSettings/PageOrientation
350
F3
  3
PageSettings/PaperHeight
350
F4
  3
PageSettings/PaperWidth
350
F5
  3
PageSettings/Scale
350
F6
  3
PageSettings/ShowPaperBorders
350
F7
  3
UnitSettings/PaperUnit
350
F8
  0
XRECORD
  5
CC
330
C9
100
AcDbXrecord
280
1
1000
White
  0
XRECORD
  5
CD
330
C9
100
AcDbXrecord
280
1
1000
FullColor
  0
XRECORD
  5
CE
330
C9
100
AcDbXrecord
280
1
290
1
  0
XRECORD
  5
CF
330
C9
100
AcDbXrecord
280
1
290
1
  0
XRECORD
  5
D0
330
C9
100
AcDbXrecord
280
1
290
1
  0
XRECORD
  5
D1
330
C9
100
AcDbXrecord
280
1
290
1
  0
XRECORD
  5
D2
330
C9
100
AcDbXrecord
280
1
1000
auto
  0
XRECORD
  5
D3
330
C9
100
AcDbXrecord
280
1
1000
auto
  0
XRECORD
  5
D4
330
C9
100
AcDbXrecord
280
1
1000
auto
  0
XRECORD
  5
D5
330
C9
100
AcDbXrecord
280
1
1000
auto
  0
XRECORD
  5
D6
330
C9
100
AcDbXrecord
280
1
1000
auto
  0
XRECORD
  5
D7
330
C9
100
AcDbXrecord
280
1
1000
auto
  0
XRECORD
  5
D8
330
C9
100
AcDbXrecord
280
1
1000
auto
  0
XRECORD
  5
D9
330
C9
100
AcDbXrecord
280
1
1000
auto
  0
XRECORD
  5
DA
330
C9
100
AcDbXrecord
280
1
290
0
  0
XRECORD
  5
DB
330
C9
100
AcDbXrecord
280
1
290
0
  0
XRECORD
  5
DC
330
C9
100
AcDbXrecord
280
1
290
0
  0
XRECORD
  5
DD
330
C9
100
AcDbXrecord
280
1
290
0
  0
XRECORD
  5
DE
330
C9
100
AcDbXrecord
280
1
 90
0
  0
XRECORD
  5
DF
330
C9
100
AcDbXrecord
280
1
 90
0
  0
XRECORD
  5
E0
330
C9
100
AcDbXrecord
280
1
 90
0
  0
XRECORD
  5
E1
330
C9
100
AcDbXrecord
280
1
 90
0
  0
XRECORD
  5
E2
330
C9
100
AcDbXrecord
280
1
1000
auto
  0
XRECORD
  5
E3
330
C9
100
AcDbXrecord
280
1
1000
auto
  0
XRECORD
  5
E4
330
C9
100
AcDbXrecord
280
1
1000
auto
  0
XRECORD
  5
E5
330
C9
100
AcDbXrecord
280
1
1000
auto
  0
XRECORD
  5
E6
330
C9
100
AcDbXrecord
280
1
1000
auto
  0
XRECORD
  5
E7
330
C9
100
AcDbXrecord
280
1
1000
auto
  0
XRECORD
  5
E8
330
C9
100
AcDbXrecord
280
1
1000
auto
  0
XRECORD
  5
E9
330
C9
100
AcDbXrecord
280
1
1000
auto
  0
XRECORD
  5
EA
330
C9
100
AcDbXrecord
280
1
 90
1
  0
XRECORD
  5
EB
330
C9
100
AcDbXrecord
280
1
 40
10.0
  0
XRECORD
  5
EC
330
C9
100
AcDbXrecord
280
1
 40
10.0
  0
XRECORD
  5
ED
330
C9
100
AcDbXrecord
280
1
 40
10.0
  0
XRECORD
  5
EE
330
C9
100
AcDbXrecord
280
1
 40
10.0
  0
XRECORD
  5
EF
330
C9
100
AcDbXrecord
280
1
290
0
  0
XRECORD
  5
F0
330
C9
100
AcDbXrecord
280
1
 90
1
  0
XRECORD
  5
F1
330
C9
100
AcDbXrecord
280
1
 40
0.0
  0
XRECORD
  5
F2
330
C9
100
AcDbXrecord
280
1
 40
0.0
  0
XRECORD
  5
F3
330
C9
100
AcDbXrecord
280
1
1000
Portrait
  0
XRECORD
  5
F4
330
C9
100
AcDbXrecord
280
1
 40
297.0
  0
XRECORD
  5
F5
330
C9
100
AcDbXrecord
280
1
 40
210.0
  0
XRECORD
  5
F6
330
C9
100
AcDbXrecord
280
1
1000
1:1
  0
XRECORD
  5
F7
330
C9
100
AcDbXrecord
280
1
290
1
  0
XRECORD
  5
F8
330
C9
100
AcDbXrecord
280
1
 90
4
  0
ENDSEC
  0
EOF
