999
dxflib 3.7.5.0
  0
SECTION
  2
HEADER
  9
$ACADVER
  1
AC1015
  9
$HANDSEED
  5
FFFF
  9
$DIMADEC
 70
0
  9
$DIMASZ
 40
2.5
  9
$DIMAUNIT
 70
0
  9
$DIMAZIN
 70
2
  9
$DIMDEC
 70
4
  9
$DIMEXE
 40
1.25
  9
$DIMEXO
 40
0.625
  9
$DIMGAP
 40
0.625
  9
$DIMLUNIT
 70
2
  9
$DIMSCALE
 40
1.0
  9
$DIMTSZ
 40
0.0
  9
$DIMTXT
 40
2.5
  9
$DIMZIN
 70
8
  9
$DWGCODEPAGE
  3
ANSI_1252
  9
$INSUNITS
 70
4
  9
$LTSCALE
 40
1
  0
ENDSEC
  0
SECTION
  2
TABLES
  0
TABLE
  2
VPORT
  5
8
100
AcDbSymbolTable
 70
1
  0
VPORT
  5
30
100
AcDbSymbolTableRecord
100
AcDbViewportTableRecord
  2
*Active
 70
0
 10
0.0
 20
0.0
 11
1.0
 21
1.0
 12
286.3055555555554861
 22
148.5
 13
0.0
 23
0.0
 14
10.0
 24
10.0
 15
10.0
 25
10.0
 16
0.0
 26
0.0
 36
1.0
 17
0.0
 27
0.0
 37
0.0
 40
297.0
 41
1.92798353909465
 42
50.0
 43
0.0
 44
0.0
 50
0.0
 51
0.0
 71
0
 72
100
 73
1
 74
3
 75
1
 76
1
 77
0
 78
0
281
0
 65
1
110
0.0
120
0.0
130
0.0
111
1.0
121
0.0
131
0.0
112
0.0
122
1.0
132
0.0
 79
0
146
0.0
  0
ENDTAB
  0
TABLE
  2
LTYPE
  5
5
100
AcDbSymbolTable
 70
4
  0
LTYPE
  5
16
100
AcDbSymbolTableRecord
100
AcDbLinetypeTableRecord
  2
Continuous
 70
0
  3
Solid line
 72
65
 73
0
 40
0.0
  0
LTYPE
  5
15
100
AcDbSymbolTableRecord
100
AcDbLinetypeTableRecord
  2
BYLAYER
 70
0
  3

 72
65
 73
0
 40
0.0
  0
LTYPE
  5
31
100
AcDbSymbolTableRecord
100
AcDbLinetypeTableRecord
  2
K5LT32769
 70
0
  3

 72
65
 73
0
 40
0.0
  0
LTYPE
  5
14
100
AcDbSymbolTableRecord
100
AcDbLinetypeTableRecord
  2
BYBLOCK
 70
0
  3

 72
65
 73
0
 40
0.0
  0
ENDTAB
  0
TABLE
  2
LAYER
  5
2
100
AcDbSymbolTable
 70
2
  0
LAYER
  5
32
100
AcDbSymbolTableRecord
100
AcDbLayerTableRecord
  2
\U+00d0\U+009f\U+00d0\U+00be_\U+00d1\U+0083\U+00d0\U+00bc\U+00d0\U+00be\U+00d0\U+00bb\U+00d1\U+0087\U+00d0\U+00b0\U+00d0\U+00bd\U+00d0\U+00b8\U+00d1\U+008e
 70
0
 62
1
420
16711680
  6
Continuous
370
-3
390
F
  0
LAYER
  5
10
100
AcDbSymbolTableRecord
100
AcDbLayerTableRecord
  2
0
 70
0
 62
7
420
16777215
  6
Continuous
370
25
390
F
  0
ENDTAB
  0
TABLE
  2
STYLE
  5
3
100
AcDbSymbolTable
 70
1
  0
STYLE
  5
33
100
AcDbSymbolTableRecord
100
AcDbTextStyleTableRecord
  2
Standard
 70
0
 40
0.0
 41
1.0
 50
0.0
 71
0
 42
2.5
  3

  4

1001
ACAD
1000
txt
1071
0
  0
ENDTAB
  0
TABLE
  2
VIEW
  5
6
100
AcDbSymbolTable
 70
0
  0
ENDTAB
  0
TABLE
  2
UCS
  5
7
100
AcDbSymbolTable
 70
0
  0
ENDTAB
  0
TABLE
  2
APPID
  5
9
100
AcDbSymbolTable
 70
1
  0
APPID
  5
12
100
AcDbSymbolTableRecord
100
AcDbRegAppTableRecord
  2
ACAD
 70
0
  0
APPID
  5
34
100
AcDbSymbolTableRecord
100
AcDbRegAppTableRecord
  2
QCAD
 70
0
  0
ENDTAB
  0
TABLE
  2
DIMSTYLE
  5
A
100
AcDbSymbolTable
 70
1
100
AcDbDimStyleTable
 71
0
  0
DIMSTYLE
105
27
100
AcDbSymbolTableRecord
100
AcDbDimStyleTableRecord
  2
Standard
 41
2.5
 42
0.625
 43
3.75
 44
1.25
 70
0
 73
0
 74
0
 77
1
 78
8
140
2.5
141
2.5
143
0.03937007874016
147
0.625
171
3
172
1
271
2
272
2
274
3
278
44
283
0
284
8
340
33
  0
ENDTAB
  0
TABLE
  2
BLOCK_RECORD
  5
1
100
AcDbSymbolTable
 70
1
  0
BLOCK_RECORD
  5
1F
100
AcDbSymbolTableRecord
100
AcDbBlockTableRecord
  2
*Model_Space
340
22
  0
BLOCK_RECORD
  5
1B
100
AcDbSymbolTableRecord
100
AcDbBlockTableRecord
  2
*Paper_Space
340
1E
  0
BLOCK_RECORD
  5
23
100
AcDbSymbolTableRecord
100
AcDbBlockTableRecord
  2
*Paper_Space0
340
26
  0
ENDTAB
  0
ENDSEC
  0
SECTION
  2
BLOCKS
  0
BLOCK
  5
20
100
AcDbEntity
  8
0
100
AcDbBlockBegin
  2
*Model_Space
 70
0
 10
0.0
 20
0.0
 30
0.0
  3
*Model_Space
  1

  0
ENDBLK
  5
21
100
AcDbEntity
  8
0
100
AcDbBlockEnd
  0
BLOCK
  5
1C
100
AcDbEntity
 67
1
  8
0
100
AcDbBlockBegin
  2
*Paper_Space
 70
0
 10
0.0
 20
0.0
 30
0.0
  3
*Paper_Space
  1

  0
ENDBLK
  5
1D
100
AcDbEntity
 67
1
  8
0
100
AcDbBlockEnd
  0
BLOCK
  5
24
100
AcDbEntity
  8
0
100
AcDbBlockBegin
  2
*Paper_Space0
 70
0
 10
0.0
 20
0.0
 30
0.0
  3
*Paper_Space0
  1

  0
ENDBLK
  5
25
100
AcDbEntity
  8
0
100
AcDbBlockEnd
  0
ENDSEC
  0
SECTION
  2
ENTITIES
  0
LWPOLYLINE
  5
35
  8
0
 62
256
370
-1
 48
1.0
  6
BYLAYER
100
AcDbEntity
100
AcDbPolyline
 90
8
 70
1
 10
-43.3861958724000303
 20
25.0
 30
0.0
 42
-0.1989123673796581
 10
-41.1411318421327437
 20
24.0700640302672895
 30
0.0
 10
-32.4911318421328161
 20
15.4200640302672873
 30
0.0
 42
-0.6681786379192985
 10
-34.7361958724000885
 20
10.0000000000000213
 30
0.0
 10
-65.2638041275999825
 20
9.9999999999999787
 30
0.0
 42
-0.6681786379192993
 10
-67.5088681578672691
 20
15.4200640302672731
 30
0.0
 10
-58.8588681578672208
 20
24.0700640302672966
 30
0.0
 42
-0.1989123673796585
 10
-56.6138041275999484
 20
25.0
 30
0.0
  0
LWPOLYLINE
  5
36
  8
0
 62
256
370
-1
 48
1.0
  6
BYLAYER
100
AcDbEntity
100
AcDbPolyline
 90
8
 70
1
 10
-35.0
 20
46.6138041275999271
 30
0.0
 42
-0.1989123673796577
 10
-34.0700640302672895
 20
48.8588681578672208
 30
0.0
 10
-25.4200640302672838
 20
57.5088681578672833
 30
0.0
 42
-0.6681786379192985
 10
-19.9999999999999858
 20
55.2638041275999896
 30
0.0
 10
-19.9999999999999716
 20
24.7361958724000175
 30
0.0
 42
-0.6681786379192999
 10
-25.420064030267266
 20
22.4911318421327202
 30
0.0
 10
-34.0700640302673037
 20
31.1411318421327934
 30
0.0
 42
-0.1989123673796573
 10
-35.0000000000000142
 20
33.3861958724000729
 30
0.0
  0
LWPOLYLINE
  5
37
  8
0
 62
256
370
-1
 48
1.0
  6
BYLAYER
100
AcDbEntity
100
AcDbPolyline
 90
8
 70
1
 10
-41.1411318421327508
 20
55.929935969732739
 30
0.0
 42
-0.1989123673796581
 10
-43.3861958724000303
 20
55.0000000000000142
 30
0.0
 10
-56.6138041275998987
 20
55.0000000000000142
 30
0.0
 42
-0.1989123673796576
 10
-58.8588681578671924
 20
55.9299359697327247
 30
0.0
 10
-67.5088681578671697
 20
64.579935969732702
 30
0.0
 42
-0.6681786379192999
 10
-65.2638041275998404
 20
70.0
 30
0.0
 10
-34.736195872400117
 20
70.0000000000000142
 30
0.0
 42
-0.6681786379192981
 10
-32.491131842132809
 20
64.5799359697327446
 30
0.0
  0
LWPOLYLINE
  5
38
  8
0
 62
256
370
-1
 48
1.0
  6
BYLAYER
100
AcDbEntity
100
AcDbPolyline
 90
8
 70
1
 10
-65.0
 20
33.3861958724000516
 30
0.0
 42
-0.1989123673796588
 10
-65.9299359697327105
 20
31.141131842132765
 30
0.0
 10
-74.5799359697326878
 20
22.4911318421327309
 30
0.0
 42
-0.6681786379193011
 10
-79.9999999999999716
 20
24.7361958724000033
 30
0.0
 10
-80.0000000000000142
 20
55.263804127600082
 30
0.0
 42
-0.6681786379193014
 10
-74.5799359697327304
 20
57.5088681578673544
 30
0.0
 10
-65.9299359697326963
 20
48.8588681578672634
 30
0.0
 42
-0.1989123673796583
 10
-64.9999999999999858
 20
46.613804127599991
 30
0.0
  0
LWPOLYLINE
  5
39
  8
0
 62
256
370
-1
 48
1.0
  6
BYLAYER
100
AcDbEntity
100
AcDbPolyline
 90
8
 70
1
 10
-89.9999999999999574
 20
7.9999999999999432
 30
0.0
 42
0.414213562373095
 10
-81.9999999999999716
 20
-0.0000000000000355
 30
0.0
 10
-17.9999999999999503
 20
0.0000000000000426
 30
0.0
 42
0.4142135623730958
 10
-9.9999999999999716
 20
8.0000000000000426
 30
0.0
 10
-10.0000000000000426
 20
72.0000000000000568
 30
0.0
 42
0.414213562373095
 10
-17.9999999999999929
 20
80.0
 30
0.0
 10
-82.0000000000000426
 20
79.9999999999999716
 30
0.0
 42
0.4142135623730959
 10
-90.0000000000000426
 20
71.9999999999999147
 30
0.0
  0
CIRCLE
  5
3A
100
AcDbEntity
100
AcDbCircle
  8
0
 62
256
370
-1
 48
1.0
  6
BYLAYER
 10
-84.9999999999999574
 20
75.0000000000000426
 30
0.0
 40
1.5999999999999981
  0
CIRCLE
  5
3B
100
AcDbEntity
100
AcDbCircle
  8
0
 62
256
370
-1
 48
1.0
  6
BYLAYER
 10
-65.25
 20
24.75
 30
0.0
 40
1.599999999999999
  0
CIRCLE
  5
3C
100
AcDbEntity
100
AcDbCircle
  8
0
 62
256
370
-1
 48
1.0
  6
BYLAYER
 10
-34.7499999999999858
 20
55.2499999999999787
 30
0.0
 40
1.599999999999999
  0
CIRCLE
  5
3D
100
AcDbEntity
100
AcDbCircle
  8
0
 62
256
370
-1
 48
1.0
  6
BYLAYER
 10
-14.9999999999999929
 20
75.0
 30
0.0
 40
1.599999999999999
  0
CIRCLE
  5
3E
100
AcDbEntity
100
AcDbCircle
  8
0
 62
256
370
-1
 48
1.0
  6
BYLAYER
 10
-85.0
 20
5.0
 30
0.0
 40
1.599999999999999
  0
CIRCLE
  5
3F
100
AcDbEntity
100
AcDbCircle
  8
0
 62
256
370
-1
 48
1.0
  6
BYLAYER
 10
-65.2499999999999858
 20
55.2500000000000142
 30
0.0
 40
1.6000000000000001
  0
CIRCLE
  5
40
100
AcDbEntity
100
AcDbCircle
  8
0
 62
256
370
-1
 48
1.0
  6
BYLAYER
 10
-15.0000000000000071
 20
4.9999999999999929
 30
0.0
 40
1.6000000000000001
  0
CIRCLE
  5
41
100
AcDbEntity
100
AcDbCircle
  8
0
 62
256
370
-1
 48
1.0
  6
BYLAYER
 10
-34.75
 20
24.7499999999999964
 30
0.0
 40
1.6000000000000001
  0
LINE
  5
42
100
AcDbEntity
100
AcDbLine
  8
0
 62
256
370
-1
 48
1.0
  6
BYLAYER
 10
-86.6000000000000085
 20
10.0000000000000107
 30
0.0
 11
-86.5999999999999801
 21
70.0000000000000284
 31
0.0
  0
LINE
  5
43
100
AcDbEntity
100
AcDbLine
  8
0
 62
256
370
-1
 48
1.0
  6
BYLAYER
 10
-83.4000000000000057
 20
10.0000000000000071
 30
0.0
 11
-83.3999999999999773
 21
70.0000000000000142
 31
0.0
  0
ARC
  5
44
100
AcDbEntity
  8
0
 62
256
370
-1
 48
1.0
  6
BYLAYER
100
AcDbCircle
 10
-84.9999999999999716
 20
70.0000000000000142
 30
0.0
 40
1.6000000000000085
100
AcDbArc
 50
0.0
 51
180.0
  0
ARC
  5
45
100
AcDbEntity
  8
0
 62
256
370
-1
 48
1.0
  6
BYLAYER
100
AcDbCircle
 10
-85.0
 20
10.0
 30
0.0
 40
1.6000000000000085
100
AcDbArc
 50
180.0
 51
0.0
  0
LINE
  5
46
100
AcDbEntity
100
AcDbLine
  8
0
 62
256
370
-1
 48
1.0
  6
BYLAYER
 10
-16.6000000000000227
 20
9.9999999999999858
 30
0.0
 11
-16.6000000000000014
 21
70.0
 31
0.0
  0
LINE
  5
47
100
AcDbEntity
100
AcDbLine
  8
0
 62
256
370
-1
 48
1.0
  6
BYLAYER
 10
-13.4000000000000199
 20
9.9999999999999822
 30
0.0
 11
-13.3999999999999986
 21
70.0
 31
0.0
  0
ARC
  5
48
100
AcDbEntity
  8
0
 62
256
370
-1
 48
1.0
  6
BYLAYER
100
AcDbCircle
 10
-14.9999999999999929
 20
70.0
 30
0.0
 40
1.6000000000000085
100
AcDbArc
 50
0.0
 51
180.0
  0
ARC
  5
49
100
AcDbEntity
  8
0
 62
256
370
-1
 48
1.0
  6
BYLAYER
100
AcDbCircle
 10
-15.0000000000000142
 20
9.9999999999999893
 30
0.0
 40
1.6000000000000085
100
AcDbArc
 50
180.0
 51
0.0
  0
LINE
  5
4A
100
AcDbEntity
100
AcDbLine
  8
0
 62
256
370
-1
 48
1.0
  6
BYLAYER
 10
-20.0
 20
73.3999999999999488
 30
0.0
 11
-79.9999999999999716
 21
73.4000000000000909
 31
0.0
  0
LINE
  5
4B
100
AcDbEntity
100
AcDbLine
  8
0
 62
256
370
-1
 48
1.0
  6
BYLAYER
 10
-19.9999999999999645
 20
76.5999999999999943
 30
0.0
 11
-80.0000000000000142
 21
76.6000000000000227
 31
0.0
  0
ARC
  5
4C
100
AcDbEntity
  8
0
 62
256
370
-1
 48
1.0
  6
BYLAYER
100
AcDbCircle
 10
-79.9999999999999858
 20
75.0
 30
0.0
 40
1.6000000000000085
100
AcDbArc
 50
90.0
 51
270.0
  0
ARC
  5
4D
100
AcDbEntity
  8
0
 62
256
370
-1
 48
1.0
  6
BYLAYER
100
AcDbCircle
 10
-19.9999999999999893
 20
74.9999999999999858
 30
0.0
 40
1.6000000000000085
100
AcDbArc
 50
270.0
 51
90.0
  0
LINE
  5
4E
100
AcDbEntity
100
AcDbLine
  8
0
 62
256
370
-1
 48
1.0
  6
BYLAYER
 10
-20.0000000000000107
 20
3.3999999999999559
 30
0.0
 11
-79.9999999999999716
 21
3.4000000000000625
 31
0.0
  0
LINE
  5
4F
100
AcDbEntity
100
AcDbLine
  8
0
 62
256
370
-1
 48
1.0
  6
BYLAYER
 10
-19.9999999999999858
 20
6.5999999999999872
 30
0.0
 11
-79.9999999999999858
 21
6.6000000000000441
 31
0.0
  0
ARC
  5
50
100
AcDbEntity
  8
0
 62
256
370
-1
 48
1.0
  6
BYLAYER
100
AcDbCircle
 10
-80.0
 20
5.0000000000000142
 30
0.0
 40
1.6000000000000085
100
AcDbArc
 50
90.0
 51
270.0
  0
ARC
  5
51
100
AcDbEntity
  8
0
 62
256
370
-1
 48
1.0
  6
BYLAYER
100
AcDbCircle
 10
-20.0
 20
4.9999999999999929
 30
0.0
 40
1.6000000000000085
100
AcDbArc
 50
270.0
 51
90.0
  0
LINE
  5
52
100
AcDbEntity
100
AcDbLine
  8
0
 62
256
370
-1
 48
1.0
  6
BYLAYER
 10
26.0488734463276117
 20
72.7134496815614568
 30
0.0
 11
26.0488734463275726
 21
34.7134496815614568
 31
0.0
  0
LINE
  5
53
100
AcDbEntity
100
AcDbLine
  8
0
 62
256
370
-1
 48
1.0
  6
BYLAYER
 10
86.0488734463279883
 20
34.7134496815614
 30
0.0
 11
86.0488734463279314
 21
72.7134496815614
 31
0.0
  0
ARC
  5
54
100
AcDbEntity
  8
0
 62
256
370
-1
 48
1.0
  6
BYLAYER
100
AcDbCircle
 10
80.0488734463279883
 20
34.7134496815614
 30
0.0
 40
6.0
100
AcDbArc
 50
270.0
 51
0.0
  0
LINE
  5
55
100
AcDbEntity
100
AcDbLine
  8
0
 62
256
370
-1
 48
1.0
  6
BYLAYER
 10
80.0488734463279883
 20
28.7134496815614
 30
0.0
 11
32.0488734463277822
 21
28.7134496815614071
 31
0.0
  0
ARC
  5
56
100
AcDbEntity
  8
0
 62
256
370
-1
 48
1.0
  6
BYLAYER
100
AcDbCircle
 10
32.0488734463275762
 20
34.7134496815614568
 30
0.0
 40
6.0
100
AcDbArc
 50
180.0
 51
270.0
  0
ARC
  5
57
100
AcDbEntity
  8
0
 62
256
370
-1
 48
1.0
  6
BYLAYER
100
AcDbCircle
 10
80.0488734463279314
 20
72.7134496815614
 30
0.0
 40
6.0
100
AcDbArc
 50
0.0
 51
90.0
  0
LINE
  5
58
100
AcDbEntity
100
AcDbLine
  8
0
 62
256
370
-1
 48
1.0
  6
BYLAYER
 10
80.048873446327903
 20
78.7134496815614284
 30
0.0
 11
32.0488734463276614
 21
78.7134496815614284
 31
0.0
  0
ARC
  5
59
100
AcDbEntity
  8
0
 62
256
370
-1
 48
1.0
  6
BYLAYER
100
AcDbCircle
 10
32.0488734463276899
 20
72.7134496815614142
 30
0.0
 40
6.0
100
AcDbArc
 50
90.0
 51
180.0
  0
CIRCLE
  5
5A
100
AcDbEntity
100
AcDbCircle
  8
0
 62
256
370
-1
 48
1.0
  6
BYLAYER
 10
30.1338208702754358
 20
32.9668416545760294
 30
0.0
 40
1.55
  0
CIRCLE
  5
5B
100
AcDbEntity
100
AcDbCircle
  8
0
 62
256
370
-1
 48
1.0
  6
BYLAYER
 10
82.0
 20
33.0
 30
0.0
 40
1.55
  0
CIRCLE
  5
5C
100
AcDbEntity
100
AcDbCircle
  8
0
 62
256
370
-1
 48
1.0
  6
BYLAYER
 10
55.90618029858706
 20
54.0
 30
0.0
 40
3.25
  0
LINE
  5
5D
100
AcDbEntity
100
AcDbLine
  8
0
 62
256
370
-1
 48
1.0
  6
BYLAYER
 10
64.4116680196784728
 20
62.1244279879263601
 30
0.0
 11
66.9102540378444814
 21
63.5669872981077901
 31
0.0
  0
LINE
  5
5E
100
AcDbEntity
100
AcDbLine
  8
0
 62
256
370
-1
 48
1.0
  6
BYLAYER
 10
68.4102540378444814
 20
63.566987298107783
 30
0.0
 11
75.5705080756889629
 21
59.4330127018923733
 31
0.0
  0
ARC
  5
5F
100
AcDbEntity
  8
0
 62
256
370
-1
 48
1.0
  6
BYLAYER
100
AcDbCircle
 10
67.6602540378444814
 20
62.2679491924311037
 30
0.0
 40
1.5
100
AcDbArc
 50
60.0000000000028351
 51
119.9999999999972147
  0
LINE
  5
60
100
AcDbEntity
100
AcDbLine
  8
0
 62
256
370
-1
 48
1.0
  6
BYLAYER
 10
76.3205080756888492
 20
58.1339745962155661
 30
0.0
 11
76.3205080756888492
 21
49.8660254037844268
 31
0.0
  0
ARC
  5
61
100
AcDbEntity
  8
0
 62
256
370
-1
 48
1.0
  6
BYLAYER
100
AcDbCircle
 10
74.8205080756888492
 20
58.1339745962155732
 30
0.0
 40
1.5
100
AcDbArc
 50
0.0
 51
60.0000000000028351
  0
LINE
  5
62
100
AcDbEntity
100
AcDbLine
  8
0
 62
256
370
-1
 48
1.0
  6
BYLAYER
 10
75.5705080756889629
 20
48.5669872981077901
 30
0.0
 11
68.4102540378444814
 21
44.4330127018923733
 31
0.0
  0
ARC
  5
63
100
AcDbEntity
  8
0
 62
256
370
-1
 48
1.0
  6
BYLAYER
100
AcDbCircle
 10
74.8205080756888492
 20
49.8660254037844197
 30
0.0
 40
1.5
100
AcDbArc
 50
299.9999999999972147
 51
0.0
  0
LINE
  5
64
100
AcDbEntity
100
AcDbLine
  8
0
 62
256
370
-1
 48
1.0
  6
BYLAYER
 10
66.9102540378444814
 20
44.4330127018923804
 30
0.0
 11
64.4116680196784728
 21
45.8755720120735759
 31
0.0
  0
ARC
  5
65
100
AcDbEntity
  8
0
 62
256
370
-1
 48
1.0
  6
BYLAYER
100
AcDbCircle
 10
67.6602540378444814
 20
45.7320508075688963
 30
0.0
 40
1.5
100
AcDbArc
 50
240.0000000000027853
 51
299.9999999999972147
  0
LINE
  5
66
100
AcDbEntity
100
AcDbLine
  8
0
 62
256
370
-1
 48
1.0
  6
BYLAYER
 10
47.4570636726411337
 20
62.2002157807013916
 30
0.0
 11
45.0897459621556393
 21
63.5669872981077972
 31
0.0
  0
LINE
  5
67
100
AcDbEntity
100
AcDbLine
  8
0
 62
256
370
-1
 48
1.0
  6
BYLAYER
 10
43.5897459621555825
 20
63.5669872981077972
 30
0.0
 11
36.4294919243111579
 21
59.4330127018924088
 31
0.0
  0
ARC
  5
68
100
AcDbEntity
  8
0
 62
256
370
-1
 48
1.0
  6
BYLAYER
100
AcDbCircle
 10
44.3397459621555896
 20
62.2679491924311179
 30
0.0
 40
1.5
100
AcDbArc
 50
60.0000000000028351
 51
119.9999999999972147
  0
LINE
  5
69
100
AcDbEntity
100
AcDbLine
  8
0
 62
256
370
-1
 48
1.0
  6
BYLAYER
 10
35.6794919243111508
 20
58.133974596215559
 30
0.0
 11
35.6794919243111508
 21
49.8660254037844268
 31
0.0
  0
ARC
  5
6A
100
AcDbEntity
  8
0
 62
256
370
-1
 48
1.0
  6
BYLAYER
100
AcDbCircle
 10
37.1794919243111508
 20
58.1339745962156016
 30
0.0
 40
1.5
100
AcDbArc
 50
119.9999999999972147
 51
180.0
  0
LINE
  5
6B
100
AcDbEntity
100
AcDbLine
  8
0
 62
256
370
-1
 48
1.0
  6
BYLAYER
 10
36.4294919243111508
 20
48.5669872981077972
 30
0.0
 11
43.5897459621555754
 21
44.4330127018923804
 31
0.0
  0
ARC
  5
6C
100
AcDbEntity
  8
0
 62
256
370
-1
 48
1.0
  6
BYLAYER
100
AcDbCircle
 10
37.1794919243111508
 20
49.8660254037844197
 30
0.0
 40
1.5
100
AcDbArc
 50
180.0
 51
240.0000000000027853
  0
LINE
  5
6D
100
AcDbEntity
100
AcDbLine
  8
0
 62
256
370
-1
 48
1.0
  6
BYLAYER
 10
45.0897459621556322
 20
44.4330127018923804
 30
0.0
 11
47.457063672642164
 21
45.799784219298374
 31
0.0
  0
ARC
  5
6E
100
AcDbEntity
  8
0
 62
256
370
-1
 48
1.0
  6
BYLAYER
100
AcDbCircle
 10
44.3397459621555754
 20
45.7320508075688963
 30
0.0
 40
1.5
100
AcDbArc
 50
240.0000000000027853
 51
299.9999999999972147
  0
ARC
  5
6F
100
AcDbEntity
  8
0
 62
256
370
-1
 48
1.0
  6
BYLAYER
100
AcDbCircle
 10
55.90618029858706
 20
54.0
 30
0.0
 40
10.0
100
AcDbArc
 50
143.1227676750219189
 51
216.8772323249780811
  0
ARC
  5
70
100
AcDbEntity
  8
0
 62
256
370
-1
 48
1.0
  6
BYLAYER
100
AcDbCircle
 10
46.7070636726417661
 20
60.9011776750247691
 30
0.0
 40
1.5
100
AcDbArc
 50
323.1227676750218052
 51
60.0000000000028351
  0
ARC
  5
71
100
AcDbEntity
  8
0
 62
256
370
-1
 48
1.0
  6
BYLAYER
100
AcDbCircle
 10
46.7070636726417661
 20
47.0988223249755151
 30
0.0
 40
1.5
100
AcDbArc
 50
299.9999999999972147
 51
36.877232324978138
  0
ARC
  5
72
100
AcDbEntity
  8
0
 62
256
370
-1
 48
1.0
  6
BYLAYER
100
AcDbCircle
 10
55.90618029858706
 20
54.0
 30
0.0
 40
10.0
100
AcDbArc
 50
323.5933598559248594
 51
36.4066401440751264
  0
ARC
  5
73
100
AcDbEntity
  8
0
 62
256
370
-1
 48
1.0
  6
BYLAYER
100
AcDbCircle
 10
65.1616680196784728
 20
47.1746101177503689
 30
0.0
 40
1.5
100
AcDbArc
 50
143.5933598559248878
 51
240.0000000000027853
  0
ARC
  5
74
100
AcDbEntity
  8
0
 62
256
370
-1
 48
1.0
  6
BYLAYER
100
AcDbCircle
 10
65.1616680196784728
 20
60.8253898822497874
 30
0.0
 40
1.5
100
AcDbArc
 50
119.9999999999972147
 51
216.4066401440750838
  0
LINE
  5
75
100
AcDbEntity
100
AcDbLine
  8
0
 62
256
370
-1
 48
1.0
  6
BYLAYER
 10
53.0000000000001137
 20
34.0000000000000071
 30
0.0
 11
59.0
 21
34.0
 31
0.0
  0
LINE
  5
76
100
AcDbEntity
100
AcDbLine
  8
0
 62
256
370
-1
 48
1.0
  6
BYLAYER
 10
59.0
 20
32.0
 30
0.0
 11
53.0000000000001137
 21
32.0
 31
0.0
  0
ARC
  5
77
100
AcDbEntity
  8
0
 62
256
370
-1
 48
1.0
  6
BYLAYER
100
AcDbCircle
 10
60.0
 20
32.0
 30
0.0
 40
1.0
100
AcDbArc
 50
180.0
 51
0.0
  0
ARC
  5
78
100
AcDbEntity
  8
0
 62
256
370
-1
 48
1.0
  6
BYLAYER
100
AcDbCircle
 10
60.0
 20
34.0
 30
0.0
 40
1.0
100
AcDbArc
 50
0.0
 51
180.0
  0
LINE
  5
79
100
AcDbEntity
100
AcDbLine
  8
0
 62
256
370
-1
 48
1.0
  6
BYLAYER
 10
61.0
 20
34.0
 30
0.0
 11
61.0
 21
32.0
 31
0.0
  0
ARC
  5
7A
100
AcDbEntity
  8
0
 62
256
370
-1
 48
1.0
  6
BYLAYER
100
AcDbCircle
 10
52.0
 20
32.0
 30
0.0
 40
1.0
100
AcDbArc
 50
180.0
 51
0.0
  0
ARC
  5
7B
100
AcDbEntity
  8
0
 62
256
370
-1
 48
1.0
  6
BYLAYER
100
AcDbCircle
 10
52.0
 20
34.0000000000000071
 30
0.0
 40
1.0
100
AcDbArc
 50
0.0
 51
180.0
  0
LINE
  5
7C
100
AcDbEntity
100
AcDbLine
  8
0
 62
256
370
-1
 48
1.0
  6
BYLAYER
 10
51.0000000000001137
 20
33.9999999999999929
 30
0.0
 11
51.0000000000001137
 21
32.0
 31
0.0
  0
LINE
  5
7D
100
AcDbEntity
100
AcDbLine
  8
0
 62
256
370
-1
 48
1.0
  6
BYLAYER
 10
53.0488734463278391
 20
75.6134496815614341
 30
0.0
 11
59.0488734463277254
 21
75.6134496815614341
 31
0.0
  0
LINE
  5
7E
100
AcDbEntity
100
AcDbLine
  8
0
 62
256
370
-1
 48
1.0
  6
BYLAYER
 10
59.0488734463277254
 20
73.6134496815614341
 30
0.0
 11
53.0488734463278391
 21
73.6134496815614341
 31
0.0
  0
ARC
  5
7F
100
AcDbEntity
  8
0
 62
256
370
-1
 48
1.0
  6
BYLAYER
100
AcDbCircle
 10
60.0488734463277254
 20
73.6134496815614341
 30
0.0
 40
1.0
100
AcDbArc
 50
180.0
 51
0.0
  0
ARC
  5
80
100
AcDbEntity
  8
0
 62
256
370
-1
 48
1.0
  6
BYLAYER
100
AcDbCircle
 10
60.0488734463277254
 20
75.6134496815614341
 30
0.0
 40
1.0
100
AcDbArc
 50
0.0
 51
180.0
  0
LINE
  5
81
100
AcDbEntity
100
AcDbLine
  8
0
 62
256
370
-1
 48
1.0
  6
BYLAYER
 10
61.0488734463277254
 20
75.6134496815614341
 30
0.0
 11
61.0488734463277254
 21
73.6134496815614341
 31
0.0
  0
ARC
  5
82
100
AcDbEntity
  8
0
 62
256
370
-1
 48
1.0
  6
BYLAYER
100
AcDbCircle
 10
52.0488734463277254
 20
73.6134496815614341
 30
0.0
 40
1.0
100
AcDbArc
 50
180.0
 51
0.0
  0
ARC
  5
83
100
AcDbEntity
  8
0
 62
256
370
-1
 48
1.0
  6
BYLAYER
100
AcDbCircle
 10
52.0488734463277254
 20
75.6134496815614341
 30
0.0
 40
1.0
100
AcDbArc
 50
0.0
 51
180.0
  0
LINE
  5
84
100
AcDbEntity
100
AcDbLine
  8
0
 62
256
370
-1
 48
1.0
  6
BYLAYER
 10
51.0488734463278391
 20
75.6134496815614341
 30
0.0
 11
51.0488734463278391
 21
73.6134496815614341
 31
0.0
  0
LINE
  5
85
100
AcDbEntity
100
AcDbLine
  8
0
 62
256
370
-1
 48
1.0
  6
BYLAYER
 10
60.746152422706686
 20
39.7401923788644993
 30
0.0
 11
56.4500000000000384
 21
37.2598076211352947
 31
0.0
  0
ARC
  5
86
100
AcDbEntity
  8
0
 62
256
370
-1
 48
1.0
  6
BYLAYER
100
AcDbCircle
 10
60.2961524227066192
 20
40.5196152422704827
 30
0.0
 40
0.8999999999999999
100
AcDbArc
 50
299.9999999999972147
 51
0.0
  0
LINE
  5
87
100
AcDbEntity
100
AcDbLine
  8
0
 62
256
370
-1
 48
1.0
  6
BYLAYER
 10
55.5500000000000327
 20
37.2598076211352947
 30
0.0
 11
51.253847577293385
 21
39.7401923788645064
 31
0.0
  0
ARC
  5
88
100
AcDbEntity
  8
0
 62
256
370
-1
 48
1.0
  6
BYLAYER
100
AcDbCircle
 10
56.0000000000000355
 20
38.0392304845413776
 30
0.0
 40
0.8999999999999999
100
AcDbArc
 50
240.0000000000028137
 51
299.9999999999972147
  0
LINE
  5
89
100
AcDbEntity
100
AcDbLine
  8
0
 62
256
370
-1
 48
1.0
  6
BYLAYER
 10
50.8038475772933751
 20
40.5196152422704898
 30
0.0
 11
50.8038475772933822
 21
45.4803847577293183
 31
0.0
  0
ARC
  5
8A
100
AcDbEntity
  8
0
 62
256
370
-1
 48
1.0
  6
BYLAYER
100
AcDbCircle
 10
51.7038475772933808
 20
40.5196152422704827
 30
0.0
 40
0.8999999999999999
100
AcDbArc
 50
180.0
 51
240.0000000000028137
  0
LINE
  5
8B
100
AcDbEntity
100
AcDbLine
  8
0
 62
256
370
-1
 48
1.0
  6
BYLAYER
 10
51.253847577293385
 20
46.2598076211352947
 30
0.0
 11
55.5500000000000398
 21
48.7401923788645064
 31
0.0
  0
ARC
  5
8C
100
AcDbEntity
  8
0
 62
256
370
-1
 48
1.0
  6
BYLAYER
100
AcDbCircle
 10
51.7038475772933879
 20
45.4803847577293254
 30
0.0
 40
0.8999999999999999
100
AcDbArc
 50
119.9999999999972147
 51
180.0
  0
LINE
  5
8D
100
AcDbEntity
100
AcDbLine
  8
0
 62
256
370
-1
 48
1.0
  6
BYLAYER
 10
56.4500000000000384
 20
48.7401923788645064
 30
0.0
 11
60.7461524227066931
 21
46.2598076211352947
 31
0.0
  0
ARC
  5
8E
100
AcDbEntity
  8
0
 62
256
370
-1
 48
1.0
  6
BYLAYER
100
AcDbCircle
 10
56.0000000000000355
 20
47.9607695154586295
 30
0.0
 40
0.8999999999999999
100
AcDbArc
 50
60.0000000000027853
 51
119.9999999999972147
  0
LINE
  5
8F
100
AcDbEntity
100
AcDbLine
  8
0
 62
256
370
-1
 48
1.0
  6
BYLAYER
 10
61.1961524227066249
 20
40.5196152422704827
 30
0.0
 11
61.1961524227066249
 21
45.4803847577293183
 31
0.0
  0
ARC
  5
90
100
AcDbEntity
  8
0
 62
256
370
-1
 48
1.0
  6
BYLAYER
100
AcDbCircle
 10
60.2961524227066263
 20
45.4803847577293183
 30
0.0
 40
0.8999999999999999
100
AcDbArc
 50
0.0
 51
60.0000000000027853
  0
LINE
  5
91
100
AcDbEntity
100
AcDbLine
  8
0
 62
256
370
-1
 48
1.0
  6
BYLAYER
 10
60.746152422706686
 20
61.7401923788644993
 30
0.0
 11
56.4500000000000384
 21
59.2598076211352947
 31
0.0
  0
ARC
  5
92
100
AcDbEntity
  8
0
 62
256
370
-1
 48
1.0
  6
BYLAYER
100
AcDbCircle
 10
60.2961524227066192
 20
62.5196152422704827
 30
0.0
 40
0.8999999999999999
100
AcDbArc
 50
299.9999999999972147
 51
0.0
  0
LINE
  5
93
100
AcDbEntity
100
AcDbLine
  8
0
 62
256
370
-1
 48
1.0
  6
BYLAYER
 10
55.5500000000000327
 20
59.2598076211352947
 30
0.0
 11
51.253847577293385
 21
61.7401923788645064
 31
0.0
  0
ARC
  5
94
100
AcDbEntity
  8
0
 62
256
370
-1
 48
1.0
  6
BYLAYER
100
AcDbCircle
 10
56.0000000000000355
 20
60.0392304845413776
 30
0.0
 40
0.8999999999999999
100
AcDbArc
 50
240.0000000000028137
 51
299.9999999999972147
  0
LINE
  5
95
100
AcDbEntity
100
AcDbLine
  8
0
 62
256
370
-1
 48
1.0
  6
BYLAYER
 10
50.8038475772933751
 20
62.5196152422704898
 30
0.0
 11
50.8038475772933822
 21
67.4803847577293254
 31
0.0
  0
ARC
  5
96
100
AcDbEntity
  8
0
 62
256
370
-1
 48
1.0
  6
BYLAYER
100
AcDbCircle
 10
51.7038475772933808
 20
62.5196152422704827
 30
0.0
 40
0.8999999999999999
100
AcDbArc
 50
180.0
 51
240.0000000000028137
  0
LINE
  5
97
100
AcDbEntity
100
AcDbLine
  8
0
 62
256
370
-1
 48
1.0
  6
BYLAYER
 10
51.253847577293385
 20
68.2598076211352947
 30
0.0
 11
55.5500000000000398
 21
70.7401923788645064
 31
0.0
  0
ARC
  5
98
100
AcDbEntity
  8
0
 62
256
370
-1
 48
1.0
  6
BYLAYER
100
AcDbCircle
 10
51.7038475772933879
 20
67.4803847577293254
 30
0.0
 40
0.8999999999999999
100
AcDbArc
 50
119.9999999999972147
 51
180.0
  0
LINE
  5
99
100
AcDbEntity
100
AcDbLine
  8
0
 62
256
370
-1
 48
1.0
  6
BYLAYER
 10
56.4500000000000384
 20
70.7401923788645064
 30
0.0
 11
60.7461524227066931
 21
68.2598076211352947
 31
0.0
  0
ARC
  5
9A
100
AcDbEntity
  8
0
 62
256
370
-1
 48
1.0
  6
BYLAYER
100
AcDbCircle
 10
56.0000000000000355
 20
69.9607695154586224
 30
0.0
 40
0.8999999999999999
100
AcDbArc
 50
60.0000000000027853
 51
119.9999999999972147
  0
LINE
  5
9B
100
AcDbEntity
100
AcDbLine
  8
0
 62
256
370
-1
 48
1.0
  6
BYLAYER
 10
61.1961524227066249
 20
62.5196152422704827
 30
0.0
 11
61.1961524227066249
 21
67.4803847577293112
 31
0.0
  0
ARC
  5
9C
100
AcDbEntity
  8
0
 62
256
370
-1
 48
1.0
  6
BYLAYER
100
AcDbCircle
 10
60.2961524227066263
 20
67.4803847577293112
 30
0.0
 40
0.8999999999999999
100
AcDbArc
 50
0.0
 51
60.0000000000027853
  0
LINE
  5
9D
100
AcDbEntity
100
AcDbLine
  8
0
 62
256
370
-1
 48
1.0
  6
BYLAYER
 10
35.8476914536240088
 20
38.0441154273186939
 30
0.0
 11
33.2700000000000173
 21
36.5558845726811725
 31
0.0
  0
ARC
  5
9E
100
AcDbEntity
  8
0
 62
256
370
-1
 48
1.0
  6
BYLAYER
100
AcDbCircle
 10
35.5776914536239701
 20
38.5117691453622868
 30
0.0
 40
0.5399999999999999
100
AcDbArc
 50
299.9999999999972147
 51
0.0
  0
LINE
  5
9F
100
AcDbEntity
100
AcDbLine
  8
0
 62
256
370
-1
 48
1.0
  6
BYLAYER
 10
32.7300000000000182
 20
36.5558845726811725
 30
0.0
 11
30.1523085463760303
 21
38.044115427318701
 31
0.0
  0
ARC
  5
A0
100
AcDbEntity
  8
0
 62
256
370
-1
 48
1.0
  6
BYLAYER
100
AcDbCircle
 10
33.0000000000000213
 20
37.0235382907248223
 30
0.0
 40
0.5399999999999999
100
AcDbArc
 50
240.0000000000028137
 51
299.9999999999972147
  0
LINE
  5
A1
100
AcDbEntity
100
AcDbLine
  8
0
 62
256
370
-1
 48
1.0
  6
BYLAYER
 10
29.8823085463760272
 20
38.5117691453622939
 30
0.0
 11
29.8823085463760343
 21
41.4882308546375924
 31
0.0
  0
ARC
  5
A2
100
AcDbEntity
  8
0
 62
256
370
-1
 48
1.0
  6
BYLAYER
100
AcDbCircle
 10
30.4223085463760299
 20
38.5117691453622868
 30
0.0
 40
0.5399999999999999
100
AcDbArc
 50
180.0
 51
240.0000000000028137
  0
LINE
  5
A3
100
AcDbEntity
100
AcDbLine
  8
0
 62
256
370
-1
 48
1.0
  6
BYLAYER
 10
30.1523085463760268
 20
41.9558845726811711
 30
0.0
 11
32.7300000000000253
 21
43.4441154273186996
 31
0.0
  0
ARC
  5
A4
100
AcDbEntity
  8
0
 62
256
370
-1
 48
1.0
  6
BYLAYER
100
AcDbCircle
 10
30.4223085463760299
 20
41.4882308546375853
 30
0.0
 40
0.5399999999999999
100
AcDbArc
 50
119.9999999999972147
 51
180.0
  0
LINE
  5
A5
100
AcDbEntity
100
AcDbLine
  8
0
 62
256
370
-1
 48
1.0
  6
BYLAYER
 10
33.2700000000000244
 20
43.4441154273186996
 30
0.0
 11
35.8476914536240159
 21
41.9558845726811711
 31
0.0
  0
ARC
  5
A6
100
AcDbEntity
  8
0
 62
256
370
-1
 48
1.0
  6
BYLAYER
100
AcDbCircle
 10
33.0000000000000213
 20
42.9764617092751777
 30
0.0
 40
0.5399999999999999
100
AcDbArc
 50
60.0000000000027853
 51
119.9999999999972147
  0
LINE
  5
A7
100
AcDbEntity
100
AcDbLine
  8
0
 62
256
370
-1
 48
1.0
  6
BYLAYER
 10
36.1176914536239764
 20
38.5117691453622868
 30
0.0
 11
36.1176914536239764
 21
41.4882308546375853
 31
0.0
  0
ARC
  5
A8
100
AcDbEntity
  8
0
 62
256
370
-1
 48
1.0
  6
BYLAYER
100
AcDbCircle
 10
35.5776914536239772
 20
41.4882308546375853
 30
0.0
 40
0.5399999999999999
100
AcDbArc
 50
0.0
 51
60.0000000000027853
  0
LINE
  5
A9
100
AcDbEntity
100
AcDbLine
  8
0
 62
256
370
-1
 48
1.0
  6
BYLAYER
 10
81.8476914536240088
 20
38.0441154273186939
 30
0.0
 11
79.2700000000000244
 21
36.5558845726811725
 31
0.0
  0
ARC
  5
AA
100
AcDbEntity
  8
0
 62
256
370
-1
 48
1.0
  6
BYLAYER
100
AcDbCircle
 10
81.5776914536239701
 20
38.5117691453622868
 30
0.0
 40
0.5399999999999999
100
AcDbArc
 50
299.9999999999972147
 51
0.0
  0
LINE
  5
AB
100
AcDbEntity
100
AcDbLine
  8
0
 62
256
370
-1
 48
1.0
  6
BYLAYER
 10
78.7300000000000182
 20
36.5558845726811725
 30
0.0
 11
76.1523085463760339
 21
38.044115427318701
 31
0.0
  0
ARC
  5
AC
100
AcDbEntity
  8
0
 62
256
370
-1
 48
1.0
  6
BYLAYER
100
AcDbCircle
 10
79.0000000000000142
 20
37.0235382907248223
 30
0.0
 40
0.5399999999999999
100
AcDbArc
 50
240.0000000000028137
 51
299.9999999999972147
  0
LINE
  5
AD
100
AcDbEntity
100
AcDbLine
  8
0
 62
256
370
-1
 48
1.0
  6
BYLAYER
 10
75.8823085463760236
 20
38.5117691453622939
 30
0.0
 11
75.8823085463760378
 21
41.4882308546375924
 31
0.0
  0
ARC
  5
AE
100
AcDbEntity
  8
0
 62
256
370
-1
 48
1.0
  6
BYLAYER
100
AcDbCircle
 10
76.4223085463760299
 20
38.5117691453622868
 30
0.0
 40
0.5399999999999999
100
AcDbArc
 50
180.0
 51
240.0000000000028137
  0
LINE
  5
AF
100
AcDbEntity
100
AcDbLine
  8
0
 62
256
370
-1
 48
1.0
  6
BYLAYER
 10
76.1523085463760339
 20
41.9558845726811711
 30
0.0
 11
78.7300000000000182
 21
43.4441154273186996
 31
0.0
  0
ARC
  5
B0
100
AcDbEntity
  8
0
 62
256
370
-1
 48
1.0
  6
BYLAYER
100
AcDbCircle
 10
76.4223085463760299
 20
41.4882308546375853
 30
0.0
 40
0.5399999999999999
100
AcDbArc
 50
119.9999999999972147
 51
180.0
  0
LINE
  5
B1
100
AcDbEntity
100
AcDbLine
  8
0
 62
256
370
-1
 48
1.0
  6
BYLAYER
 10
79.2700000000000244
 20
43.4441154273186996
 30
0.0
 11
81.847691453624023
 21
41.9558845726811711
 31
0.0
  0
ARC
  5
B2
100
AcDbEntity
  8
0
 62
256
370
-1
 48
1.0
  6
BYLAYER
100
AcDbCircle
 10
79.0000000000000284
 20
42.9764617092751777
 30
0.0
 40
0.5399999999999999
100
AcDbArc
 50
60.0000000000027853
 51
119.9999999999972147
  0
LINE
  5
B3
100
AcDbEntity
100
AcDbLine
  8
0
 62
256
370
-1
 48
1.0
  6
BYLAYER
 10
82.1176914536239764
 20
38.5117691453622868
 30
0.0
 11
82.1176914536239764
 21
41.4882308546375853
 31
0.0
  0
ARC
  5
B4
100
AcDbEntity
  8
0
 62
256
370
-1
 48
1.0
  6
BYLAYER
100
AcDbCircle
 10
81.5776914536239701
 20
41.4882308546375853
 30
0.0
 40
0.5399999999999999
100
AcDbArc
 50
0.0
 51
60.0000000000027853
  0
LINE
  5
B5
100
AcDbEntity
100
AcDbLine
  8
0
 62
256
370
-1
 48
1.0
  6
BYLAYER
 10
35.8476914536240088
 20
66.0441154273186868
 30
0.0
 11
33.2700000000000173
 21
64.5558845726811796
 31
0.0
  0
ARC
  5
B6
100
AcDbEntity
  8
0
 62
256
370
-1
 48
1.0
  6
BYLAYER
100
AcDbCircle
 10
35.5776914536239701
 20
66.5117691453622797
 30
0.0
 40
0.5399999999999999
100
AcDbArc
 50
299.9999999999972147
 51
0.0
  0
LINE
  5
B7
100
AcDbEntity
100
AcDbLine
  8
0
 62
256
370
-1
 48
1.0
  6
BYLAYER
 10
32.7300000000000182
 20
64.5558845726811796
 30
0.0
 11
30.1523085463760303
 21
66.044115427318701
 31
0.0
  0
ARC
  5
B8
100
AcDbEntity
  8
0
 62
256
370
-1
 48
1.0
  6
BYLAYER
100
AcDbCircle
 10
33.0000000000000213
 20
65.0235382907248152
 30
0.0
 40
0.5399999999999999
100
AcDbArc
 50
240.0000000000028137
 51
299.9999999999972147
  0
LINE
  5
B9
100
AcDbEntity
100
AcDbLine
  8
0
 62
256
370
-1
 48
1.0
  6
BYLAYER
 10
29.8823085463760272
 20
66.5117691453622939
 30
0.0
 11
29.8823085463760343
 21
69.4882308546375924
 31
0.0
  0
ARC
  5
BA
100
AcDbEntity
  8
0
 62
256
370
-1
 48
1.0
  6
BYLAYER
100
AcDbCircle
 10
30.4223085463760299
 20
66.5117691453622797
 30
0.0
 40
0.5399999999999999
100
AcDbArc
 50
180.0
 51
240.0000000000028137
  0
LINE
  5
BB
100
AcDbEntity
100
AcDbLine
  8
0
 62
256
370
-1
 48
1.0
  6
BYLAYER
 10
30.1523085463760268
 20
69.9558845726811711
 30
0.0
 11
32.7300000000000253
 21
71.4441154273187067
 31
0.0
  0
ARC
  5
BC
100
AcDbEntity
  8
0
 62
256
370
-1
 48
1.0
  6
BYLAYER
100
AcDbCircle
 10
30.4223085463760299
 20
69.4882308546375782
 30
0.0
 40
0.5399999999999999
100
AcDbArc
 50
119.9999999999972147
 51
180.0
  0
LINE
  5
BD
100
AcDbEntity
100
AcDbLine
  8
0
 62
256
370
-1
 48
1.0
  6
BYLAYER
 10
33.2700000000000244
 20
71.4441154273187067
 30
0.0
 11
35.8476914536240159
 21
69.9558845726811711
 31
0.0
  0
ARC
  5
BE
100
AcDbEntity
  8
0
 62
256
370
-1
 48
1.0
  6
BYLAYER
100
AcDbCircle
 10
33.0000000000000213
 20
70.9764617092751848
 30
0.0
 40
0.5399999999999999
100
AcDbArc
 50
60.0000000000027853
 51
119.9999999999972147
  0
LINE
  5
BF
100
AcDbEntity
100
AcDbLine
  8
0
 62
256
370
-1
 48
1.0
  6
BYLAYER
 10
36.1176914536239764
 20
66.5117691453622797
 30
0.0
 11
36.1176914536239764
 21
69.4882308546375782
 31
0.0
  0
ARC
  5
C0
100
AcDbEntity
  8
0
 62
256
370
-1
 48
1.0
  6
BYLAYER
100
AcDbCircle
 10
35.5776914536239772
 20
69.4882308546375782
 30
0.0
 40
0.5399999999999999
100
AcDbArc
 50
0.0
 51
60.0000000000027853
  0
LINE
  5
C1
100
AcDbEntity
100
AcDbLine
  8
0
 62
256
370
-1
 48
1.0
  6
BYLAYER
 10
81.8476914536240088
 20
66.0441154273186868
 30
0.0
 11
79.2700000000000244
 21
64.5558845726811796
 31
0.0
  0
ARC
  5
C2
100
AcDbEntity
  8
0
 62
256
370
-1
 48
1.0
  6
BYLAYER
100
AcDbCircle
 10
81.5776914536239701
 20
66.5117691453622797
 30
0.0
 40
0.5399999999999999
100
AcDbArc
 50
299.9999999999972147
 51
0.0
  0
LINE
  5
C3
100
AcDbEntity
100
AcDbLine
  8
0
 62
256
370
-1
 48
1.0
  6
BYLAYER
 10
78.7300000000000182
 20
64.5558845726811796
 30
0.0
 11
76.1523085463760339
 21
66.044115427318701
 31
0.0
  0
ARC
  5
C4
100
AcDbEntity
  8
0
 62
256
370
-1
 48
1.0
  6
BYLAYER
100
AcDbCircle
 10
79.0000000000000142
 20
65.0235382907248152
 30
0.0
 40
0.5399999999999999
100
AcDbArc
 50
240.0000000000028137
 51
299.9999999999972147
  0
LINE
  5
C5
100
AcDbEntity
100
AcDbLine
  8
0
 62
256
370
-1
 48
1.0
  6
BYLAYER
 10
75.8823085463760236
 20
66.5117691453622939
 30
0.0
 11
75.8823085463760378
 21
69.4882308546375924
 31
0.0
  0
ARC
  5
C6
100
AcDbEntity
  8
0
 62
256
370
-1
 48
1.0
  6
BYLAYER
100
AcDbCircle
 10
76.4223085463760299
 20
66.5117691453622797
 30
0.0
 40
0.5399999999999999
100
AcDbArc
 50
180.0
 51
240.0000000000028137
  0
LINE
  5
C7
100
AcDbEntity
100
AcDbLine
  8
0
 62
256
370
-1
 48
1.0
  6
BYLAYER
 10
76.1523085463760339
 20
69.9558845726811711
 30
0.0
 11
78.7300000000000182
 21
71.4441154273187067
 31
0.0
  0
ARC
  5
C8
100
AcDbEntity
  8
0
 62
256
370
-1
 48
1.0
  6
BYLAYER
100
AcDbCircle
 10
76.4223085463760299
 20
69.4882308546375782
 30
0.0
 40
0.5399999999999999
100
AcDbArc
 50
119.9999999999972147
 51
180.0
  0
LINE
  5
C9
100
AcDbEntity
100
AcDbLine
  8
0
 62
256
370
-1
 48
1.0
  6
BYLAYER
 10
79.2700000000000244
 20
71.4441154273187067
 30
0.0
 11
81.847691453624023
 21
69.9558845726811711
 31
0.0
  0
ARC
  5
CA
100
AcDbEntity
  8
0
 62
256
370
-1
 48
1.0
  6
BYLAYER
100
AcDbCircle
 10
79.0000000000000284
 20
70.9764617092751848
 30
0.0
 40
0.5399999999999999
100
AcDbArc
 50
60.0000000000027853
 51
119.9999999999972147
  0
LINE
  5
CB
100
AcDbEntity
100
AcDbLine
  8
0
 62
256
370
-1
 48
1.0
  6
BYLAYER
 10
82.1176914536239764
 20
66.5117691453622797
 30
0.0
 11
82.1176914536239764
 21
69.4882308546375782
 31
0.0
  0
ARC
  5
CC
100
AcDbEntity
  8
0
 62
256
370
-1
 48
1.0
  6
BYLAYER
100
AcDbCircle
 10
81.5776914536239701
 20
69.4882308546375782
 30
0.0
 40
0.5399999999999999
100
AcDbArc
 50
0.0
 51
60.0000000000027853
  0
LINE
  5
CD
100
AcDbEntity
100
AcDbLine
  8
0
 62
256
370
-1
 48
1.0
  6
BYLAYER
 10
-28.0989541120948516
 20
17.2071472311521454
 30
0.0
 11
-25.5212626584708602
 21
18.6953780857896525
 31
0.0
  0
ARC
  5
CE
100
AcDbEntity
  8
0
 62
256
370
-1
 48
1.0
  6
BYLAYER
100
AcDbCircle
 10
-27.828954112094813
 20
16.7394935131085489
 30
0.0
 40
0.5399999999999999
100
AcDbArc
 50
119.9999999999972147
 51
180.0
  0
LINE
  5
CF
100
AcDbEntity
100
AcDbLine
  8
0
 62
256
370
-1
 48
1.0
  6
BYLAYER
 10
-24.981262658470861
 20
18.6953780857896525
 30
0.0
 11
-22.4035712048468731
 21
17.2071472311521312
 31
0.0
  0
ARC
  5
D0
100
AcDbEntity
  8
0
 62
256
370
-1
 48
1.0
  6
BYLAYER
100
AcDbCircle
 10
-25.2512626584708642
 20
18.227724367746017
 30
0.0
 40
0.5399999999999999
100
AcDbArc
 50
60.0000000000028351
 51
119.9999999999972147
  0
LINE
  5
D1
100
AcDbEntity
100
AcDbLine
  8
0
 62
256
370
-1
 48
1.0
  6
BYLAYER
 10
-22.13357120484687
 20
16.7394935131085383
 30
0.0
 11
-22.1335712048468771
 21
13.7630318038332362
 31
0.0
  0
ARC
  5
D2
100
AcDbEntity
  8
0
 62
256
370
-1
 48
1.0
  6
BYLAYER
100
AcDbCircle
 10
-22.6735712048468727
 20
16.7394935131085525
 30
0.0
 40
0.5399999999999999
100
AcDbArc
 50
0.0
 51
60.0000000000028351
  0
LINE
  5
D3
100
AcDbEntity
100
AcDbLine
  8
0
 62
256
370
-1
 48
1.0
  6
BYLAYER
 10
-22.4035712048468696
 20
13.2953780857896611
 30
0.0
 11
-24.9812626584708717
 21
11.8071472311521255
 31
0.0
  0
ARC
  5
D4
100
AcDbEntity
  8
0
 62
256
370
-1
 48
1.0
  6
BYLAYER
100
AcDbCircle
 10
-22.6735712048468727
 20
13.763031803833254
 30
0.0
 40
0.5399999999999999
100
AcDbArc
 50
299.9999999999972147
 51
0.0
  0
LINE
  5
D5
100
AcDbEntity
100
AcDbLine
  8
0
 62
256
370
-1
 48
1.0
  6
BYLAYER
 10
-25.5212626584708673
 20
11.8071472311521255
 30
0.0
 11
-28.0989541120948587
 21
13.2953780857896611
 31
0.0
  0
ARC
  5
D6
100
AcDbEntity
  8
0
 62
256
370
-1
 48
1.0
  6
BYLAYER
100
AcDbCircle
 10
-25.2512626584708642
 20
12.2748009491956473
 30
0.0
 40
0.5399999999999999
100
AcDbArc
 50
240.0000000000027853
 51
299.9999999999972147
  0
LINE
  5
D7
100
AcDbEntity
100
AcDbLine
  8
0
 62
256
370
-1
 48
1.0
  6
BYLAYER
 10
-28.3689541120948192
 20
16.7394935131085489
 30
0.0
 11
-28.3689541120948192
 21
13.7630318038332558
 31
0.0
  0
ARC
  5
D8
100
AcDbEntity
  8
0
 62
256
370
-1
 48
1.0
  6
BYLAYER
100
AcDbCircle
 10
-27.8289541120948201
 20
13.763031803833254
 30
0.0
 40
0.5399999999999999
100
AcDbArc
 50
180.0
 51
240.0000000000027853
  0
LINE
  5
D9
100
AcDbEntity
100
AcDbLine
  8
0
 62
256
370
-1
 48
1.0
  6
BYLAYER
 10
-28.0989541120948161
 20
66.7046219142104491
 30
0.0
 11
-25.5212626584708246
 21
68.1928527688479562
 31
0.0
  0
ARC
  5
DA
100
AcDbEntity
  8
0
 62
256
370
-1
 48
1.0
  6
BYLAYER
100
AcDbCircle
 10
-27.8289541120947774
 20
66.2369681961668562
 30
0.0
 40
0.5399999999999999
100
AcDbArc
 50
119.9999999999972147
 51
180.0
  0
LINE
  5
DB
100
AcDbEntity
100
AcDbLine
  8
0
 62
256
370
-1
 48
1.0
  6
BYLAYER
 10
-24.9812626584708255
 20
68.1928527688479562
 30
0.0
 11
-22.4035712048468376
 21
66.7046219142104349
 31
0.0
  0
ARC
  5
DC
100
AcDbEntity
  8
0
 62
256
370
-1
 48
1.0
  6
BYLAYER
100
AcDbCircle
 10
-25.2512626584708286
 20
67.7251990508043207
 30
0.0
 40
0.5399999999999999
100
AcDbArc
 50
60.0000000000028351
 51
119.9999999999972147
  0
LINE
  5
DD
100
AcDbEntity
100
AcDbLine
  8
0
 62
256
370
-1
 48
1.0
  6
BYLAYER
 10
-22.1335712048468345
 20
66.2369681961668419
 30
0.0
 11
-22.1335712048468416
 21
63.2605064868915434
 31
0.0
  0
ARC
  5
DE
100
AcDbEntity
  8
0
 62
256
370
-1
 48
1.0
  6
BYLAYER
100
AcDbCircle
 10
-22.6735712048468372
 20
66.2369681961668562
 30
0.0
 40
0.5399999999999999
100
AcDbArc
 50
0.0
 51
60.0000000000028351
  0
LINE
  5
DF
100
AcDbEntity
100
AcDbLine
  8
0
 62
256
370
-1
 48
1.0
  6
BYLAYER
 10
-22.4035712048468341
 20
62.7928527688479647
 30
0.0
 11
-24.9812626584708362
 21
61.3046219142104292
 31
0.0
  0
ARC
  5
E0
100
AcDbEntity
  8
0
 62
256
370
-1
 48
1.0
  6
BYLAYER
100
AcDbCircle
 10
-22.6735712048468372
 20
63.2605064868915576
 30
0.0
 40
0.5399999999999999
100
AcDbArc
 50
299.9999999999972147
 51
0.0
  0
LINE
  5
E1
100
AcDbEntity
100
AcDbLine
  8
0
 62
256
370
-1
 48
1.0
  6
BYLAYER
 10
-25.5212626584708318
 20
61.3046219142104292
 30
0.0
 11
-28.0989541120948232
 21
62.7928527688479647
 31
0.0
  0
ARC
  5
E2
100
AcDbEntity
  8
0
 62
256
370
-1
 48
1.0
  6
BYLAYER
100
AcDbCircle
 10
-25.2512626584708286
 20
61.772275632253951
 30
0.0
 40
0.5399999999999999
100
AcDbArc
 50
240.0000000000027853
 51
299.9999999999972147
  0
LINE
  5
E3
100
AcDbEntity
100
AcDbLine
  8
0
 62
256
370
-1
 48
1.0
  6
BYLAYER
 10
-28.3689541120947837
 20
66.2369681961668562
 30
0.0
 11
-28.3689541120947837
 21
63.2605064868915576
 31
0.0
  0
ARC
  5
E4
100
AcDbEntity
  8
0
 62
256
370
-1
 48
1.0
  6
BYLAYER
100
AcDbCircle
 10
-27.8289541120947845
 20
63.2605064868915576
 30
0.0
 40
0.5399999999999999
100
AcDbArc
 50
180.0
 51
240.0000000000027853
  0
LINE
  5
E5
100
AcDbEntity
100
AcDbLine
  8
0
 62
256
370
-1
 48
1.0
  6
BYLAYER
 10
-77.596428795153173
 20
66.7046219142104491
 30
0.0
 11
-75.0187373415291887
 21
68.1928527688479562
 31
0.0
  0
ARC
  5
E6
100
AcDbEntity
  8
0
 62
256
370
-1
 48
1.0
  6
BYLAYER
100
AcDbCircle
 10
-77.3264287951531344
 20
66.2369681961668562
 30
0.0
 40
0.5399999999999999
100
AcDbArc
 50
119.9999999999972147
 51
180.0
  0
LINE
  5
E7
100
AcDbEntity
100
AcDbLine
  8
0
 62
256
370
-1
 48
1.0
  6
BYLAYER
 10
-74.4787373415291825
 20
68.1928527688479562
 30
0.0
 11
-71.9010458879051981
 21
66.7046219142104349
 31
0.0
  0
ARC
  5
E8
100
AcDbEntity
  8
0
 62
256
370
-1
 48
1.0
  6
BYLAYER
100
AcDbCircle
 10
-74.7487373415291785
 20
67.7251990508043207
 30
0.0
 40
0.5399999999999999
100
AcDbArc
 50
60.0000000000028351
 51
119.9999999999972147
  0
LINE
  5
E9
100
AcDbEntity
100
AcDbLine
  8
0
 62
256
370
-1
 48
1.0
  6
BYLAYER
 10
-71.6310458879051879
 20
66.2369681961668419
 30
0.0
 11
-71.6310458879052021
 21
63.2605064868915434
 31
0.0
  0
ARC
  5
EA
100
AcDbEntity
  8
0
 62
256
370
-1
 48
1.0
  6
BYLAYER
100
AcDbCircle
 10
-72.1710458879051941
 20
66.2369681961668562
 30
0.0
 40
0.5399999999999999
100
AcDbArc
 50
0.0
 51
60.0000000000028351
  0
LINE
  5
EB
100
AcDbEntity
100
AcDbLine
  8
0
 62
256
370
-1
 48
1.0
  6
BYLAYER
 10
-71.9010458879051839
 20
62.7928527688479647
 30
0.0
 11
-74.4787373415291967
 21
61.3046219142104292
 31
0.0
  0
ARC
  5
EC
100
AcDbEntity
  8
0
 62
256
370
-1
 48
1.0
  6
BYLAYER
100
AcDbCircle
 10
-72.1710458879051941
 20
63.2605064868915576
 30
0.0
 40
0.5399999999999999
100
AcDbArc
 50
299.9999999999972147
 51
0.0
  0
LINE
  5
ED
100
AcDbEntity
100
AcDbLine
  8
0
 62
256
370
-1
 48
1.0
  6
BYLAYER
 10
-75.0187373415291887
 20
61.3046219142104292
 30
0.0
 11
-77.596428795153173
 21
62.7928527688479647
 31
0.0
  0
ARC
  5
EE
100
AcDbEntity
  8
0
 62
256
370
-1
 48
1.0
  6
BYLAYER
100
AcDbCircle
 10
-74.7487373415291927
 20
61.772275632253951
 30
0.0
 40
0.5399999999999999
100
AcDbArc
 50
240.0000000000027853
 51
299.9999999999972147
  0
LINE
  5
EF
100
AcDbEntity
100
AcDbLine
  8
0
 62
256
370
-1
 48
1.0
  6
BYLAYER
 10
-77.8664287951531406
 20
66.2369681961668562
 30
0.0
 11
-77.8664287951531406
 21
63.2605064868915576
 31
0.0
  0
ARC
  5
F0
100
AcDbEntity
  8
0
 62
256
370
-1
 48
1.0
  6
BYLAYER
100
AcDbCircle
 10
-77.3264287951531486
 20
63.2605064868915576
 30
0.0
 40
0.5399999999999999
100
AcDbArc
 50
180.0
 51
240.0000000000027853
  0
LINE
  5
F1
100
AcDbEntity
100
AcDbLine
  8
0
 62
256
370
-1
 48
1.0
  6
BYLAYER
 10
-77.5964287951531873
 20
17.2071472311521632
 30
0.0
 11
-75.0187373415292029
 21
18.6953780857896703
 31
0.0
  0
ARC
  5
F2
100
AcDbEntity
  8
0
 62
256
370
-1
 48
1.0
  6
BYLAYER
100
AcDbCircle
 10
-77.3264287951531486
 20
16.7394935131085703
 30
0.0
 40
0.5399999999999999
100
AcDbArc
 50
119.9999999999972147
 51
180.0
  0
LINE
  5
F3
100
AcDbEntity
100
AcDbLine
  8
0
 62
256
370
-1
 48
1.0
  6
BYLAYER
 10
-74.4787373415291967
 20
18.6953780857896703
 30
0.0
 11
-71.9010458879052123
 21
17.2071472311521489
 31
0.0
  0
ARC
  5
F4
100
AcDbEntity
  8
0
 62
256
370
-1
 48
1.0
  6
BYLAYER
100
AcDbCircle
 10
-74.7487373415291927
 20
18.2277243677460348
 30
0.0
 40
0.5399999999999999
100
AcDbArc
 50
60.0000000000028351
 51
119.9999999999972147
  0
LINE
  5
F5
100
AcDbEntity
100
AcDbLine
  8
0
 62
256
370
-1
 48
1.0
  6
BYLAYER
 10
-71.6310458879052021
 20
16.739493513108556
 30
0.0
 11
-71.6310458879052163
 21
13.763031803833254
 31
0.0
  0
ARC
  5
F6
100
AcDbEntity
  8
0
 62
256
370
-1
 48
1.0
  6
BYLAYER
100
AcDbCircle
 10
-72.1710458879052084
 20
16.7394935131085703
 30
0.0
 40
0.5399999999999999
100
AcDbArc
 50
0.0
 51
60.0000000000028351
  0
LINE
  5
F7
100
AcDbEntity
100
AcDbLine
  8
0
 62
256
370
-1
 48
1.0
  6
BYLAYER
 10
-71.9010458879051981
 20
13.2953780857896788
 30
0.0
 11
-74.4787373415292109
 21
11.8071472311521433
 31
0.0
  0
ARC
  5
F8
100
AcDbEntity
  8
0
 62
256
370
-1
 48
1.0
  6
BYLAYER
100
AcDbCircle
 10
-72.1710458879052084
 20
13.7630318038332717
 30
0.0
 40
0.5399999999999999
100
AcDbArc
 50
299.9999999999972147
 51
0.0
  0
LINE
  5
F9
100
AcDbEntity
100
AcDbLine
  8
0
 62
256
370
-1
 48
1.0
  6
BYLAYER
 10
-75.0187373415292029
 20
11.8071472311521433
 30
0.0
 11
-77.5964287951532015
 21
13.2953780857896788
 31
0.0
  0
ARC
  5
FA
100
AcDbEntity
  8
0
 62
256
370
-1
 48
1.0
  6
BYLAYER
100
AcDbCircle
 10
-74.7487373415292069
 20
12.2748009491956651
 30
0.0
 40
0.5399999999999999
100
AcDbArc
 50
240.0000000000027853
 51
299.9999999999972147
  0
LINE
  5
FB
100
AcDbEntity
100
AcDbLine
  8
0
 62
256
370
-1
 48
1.0
  6
BYLAYER
 10
-77.8664287951531549
 20
16.7394935131085667
 30
0.0
 11
-77.8664287951531549
 21
13.7630318038332735
 31
0.0
  0
ARC
  5
FC
100
AcDbEntity
  8
0
 62
256
370
-1
 48
1.0
  6
BYLAYER
100
AcDbCircle
 10
-77.3264287951531628
 20
13.7630318038332717
 30
0.0
 40
0.5399999999999999
100
AcDbArc
 50
180.0
 51
240.0000000000027853
  0
LINE
  5
FD
100
AcDbEntity
100
AcDbLine
  8
0
 62
256
370
-1
 48
1.0
  6
BYLAYER
 10
79.0
 20
50.0
 30
0.0
 11
79.0
 21
60.0
 31
0.0
  0
LINE
  5
FE
100
AcDbEntity
100
AcDbLine
  8
0
 62
256
370
-1
 48
1.0
  6
BYLAYER
 10
83.0
 20
50.0
 30
0.0
 11
83.0
 21
60.0
 31
0.0
  0
LINE
  5
FF
100
AcDbEntity
100
AcDbLine
  8
0
 62
256
370
-1
 48
1.0
  6
BYLAYER
 10
33.0
 20
50.0
 30
0.0
 11
33.0
 21
60.0
 31
0.0
  0
LINE
  5
100
100
AcDbEntity
100
AcDbLine
  8
0
 62
256
370
-1
 48
1.0
  6
BYLAYER
 10
29.0
 20
50.0
 30
0.0
 11
29.0
 21
60.0
 31
0.0
  0
CIRCLE
  5
101
100
AcDbEntity
100
AcDbCircle
  8
0
 62
256
370
-1
 48
1.0
  6
BYLAYER
 10
29.0
 20
60.0
 30
0.0
 40
0.0
  0
ARC
  5
102
100
AcDbEntity
  8
0
 62
256
370
-1
 48
1.0
  6
BYLAYER
100
AcDbCircle
 10
31.0
 20
60.0
 30
0.0
 40
2.0
100
AcDbArc
 50
0.0
 51
180.0
  0
ARC
  5
103
100
AcDbEntity
  8
0
 62
256
370
-1
 48
1.0
  6
BYLAYER
100
AcDbCircle
 10
31.0
 20
50.0
 30
0.0
 40
2.0
100
AcDbArc
 50
180.0
 51
0.0
  0
ARC
  5
104
100
AcDbEntity
  8
0
 62
256
370
-1
 48
1.0
  6
BYLAYER
100
AcDbCircle
 10
81.0
 20
60.0
 30
0.0
 40
2.0
100
AcDbArc
 50
0.0
 51
180.0
  0
ARC
  5
105
100
AcDbEntity
  8
0
 62
256
370
-1
 48
1.0
  6
BYLAYER
100
AcDbCircle
 10
81.0
 20
50.0
 30
0.0
 40
2.0
100
AcDbArc
 50
180.0
 51
0.0
  0
LINE
  5
106
100
AcDbEntity
100
AcDbLine
  8
0
 62
256
370
-1
 48
1.0
  6
BYLAYER
 10
204.7076613228161079
 20
-32.391557699846004
 30
0.0
 11
204.70766132281625
 21
137.6084423001539676
 31
0.0
  0
LINE
  5
107
100
AcDbEntity
100
AcDbLine
  8
0
 62
256
370
-1
 48
1.0
  6
BYLAYER
 10
199.7076613228161932
 20
142.608442300153996
 30
0.0
 11
157.7076613228160795
 21
142.6084423001540245
 31
0.0
  0
LINE
  5
108
100
AcDbEntity
100
AcDbLine
  8
0
 62
256
370
-1
 48
1.0
  6
BYLAYER
 10
152.7076613228161079
 20
-32.3915576998459187
 30
0.0
 11
152.7076613228161079
 21
137.6084423001540245
 31
0.0
  0
ARC
  5
109
100
AcDbEntity
  8
0
 62
256
370
-1
 48
1.0
  6
BYLAYER
100
AcDbCircle
 10
157.7076613228155395
 20
137.6084423001540245
 30
0.0
 40
5.0
100
AcDbArc
 50
90.0
 51
180.0
  0
ARC
  5
10A
100
AcDbEntity
  8
0
 62
256
370
-1
 48
1.0
  6
BYLAYER
100
AcDbCircle
 10
199.7076613228160795
 20
137.6084423001540245
 30
0.0
 40
5.0
100
AcDbArc
 50
0.0
 51
90.0
  0
LINE
  5
10B
100
AcDbEntity
100
AcDbLine
  8
0
 62
256
370
-1
 48
1.0
  6
BYLAYER
 10
199.730258442316341
 20
-36.8717309749700917
 30
0.0
 11
157.7302584423163694
 21
-36.8717309749700632
 31
0.0
  0
ARC
  5
10C
100
AcDbEntity
  8
0
 62
256
370
-1
 48
1.0
  6
BYLAYER
100
AcDbCircle
 10
199.7347565097725806
 20
-31.8717329982315896
 30
0.0
 40
5.0
100
AcDbArc
 50
269.9484559368073064
 51
354.0324643699553349
  0
ARC
  5
10D
100
AcDbEntity
  8
0
 62
256
370
-1
 48
1.0
  6
BYLAYER
100
AcDbCircle
 10
157.6805917045643639
 20
-31.871977659539283
 30
0.0
 40
5.0
100
AcDbArc
 50
185.9647167495654401
 51
270.5691482511105619
  0
LINE
  5
10E
100
AcDbEntity
100
AcDbLine
  8
0
 62
256
370
-1
 48
1.0
  6
BYLAYER
 10
199.7076613228160511
 20
137.6084423001539676
 30
0.0
 11
199.7076613228161932
 21
131.6084423001540813
 31
0.0
  0
LINE
  5
10F
100
AcDbEntity
100
AcDbLine
  8
0
 62
256
370
-1
 48
1.0
  6
BYLAYER
 10
201.7076613228161364
 20
131.6084423001540813
 30
0.0
 11
201.7076613228161932
 21
137.6084423001539108
 31
0.0
  0
ARC
  5
110
100
AcDbEntity
  8
0
 62
256
370
-1
 48
1.0
  6
BYLAYER
100
AcDbCircle
 10
201.7076613228160511
 20
130.6084423001540813
 30
0.0
 40
1.0
100
AcDbArc
 50
270.0
 51
90.0
  0
ARC
  5
111
100
AcDbEntity
  8
0
 62
256
370
-1
 48
1.0
  6
BYLAYER
100
AcDbCircle
 10
199.7076613228161932
 20
130.6084423001540529
 30
0.0
 40
1.0
100
AcDbArc
 50
90.0
 51
270.0
  0
LINE
  5
112
100
AcDbEntity
100
AcDbLine
  8
0
 62
256
370
-1
 48
1.0
  6
BYLAYER
 10
199.7076613228161364
 20
129.6084423001539392
 30
0.0
 11
201.7076613228161364
 21
129.6084423001539392
 31
0.0
  0
ARC
  5
113
100
AcDbEntity
  8
0
 62
256
370
-1
 48
1.0
  6
BYLAYER
100
AcDbCircle
 10
201.7076613228162216
 20
138.6084423001539392
 30
0.0
 40
1.0
100
AcDbArc
 50
270.0
 51
90.0
  0
ARC
  5
114
100
AcDbEntity
  8
0
 62
256
370
-1
 48
1.0
  6
BYLAYER
100
AcDbCircle
 10
199.7076613228161364
 20
138.6084423001539392
 30
0.0
 40
1.0
100
AcDbArc
 50
90.0
 51
270.0
  0
LINE
  5
115
100
AcDbEntity
100
AcDbLine
  8
0
 62
256
370
-1
 48
1.0
  6
BYLAYER
 10
199.70766132281625
 20
139.6084423001540529
 30
0.0
 11
201.7076613228162785
 21
139.6084423001540529
 31
0.0
  0
LINE
  5
116
100
AcDbEntity
100
AcDbLine
  8
0
 62
256
370
-1
 48
1.0
  6
BYLAYER
 10
155.7076613228155111
 20
137.6084423001539676
 30
0.0
 11
155.7076613228167901
 21
131.6084423001540813
 31
0.0
  0
LINE
  5
117
100
AcDbEntity
100
AcDbLine
  8
0
 62
256
370
-1
 48
1.0
  6
BYLAYER
 10
157.7076613228159943
 20
131.6084423001540813
 30
0.0
 11
157.7076613228155111
 21
137.6084423001539676
 31
0.0
  0
ARC
  5
118
100
AcDbEntity
  8
0
 62
256
370
-1
 48
1.0
  6
BYLAYER
100
AcDbCircle
 10
157.7076613228167332
 20
130.6084423001540813
 30
0.0
 40
1.0
100
AcDbArc
 50
270.0
 51
90.0
  0
ARC
  5
119
100
AcDbEntity
  8
0
 62
256
370
-1
 48
1.0
  6
BYLAYER
100
AcDbCircle
 10
155.7076613228166195
 20
130.6084423001540813
 30
0.0
 40
1.0
100
AcDbArc
 50
90.0
 51
270.0
  0
LINE
  5
11A
100
AcDbEntity
100
AcDbLine
  8
0
 62
256
370
-1
 48
1.0
  6
BYLAYER
 10
155.7076613228158806
 20
129.6084423001539676
 30
0.0
 11
157.7076613228164206
 21
129.6084423001539676
 31
0.0
  0
ARC
  5
11B
100
AcDbEntity
  8
0
 62
256
370
-1
 48
1.0
  6
BYLAYER
100
AcDbCircle
 10
157.7076613228164774
 20
138.6084423001539676
 30
0.0
 40
1.0
100
AcDbArc
 50
270.0
 51
90.0
  0
ARC
  5
11C
100
AcDbEntity
  8
0
 62
256
370
-1
 48
1.0
  6
BYLAYER
100
AcDbCircle
 10
155.707661322817188
 20
138.6084423001539676
 30
0.0
 40
1.0
100
AcDbArc
 50
90.0
 51
270.0
  0
LINE
  5
11D
100
AcDbEntity
100
AcDbLine
  8
0
 62
256
370
-1
 48
1.0
  6
BYLAYER
 10
155.7076613228155679
 20
139.6084423001540813
 30
0.0
 11
157.7076613228166195
 21
139.6084423001540813
 31
0.0
  0
LINE
  5
11E
100
AcDbEntity
100
AcDbLine
  8
0
 62
256
370
-1
 48
1.0
  6
BYLAYER
 10
155.7076613228161079
 20
-26.3915576998460324
 30
0.0
 11
155.7076613228161079
 21
-32.3915576998459187
 31
0.0
  0
LINE
  5
11F
100
AcDbEntity
100
AcDbLine
  8
0
 62
256
370
-1
 48
1.0
  6
BYLAYER
 10
157.7076613228161079
 20
-32.3915576998459187
 30
0.0
 11
157.7076613228161079
 21
-26.3915576998460324
 31
0.0
  0
ARC
  5
120
100
AcDbEntity
  8
0
 62
256
370
-1
 48
1.0
  6
BYLAYER
100
AcDbCircle
 10
157.7076613228161079
 20
-33.3915576998459187
 30
0.0
 40
1.0
100
AcDbArc
 50
270.0
 51
90.0
  0
ARC
  5
121
100
AcDbEntity
  8
0
 62
256
370
-1
 48
1.0
  6
BYLAYER
100
AcDbCircle
 10
155.7076613228161079
 20
-33.3915576998459187
 30
0.0
 40
1.0
100
AcDbArc
 50
90.0
 51
270.0
  0
LINE
  5
122
100
AcDbEntity
100
AcDbLine
  8
0
 62
256
370
-1
 48
1.0
  6
BYLAYER
 10
155.7076613228161079
 20
-34.3915576998460324
 30
0.0
 11
157.7076613228161079
 21
-34.3915576998460324
 31
0.0
  0
ARC
  5
123
100
AcDbEntity
  8
0
 62
256
370
-1
 48
1.0
  6
BYLAYER
100
AcDbCircle
 10
157.7076613228161079
 20
-25.3915576998460359
 30
0.0
 40
1.0
100
AcDbArc
 50
270.0
 51
90.0
  0
ARC
  5
124
100
AcDbEntity
  8
0
 62
256
370
-1
 48
1.0
  6
BYLAYER
100
AcDbCircle
 10
155.7076613228161079
 20
-25.3915576998460324
 30
0.0
 40
1.0
100
AcDbArc
 50
90.0
 51
270.0
  0
LINE
  5
125
100
AcDbEntity
100
AcDbLine
  8
0
 62
256
370
-1
 48
1.0
  6
BYLAYER
 10
155.7076613228161079
 20
-24.3915576998459187
 30
0.0
 11
157.7076613228161079
 21
-24.3915576998459187
 31
0.0
  0
LINE
  5
126
100
AcDbEntity
100
AcDbLine
  8
0
 62
256
370
-1
 48
1.0
  6
BYLAYER
 10
199.7076613228161079
 20
-26.3915576998460253
 30
0.0
 11
199.7076613228161079
 21
-32.3915576998459613
 31
0.0
  0
LINE
  5
127
100
AcDbEntity
100
AcDbLine
  8
0
 62
256
370
-1
 48
1.0
  6
BYLAYER
 10
201.7076613228161079
 20
-32.3915576998459613
 30
0.0
 11
201.7076613228161079
 21
-26.3915576998460502
 31
0.0
  0
ARC
  5
128
100
AcDbEntity
  8
0
 62
256
370
-1
 48
1.0
  6
BYLAYER
100
AcDbCircle
 10
201.7076613228161079
 20
-33.3915576998459542
 30
0.0
 40
1.0
100
AcDbArc
 50
270.0
 51
90.0
  0
ARC
  5
129
100
AcDbEntity
  8
0
 62
256
370
-1
 48
1.0
  6
BYLAYER
100
AcDbCircle
 10
199.7076613228161079
 20
-33.3915576998459329
 30
0.0
 40
1.0
100
AcDbArc
 50
90.0
 51
270.0
  0
LINE
  5
12A
100
AcDbEntity
100
AcDbLine
  8
0
 62
256
370
-1
 48
1.0
  6
BYLAYER
 10
199.7076613228161079
 20
-34.3915576998460608
 30
0.0
 11
201.7076613228161079
 21
-34.3915576998460395
 31
0.0
  0
ARC
  5
12B
100
AcDbEntity
  8
0
 62
256
370
-1
 48
1.0
  6
BYLAYER
100
AcDbCircle
 10
201.7076613228161079
 20
-25.3915576998460431
 30
0.0
 40
1.0
100
AcDbArc
 50
270.0
 51
90.0
  0
ARC
  5
12C
100
AcDbEntity
  8
0
 62
256
370
-1
 48
1.0
  6
BYLAYER
100
AcDbCircle
 10
199.7076613228161079
 20
-25.3915576998460431
 30
0.0
 40
1.0
100
AcDbArc
 50
90.0
 51
270.0
  0
LINE
  5
12D
100
AcDbEntity
100
AcDbLine
  8
0
 62
256
370
-1
 48
1.0
  6
BYLAYER
 10
199.7076613228161079
 20
-24.3915576998459294
 30
0.0
 11
201.7076613228161079
 21
-24.3915576998459542
 31
0.0
  0
LWPOLYLINE
  5
12E
  8
0
 62
256
370
-1
 48
1.0
  6
BYLAYER
100
AcDbEntity
100
AcDbPolyline
 90
2
 70
0
 10
170.7076613215533314
 20
136.2334423001540245
 30
0.0
 42
-0.4142135623730951
 10
173.7076613215533598
 20
139.2334423001539676
 30
0.0
  0
LWPOLYLINE
  5
12F
  8
0
 62
256
370
-1
 48
1.0
  6
BYLAYER
100
AcDbEntity
100
AcDbPolyline
 90
2
 70
0
 10
183.7076618363807654
 20
139.2334420869059386
 30
0.0
 42
-0.4142135623730951
 10
186.7076613240787992
 20
136.2334423026784407
 30
0.0
  0
LWPOLYLINE
  5
130
  8
0
 62
256
370
-1
 48
1.0
  6
BYLAYER
100
AcDbEntity
100
AcDbPolyline
 90
2
 70
0
 10
173.7076613215533598
 20
139.2334423001539676
 30
0.0
 10
183.7076618363807654
 20
139.2334420869059386
 30
0.0
  0
LWPOLYLINE
  5
131
  8
0
 62
256
370
-1
 48
1.0
  6
BYLAYER
100
AcDbEntity
100
AcDbPolyline
 90
2
 70
0
 10
170.7076613215534451
 20
74.9834423001541808
 30
0.0
 42
0.4142135623730951
 10
173.7076613215533598
 20
71.9834423001541808
 30
0.0
  0
LWPOLYLINE
  5
132
  8
0
 62
256
370
-1
 48
1.0
  6
BYLAYER
100
AcDbEntity
100
AcDbPolyline
 90
2
 70
0
 10
183.707661321554383
 20
71.9834423001541239
 30
0.0
 42
0.4142135623730951
 10
186.707661321554383
 20
74.9834423001541808
 30
0.0
  0
LWPOLYLINE
  5
133
  8
0
 62
256
370
-1
 48
1.0
  6
BYLAYER
100
AcDbEntity
100
AcDbPolyline
 90
2
 70
0
 10
173.7076613215533598
 20
71.9834423001541808
 30
0.0
 10
183.707661321554383
 20
71.9834423001541239
 30
0.0
  0
LINE
  5
134
100
AcDbEntity
100
AcDbLine
  8
0
 62
256
370
-1
 48
1.0
  6
BYLAYER
 10
186.707661321554383
 20
74.9834423001541808
 30
0.0
 11
186.7076613240787992
 21
136.2334423026784407
 31
0.0
  0
LINE
  5
135
100
AcDbEntity
100
AcDbLine
  8
0
 62
256
370
-1
 48
1.0
  6
BYLAYER
 10
170.7076613215533314
 20
136.2334423001540245
 30
0.0
 11
170.7076613215534451
 21
74.9834423001541808
 31
0.0
  0
LWPOLYLINE
  5
136
  8
0
 62
256
370
-1
 48
1.0
  6
BYLAYER
100
AcDbEntity
100
AcDbPolyline
 90
2
 70
0
 10
170.8683244701925048
 20
53.3835334917308586
 30
0.0
 42
-0.4142135623730951
 10
173.8683244701924195
 20
56.3835334917308018
 30
0.0
  0
LWPOLYLINE
  5
137
  8
0
 62
256
370
-1
 48
1.0
  6
BYLAYER
100
AcDbEntity
100
AcDbPolyline
 90
2
 70
0
 10
183.8683249850197114
 20
56.383533278482787
 30
0.0
 42
-0.4142135623730951
 10
186.8683244727178021
 20
53.383533494255289
 30
0.0
  0
LWPOLYLINE
  5
138
  8
0
 62
256
370
-1
 48
1.0
  6
BYLAYER
100
AcDbEntity
100
AcDbPolyline
 90
2
 70
0
 10
173.8683244701924195
 20
56.3835334917308018
 30
0.0
 10
183.8683249850197114
 20
56.383533278482787
 30
0.0
  0
LWPOLYLINE
  5
139
  8
0
 62
256
370
-1
 48
1.0
  6
BYLAYER
100
AcDbEntity
100
AcDbPolyline
 90
2
 70
0
 10
170.8683244701924195
 20
-7.8664665082689673
 30
0.0
 42
0.4142135623730951
 10
173.8683244701923627
 20
-10.8664665082689744
 30
0.0
  0
LWPOLYLINE
  5
13A
  8
0
 62
256
370
-1
 48
1.0
  6
BYLAYER
100
AcDbEntity
100
AcDbPolyline
 90
2
 70
0
 10
183.8683244701933859
 20
-10.8664665082690242
 30
0.0
 42
0.4142135623730951
 10
186.8683244701933859
 20
-7.8664665082689531
 30
0.0
  0
LWPOLYLINE
  5
13B
  8
0
 62
256
370
-1
 48
1.0
  6
BYLAYER
100
AcDbEntity
100
AcDbPolyline
 90
2
 70
0
 10
173.8683244701923627
 20
-10.8664665082689744
 30
0.0
 10
183.8683244701933859
 20
-10.8664665082690242
 30
0.0
  0
LINE
  5
13C
100
AcDbEntity
100
AcDbLine
  8
0
 62
256
370
-1
 48
1.0
  6
BYLAYER
 10
186.8683244701933859
 20
-7.8664665082689531
 30
0.0
 11
186.8683244727178021
 21
53.383533494255289
 31
0.0
  0
LINE
  5
13D
100
AcDbEntity
100
AcDbLine
  8
0
 62
256
370
-1
 48
1.0
  6
BYLAYER
 10
170.8683244701925048
 20
53.3835334917308586
 30
0.0
 11
170.8683244701924195
 21
-7.8664665082689673
 31
0.0
  0
LINE
  5
13E
100
AcDbEntity
100
AcDbLine
  8
0
 62
256
370
-1
 48
1.0
  6
BYLAYER
 10
167.7076613228161079
 20
61.6084423001540813
 30
0.0
 11
167.7076613228161079
 21
67.6084423001539676
 31
0.0
  0
LINE
  5
13F
100
AcDbEntity
100
AcDbLine
  8
0
 62
256
370
-1
 48
1.0
  6
BYLAYER
 10
165.7076613228162216
 20
67.6084423001539676
 30
0.0
 11
165.7076613228161079
 21
61.6084423001540813
 31
0.0
  0
ARC
  5
140
100
AcDbEntity
  8
0
 62
256
370
-1
 48
1.0
  6
BYLAYER
100
AcDbCircle
 10
165.7076613228161079
 20
68.6084423001539676
 30
0.0
 40
1.0
100
AcDbArc
 50
90.0
 51
270.0
  0
ARC
  5
141
100
AcDbEntity
  8
0
 62
256
370
-1
 48
1.0
  6
BYLAYER
100
AcDbCircle
 10
167.7076613228162216
 20
68.6084423001539534
 30
0.0
 40
1.0
100
AcDbArc
 50
270.0
 51
90.0
  0
LINE
  5
142
100
AcDbEntity
100
AcDbLine
  8
0
 62
256
370
-1
 48
1.0
  6
BYLAYER
 10
167.7076613228161364
 20
69.6084423001540813
 30
0.0
 11
165.7076613228160795
 21
69.6084423001540813
 31
0.0
  0
ARC
  5
143
100
AcDbEntity
  8
0
 62
256
370
-1
 48
1.0
  6
BYLAYER
100
AcDbCircle
 10
165.7076613228161079
 20
60.6084423001540813
 30
0.0
 40
1.0
100
AcDbArc
 50
90.0
 51
270.0
  0
ARC
  5
144
100
AcDbEntity
  8
0
 62
256
370
-1
 48
1.0
  6
BYLAYER
100
AcDbCircle
 10
167.7076613228161364
 20
60.6084423001540813
 30
0.0
 40
1.0
100
AcDbArc
 50
270.0
 51
90.0
  0
LINE
  5
145
100
AcDbEntity
100
AcDbLine
  8
0
 62
256
370
-1
 48
1.0
  6
BYLAYER
 10
167.7076613228161364
 20
59.6084423001539534
 30
0.0
 11
165.7076613228160795
 21
59.6084423001539534
 31
0.0
  0
LINE
  5
146
100
AcDbEntity
100
AcDbLine
  8
0
 62
256
370
-1
 48
1.0
  6
BYLAYER
 10
189.7076613228161079
 20
67.6084423001540245
 30
0.0
 11
189.7076613228161364
 21
61.6084423001541381
 31
0.0
  0
LINE
  5
147
100
AcDbEntity
100
AcDbLine
  8
0
 62
256
370
-1
 48
1.0
  6
BYLAYER
 10
191.7076613228161648
 20
61.6084423001541097
 30
0.0
 11
191.7076613228161648
 21
67.608442300153996
 31
0.0
  0
ARC
  5
148
100
AcDbEntity
  8
0
 62
256
370
-1
 48
1.0
  6
BYLAYER
100
AcDbCircle
 10
191.7076613228161364
 20
60.6084423001541239
 30
0.0
 40
1.0
100
AcDbArc
 50
270.0
 51
90.0
  0
ARC
  5
149
100
AcDbEntity
  8
0
 62
256
370
-1
 48
1.0
  6
BYLAYER
100
AcDbCircle
 10
189.7076613228161364
 20
60.6084423001541239
 30
0.0
 40
1.0
100
AcDbArc
 50
90.0
 51
270.0
  0
LINE
  5
14A
100
AcDbEntity
100
AcDbLine
  8
0
 62
256
370
-1
 48
1.0
  6
BYLAYER
 10
189.7076613228161364
 20
59.6084423001540245
 30
0.0
 11
191.7076613228161364
 21
59.6084423001540102
 31
0.0
  0
ARC
  5
14B
100
AcDbEntity
  8
0
 62
256
370
-1
 48
1.0
  6
BYLAYER
100
AcDbCircle
 10
191.7076613228161364
 20
68.6084423001540102
 30
0.0
 40
1.0
100
AcDbArc
 50
270.0
 51
90.0
  0
ARC
  5
14C
100
AcDbEntity
  8
0
 62
256
370
-1
 48
1.0
  6
BYLAYER
100
AcDbCircle
 10
189.7076613228161079
 20
68.6084423001540245
 30
0.0
 40
1.0
100
AcDbArc
 50
90.0
 51
270.0
  0
LINE
  5
14D
100
AcDbEntity
100
AcDbLine
  8
0
 62
256
370
-1
 48
1.0
  6
BYLAYER
 10
189.7076613228161364
 20
69.6084423001541381
 30
0.0
 11
191.7076613228161364
 21
69.6084423001541239
 31
0.0
  0
LINE
  5
14E
100
AcDbEntity
100
AcDbLine
  8
0
 62
256
370
-1
 48
1.0
  6
BYLAYER
 10
184.1406740247084031
 20
-15.4813036620015119
 30
0.0
 11
188.2746486209237844
 21
-22.6415576998460395
 31
0.0
  0
ARC
  5
14F
100
AcDbEntity
  8
0
 62
256
370
-1
 48
1.0
  6
BYLAYER
100
AcDbCircle
 10
186.9756105152472685
 20
-23.3915576998459116
 30
0.0
 40
1.5
100
AcDbArc
 50
330.0000000000027853
 51
29.9999999999972218
  0
LINE
  5
150
100
AcDbEntity
100
AcDbLine
  8
0
 62
256
370
-1
 48
1.0
  6
BYLAYER
 10
188.2746486209237844
 20
-24.1415576998459436
 30
0.0
 11
184.1406740247083746
 21
-31.3018117376904215
 31
0.0
  0
ARC
  5
151
100
AcDbEntity
  8
0
 62
256
370
-1
 48
1.0
  6
BYLAYER
100
AcDbCircle
 10
182.8416359190318019
 20
-30.5518117376904002
 30
0.0
 40
1.5
100
AcDbArc
 50
270.0
 51
330.0000000000027853
  0
LINE
  5
152
100
AcDbEntity
100
AcDbLine
  8
0
 62
256
370
-1
 48
1.0
  6
BYLAYER
 10
182.8416359190318303
 20
-14.731303662001519
 30
0.0
 11
174.5736867266003571
 21
-14.7313036620015083
 31
0.0
  0
ARC
  5
153
100
AcDbEntity
  8
0
 62
256
370
-1
 48
1.0
  6
BYLAYER
100
AcDbCircle
 10
182.8416359190318019
 20
-16.2313036620014977
 30
0.0
 40
1.5
100
AcDbArc
 50
29.9999999999972218
 51
90.0
  0
LINE
  5
154
100
AcDbEntity
100
AcDbLine
  8
0
 62
256
370
-1
 48
1.0
  6
BYLAYER
 10
173.2746486209239265
 20
-15.4813036620015119
 30
0.0
 11
169.1406740247083746
 21
-22.6415576998460395
 31
0.0
  0
ARC
  5
155
100
AcDbEntity
  8
0
 62
256
370
-1
 48
1.0
  6
BYLAYER
100
AcDbCircle
 10
174.5736867266003571
 20
-16.2313036620014941
 30
0.0
 40
1.5
100
AcDbArc
 50
90.0
 51
150.0000000000028137
  0
LINE
  5
156
100
AcDbEntity
100
AcDbLine
  8
0
 62
256
370
-1
 48
1.0
  6
BYLAYER
 10
169.1406740247083746
 20
-24.1415576998459187
 30
0.0
 11
173.2746486209238981
 21
-31.3018117376904037
 31
0.0
  0
ARC
  5
157
100
AcDbEntity
  8
0
 62
256
370
-1
 48
1.0
  6
BYLAYER
100
AcDbCircle
 10
170.4397121303848905
 20
-23.3915576998459187
 30
0.0
 40
1.5
100
AcDbArc
 50
150.0000000000028137
 51
209.9999999999972147
  0
LINE
  5
158
100
AcDbEntity
100
AcDbLine
  8
0
 62
256
370
-1
 48
1.0
  6
BYLAYER
 10
182.8416359190318019
 20
-32.0518117376903504
 30
0.0
 11
174.5736867266003571
 21
-32.0518117376903575
 31
0.0
  0
ARC
  5
159
100
AcDbEntity
  8
0
 62
256
370
-1
 48
1.0
  6
BYLAYER
100
AcDbCircle
 10
174.5736867266003571
 20
-30.5518117376904108
 30
0.0
 40
1.5
100
AcDbArc
 50
209.9999999999972147
 51
270.0
  0
LWPOLYLINE
  5
15A
  8
0
 62
256
370
-1
 48
1.0
  6
BYLAYER
100
AcDbEntity
100
AcDbPolyline
 90
2
 70
0
 10
155.9076613220585159
 20
40.983442300153996
 30
0.0
 42
-0.4142135623730951
 10
157.7076613220583852
 20
42.783442300153979
 30
0.0
  0
LWPOLYLINE
  5
15B
  8
0
 62
256
370
-1
 48
1.0
  6
BYLAYER
100
AcDbEntity
100
AcDbPolyline
 90
2
 70
0
 10
163.7076616309549308
 20
42.7834421722051275
 30
0.0
 42
-0.4142135623730951
 10
165.5076613235737568
 20
40.9834423016686742
 30
0.0
  0
LWPOLYLINE
  5
15C
  8
0
 62
256
370
-1
 48
1.0
  6
BYLAYER
100
AcDbEntity
100
AcDbPolyline
 90
2
 70
0
 10
157.7076613220583852
 20
42.783442300153979
 30
0.0
 10
163.7076616309549308
 20
42.7834421722051275
 30
0.0
  0
LWPOLYLINE
  5
15D
  8
0
 62
256
370
-1
 48
1.0
  6
BYLAYER
100
AcDbEntity
100
AcDbPolyline
 90
2
 70
0
 10
155.9076613220584022
 20
4.2334423001541381
 30
0.0
 42
0.4142135623730951
 10
157.7076613220584136
 20
2.4334423001541197
 30
0.0
  0
LWPOLYLINE
  5
15E
  8
0
 62
256
370
-1
 48
1.0
  6
BYLAYER
100
AcDbEntity
100
AcDbPolyline
 90
2
 70
0
 10
163.7076613220590389
 20
2.4334423001540699
 30
0.0
 42
0.4142135623730951
 10
165.5076613220590502
 20
4.2334423001541097
 30
0.0
  0
LWPOLYLINE
  5
15F
  8
0
 62
256
370
-1
 48
1.0
  6
BYLAYER
100
AcDbEntity
100
AcDbPolyline
 90
2
 70
0
 10
157.7076613220584136
 20
2.4334423001541197
 30
0.0
 10
163.7076613220590389
 20
2.4334423001540699
 30
0.0
  0
LINE
  5
160
100
AcDbEntity
100
AcDbLine
  8
0
 62
256
370
-1
 48
1.0
  6
BYLAYER
 10
165.5076613220590502
 20
4.2334423001541097
 30
0.0
 11
165.5076613235737568
 21
40.9834423016686742
 31
0.0
  0
LINE
  5
161
100
AcDbEntity
100
AcDbLine
  8
0
 62
256
370
-1
 48
1.0
  6
BYLAYER
 10
155.9076613220585159
 20
40.983442300153996
 30
0.0
 11
155.9076613220584022
 21
4.2334423001541381
 31
0.0
  0
LWPOLYLINE
  5
162
  8
0
 62
256
370
-1
 48
1.0
  6
BYLAYER
100
AcDbEntity
100
AcDbPolyline
 90
2
 70
0
 10
191.9076613220585728
 20
40.9834423001539676
 30
0.0
 42
-0.4142135623730951
 10
193.7076613220585273
 20
42.7834423001539506
 30
0.0
  0
LWPOLYLINE
  5
163
  8
0
 62
256
370
-1
 48
1.0
  6
BYLAYER
100
AcDbEntity
100
AcDbPolyline
 90
2
 70
0
 10
199.7076616309549024
 20
42.783442172205099
 30
0.0
 42
-0.4142135623730951
 10
201.5076613235737568
 20
40.9834423016686458
 30
0.0
  0
LWPOLYLINE
  5
164
  8
0
 62
256
370
-1
 48
1.0
  6
BYLAYER
100
AcDbEntity
100
AcDbPolyline
 90
2
 70
0
 10
193.7076613220585273
 20
42.7834423001539506
 30
0.0
 10
199.7076616309549024
 20
42.783442172205099
 30
0.0
  0
LWPOLYLINE
  5
165
  8
0
 62
256
370
-1
 48
1.0
  6
BYLAYER
100
AcDbEntity
100
AcDbPolyline
 90
2
 70
0
 10
191.9076613220584306
 20
4.2334423001541239
 30
0.0
 42
0.4142135623730951
 10
193.7076613220583852
 20
2.4334423001541339
 30
0.0
  0
LWPOLYLINE
  5
166
  8
0
 62
256
370
-1
 48
1.0
  6
BYLAYER
100
AcDbEntity
100
AcDbPolyline
 90
2
 70
0
 10
199.7076613220590389
 20
2.4334423001540699
 30
0.0
 42
0.4142135623730951
 10
201.5076613220590502
 20
4.2334423001541026
 30
0.0
  0
LWPOLYLINE
  5
167
  8
0
 62
256
370
-1
 48
1.0
  6
BYLAYER
100
AcDbEntity
100
AcDbPolyline
 90
2
 70
0
 10
193.7076613220583852
 20
2.4334423001541339
 30
0.0
 10
199.7076613220590389
 20
2.4334423001540699
 30
0.0
  0
LINE
  5
168
100
AcDbEntity
100
AcDbLine
  8
0
 62
256
370
-1
 48
1.0
  6
BYLAYER
 10
201.5076613220590502
 20
4.2334423001541026
 30
0.0
 11
201.5076613235737568
 21
40.9834423016686458
 31
0.0
  0
LINE
  5
169
100
AcDbEntity
100
AcDbLine
  8
0
 62
256
370
-1
 48
1.0
  6
BYLAYER
 10
191.9076613220585728
 20
40.9834423001539676
 30
0.0
 11
191.9076613220584306
 21
4.2334423001541239
 31
0.0
  0
LINE
  5
16A
100
AcDbEntity
100
AcDbLine
  8
0
 62
256
370
-1
 48
1.0
  6
BYLAYER
 10
158.7786253247894024
 20
-16.6096525526620553
 30
0.0
 11
155.8360212383770431
 21
-10.1573314360419147
 31
0.0
  0
ARC
  5
16B
100
AcDbEntity
  8
0
 62
256
370
-1
 48
1.0
  6
BYLAYER
100
AcDbCircle
 10
160.5983230414716729
 20
-15.7797729108457681
 30
0.0
 40
2.0
100
AcDbArc
 50
204.5155267770428793
 51
325.0097680446514801
  0
ARC
  5
16C
100
AcDbEntity
  8
0
 62
256
370
-1
 48
1.0
  6
BYLAYER
100
AcDbCircle
 10
157.2007945258887958
 20
-9.5349217046796753
 30
0.0
 40
1.5
100
AcDbArc
 50
144.5155267770287821
 51
204.5155267770428793
  0
LINE
  5
16D
100
AcDbEntity
100
AcDbLine
  8
0
 62
256
370
-1
 48
1.0
  6
BYLAYER
 10
155.9793852432107144
 20
-8.6641982329692873
 30
0.0
 11
159.7733586648200799
 21
-3.3421935943612766
 31
0.0
  0
ARC
  5
16E
100
AcDbEntity
  8
0
 62
256
370
-1
 48
1.0
  6
BYLAYER
100
AcDbCircle
 10
160.9947679474982181
 20
-4.2129170660715545
 30
0.0
 40
1.5
100
AcDbArc
 50
24.5155267770428615
 51
144.5155267770287821
  0
LINE
  5
16F
100
AcDbEntity
100
AcDbLine
  8
0
 62
256
370
-1
 48
1.0
  6
BYLAYER
 10
162.3595412350099423
 20
-3.590507334709315
 30
0.0
 11
165.5193582915158004
 21
-10.5191167295282639
 31
0.0
  0
ARC
  5
170
100
AcDbEntity
  8
0
 62
256
370
-1
 48
1.0
  6
BYLAYER
100
AcDbCircle
 10
163.6996605748335014
 20
-11.3489963713445903
 30
0.0
 40
2.0
100
AcDbArc
 50
325.0097680446514801
 51
24.5155267770428615
  0
LINE
  5
171
100
AcDbEntity
100
AcDbLine
  8
0
 62
256
370
-1
 48
1.0
  6
BYLAYER
 10
162.2368226780709222
 20
-16.9266464613579934
 30
0.0
 11
165.3381613402130483
 21
-12.4958689826382958
 31
0.0
  0
LWPOLYLINE
  5
172
  8
0
 62
256
370
-1
 48
1.0
  6
BYLAYER
100
AcDbEntity
100
AcDbPolyline
 90
2
 70
0
 10
195.3476613222857736
 20
118.470942300153979
 30
0.0
 42
-0.4142135623730951
 10
196.6076613222858498
 20
119.7309423001539415
 30
0.0
  0
LWPOLYLINE
  5
173
  8
0
 62
256
370
-1
 48
1.0
  6
BYLAYER
100
AcDbEntity
100
AcDbPolyline
 90
2
 70
0
 10
200.8076615385132868
 20
119.7309422105897454
 30
0.0
 42
-0.4142135623730951
 10
202.0676613233464138
 20
118.4709423012142224
 30
0.0
  0
LWPOLYLINE
  5
174
  8
0
 62
256
370
-1
 48
1.0
  6
BYLAYER
100
AcDbEntity
100
AcDbPolyline
 90
2
 70
0
 10
196.6076613222858498
 20
119.7309423001539415
 30
0.0
 10
200.8076615385132868
 20
119.7309422105897454
 30
0.0
  0
LWPOLYLINE
  5
175
  8
0
 62
256
370
-1
 48
1.0
  6
BYLAYER
100
AcDbEntity
100
AcDbPolyline
 90
2
 70
0
 10
195.347661322285802
 20
92.7459423001540557
 30
0.0
 42
0.4142135623730951
 10
196.6076613222857929
 20
91.4859423001540506
 30
0.0
  0
LWPOLYLINE
  5
176
  8
0
 62
256
370
-1
 48
1.0
  6
BYLAYER
100
AcDbEntity
100
AcDbPolyline
 90
2
 70
0
 10
200.8076613222862079
 20
91.4859423001540648
 30
0.0
 42
0.4142135623730951
 10
202.0676613222861988
 20
92.7459423001540699
 30
0.0
  0
LWPOLYLINE
  5
177
  8
0
 62
256
370
-1
 48
1.0
  6
BYLAYER
100
AcDbEntity
100
AcDbPolyline
 90
2
 70
0
 10
196.6076613222857929
 20
91.4859423001540506
 30
0.0
 10
200.8076613222862079
 20
91.4859423001540648
 30
0.0
  0
LINE
  5
178
100
AcDbEntity
100
AcDbLine
  8
0
 62
256
370
-1
 48
1.0
  6
BYLAYER
 10
202.0676613222861988
 20
92.7459423001540699
 30
0.0
 11
202.0676613233464138
 21
118.4709423012142224
 31
0.0
  0
LINE
  5
179
100
AcDbEntity
100
AcDbLine
  8
0
 62
256
370
-1
 48
1.0
  6
BYLAYER
 10
195.3476613222857736
 20
118.470942300153979
 30
0.0
 11
195.347661322285802
 21
92.7459423001540557
 31
0.0
  0
LWPOLYLINE
  5
17A
  8
0
 62
256
370
-1
 48
1.0
  6
BYLAYER
100
AcDbEntity
100
AcDbPolyline
 90
2
 70
0
 10
155.3476613222848073
 20
118.470942300153979
 30
0.0
 42
-0.4142135623730951
 10
156.6076613222861056
 20
119.7309423001539699
 30
0.0
  0
LWPOLYLINE
  5
17B
  8
0
 62
256
370
-1
 48
1.0
  6
BYLAYER
100
AcDbEntity
100
AcDbPolyline
 90
2
 70
0
 10
160.8076615385134573
 20
119.7309422105897738
 30
0.0
 42
-0.4142135623730951
 10
162.0676613233466412
 20
118.4709423012142224
 30
0.0
  0
LWPOLYLINE
  5
17C
  8
0
 62
256
370
-1
 48
1.0
  6
BYLAYER
100
AcDbEntity
100
AcDbPolyline
 90
2
 70
0
 10
156.6076613222861056
 20
119.7309423001539699
 30
0.0
 10
160.8076615385134573
 20
119.7309422105897738
 30
0.0
  0
LWPOLYLINE
  5
17D
  8
0
 62
256
370
-1
 48
1.0
  6
BYLAYER
100
AcDbEntity
100
AcDbPolyline
 90
2
 70
0
 10
155.3476613222858589
 20
92.7459423001540699
 30
0.0
 42
0.4142135623730951
 10
156.6076613222857645
 20
91.485942300154079
 30
0.0
  0
LWPOLYLINE
  5
17E
  8
0
 62
256
370
-1
 48
1.0
  6
BYLAYER
100
AcDbEntity
100
AcDbPolyline
 90
2
 70
0
 10
160.8076613222862079
 20
91.485942300154079
 30
0.0
 42
0.4142135623730951
 10
162.0676613222861988
 20
92.7459423001540699
 30
0.0
  0
LWPOLYLINE
  5
17F
  8
0
 62
256
370
-1
 48
1.0
  6
BYLAYER
100
AcDbEntity
100
AcDbPolyline
 90
2
 70
0
 10
156.6076613222857645
 20
91.485942300154079
 30
0.0
 10
160.8076613222862079
 20
91.485942300154079
 30
0.0
  0
LINE
  5
180
100
AcDbEntity
100
AcDbLine
  8
0
 62
256
370
-1
 48
1.0
  6
BYLAYER
 10
162.0676613222861988
 20
92.7459423001540699
 30
0.0
 11
162.0676613233466412
 21
118.4709423012142224
 31
0.0
  0
LINE
  5
181
100
AcDbEntity
100
AcDbLine
  8
0
 62
256
370
-1
 48
1.0
  6
BYLAYER
 10
155.3476613222848073
 20
118.470942300153979
 30
0.0
 11
155.3476613222858589
 21
92.7459423001540699
 31
0.0
  0
LWPOLYLINE
  5
182
  8
0
 62
256
370
-1
 48
1.0
  6
BYLAYER
100
AcDbEntity
100
AcDbPolyline
 90
2
 70
0
 10
155.3476613222857452
 20
85.470942300153979
 30
0.0
 42
-0.4142135623730951
 10
156.6076613222860487
 20
86.7309423001539699
 30
0.0
  0
LWPOLYLINE
  5
183
  8
0
 62
256
370
-1
 48
1.0
  6
BYLAYER
100
AcDbEntity
100
AcDbPolyline
 90
2
 70
0
 10
160.8076615385133721
 20
86.7309422105897738
 30
0.0
 42
-0.4142135623730951
 10
162.0676613233464423
 20
85.4709423012142224
 30
0.0
  0
LWPOLYLINE
  5
184
  8
0
 62
256
370
-1
 48
1.0
  6
BYLAYER
100
AcDbEntity
100
AcDbPolyline
 90
2
 70
0
 10
156.6076613222860487
 20
86.7309423001539699
 30
0.0
 10
160.8076615385133721
 20
86.7309422105897738
 30
0.0
  0
LWPOLYLINE
  5
185
  8
0
 62
256
370
-1
 48
1.0
  6
BYLAYER
100
AcDbEntity
100
AcDbPolyline
 90
2
 70
0
 10
155.3476613222855178
 20
59.7459423001540983
 30
0.0
 42
0.4142135623730951
 10
156.6076613222857077
 20
58.485942300154079
 30
0.0
  0
LWPOLYLINE
  5
186
  8
0
 62
256
370
-1
 48
1.0
  6
BYLAYER
100
AcDbEntity
100
AcDbPolyline
 90
2
 70
0
 10
160.8076613222860942
 20
58.485942300154079
 30
0.0
 42
0.4142135623730951
 10
162.0676613222861704
 20
59.7459423001540699
 30
0.0
  0
LWPOLYLINE
  5
187
  8
0
 62
256
370
-1
 48
1.0
  6
BYLAYER
100
AcDbEntity
100
AcDbPolyline
 90
2
 70
0
 10
156.6076613222857077
 20
58.485942300154079
 30
0.0
 10
160.8076613222860942
 20
58.485942300154079
 30
0.0
  0
LINE
  5
188
100
AcDbEntity
100
AcDbLine
  8
0
 62
256
370
-1
 48
1.0
  6
BYLAYER
 10
162.0676613222861704
 20
59.7459423001540699
 30
0.0
 11
162.0676613233464423
 21
85.4709423012142224
 31
0.0
  0
LINE
  5
189
100
AcDbEntity
100
AcDbLine
  8
0
 62
256
370
-1
 48
1.0
  6
BYLAYER
 10
155.3476613222857452
 20
85.470942300153979
 30
0.0
 11
155.3476613222855178
 21
59.7459423001540983
 31
0.0
  0
LWPOLYLINE
  5
18A
  8
0
 62
256
370
-1
 48
1.0
  6
BYLAYER
100
AcDbEntity
100
AcDbPolyline
 90
2
 70
0
 10
195.3476613222857736
 20
85.4709423001539932
 30
0.0
 42
-0.4142135623730951
 10
196.6076613222857929
 20
86.7309423001539557
 30
0.0
  0
LWPOLYLINE
  5
18B
  8
0
 62
256
370
-1
 48
1.0
  6
BYLAYER
100
AcDbEntity
100
AcDbPolyline
 90
2
 70
0
 10
200.8076615385132868
 20
86.7309422105897454
 30
0.0
 42
-0.4142135623730951
 10
202.0676613233464707
 20
85.4709423012142082
 30
0.0
  0
LWPOLYLINE
  5
18C
  8
0
 62
256
370
-1
 48
1.0
  6
BYLAYER
100
AcDbEntity
100
AcDbPolyline
 90
2
 70
0
 10
196.6076613222857929
 20
86.7309423001539557
 30
0.0
 10
200.8076615385132868
 20
86.7309422105897454
 30
0.0
  0
LWPOLYLINE
  5
18D
  8
0
 62
256
370
-1
 48
1.0
  6
BYLAYER
100
AcDbEntity
100
AcDbPolyline
 90
2
 70
0
 10
195.3476613222857452
 20
59.7459423001540841
 30
0.0
 42
0.4142135623730951
 10
196.6076613222857645
 20
58.4859423001540506
 30
0.0
  0
LWPOLYLINE
  5
18E
  8
0
 62
256
370
-1
 48
1.0
  6
BYLAYER
100
AcDbEntity
100
AcDbPolyline
 90
2
 70
0
 10
200.8076613222861511
 20
58.485942300154079
 30
0.0
 42
0.4142135623730951
 10
202.067661322286142
 20
59.7459423001540699
 30
0.0
  0
LWPOLYLINE
  5
18F
  8
0
 62
256
370
-1
 48
1.0
  6
BYLAYER
100
AcDbEntity
100
AcDbPolyline
 90
2
 70
0
 10
196.6076613222857645
 20
58.4859423001540506
 30
0.0
 10
200.8076613222861511
 20
58.485942300154079
 30
0.0
  0
LINE
  5
190
100
AcDbEntity
100
AcDbLine
  8
0
 62
256
370
-1
 48
1.0
  6
BYLAYER
 10
202.067661322286142
 20
59.7459423001540699
 30
0.0
 11
202.0676613233464707
 21
85.4709423012142082
 31
0.0
  0
LINE
  5
191
100
AcDbEntity
100
AcDbLine
  8
0
 62
256
370
-1
 48
1.0
  6
BYLAYER
 10
195.3476613222857736
 20
85.4709423001539932
 30
0.0
 11
195.3476613222857452
 21
59.7459423001540841
 31
0.0
  0
CIRCLE
  5
192
100
AcDbEntity
100
AcDbCircle
  8
0
 62
256
370
-1
 48
1.0
  6
BYLAYER
 10
193.7076613228160795
 20
134.6084423001540245
 30
0.0
 40
3.25
  0
CIRCLE
  5
193
100
AcDbEntity
100
AcDbCircle
  8
0
 62
256
370
-1
 48
1.0
  6
BYLAYER
 10
163.7076613228159943
 20
134.6084423001540245
 30
0.0
 40
3.25
  0
CIRCLE
  5
194
100
AcDbEntity
100
AcDbCircle
  8
0
 62
256
370
-1
 48
1.0
  6
BYLAYER
 10
165.7076613228159943
 20
124.6084423001540245
 30
0.0
 40
3.25
  0
CIRCLE
  5
195
100
AcDbEntity
100
AcDbCircle
  8
0
 62
256
370
-1
 48
1.0
  6
BYLAYER
 10
191.70766132281625
 20
124.6084423001540245
 30
0.0
 40
3.25
  0
CIRCLE
  5
196
100
AcDbEntity
100
AcDbCircle
  8
0
 62
256
370
-1
 48
1.0
  6
BYLAYER
 10
199.7076613228160795
 20
124.6084423001540245
 30
0.0
 40
3.25
  0
CIRCLE
  5
197
100
AcDbEntity
100
AcDbCircle
  8
0
 62
256
370
-1
 48
1.0
  6
BYLAYER
 10
157.7076613228163922
 20
124.6084423001540245
 30
0.0
 40
3.25
  0
CIRCLE
  5
198
100
AcDbEntity
100
AcDbCircle
  8
0
 62
256
370
-1
 48
1.0
  6
BYLAYER
 10
173.7076613228161364
 20
64.6084423001540245
 30
0.0
 40
3.25
  0
CIRCLE
  5
199
100
AcDbEntity
100
AcDbCircle
  8
0
 62
256
370
-1
 48
1.0
  6
BYLAYER
 10
183.7076613228161364
 20
64.6084423001540102
 30
0.0
 40
3.25
  0
LINE
  5
19A
100
AcDbEntity
100
AcDbLine
  8
0
 62
256
370
-1
 48
1.0
  6
BYLAYER
 10
192.4695792737476836
 20
46.1584423001544621
 30
0.0
 11
192.0198375467433891
 21
46.9374178216097562
 31
0.0
  0
ARC
  5
19B
100
AcDbEntity
  8
0
 62
256
370
-1
 48
1.0
  6
BYLAYER
100
AcDbCircle
 10
193.3182841694563194
 20
46.6484423001544428
 30
0.0
 40
0.9799999999999999
100
AcDbArc
 50
209.9999999999858176
 51
270.0
  0
LINE
  5
19C
100
AcDbEntity
100
AcDbLine
  8
0
 62
256
370
-1
 48
1.0
  6
BYLAYER
 10
192.0198375467434175
 20
47.6724178216097414
 30
0.0
 11
194.045485098889003
 21
51.1809423001535748
 31
0.0
  0
ARC
  5
19D
100
AcDbEntity
  8
0
 62
256
370
-1
 48
1.0
  6
BYLAYER
100
AcDbCircle
 10
192.6563662185248802
 20
47.3049178216098056
 30
0.0
 40
0.7349999999999999
100
AcDbArc
 50
150.0000000000140687
 51
209.9999999999858176
  0
ARC
  5
19E
100
AcDbEntity
  8
0
 62
256
370
-1
 48
1.0
  6
BYLAYER
100
AcDbCircle
 10
194.6820137706704941
 20
50.8134423001535964
 30
0.0
 40
0.7349999999999999
100
AcDbArc
 50
90.0
 51
150.0000000000140687
  0
ARC
  5
19F
100
AcDbEntity
  8
0
 62
256
370
-1
 48
1.0
  6
BYLAYER
100
AcDbCircle
 10
198.7333088749617502
 20
50.813442300153568
 30
0.0
 40
0.7349999999999999
100
AcDbArc
 50
29.9999999999859206
 51
90.0
  0
LINE
  5
1A0
100
AcDbEntity
100
AcDbLine
  8
0
 62
256
370
-1
 48
1.0
  6
BYLAYER
 10
194.6820137706705225
 20
51.5484423001535674
 30
0.0
 11
198.7333088749617787
 21
51.5484423001535674
 31
0.0
  0
LINE
  5
1A1
100
AcDbEntity
100
AcDbLine
  8
0
 62
256
370
-1
 48
1.0
  6
BYLAYER
 10
200.9457433718845891
 20
46.1584423001544195
 30
0.0
 11
201.3954850988889689
 21
46.937417821609742
 31
0.0
  0
ARC
  5
1A2
100
AcDbEntity
  8
0
 62
256
370
-1
 48
1.0
  6
BYLAYER
100
AcDbCircle
 10
200.0970384761758964
 20
46.6484423001544144
 30
0.0
 40
0.9799999999999999
100
AcDbArc
 50
270.0
 51
330.0000000000138698
  0
LINE
  5
1A3
100
AcDbEntity
100
AcDbLine
  8
0
 62
256
370
-1
 48
1.0
  6
BYLAYER
 10
201.3954850988889689
 20
47.6724178216097272
 30
0.0
 11
199.3698375467433834
 21
51.180942300153589
 31
0.0
  0
ARC
  5
1A4
100
AcDbEntity
  8
0
 62
256
370
-1
 48
1.0
  6
BYLAYER
100
AcDbCircle
 10
200.7589564271073641
 20
47.3049178216098198
 30
0.0
 40
0.7349999999999999
100
AcDbArc
 50
330.0000000000138698
 51
29.9999999999859206
  0
LINE
  5
1A5
100
AcDbEntity
100
AcDbLine
  8
0
 62
256
370
-1
 48
1.0
  6
BYLAYER
 10
200.0970384761758396
 20
45.6684423001544388
 30
0.0
 11
193.3182841694563479
 21
45.6684423001544388
 31
0.0
  0
LINE
  5
1A6
100
AcDbEntity
100
AcDbLine
  8
0
 62
256
370
-1
 48
1.0
  6
BYLAYER
 10
156.469579273747712
 20
46.1584423001544621
 30
0.0
 11
156.0198375467433891
 21
46.9374178216097562
 31
0.0
  0
ARC
  5
1A7
100
AcDbEntity
  8
0
 62
256
370
-1
 48
1.0
  6
BYLAYER
100
AcDbCircle
 10
157.3182841694563763
 20
46.6484423001544428
 30
0.0
 40
0.9799999999999999
100
AcDbArc
 50
209.9999999999858176
 51
270.0
  0
LINE
  5
1A8
100
AcDbEntity
100
AcDbLine
  8
0
 62
256
370
-1
 48
1.0
  6
BYLAYER
 10
156.019837546743446
 20
47.6724178216097698
 30
0.0
 11
158.0454850988889177
 21
51.180942300153589
 31
0.0
  0
ARC
  5
1A9
100
AcDbEntity
  8
0
 62
256
370
-1
 48
1.0
  6
BYLAYER
100
AcDbCircle
 10
156.6563662185249939
 20
47.3049178216098198
 30
0.0
 40
0.7349999999999999
100
AcDbArc
 50
150.0000000000140687
 51
209.9999999999858176
  0
ARC
  5
1AA
100
AcDbEntity
  8
0
 62
256
370
-1
 48
1.0
  6
BYLAYER
100
AcDbCircle
 10
158.6820137706704941
 20
50.8134423001536106
 30
0.0
 40
0.7349999999999999
100
AcDbArc
 50
90.0
 51
150.0000000000140687
  0
ARC
  5
1AB
100
AcDbEntity
  8
0
 62
256
370
-1
 48
1.0
  6
BYLAYER
100
AcDbCircle
 10
162.7333088749617502
 20
50.8134423001535822
 30
0.0
 40
0.7349999999999999
100
AcDbArc
 50
29.9999999999859206
 51
90.0
  0
LINE
  5
1AC
100
AcDbEntity
100
AcDbLine
  8
0
 62
256
370
-1
 48
1.0
  6
BYLAYER
 10
158.6820137706704088
 20
51.5484423001535959
 30
0.0
 11
162.7333088749617787
 21
51.5484423001535959
 31
0.0
  0
LINE
  5
1AD
100
AcDbEntity
100
AcDbLine
  8
0
 62
256
370
-1
 48
1.0
  6
BYLAYER
 10
164.9457433718845891
 20
46.1584423001544337
 30
0.0
 11
165.395485098888912
 21
46.937417821609742
 31
0.0
  0
ARC
  5
1AE
100
AcDbEntity
  8
0
 62
256
370
-1
 48
1.0
  6
BYLAYER
100
AcDbCircle
 10
164.0970384761759533
 20
46.6484423001544286
 30
0.0
 40
0.9799999999999999
100
AcDbArc
 50
270.0
 51
330.0000000000138698
  0
LINE
  5
1AF
100
AcDbEntity
100
AcDbLine
  8
0
 62
256
370
-1
 48
1.0
  6
BYLAYER
 10
165.3954850988890257
 20
47.6724178216097556
 30
0.0
 11
163.3698375467433834
 21
51.180942300153589
 31
0.0
  0
ARC
  5
1B0
100
AcDbEntity
  8
0
 62
256
370
-1
 48
1.0
  6
BYLAYER
100
AcDbCircle
 10
164.7589564271073641
 20
47.3049178216098198
 30
0.0
 40
0.7349999999999999
100
AcDbArc
 50
330.0000000000138698
 51
29.9999999999859206
  0
LINE
  5
1B1
100
AcDbEntity
100
AcDbLine
  8
0
 62
256
370
-1
 48
1.0
  6
BYLAYER
 10
164.0970384761758112
 20
45.6684423001544531
 30
0.0
 11
157.3182841694562342
 21
45.6684423001544531
 31
0.0
  0
CIRCLE
  5
1B2
100
AcDbEntity
100
AcDbCircle
  8
0
 62
256
370
-1
 48
1.0
  6
BYLAYER
 10
201.7076613228161079
 20
-20.391557699846004
 30
0.0
 40
1.6000000000000001
  0
CIRCLE
  5
1B3
100
AcDbEntity
100
AcDbCircle
  8
0
 62
256
370
-1
 48
1.0
  6
BYLAYER
 10
155.7076613228161079
 20
-20.3915576998459755
 30
0.0
 40
1.6000000000000001
  0
CIRCLE
  5
1B4
100
AcDbEntity
100
AcDbCircle
  8
0
 62
256
370
-1
 48
1.0
  6
BYLAYER
 10
201.7076613228161364
 20
54.6084423001540245
 30
0.0
 40
1.6000000000000001
  0
CIRCLE
  5
1B5
100
AcDbEntity
100
AcDbCircle
  8
0
 62
256
370
-1
 48
1.0
  6
BYLAYER
 10
155.7076613228161364
 20
54.6084423001540245
 30
0.0
 40
1.6000000000000001
  0
CIRCLE
  5
1B6
100
AcDbEntity
100
AcDbCircle
  8
0
 62
256
370
-1
 48
1.0
  6
BYLAYER
 10
155.7076613228161079
 20
-1.3915576998459755
 30
0.0
 40
1.6000000000000001
  0
LINE
  5
1B7
100
AcDbEntity
100
AcDbLine
  8
0
 62
256
370
-1
 48
1.0
  6
BYLAYER
 10
198.6292635483878541
 20
-4.0282501356425584
 30
0.0
 11
201.5718676348002418
 21
-10.4805712522627346
 31
0.0
  0
ARC
  5
1B8
100
AcDbEntity
  8
0
 62
256
370
-1
 48
1.0
  6
BYLAYER
100
AcDbCircle
 10
196.8095658317055836
 20
-4.8581297774588919
 30
0.0
 40
2.0
100
AcDbArc
 50
24.5155267770428615
 51
145.0097680446515085
  0
ARC
  5
1B9
100
AcDbEntity
  8
0
 62
256
370
-1
 48
1.0
  6
BYLAYER
100
AcDbCircle
 10
200.2070943472884608
 20
-11.1029809836249633
 30
0.0
 40
1.5
100
AcDbArc
 50
324.5155267770287537
 51
24.5155267770428615
  0
LINE
  5
1BA
100
AcDbEntity
100
AcDbLine
  8
0
 62
256
370
-1
 48
1.0
  6
BYLAYER
 10
201.4285036299665421
 20
-11.9737044553353869
 30
0.0
 11
197.6345302083571767
 21
-17.2957090939433975
 31
0.0
  0
ARC
  5
1BB
100
AcDbEntity
  8
0
 62
256
370
-1
 48
1.0
  6
BYLAYER
100
AcDbCircle
 10
196.4131209256790385
 20
-16.4249856222330912
 30
0.0
 40
1.5
100
AcDbArc
 50
204.5155267770428793
 51
324.5155267770287537
  0
LINE
  5
1BC
100
AcDbEntity
100
AcDbLine
  8
0
 62
256
370
-1
 48
1.0
  6
BYLAYER
 10
195.0483476381672858
 20
-17.0473953535953449
 30
0.0
 11
191.8885305816614562
 21
-10.1187859587763818
 31
0.0
  0
ARC
  5
1BD
100
AcDbEntity
  8
0
 62
256
370
-1
 48
1.0
  6
BYLAYER
100
AcDbCircle
 10
193.7082282983437551
 20
-9.2889063169600519
 30
0.0
 40
2.0
100
AcDbArc
 50
145.0097680446515085
 51
204.5155267770428793
  0
LINE
  5
1BE
100
AcDbEntity
100
AcDbLine
  8
0
 62
256
370
-1
 48
1.0
  6
BYLAYER
 10
195.1710661951063344
 20
-3.7112562269466629
 30
0.0
 11
192.0697275329642366
 21
-8.1420337056663783
 31
0.0
  0
CIRCLE
  5
1BF
100
AcDbEntity
100
AcDbCircle
  8
0
 62
256
370
-1
 48
1.0
  6
BYLAYER
 10
201.7076613228161079
 20
-1.3915576998459898
 30
0.0
 40
1.6000000000000001
  0
CIRCLE
  5
1C0
100
AcDbEntity
100
AcDbCircle
  8
0
 62
256
370
-1
 48
1.0
  6
BYLAYER
 10
166.7076613228161079
 20
-1.3915576998459755
 30
0.0
 40
1.6000000000000001
  0
CIRCLE
  5
1C1
100
AcDbEntity
100
AcDbCircle
  8
0
 62
256
370
-1
 48
1.0
  6
BYLAYER
 10
190.7076613228161079
 20
-1.3915576998459827
 30
0.0
 40
1.6000000000000001
  0
CIRCLE
  5
1C2
100
AcDbEntity
100
AcDbCircle
  8
0
 62
256
370
-1
 48
1.0
  6
BYLAYER
 10
190.7076613228161079
 20
-20.3915576998459898
 30
0.0
 40
1.6000000000000001
  0
CIRCLE
  5
1C3
100
AcDbEntity
100
AcDbCircle
  8
0
 62
256
370
-1
 48
1.0
  6
BYLAYER
 10
166.7076613228161079
 20
-20.3915576998459862
 30
0.0
 40
1.6000000000000001
  0
LWPOLYLINE
  5
1C4
  8
0
 62
256
370
-1
 48
1.0
  6
BYLAYER
100
AcDbEntity
100
AcDbPolyline
 90
2
 70
0
 10
65.5493098842044333
 20
38.0462480562450338
 30
0.0
 10
65.5493098842044333
 20
38.0462480562450338
 30
0.0
  0
LWPOLYLINE
  5
1C5
  8
0
 62
256
370
-1
 48
1.0
  6
BYLAYER
100
AcDbEntity
100
AcDbPolyline
 90
2
 70
0
 10
72.0493098842044333
 20
39.5462480562450196
 30
0.0
 42
-0.4142135623730951
 10
73.5493098842044333
 20
38.0462480562449912
 30
0.0
  0
LWPOLYLINE
  5
1C6
  8
0
 62
256
370
-1
 48
1.0
  6
BYLAYER
100
AcDbEntity
100
AcDbPolyline
 90
2
 70
0
 10
73.5493098842044333
 20
38.0462480562449912
 30
0.0
 10
73.5493098842044333
 20
38.0462480562449912
 30
0.0
  0
LWPOLYLINE
  5
1C7
  8
0
 62
256
370
-1
 48
1.0
  6
BYLAYER
100
AcDbEntity
100
AcDbPolyline
 90
2
 70
0
 10
73.5493098842044333
 20
38.0462480562449912
 30
0.0
 42
-0.4142135623730951
 10
72.0493098842044333
 20
36.5462480562449699
 30
0.0
  0
LWPOLYLINE
  5
1C8
  8
0
 62
256
370
-1
 48
1.0
  6
BYLAYER
100
AcDbEntity
100
AcDbPolyline
 90
2
 70
0
 10
67.0493098842044333
 20
36.5462480562450764
 30
0.0
 42
-0.4142135623730951
 10
65.5493098842044333
 20
38.0462480562450338
 30
0.0
  0
LWPOLYLINE
  5
1C9
  8
0
 62
256
370
-1
 48
1.0
  6
BYLAYER
100
AcDbEntity
100
AcDbPolyline
 90
2
 70
0
 10
65.5493098842044333
 20
38.0462480562450338
 30
0.0
 42
-0.4142135623730951
 10
67.0493098842044333
 20
39.5462480562450196
 30
0.0
  0
LINE
  5
1CA
100
AcDbEntity
100
AcDbLine
  8
0
 62
256
370
-1
 48
1.0
  6
BYLAYER
 10
67.0493098842044333
 20
39.5462480562450196
 30
0.0
 11
72.0493098842044333
 21
39.5462480562450196
 31
0.0
  0
LINE
  5
1CB
100
AcDbEntity
100
AcDbLine
  8
0
 62
256
370
-1
 48
1.0
  6
BYLAYER
 10
67.0493098842044333
 20
36.5462480562449699
 30
0.0
 11
72.0493098842044333
 21
36.5462480562449699
 31
0.0
  0
LWPOLYLINE
  5
1CC
  8
0
 62
256
370
-1
 48
1.0
  6
BYLAYER
100
AcDbEntity
100
AcDbPolyline
 90
2
 70
0
 10
38.4499999999999957
 20
37.9999999999999787
 30
0.0
 10
38.4499999999999957
 20
37.9999999999999787
 30
0.0
  0
LWPOLYLINE
  5
1CD
  8
0
 62
256
370
-1
 48
1.0
  6
BYLAYER
100
AcDbEntity
100
AcDbPolyline
 90
2
 70
0
 10
44.9499999999999957
 20
39.4999999999999645
 30
0.0
 42
-0.4142135623730951
 10
46.4499999999999957
 20
37.9999999999999361
 30
0.0
  0
LWPOLYLINE
  5
1CE
  8
0
 62
256
370
-1
 48
1.0
  6
BYLAYER
100
AcDbEntity
100
AcDbPolyline
 90
2
 70
0
 10
46.4499999999999957
 20
37.9999999999999361
 30
0.0
 10
46.4499999999999957
 20
37.9999999999999361
 30
0.0
  0
LWPOLYLINE
  5
1CF
  8
0
 62
256
370
-1
 48
1.0
  6
BYLAYER
100
AcDbEntity
100
AcDbPolyline
 90
2
 70
0
 10
46.4499999999999957
 20
37.9999999999999361
 30
0.0
 42
-0.4142135623730951
 10
44.9499999999999957
 20
36.4999999999999147
 30
0.0
  0
LWPOLYLINE
  5
1D0
  8
0
 62
256
370
-1
 48
1.0
  6
BYLAYER
100
AcDbEntity
100
AcDbPolyline
 90
2
 70
0
 10
39.9499999999999957
 20
36.5000000000000213
 30
0.0
 42
-0.4142135623730951
 10
38.4499999999999957
 20
37.9999999999999787
 30
0.0
  0
LWPOLYLINE
  5
1D1
  8
0
 62
256
370
-1
 48
1.0
  6
BYLAYER
100
AcDbEntity
100
AcDbPolyline
 90
2
 70
0
 10
38.4499999999999957
 20
37.9999999999999787
 30
0.0
 42
-0.4142135623730951
 10
39.9499999999999957
 20
39.4999999999999645
 30
0.0
  0
LINE
  5
1D2
100
AcDbEntity
100
AcDbLine
  8
0
 62
256
370
-1
 48
1.0
  6
BYLAYER
 10
39.9499999999999957
 20
39.4999999999999645
 30
0.0
 11
44.9499999999999957
 21
39.4999999999999645
 31
0.0
  0
LINE
  5
1D3
100
AcDbEntity
100
AcDbLine
  8
0
 62
256
370
-1
 48
1.0
  6
BYLAYER
 10
39.9499999999999957
 20
36.4999999999999147
 30
0.0
 11
44.9499999999999957
 21
36.4999999999999147
 31
0.0
  0
LWPOLYLINE
  5
1D4
  8
0
 62
256
370
-1
 48
1.0
  6
BYLAYER
100
AcDbEntity
100
AcDbPolyline
 90
2
 70
0
 10
38.4499999999999957
 20
70.0
 30
0.0
 10
38.4499999999999957
 20
70.0
 30
0.0
  0
LWPOLYLINE
  5
1D5
  8
0
 62
256
370
-1
 48
1.0
  6
BYLAYER
100
AcDbEntity
100
AcDbPolyline
 90
2
 70
0
 10
44.9499999999999957
 20
71.5
 30
0.0
 42
-0.4142135623730951
 10
46.4499999999999957
 20
69.9999999999999716
 30
0.0
  0
LWPOLYLINE
  5
1D6
  8
0
 62
256
370
-1
 48
1.0
  6
BYLAYER
100
AcDbEntity
100
AcDbPolyline
 90
2
 70
0
 10
46.4499999999999957
 20
69.9999999999999716
 30
0.0
 10
46.4499999999999957
 20
69.9999999999999716
 30
0.0
  0
LWPOLYLINE
  5
1D7
  8
0
 62
256
370
-1
 48
1.0
  6
BYLAYER
100
AcDbEntity
100
AcDbPolyline
 90
2
 70
0
 10
46.4499999999999957
 20
69.9999999999999716
 30
0.0
 42
-0.4142135623730951
 10
44.9499999999999957
 20
68.4999999999999432
 30
0.0
  0
LWPOLYLINE
  5
1D8
  8
0
 62
256
370
-1
 48
1.0
  6
BYLAYER
100
AcDbEntity
100
AcDbPolyline
 90
2
 70
0
 10
39.9499999999999957
 20
68.5000000000000568
 30
0.0
 42
-0.4142135623730951
 10
38.4499999999999957
 20
70.0
 30
0.0
  0
LWPOLYLINE
  5
1D9
  8
0
 62
256
370
-1
 48
1.0
  6
BYLAYER
100
AcDbEntity
100
AcDbPolyline
 90
2
 70
0
 10
38.4499999999999957
 20
70.0
 30
0.0
 42
-0.4142135623730951
 10
39.9499999999999957
 20
71.5
 30
0.0
  0
LINE
  5
1DA
100
AcDbEntity
100
AcDbLine
  8
0
 62
256
370
-1
 48
1.0
  6
BYLAYER
 10
39.9499999999999957
 20
71.5
 30
0.0
 11
44.9499999999999957
 21
71.5
 31
0.0
  0
LINE
  5
1DB
100
AcDbEntity
100
AcDbLine
  8
0
 62
256
370
-1
 48
1.0
  6
BYLAYER
 10
39.9499999999999957
 20
68.4999999999999432
 30
0.0
 11
44.9499999999999957
 21
68.4999999999999432
 31
0.0
  0
LWPOLYLINE
  5
1DC
  8
0
 62
256
370
-1
 48
1.0
  6
BYLAYER
100
AcDbEntity
100
AcDbPolyline
 90
2
 70
0
 10
65.5499999999999972
 20
70.0000000000000284
 30
0.0
 10
65.5499999999999972
 20
70.0000000000000284
 30
0.0
  0
LWPOLYLINE
  5
1DD
  8
0
 62
256
370
-1
 48
1.0
  6
BYLAYER
100
AcDbEntity
100
AcDbPolyline
 90
2
 70
0
 10
72.0499999999999972
 20
71.5000000000000142
 30
0.0
 42
-0.4142135623730951
 10
73.5499999999999972
 20
69.9999999999999858
 30
0.0
  0
LWPOLYLINE
  5
1DE
  8
0
 62
256
370
-1
 48
1.0
  6
BYLAYER
100
AcDbEntity
100
AcDbPolyline
 90
2
 70
0
 10
73.5499999999999972
 20
69.9999999999999858
 30
0.0
 10
73.5499999999999972
 20
69.9999999999999858
 30
0.0
  0
LWPOLYLINE
  5
1DF
  8
0
 62
256
370
-1
 48
1.0
  6
BYLAYER
100
AcDbEntity
100
AcDbPolyline
 90
2
 70
0
 10
73.5499999999999972
 20
69.9999999999999858
 30
0.0
 42
-0.4142135623730951
 10
72.0499999999999972
 20
68.4999999999999716
 30
0.0
  0
LWPOLYLINE
  5
1E0
  8
0
 62
256
370
-1
 48
1.0
  6
BYLAYER
100
AcDbEntity
100
AcDbPolyline
 90
2
 70
0
 10
67.0499999999999972
 20
68.5000000000000711
 30
0.0
 42
-0.4142135623730951
 10
65.5499999999999972
 20
70.0000000000000284
 30
0.0
  0
LWPOLYLINE
  5
1E1
  8
0
 62
256
370
-1
 48
1.0
  6
BYLAYER
100
AcDbEntity
100
AcDbPolyline
 90
2
 70
0
 10
65.5499999999999972
 20
70.0000000000000284
 30
0.0
 42
-0.4142135623730951
 10
67.0499999999999972
 20
71.5000000000000142
 30
0.0
  0
LINE
  5
1E2
100
AcDbEntity
100
AcDbLine
  8
0
 62
256
370
-1
 48
1.0
  6
BYLAYER
 10
67.0499999999999972
 20
71.5000000000000142
 30
0.0
 11
72.0499999999999972
 21
71.5000000000000142
 31
0.0
  0
LINE
  5
1E3
100
AcDbEntity
100
AcDbLine
  8
0
 62
256
370
-1
 48
1.0
  6
BYLAYER
 10
67.0499999999999972
 20
68.4999999999999716
 30
0.0
 11
72.0499999999999972
 21
68.4999999999999716
 31
0.0
  0
CIRCLE
  5
1E4
100
AcDbEntity
100
AcDbCircle
  8
0
 62
256
370
-1
 48
1.0
  6
BYLAYER
 10
30.097746892655671
 20
74.4268993631228284
 30
0.0
 40
1.55
  0
CIRCLE
  5
1E5
100
AcDbEntity
100
AcDbCircle
  8
0
 62
256
370
-1
 48
1.0
  6
BYLAYER
 10
81.9999999999999574
 20
74.4268993631228142
 30
0.0
 40
1.55
  0
ENDSEC
  0
SECTION
  2
OBJECTS
  0
DICTIONARY
  5
C
100
AcDbDictionary
280
0
281
1
  3
ACAD_GROUP
350
D
  3
ACAD_LAYOUT
350
1A
  3
ACAD_MLINESTYLE
350
17
  3
ACAD_PLOTSETTINGS
350
19
  3
ACAD_PLOTSTYLENAME
350
E
  3
AcDbVariableDictionary
350
1E6
  3
QCAD_OBJECTS
350
1E7
  0
DICTIONARY
  5
D
100
AcDbDictionary
280
0
281
1
  0
ACDBDICTIONARYWDFLT
  5
E
100
AcDbDictionary
281
1
  3
Normal
350
F
100
AcDbDictionaryWithDefault
340
F
  0
ACDBPLACEHOLDER
  5
F
  0
DICTIONARY
  5
17
100
AcDbDictionary
280
0
281
1
  3
Standard
350
18
  0
MLINESTYLE
  5
18
100
AcDbMlineStyle
  2
STANDARD
 70
0
  3

 62
256
 51
90.0
 52
90.0
 71
2
 49
0.5
 62
256
  6
BYLAYER
 49
-0.5
 62
256
  6
BYLAYER
  0
DICTIONARY
  5
19
100
AcDbDictionary
280
0
281
1
  0
DICTIONARY
  5
1A
100
AcDbDictionary
281
1
  3
Layout1
350
1E
  3
Layout2
350
26
  3
Model
350
22
  0
LAYOUT
  5
1E
100
AcDbPlotSettings
  1

  2
none_device
  4

  6

 40
0.0
 41
0.0
 42
0.0
 43
0.0
 44
0.0
 45
0.0
 46
0.0
 47
0.0
 48
0.0
 49
0.0
140
0.0
141
0.0
142
1.0
143
1.0
 70
688
 72
0
 73
0
 74
5
  7

 75
16
147
1.0
148
0.0
149
0.0
100
AcDbLayout
  1
Layout1
 70
1
 71
1
 10
0.0
 20
0.0
 11
420.0
 21
297.0
 12
0.0
 22
0.0
 32
0.0
 14
100000000000000000000.0
 24
100000000000000000000.0
 34
100000000000000000000.0
 15
-100000000000000000000.0
 25
-100000000000000000000.0
 35
-100000000000000000000.0
146
0.0
 13
0.0
 23
0.0
 33
0.0
 16
1.0
 26
0.0
 36
0.0
 17
0.0
 27
1.0
 37
0.0
 76
0
330
1B
  0
LAYOUT
  5
22
100
AcDbPlotSettings
  1

  2
none_device
  4

  6

 40
0.0
 41
0.0
 42
0.0
 43
0.0
 44
0.0
 45
0.0
 46
0.0
 47
0.0
 48
0.0
 49
0.0
140
0.0
141
0.0
142
1.0
143
1.0
 70
1712
 72
0
 73
0
 74
0
  7

 75
0
147
1.0
148
0.0
149
0.0
100
AcDbLayout
  1
Model
 70
1
 71
0
 10
0.0
 20
0.0
 11
12.0
 21
9.0
 12
0.0
 22
0.0
 32
0.0
 14
0.0
 24
0.0
 34
0.0
 15
0.0
 25
0.0
 35
0.0
146
0.0
 13
0.0
 23
0.0
 33
0.0
 16
1.0
 26
0.0
 36
0.0
 17
0.0
 27
1.0
 37
0.0
 76
0
330
1F
  0
LAYOUT
  5
26
100
AcDbPlotSettings
  1

  2
none_device
  4

  6

 40
0.0
 41
0.0
 42
0.0
 43
0.0
 44
0.0
 45
0.0
 46
0.0
 47
0.0
 48
0.0
 49
0.0
140
0.0
141
0.0
142
1.0
143
1.0
 70
688
 72
0
 73
0
 74
5
  7

 75
16
147
1.0
148
0.0
149
0.0
100
AcDbLayout
  1
Layout2
 70
1
 71
2
 10
0.0
 20
0.0
 11
12.0
 21
9.0
 12
0.0
 22
0.0
 32
0.0
 14
0.0
 24
0.0
 34
0.0
 15
0.0
 25
0.0
 35
0.0
146
0.0
 13
0.0
 23
0.0
 33
0.0
 16
1.0
 26
0.0
 36
0.0
 17
0.0
 27
1.0
 37
0.0
 76
0
330
23
  0
DICTIONARY
  5
1E6
100
AcDbDictionary
281
1
  3
DIMASSOC
350
1E9
  3
HIDETEXT
350
1E8
  0
DICTIONARYVAR
  5
1E8
100
DictionaryVariables
280
0
  1
2
  0
DICTIONARYVAR
  5
1E9
100
DictionaryVariables
280
0
  1
1
  0
DICTIONARY
  5
1E7
100
AcDbDictionary
281
1
  3
ColorSettings/BackgroundColor
350
1EA
  3
ColorSettings/ColorMode
350
1EB
  3
Grid/DisplayGrid00
350
1EC
  3
Grid/DisplayGrid01
350
1ED
  3
Grid/DisplayGrid02
350
1EE
  3
Grid/DisplayGrid03
350
1EF
  3
Grid/GridSpacingX00
350
1F0
  3
Grid/GridSpacingX01
350
1F1
  3
Grid/GridSpacingX02
350
1F2
  3
Grid/GridSpacingX03
350
1F3
  3
Grid/GridSpacingY00
350
1F4
  3
Grid/GridSpacingY01
350
1F5
  3
Grid/GridSpacingY02
350
1F6
  3
Grid/GridSpacingY03
350
1F7
  3
Grid/IsometricGrid00
350
1F8
  3
Grid/IsometricGrid01
350
1F9
  3
Grid/IsometricGrid02
350
1FA
  3
Grid/IsometricGrid03
350
1FB
  3
Grid/IsometricProjection00
350
1FC
  3
Grid/IsometricProjection01
350
1FD
  3
Grid/IsometricProjection02
350
1FE
  3
Grid/IsometricProjection03
350
1FF
  3
Grid/MetaGridSpacingX00
350
200
  3
Grid/MetaGridSpacingX01
350
201
  3
Grid/MetaGridSpacingX02
350
202
  3
Grid/MetaGridSpacingX03
350
203
  3
Grid/MetaGridSpacingY00
350
204
  3
Grid/MetaGridSpacingY01
350
205
  3
Grid/MetaGridSpacingY02
350
206
  3
Grid/MetaGridSpacingY03
350
207
  3
MultiPageSettings/Columns
350
208
  3
MultiPageSettings/GlueMarginsBottom
350
209
  3
MultiPageSettings/GlueMarginsLeft
350
20A
  3
MultiPageSettings/GlueMarginsRight
350
20B
  3
MultiPageSettings/GlueMarginsTop
350
20C
  3
MultiPageSettings/PrintCropMarks
350
20D
  3
MultiPageSettings/Rows
350
20E
  3
PageSettings/OffsetX
350
20F
  3
PageSettings/OffsetY
350
210
  3
PageSettings/PageOrientation
350
211
  3
PageSettings/PaperHeight
350
212
  3
PageSettings/PaperWidth
350
213
  3
PageSettings/Scale
350
214
  3
PageSettings/ShowPaperBorders
350
215
  3
UnitSettings/PaperUnit
350
216
  0
XRECORD
  5
1EA
330
1E7
100
AcDbXrecord
280
1
1000
White
  0
XRECORD
  5
1EB
330
1E7
100
AcDbXrecord
280
1
1000
FullColor
  0
XRECORD
  5
1EC
330
1E7
100
AcDbXrecord
280
1
290
1
  0
XRECORD
  5
1ED
330
1E7
100
AcDbXrecord
280
1
290
1
  0
XRECORD
  5
1EE
330
1E7
100
AcDbXrecord
280
1
290
1
  0
XRECORD
  5
1EF
330
1E7
100
AcDbXrecord
280
1
290
1
  0
XRECORD
  5
1F0
330
1E7
100
AcDbXrecord
280
1
1000
auto
  0
XRECORD
  5
1F1
330
1E7
100
AcDbXrecord
280
1
1000
auto
  0
XRECORD
  5
1F2
330
1E7
100
AcDbXrecord
280
1
1000
auto
  0
XRECORD
  5
1F3
330
1E7
100
AcDbXrecord
280
1
1000
auto
  0
XRECORD
  5
1F4
330
1E7
100
AcDbXrecord
280
1
1000
auto
  0
XRECORD
  5
1F5
330
1E7
100
AcDbXrecord
280
1
1000
auto
  0
XRECORD
  5
1F6
330
1E7
100
AcDbXrecord
280
1
1000
auto
  0
XRECORD
  5
1F7
330
1E7
100
AcDbXrecord
280
1
1000
auto
  0
XRECORD
  5
1F8
330
1E7
100
AcDbXrecord
280
1
290
0
  0
XRECORD
  5
1F9
330
1E7
100
AcDbXrecord
280
1
290
0
  0
XRECORD
  5
1FA
330
1E7
100
AcDbXrecord
280
1
290
0
  0
XRECORD
  5
1FB
330
1E7
100
AcDbXrecord
280
1
290
0
  0
XRECORD
  5
1FC
330
1E7
100
AcDbXrecord
280
1
 90
0
  0
XRECORD
  5
1FD
330
1E7
100
AcDbXrecord
280
1
 90
0
  0
XRECORD
  5
1FE
330
1E7
100
AcDbXrecord
280
1
 90
0
  0
XRECORD
  5
1FF
330
1E7
100
AcDbXrecord
280
1
 90
0
  0
XRECORD
  5
200
330
1E7
100
AcDbXrecord
280
1
1000
auto
  0
XRECORD
  5
201
330
1E7
100
AcDbXrecord
280
1
1000
auto
  0
XRECORD
  5
202
330
1E7
100
AcDbXrecord
280
1
1000
auto
  0
XRECORD
  5
203
330
1E7
100
AcDbXrecord
280
1
1000
auto
  0
XRECORD
  5
204
330
1E7
100
AcDbXrecord
280
1
1000
auto
  0
XRECORD
  5
205
330
1E7
100
AcDbXrecord
280
1
1000
auto
  0
XRECORD
  5
206
330
1E7
100
AcDbXrecord
280
1
1000
auto
  0
XRECORD
  5
207
330
1E7
100
AcDbXrecord
280
1
1000
auto
  0
XRECORD
  5
208
330
1E7
100
AcDbXrecord
280
1
 90
1
  0
XRECORD
  5
209
330
1E7
100
AcDbXrecord
280
1
 40
10.0
  0
XRECORD
  5
20A
330
1E7
100
AcDbXrecord
280
1
 40
10.0
  0
XRECORD
  5
20B
330
1E7
100
AcDbXrecord
280
1
 40
10.0
  0
XRECORD
  5
20C
330
1E7
100
AcDbXrecord
280
1
 40
10.0
  0
XRECORD
  5
20D
330
1E7
100
AcDbXrecord
280
1
290
0
  0
XRECORD
  5
20E
330
1E7
100
AcDbXrecord
280
1
 90
1
  0
XRECORD
  5
20F
330
1E7
100
AcDbXrecord
280
1
 40
0.0
  0
XRECORD
  5
210
330
1E7
100
AcDbXrecord
280
1
 40
0.0
  0
XRECORD
  5
211
330
1E7
100
AcDbXrecord
280
1
1000
Portrait
  0
XRECORD
  5
212
330
1E7
100
AcDbXrecord
280
1
 40
297.0
  0
XRECORD
  5
213
330
1E7
100
AcDbXrecord
280
1
 40
210.0
  0
XRECORD
  5
214
330
1E7
100
AcDbXrecord
280
1
1000
1:1
  0
XRECORD
  5
215
330
1E7
100
AcDbXrecord
280
1
290
1
  0
XRECORD
  5
216
330
1E7
100
AcDbXrecord
280
1
 90
4
  0
ENDSEC
  0
EOF
