999
dxflib 3.7.5.0
  0
SECTION
  2
HEADER
  9
$ACADVER
  1
AC1015
  9
$HANDSEED
  5
FFFF
  9
$DIMADEC
 70
0
  9
$DIMASZ
 40
2.5
  9
$DIMAUNIT
 70
0
  9
$DIMAZIN
 70
2
  9
$DIMDEC
 70
4
  9
$DIMEXE
 40
1.25
  9
$DIMEXO
 40
0.625
  9
$DIMGAP
 40
0.625
  9
$DIMLUNIT
 70
2
  9
$DIMSCALE
 40
1.0
  9
$DIMTSZ
 40
0.0
  9
$DIMTXT
 40
2.5
  9
$DIMZIN
 70
8
  9
$DWGCODEPAGE
  3
ANSI_1252
  9
$INSUNITS
 70
4
  9
$LTSCALE
 40
1
  0
ENDSEC
  0
SECTION
  2
TABLES
  0
TABLE
  2
VPORT
  5
8
100
AcDbSymbolTable
 70
1
  0
VPORT
  5
30
100
AcDbSymbolTableRecord
100
AcDbViewportTableRecord
  2
*Active
 70
0
 10
0.0
 20
0.0
 11
1.0
 21
1.0
 12
286.3055555555554861
 22
148.5
 13
0.0
 23
0.0
 14
10.0
 24
10.0
 15
10.0
 25
10.0
 16
0.0
 26
0.0
 36
1.0
 17
0.0
 27
0.0
 37
0.0
 40
297.0
 41
1.92798353909465
 42
50.0
 43
0.0
 44
0.0
 50
0.0
 51
0.0
 71
0
 72
100
 73
1
 74
3
 75
1
 76
1
 77
0
 78
0
281
0
 65
1
110
0.0
120
0.0
130
0.0
111
1.0
121
0.0
131
0.0
112
0.0
122
1.0
132
0.0
 79
0
146
0.0
  0
ENDTAB
  0
TABLE
  2
LTYPE
  5
5
100
AcDbSymbolTable
 70
3
  0
LTYPE
  5
16
100
AcDbSymbolTableRecord
100
AcDbLinetypeTableRecord
  2
Continuous
 70
0
  3
Solid line
 72
65
 73
0
 40
0.0
  0
LTYPE
  5
15
100
AcDbSymbolTableRecord
100
AcDbLinetypeTableRecord
  2
BYLAYER
 70
0
  3

 72
65
 73
0
 40
0.0
  0
LTYPE
  5
14
100
AcDbSymbolTableRecord
100
AcDbLinetypeTableRecord
  2
BYBLOCK
 70
0
  3

 72
65
 73
0
 40
0.0
  0
ENDTAB
  0
TABLE
  2
LAYER
  5
2
100
AcDbSymbolTable
 70
1
  0
LAYER
  5
10
100
AcDbSymbolTableRecord
100
AcDbLayerTableRecord
  2
0
 70
0
 62
7
420
16777215
  6
Continuous
370
25
390
F
  0
ENDTAB
  0
TABLE
  2
STYLE
  5
3
100
AcDbSymbolTable
 70
1
  0
STYLE
  5
31
100
AcDbSymbolTableRecord
100
AcDbTextStyleTableRecord
  2
Standard
 70
0
 40
0.0
 41
1.0
 50
0.0
 71
0
 42
2.5
  3

  4

1001
ACAD
1000
txt
1071
0
  0
ENDTAB
  0
TABLE
  2
VIEW
  5
6
100
AcDbSymbolTable
 70
0
  0
ENDTAB
  0
TABLE
  2
UCS
  5
7
100
AcDbSymbolTable
 70
0
  0
ENDTAB
  0
TABLE
  2
APPID
  5
9
100
AcDbSymbolTable
 70
1
  0
APPID
  5
12
100
AcDbSymbolTableRecord
100
AcDbRegAppTableRecord
  2
ACAD
 70
0
  0
APPID
  5
32
100
AcDbSymbolTableRecord
100
AcDbRegAppTableRecord
  2
QCAD
 70
0
  0
ENDTAB
  0
TABLE
  2
DIMSTYLE
  5
A
100
AcDbSymbolTable
 70
1
100
AcDbDimStyleTable
 71
0
  0
DIMSTYLE
105
27
100
AcDbSymbolTableRecord
100
AcDbDimStyleTableRecord
  2
Standard
 41
2.5
 42
0.625
 43
3.75
 44
1.25
 70
0
 73
0
 74
0
 77
1
 78
8
140
2.5
141
2.5
143
0.03937007874016
147
0.625
171
3
172
1
271
2
272
2
274
3
278
44
283
0
284
8
340
31
  0
ENDTAB
  0
TABLE
  2
BLOCK_RECORD
  5
1
100
AcDbSymbolTable
 70
1
  0
BLOCK_RECORD
  5
1F
100
AcDbSymbolTableRecord
100
AcDbBlockTableRecord
  2
*Model_Space
340
22
  0
BLOCK_RECORD
  5
1B
100
AcDbSymbolTableRecord
100
AcDbBlockTableRecord
  2
*Paper_Space
340
1E
  0
BLOCK_RECORD
  5
23
100
AcDbSymbolTableRecord
100
AcDbBlockTableRecord
  2
*Paper_Space0
340
26
  0
ENDTAB
  0
ENDSEC
  0
SECTION
  2
BLOCKS
  0
BLOCK
  5
20
100
AcDbEntity
  8
0
100
AcDbBlockBegin
  2
*Model_Space
 70
0
 10
0.0
 20
0.0
 30
0.0
  3
*Model_Space
  1

  0
ENDBLK
  5
21
100
AcDbEntity
  8
0
100
AcDbBlockEnd
  0
BLOCK
  5
1C
100
AcDbEntity
 67
1
  8
0
100
AcDbBlockBegin
  2
*Paper_Space
 70
0
 10
0.0
 20
0.0
 30
0.0
  3
*Paper_Space
  1

  0
ENDBLK
  5
1D
100
AcDbEntity
 67
1
  8
0
100
AcDbBlockEnd
  0
BLOCK
  5
24
100
AcDbEntity
  8
0
100
AcDbBlockBegin
  2
*Paper_Space0
 70
0
 10
0.0
 20
0.0
 30
0.0
  3
*Paper_Space0
  1

  0
ENDBLK
  5
25
100
AcDbEntity
  8
0
100
AcDbBlockEnd
  0
ENDSEC
  0
SECTION
  2
ENTITIES
  0
ARC
  5
33
100
AcDbEntity
  8
0
 62
256
370
-1
 48
1.0
  6
BYLAYER
100
AcDbCircle
 10
308.5548951129752595
 20
93.0917627550932849
 30
0.0
 40
1.0
100
AcDbArc
 50
135.0000000000091234
 51
315.0000000000090949
  0
ARC
  5
34
100
AcDbEntity
  8
0
 62
256
370
-1
 48
1.0
  6
BYLAYER
100
AcDbCircle
 10
310.1458853706448622
 20
94.682753012763385
 30
0.0
 40
1.0
100
AcDbArc
 50
315.0000000000090949
 51
135.0000000000091234
  0
LINE
  5
35
100
AcDbEntity
100
AcDbLine
  8
0
 62
256
370
-1
 48
1.0
  6
BYLAYER
 10
307.8477883317890473
 20
93.7988695362798381
 30
0.0
 11
309.43877858945865
 21
95.3898597939495119
 31
0.0
  0
LINE
  5
36
100
AcDbEntity
100
AcDbLine
  8
0
 62
256
370
-1
 48
1.0
  6
BYLAYER
 10
309.2620018941619833
 20
92.3846559739066038
 30
0.0
 11
310.8529921518315859
 21
93.9756462315765759
 31
0.0
  0
ARC
  5
37
100
AcDbEntity
  8
0
 62
256
370
-1
 48
1.0
  6
BYLAYER
100
AcDbCircle
 10
283.0990509902598546
 20
67.6359186323777948
 30
0.0
 40
1.0
100
AcDbArc
 50
315.0000000000090949
 51
135.0000000000091234
  0
ARC
  5
38
100
AcDbEntity
  8
0
 62
256
370
-1
 48
1.0
  6
BYLAYER
100
AcDbCircle
 10
281.508060732590252
 20
66.0449283747078368
 30
0.0
 40
1.0
100
AcDbArc
 50
135.0000000000091234
 51
315.0000000000090949
  0
LINE
  5
39
100
AcDbEntity
100
AcDbLine
  8
0
 62
256
370
-1
 48
1.0
  6
BYLAYER
 10
282.3919442090731877
 20
68.3430254135640212
 30
0.0
 11
280.8009539514036419
 21
66.7520351558946032
 31
0.0
  0
LINE
  5
3A
100
AcDbEntity
100
AcDbLine
  8
0
 62
256
370
-1
 48
1.0
  6
BYLAYER
 10
283.8061577714464647
 20
66.9288118511910852
 30
0.0
 11
282.2151675137769189
 21
65.3378215935211841
 31
0.0
  0
ARC
  5
3B
100
AcDbEntity
  8
0
 62
256
370
-1
 48
1.0
  6
BYLAYER
100
AcDbCircle
 10
308.5548951129752595
 20
67.6359186323773542
 30
0.0
 40
1.0
100
AcDbArc
 50
45.0000000000277396
 51
225.0000000000277396
  0
ARC
  5
3C
100
AcDbEntity
  8
0
 62
256
370
-1
 48
1.0
  6
BYLAYER
100
AcDbCircle
 10
310.1458853706453738
 20
66.0449283747078084
 30
0.0
 40
1.0
100
AcDbArc
 50
225.0000000000277396
 51
45.0000000000277396
  0
LINE
  5
3D
100
AcDbEntity
100
AcDbLine
  8
0
 62
256
370
-1
 48
1.0
  6
BYLAYER
 10
309.2620018941619833
 20
68.3430254135641775
 30
0.0
 11
310.8529921518315859
 21
66.7520351558943901
 31
0.0
  0
LINE
  5
3E
100
AcDbEntity
100
AcDbLine
  8
0
 62
256
370
-1
 48
1.0
  6
BYLAYER
 10
307.8477883317886494
 20
66.9288118511906447
 30
0.0
 11
309.4387785894585932
 21
65.3378215935213404
 31
0.0
  0
ARC
  5
3F
100
AcDbEntity
  8
0
 62
256
370
-1
 48
1.0
  6
BYLAYER
100
AcDbCircle
 10
283.0990509902598546
 20
93.0917627550933418
 30
0.0
 40
1.0
100
AcDbArc
 50
225.0000000000277396
 51
45.0000000000277396
  0
ARC
  5
40
100
AcDbEntity
  8
0
 62
256
370
-1
 48
1.0
  6
BYLAYER
100
AcDbCircle
 10
281.5080607325903088
 20
94.6827530127629302
 30
0.0
 40
1.0
100
AcDbArc
 50
45.0000000000277396
 51
225.0000000000277396
  0
LINE
  5
41
100
AcDbEntity
100
AcDbLine
  8
0
 62
256
370
-1
 48
1.0
  6
BYLAYER
 10
283.8061577714464647
 20
93.7988695362794971
 30
0.0
 11
282.2151675137765778
 21
95.3898597939495403
 31
0.0
  0
LINE
  5
42
100
AcDbEntity
100
AcDbLine
  8
0
 62
256
370
-1
 48
1.0
  6
BYLAYER
 10
282.3919442090732446
 20
92.3846559739065754
 30
0.0
 11
280.8009539514036419
 21
93.9756462315762064
 31
0.0
  0
LWPOLYLINE
  5
43
  8
0
 62
256
370
-1
 48
1.0
  6
BYLAYER
100
AcDbEntity
100
AcDbPolyline
 90
12
 70
1
 10
293.0769730516171876
 20
93.3949296069810515
 30
0.0
 10
285.9167190137726493
 20
89.2609550107653433
 30
0.0
 42
0.2679491924311264
 10
283.1667190137726493
 20
84.4978152899510491
 30
0.0
 10
283.1667190137726493
 20
76.2298660975198032
 30
0.0
 42
0.2679491924311259
 10
285.9167190137726493
 20
71.4667263767054948
 30
0.0
 10
293.0769730516171876
 20
67.3327517804899003
 30
0.0
 42
0.2679491924311232
 10
298.5769730516170739
 20
67.3327517804899998
 30
0.0
 10
305.7372270894615554
 20
71.4667263767054095
 30
0.0
 42
0.2679491924311264
 10
308.4872270894615554
 20
76.2298660975198032
 30
0.0
 10
308.4872270894615554
 20
84.4978152899509922
 30
0.0
 42
0.2679491924311259
 10
305.7372270894615554
 20
89.2609550107654854
 30
0.0
 10
298.5769730516170739
 20
93.3949296069810089
 30
0.0
 42
0.2679491924311232
  0
LINE
  5
44
100
AcDbEntity
100
AcDbLine
  8
0
 62
256
370
-1
 48
1.0
  6
BYLAYER
 10
275.8269730516175855
 20
62.3638406937356748
 30
0.0
 11
315.8269730516175855
 21
62.3638406937298484
 31
0.0
  0
LINE
  5
45
100
AcDbEntity
100
AcDbLine
  8
0
 62
256
370
-1
 48
1.0
  6
BYLAYER
 10
275.8269730516175855
 20
98.3638406937353693
 30
0.0
 11
285.8269730516176423
 21
98.363840693735284
 31
0.0
  0
LINE
  5
46
100
AcDbEntity
100
AcDbLine
  8
0
 62
256
370
-1
 48
1.0
  6
BYLAYER
 10
305.8269730516176423
 20
98.3638406937352698
 30
0.0
 11
315.8269730516175855
 21
98.3638406937353125
 31
0.0
  0
LINE
  5
47
100
AcDbEntity
100
AcDbLine
  8
0
 62
256
370
-1
 48
1.0
  6
BYLAYER
 10
285.8269730516176423
 20
98.363840693735284
 30
0.0
 11
285.8269730516175855
 21
100.3638406937353409
 31
0.0
  0
LINE
  5
48
100
AcDbEntity
100
AcDbLine
  8
0
 62
256
370
-1
 48
1.0
  6
BYLAYER
 10
305.8269730516176423
 20
98.3638406937352698
 30
0.0
 11
305.8269730516175855
 21
100.3638406937353551
 31
0.0
  0
LINE
  5
49
100
AcDbEntity
100
AcDbLine
  8
0
 62
256
370
-1
 48
1.0
  6
BYLAYER
 10
299.8269730516175855
 20
100.3638406937352983
 30
0.0
 11
305.8269730516175855
 21
100.3638406937353551
 31
0.0
  0
LINE
  5
4A
100
AcDbEntity
100
AcDbLine
  8
0
 62
256
370
-1
 48
1.0
  6
BYLAYER
 10
285.8269730516175855
 20
100.3638406937353409
 30
0.0
 11
291.8269730516176423
 21
100.363840693735284
 31
0.0
  0
LINE
  5
4B
100
AcDbEntity
100
AcDbLine
  8
0
 62
256
370
-1
 48
1.0
  6
BYLAYER
 10
299.8269730516175855
 20
98.363840693735284
 30
0.0
 11
299.8269730516175855
 21
100.3638406937352983
 31
0.0
  0
LINE
  5
4C
100
AcDbEntity
100
AcDbLine
  8
0
 62
256
370
-1
 48
1.0
  6
BYLAYER
 10
291.8269730516175855
 20
98.3638406937353125
 30
0.0
 11
291.8269730516176423
 21
100.363840693735284
 31
0.0
  0
LINE
  5
4D
100
AcDbEntity
100
AcDbLine
  8
0
 62
256
370
-1
 48
1.0
  6
BYLAYER
 10
291.8269730516175855
 20
98.3638406937353125
 30
0.0
 11
299.8269730516175855
 21
98.363840693735284
 31
0.0
  0
LINE
  5
4E
100
AcDbEntity
100
AcDbLine
  8
0
 62
256
370
-1
 48
1.0
  6
BYLAYER
 10
240.5567979690301286
 20
108.5179085315395753
 30
0.0
 11
240.556797969030157
 21
120.6179085315395696
 31
0.0
  0
LINE
  5
4F
100
AcDbEntity
100
AcDbLine
  8
0
 62
256
370
-1
 48
1.0
  6
BYLAYER
 10
240.1279626883392666
 20
170.4399151369169942
 30
0.0
 11
262.6279626883392098
 21
170.4399151369170795
 31
0.0
  0
LINE
  5
50
100
AcDbEntity
100
AcDbLine
  8
0
 62
256
370
-1
 48
1.0
  6
BYLAYER
 10
339.7619218572309592
 20
170.4399151369168521
 30
0.0
 11
362.2619218572309592
 21
170.4399151369169658
 31
0.0
  0
LINE
  5
51
100
AcDbEntity
100
AcDbLine
  8
0
 62
256
370
-1
 48
1.0
  6
BYLAYER
 10
339.7619218572309592
 20
170.4399151369168521
 30
0.0
 11
332.69085404536537
 21
163.3688473250515756
 31
0.0
  0
LINE
  5
52
100
AcDbEntity
100
AcDbLine
  8
0
 62
256
370
-1
 48
1.0
  6
BYLAYER
 10
269.699030500204799
 20
163.3688473250515472
 30
0.0
 11
262.6279626883392098
 21
170.4399151369170795
 31
0.0
  0
LINE
  5
53
100
AcDbEntity
100
AcDbLine
  8
0
 62
256
370
-1
 48
1.0
  6
BYLAYER
 10
269.6908540453654268
 20
163.3688473250515472
 30
0.0
 11
332.69085404536537
 21
163.3688473250515756
 31
0.0
  0
CIRCLE
  5
54
100
AcDbEntity
100
AcDbCircle
  8
0
 62
256
370
-1
 48
1.0
  6
BYLAYER
 10
336.194942272785056
 20
136.7233846382964657
 30
0.0
 40
6.0
  0
CIRCLE
  5
55
100
AcDbEntity
100
AcDbCircle
  8
0
 62
256
370
-1
 48
1.0
  6
BYLAYER
 10
266.1949422727851129
 20
136.723384638296551
 30
0.0
 40
6.0
  0
LINE
  5
56
100
AcDbEntity
100
AcDbLine
  8
0
 62
256
370
-1
 48
1.0
  6
BYLAYER
 10
362.2619218572309592
 20
170.4399151369169658
 30
0.0
 11
406.2785638902522578
 21
179.7959412237158858
 31
0.0
  0
LINE
  5
57
100
AcDbEntity
100
AcDbLine
  8
0
 62
256
370
-1
 48
1.0
  6
BYLAYER
 10
196.1113206553181385
 20
179.7959412237163406
 30
0.0
 11
240.1279626883392666
 21
170.4399151369169942
 31
0.0
  0
LINE
  5
58
100
AcDbEntity
100
AcDbLine
  8
0
 62
256
370
-1
 48
1.0
  6
BYLAYER
 10
188.9128869163144486
 20
148.6160991505885818
 30
0.0
 11
196.1113206553181385
 21
179.7959412237163406
 31
0.0
  0
LINE
  5
59
100
AcDbEntity
100
AcDbLine
  8
0
 62
256
370
-1
 48
1.0
  6
BYLAYER
 10
406.2785638902522578
 20
179.7959412237158858
 30
0.0
 11
413.476997629255834
 21
148.6160991505877575
 31
0.0
  0
LINE
  5
5A
100
AcDbEntity
100
AcDbLine
  8
0
 62
256
370
-1
 48
1.0
  6
BYLAYER
 10
413.476997629255834
 20
148.6160991505877575
 30
0.0
 11
383.4068337641067501
 21
137.6714545641667371
 31
0.0
  0
LINE
  5
5B
100
AcDbEntity
100
AcDbLine
  8
0
 62
256
370
-1
 48
1.0
  6
BYLAYER
 10
218.9830507814633904
 20
137.6714545641671066
 30
0.0
 11
188.9128869163144486
 21
148.6160991505885818
 31
0.0
  0
LINE
  5
5C
100
AcDbEntity
100
AcDbLine
  8
0
 62
256
370
-1
 48
1.0
  6
BYLAYER
 10
218.9830507814633904
 20
137.6714545641671066
 30
0.0
 11
240.556797969030157
 21
120.6179085315395696
 31
0.0
  0
LINE
  5
5D
100
AcDbEntity
100
AcDbLine
  8
0
 62
256
370
-1
 48
1.0
  6
BYLAYER
 10
383.4068337641067501
 20
137.6714545641667371
 30
0.0
 11
361.8330865765399267
 21
120.6179085315394559
 31
0.0
  0
LINE
  5
5E
100
AcDbEntity
100
AcDbLine
  8
0
 62
256
370
-1
 48
1.0
  6
BYLAYER
 10
285.2522795216199825
 20
123.0179085315395184
 30
0.0
 11
316.7522795216199256
 21
123.0179085315394047
 31
0.0
  0
LINE
  5
5F
100
AcDbEntity
100
AcDbLine
  8
0
 62
256
370
-1
 48
1.0
  6
BYLAYER
 10
285.5022795216199256
 20
117.0179085315395326
 30
0.0
 11
317.0022795216200393
 21
117.0179085315394332
 31
0.0
  0
ARC
  5
60
100
AcDbEntity
  8
0
 62
256
370
-1
 48
1.0
  6
BYLAYER
100
AcDbCircle
 10
317.1272795216199256
 20
120.0105358477792379
 30
0.0
 40
2.9952367609104305
100
AcDbArc
 50
267.60818473851009
 51
94.35914215592733
  0
ARC
  5
61
100
AcDbEntity
  8
0
 62
256
370
-1
 48
1.0
  6
BYLAYER
100
AcDbCircle
 10
285.1522795216200166
 20
120.0179085315429859
 30
0.0
 40
2.9914925701586421
100
AcDbArc
 50
89.6702511496985579
 51
276.6544250460066223
  0
CIRCLE
  5
62
100
AcDbEntity
100
AcDbCircle
  8
0
 62
256
370
-1
 48
1.0
  6
BYLAYER
 10
205.6898474614432075
 20
173.4021221133348831
 30
0.0
 40
1.5
  0
CIRCLE
  5
63
100
AcDbEntity
100
AcDbCircle
  8
0
 62
256
370
-1
 48
1.0
  6
BYLAYER
 10
199.7197992738823586
 20
174.676562560947815
 30
0.0
 40
1.5
  0
LINE
  5
64
100
AcDbEntity
100
AcDbLine
  8
0
 62
256
370
-1
 48
1.0
  6
BYLAYER
 10
406.1836622681277618
 20
179.8008123934407934
 30
0.0
 11
362.16702023510652
 21
170.4447863066417028
 31
0.0
  0
LINE
  5
65
100
AcDbEntity
100
AcDbLine
  8
0
 62
256
370
-1
 48
1.0
  6
BYLAYER
 10
413.3820960071314516
 20
148.6209703203137735
 30
0.0
 11
406.1836622681277618
 21
179.8008123934407934
 31
0.0
  0
CIRCLE
  5
66
100
AcDbEntity
100
AcDbCircle
  8
0
 62
256
370
-1
 48
1.0
  6
BYLAYER
 10
396.6051354620025222
 20
173.4069932830594496
 30
0.0
 40
1.5
  0
CIRCLE
  5
67
100
AcDbEntity
100
AcDbCircle
  8
0
 62
256
370
-1
 48
1.0
  6
BYLAYER
 10
402.5751836495635416
 20
174.6814337306720972
 30
0.0
 40
1.5
  0
LINE
  5
68
100
AcDbEntity
100
AcDbLine
  8
0
 62
256
370
-1
 48
1.0
  6
BYLAYER
 10
220.1737584619067434
 20
144.4162939277446185
 30
0.0
 11
205.3735996845286707
 21
149.8031111851224182
 31
0.0
  0
LINE
  5
69
100
AcDbEntity
100
AcDbLine
  8
0
 62
256
370
-1
 48
1.0
  6
BYLAYER
 10
219.0302364543315434
 20
141.6399685833006856
 30
0.0
 11
204.2300776769534991
 21
147.0267858406801338
 31
0.0
  0
ARC
  5
6A
100
AcDbEntity
  8
0
 62
256
370
-1
 48
1.0
  6
BYLAYER
100
AcDbCircle
 10
204.6831162999645812
 20
148.4542370025542937
 30
0.0
 40
1.4976183804552152
100
AcDbArc
 50
65.6408578440726984
 51
252.3918152614899384
  0
ARC
  5
6B
100
AcDbEntity
  8
0
 62
256
370
-1
 48
1.0
  6
BYLAYER
100
AcDbCircle
 10
219.7077128779580448
 20
142.9896539893993008
 30
0.0
 40
1.4957462850793211
100
AcDbArc
 50
243.3455749539934061
 51
70.329748850301371
  0
LINE
  5
6C
100
AcDbEntity
100
AcDbLine
  8
0
 62
256
370
-1
 48
1.0
  6
BYLAYER
 10
383.2700645309976153
 20
137.5831842288739892
 30
0.0
 11
413.3402283961465855
 21
148.5278288152967434
 31
0.0
  0
LINE
  5
6D
100
AcDbEntity
100
AcDbLine
  8
0
 62
256
370
-1
 48
1.0
  6
BYLAYER
 10
382.0793568505541771
 20
144.3280235924540591
 30
0.0
 11
396.8795156279322214
 21
149.7148408498303525
 31
0.0
  0
LINE
  5
6E
100
AcDbEntity
100
AcDbLine
  8
0
 62
256
370
-1
 48
1.0
  6
BYLAYER
 10
383.2228788581293202
 20
141.5516982480088473
 30
0.0
 11
398.023037635507535
 21
146.938515505389006
 31
0.0
  0
ARC
  5
6F
100
AcDbEntity
  8
0
 62
256
370
-1
 48
1.0
  6
BYLAYER
100
AcDbCircle
 10
397.5699990124963961
 20
148.3659666672622279
 30
0.0
 40
1.4976183804552152
100
AcDbArc
 50
287.6081847385099763
 51
114.3591421559273016
  0
ARC
  5
70
100
AcDbEntity
  8
0
 62
256
370
-1
 48
1.0
  6
BYLAYER
100
AcDbCircle
 10
382.5454024345028188
 20
142.9013836541080877
 30
0.0
 40
1.4957462850793211
100
AcDbArc
 50
109.670251149698629
 51
296.6544250460064518
  0
CIRCLE
  5
71
100
AcDbEntity
100
AcDbCircle
  8
0
 62
256
370
-1
 48
1.0
  6
BYLAYER
 10
244.6525299608666728
 20
113.706481359261403
 30
0.0
 40
1.6000000000000001
  0
CIRCLE
  5
72
100
AcDbEntity
100
AcDbCircle
  8
0
 62
256
370
-1
 48
1.0
  6
BYLAYER
 10
266.6525299608666728
 20
113.7064813592613461
 30
0.0
 40
1.6000000000000001
  0
CIRCLE
  5
73
100
AcDbEntity
100
AcDbCircle
  8
0
 62
256
370
-1
 48
1.0
  6
BYLAYER
 10
335.7257780211969589
 20
113.72861276047432
 30
0.0
 40
1.6000000000000001
  0
CIRCLE
  5
74
100
AcDbEntity
100
AcDbCircle
  8
0
 62
256
370
-1
 48
1.0
  6
BYLAYER
 10
357.7257780211970157
 20
113.7286127604742205
 30
0.0
 40
1.6000000000000001
  0
CIRCLE
  5
75
100
AcDbEntity
100
AcDbCircle
  8
0
 62
256
370
-1
 48
1.0
  6
BYLAYER
 10
335.694942272785056
 20
151.7233846382963236
 30
0.0
 40
1.6000000000000001
  0
CIRCLE
  5
76
100
AcDbEntity
100
AcDbCircle
  8
0
 62
256
370
-1
 48
1.0
  6
BYLAYER
 10
357.694942272785056
 20
151.7233846382969205
 30
0.0
 40
1.6000000000000001
  0
CIRCLE
  5
77
100
AcDbEntity
100
AcDbCircle
  8
0
 62
256
370
-1
 48
1.0
  6
BYLAYER
 10
244.694942272785056
 20
151.7233846382965226
 30
0.0
 40
1.6000000000000001
  0
CIRCLE
  5
78
100
AcDbEntity
100
AcDbCircle
  8
0
 62
256
370
-1
 48
1.0
  6
BYLAYER
 10
266.694942272785056
 20
151.7233846382965226
 30
0.0
 40
1.6000000000000001
  0
LINE
  5
79
100
AcDbEntity
100
AcDbLine
  8
0
 62
256
370
-1
 48
1.0
  6
BYLAYER
 10
336.194942272785056
 20
126.7233846382963094
 30
0.0
 11
351.1949422727849992
 21
126.7233846382964515
 31
0.0
  0
LINE
  5
7A
100
AcDbEntity
100
AcDbLine
  8
0
 62
256
370
-1
 48
1.0
  6
BYLAYER
 10
251.194942272785056
 20
126.7233846382965652
 30
0.0
 11
266.1949422727849992
 21
126.7233846382965794
 31
0.0
  0
LINE
  5
7B
100
AcDbEntity
100
AcDbLine
  8
0
 62
256
370
-1
 48
1.0
  6
BYLAYER
 10
251.1949422727850276
 20
121.7233846382965794
 30
0.0
 11
266.194942272785056
 21
121.7233846382965226
 31
0.0
  0
LINE
  5
7C
100
AcDbEntity
100
AcDbLine
  8
0
 62
256
370
-1
 48
1.0
  6
BYLAYER
 10
336.194942272785056
 20
121.7233846382963947
 30
0.0
 11
351.194942272785056
 21
121.723384638296352
 31
0.0
  0
ARC
  5
7D
100
AcDbEntity
  8
0
 62
256
370
-1
 48
1.0
  6
BYLAYER
100
AcDbCircle
 10
266.1949422727849992
 20
124.2233846382965794
 30
0.0
 40
2.5
100
AcDbArc
 50
270.0
 51
90.0
  0
ARC
  5
7E
100
AcDbEntity
  8
0
 62
256
370
-1
 48
1.0
  6
BYLAYER
100
AcDbCircle
 10
351.194942272785056
 20
124.223384638296352
 30
0.0
 40
2.5
100
AcDbArc
 50
270.0
 51
90.0
  0
ARC
  5
7F
100
AcDbEntity
  8
0
 62
256
370
-1
 48
1.0
  6
BYLAYER
100
AcDbCircle
 10
336.194942272785056
 20
124.2233846382964373
 30
0.0
 40
2.5
100
AcDbArc
 50
90.0
 51
270.0
  0
ARC
  5
80
100
AcDbEntity
  8
0
 62
256
370
-1
 48
1.0
  6
BYLAYER
100
AcDbCircle
 10
251.1949422727850276
 20
124.2233846382965794
 30
0.0
 40
2.5
100
AcDbArc
 50
90.0
 51
270.0
  0
LINE
  5
81
100
AcDbEntity
100
AcDbLine
  8
0
 62
256
370
-1
 48
1.0
  6
BYLAYER
 10
241.1949422727850845
 20
166.7233846382965794
 30
0.0
 11
256.1949422727851697
 21
166.7233846382965226
 31
0.0
  0
LINE
  5
82
100
AcDbEntity
100
AcDbLine
  8
0
 62
256
370
-1
 48
1.0
  6
BYLAYER
 10
241.194942272785056
 20
160.7233846382964657
 30
0.0
 11
256.194942272785056
 21
160.7233846382965226
 31
0.0
  0
LINE
  5
83
100
AcDbEntity
100
AcDbLine
  8
0
 62
256
370
-1
 48
1.0
  6
BYLAYER
 10
346.194942272785056
 20
166.7233846382964089
 30
0.0
 11
361.1949422727851129
 21
166.7233846382962952
 31
0.0
  0
LINE
  5
84
100
AcDbEntity
100
AcDbLine
  8
0
 62
256
370
-1
 48
1.0
  6
BYLAYER
 10
346.1949422727851697
 20
160.7233846382963236
 30
0.0
 11
361.1949422727851129
 21
160.7233846382964089
 31
0.0
  0
ARC
  5
85
100
AcDbEntity
  8
0
 62
256
370
-1
 48
1.0
  6
BYLAYER
100
AcDbCircle
 10
256.194942272785056
 20
163.7233846382965226
 30
0.0
 40
3.0
100
AcDbArc
 50
270.0
 51
90.0
  0
ARC
  5
86
100
AcDbEntity
  8
0
 62
256
370
-1
 48
1.0
  6
BYLAYER
100
AcDbCircle
 10
361.1949422727851697
 20
163.7233846382961815
 30
0.0
 40
3.0
100
AcDbArc
 50
270.0
 51
90.0
  0
ARC
  5
87
100
AcDbEntity
  8
0
 62
256
370
-1
 48
1.0
  6
BYLAYER
100
AcDbCircle
 10
241.1949422727850845
 20
163.7233846382965794
 30
0.0
 40
3.0
100
AcDbArc
 50
90.0
 51
270.0
  0
ARC
  5
88
100
AcDbEntity
  8
0
 62
256
370
-1
 48
1.0
  6
BYLAYER
100
AcDbCircle
 10
346.1949422727851129
 20
163.7233846382962952
 30
0.0
 40
3.0
100
AcDbArc
 50
90.0
 51
270.0
  0
CIRCLE
  5
89
100
AcDbEntity
100
AcDbCircle
  8
0
 62
256
370
-1
 48
1.0
  6
BYLAYER
 10
356.194942272785056
 20
136.7233846382964657
 30
0.0
 40
6.0
  0
CIRCLE
  5
8A
100
AcDbEntity
100
AcDbCircle
  8
0
 62
256
370
-1
 48
1.0
  6
BYLAYER
 10
246.1949422727850276
 20
136.7233846382965794
 30
0.0
 40
6.0
  0
CIRCLE
  5
8B
100
AcDbEntity
100
AcDbCircle
  8
0
 62
256
370
-1
 48
1.0
  6
BYLAYER
 10
404.7520678444742543
 20
165.2782735529684714
 30
0.0
 40
1.5
  0
CIRCLE
  5
8C
100
AcDbEntity
100
AcDbCircle
  8
0
 62
256
370
-1
 48
1.0
  6
BYLAYER
 10
197.5429150789716459
 20
165.2734023832441892
 30
0.0
 40
1.5
  0
CIRCLE
  5
8D
100
AcDbEntity
100
AcDbCircle
  8
0
 62
256
370
-1
 48
1.0
  6
BYLAYER
 10
376.1949422727851697
 20
160.723384638296352
 30
0.0
 40
1.5
  0
CIRCLE
  5
8E
100
AcDbEntity
100
AcDbCircle
  8
0
 62
256
370
-1
 48
1.0
  6
BYLAYER
 10
226.1949422727850845
 20
160.7233846382965226
 30
0.0
 40
1.5
  0
CIRCLE
  5
8F
100
AcDbEntity
100
AcDbCircle
  8
0
 62
256
370
-1
 48
1.0
  6
BYLAYER
 10
372.9449422727851697
 20
145.223384638296011
 30
0.0
 40
1.5
  0
CIRCLE
  5
90
100
AcDbEntity
100
AcDbCircle
  8
0
 62
256
370
-1
 48
1.0
  6
BYLAYER
 10
229.2816094134276739
 20
145.3101816584422181
 30
0.0
 40
1.5
  0
LINE
  5
91
100
AcDbEntity
100
AcDbLine
  8
0
 62
256
370
-1
 48
1.0
  6
BYLAYER
 10
361.8330865765398698
 20
108.5179085315394332
 30
0.0
 11
361.8330865765399267
 21
120.6179085315394559
 31
0.0
  0
LINE
  5
92
100
AcDbEntity
100
AcDbLine
  8
0
 62
256
370
-1
 48
1.0
  6
BYLAYER
 10
329.8330865765398698
 20
108.5179085315394616
 30
0.0
 11
361.8330865765398698
 21
108.5179085315394332
 31
0.0
  0
LINE
  5
93
100
AcDbEntity
100
AcDbLine
  8
0
 62
256
370
-1
 48
1.0
  6
BYLAYER
 10
240.5567979690301286
 20
108.5179085315395753
 30
0.0
 11
272.5567979690301854
 21
108.51790853153949
 31
0.0
  0
LINE
  5
94
100
AcDbEntity
100
AcDbLine
  8
0
 62
256
370
-1
 48
1.0
  6
BYLAYER
 10
329.8330865765398698
 20
108.5179085315394616
 30
0.0
 11
329.833086576539813
 21
112.51790853153949
 31
0.0
  0
LINE
  5
95
100
AcDbEntity
100
AcDbLine
  8
0
 62
256
370
-1
 48
1.0
  6
BYLAYER
 10
272.5567979690301854
 20
108.51790853153949
 30
0.0
 11
272.5567979690301854
 21
112.5179085315395042
 31
0.0
  0
LINE
  5
96
100
AcDbEntity
100
AcDbLine
  8
0
 62
256
370
-1
 48
1.0
  6
BYLAYER
 10
272.5567979690301854
 20
112.5179085315395042
 30
0.0
 11
329.756797969030174
 21
112.5179085315394332
 31
0.0
  0
CIRCLE
  5
97
100
AcDbEntity
100
AcDbCircle
  8
0
 62
256
370
-1
 48
1.0
  6
BYLAYER
 10
327.194942272785056
 20
115.7233846382964515
 30
0.0
 40
1.5
  0
CIRCLE
  5
98
100
AcDbEntity
100
AcDbCircle
  8
0
 62
256
370
-1
 48
1.0
  6
BYLAYER
 10
275.194942272785056
 20
115.7233846382964941
 30
0.0
 40
1.5
  0
CIRCLE
  5
99
100
AcDbEntity
100
AcDbCircle
  8
0
 62
256
370
-1
 48
1.0
  6
BYLAYER
 10
280.2012550772349755
 20
146.3028768044003698
 30
0.0
 40
1.55
  0
CIRCLE
  5
9A
100
AcDbEntity
100
AcDbCircle
  8
0
 62
256
370
-1
 48
1.0
  6
BYLAYER
 10
322.2012550772354302
 20
146.3028768044002277
 30
0.0
 40
1.55
  0
LINE
  5
9B
100
AcDbEntity
100
AcDbLine
  8
0
 62
256
370
-1
 48
1.0
  6
BYLAYER
 10
311.2012550772356008
 20
160.4028768044009325
 30
0.0
 11
311.2012550772356008
 21
158.4028768044009894
 31
0.0
  0
LINE
  5
9C
100
AcDbEntity
100
AcDbLine
  8
0
 62
256
370
-1
 48
1.0
  6
BYLAYER
 10
291.2012550772355439
 20
160.4028768044009894
 30
0.0
 11
291.2012550772356008
 21
158.4028768044009894
 31
0.0
  0
LINE
  5
9D
100
AcDbEntity
100
AcDbLine
  8
0
 62
256
370
-1
 48
1.0
  6
BYLAYER
 10
297.2012550772356008
 20
160.4028768044009894
 30
0.0
 11
291.2012550772355439
 21
160.4028768044010462
 31
0.0
  0
LINE
  5
9E
100
AcDbEntity
100
AcDbLine
  8
0
 62
256
370
-1
 48
1.0
  6
BYLAYER
 10
311.2012550772356008
 20
160.4028768044009325
 30
0.0
 11
305.2012550772356008
 21
160.4028768044009894
 31
0.0
  0
LINE
  5
9F
100
AcDbEntity
100
AcDbLine
  8
0
 62
256
370
-1
 48
1.0
  6
BYLAYER
 10
297.2012550772356008
 20
160.4028768044009894
 30
0.0
 11
297.2012550772356008
 21
158.4028768044009894
 31
0.0
  0
LINE
  5
A0
100
AcDbEntity
100
AcDbLine
  8
0
 62
256
370
-1
 48
1.0
  6
BYLAYER
 10
305.2012550772356008
 20
160.4028768044009894
 30
0.0
 11
305.2012550772354871
 21
158.4028768044010178
 31
0.0
  0
LINE
  5
A1
100
AcDbEntity
100
AcDbLine
  8
0
 62
256
370
-1
 48
1.0
  6
BYLAYER
 10
311.2012550772356008
 20
158.4028768044009894
 30
0.0
 11
305.2012550772354871
 21
158.4028768044010178
 31
0.0
  0
LINE
  5
A2
100
AcDbEntity
100
AcDbLine
  8
0
 62
256
370
-1
 48
1.0
  6
BYLAYER
 10
297.2012550772356008
 20
158.4028768044009894
 30
0.0
 11
291.2012550772356008
 21
158.4028768044009894
 31
0.0
  0
LINE
  5
A3
100
AcDbEntity
100
AcDbLine
  8
0
 62
256
370
-1
 48
1.0
  6
BYLAYER
 10
308.8769976292558113
 20
144.0160991505880475
 30
0.0
 11
293.8769976292558681
 21
144.0160991505879906
 31
0.0
  0
LINE
  5
A4
100
AcDbEntity
100
AcDbLine
  8
0
 62
256
370
-1
 48
1.0
  6
BYLAYER
 10
308.8769976292558113
 20
150.0160991505879906
 30
0.0
 11
293.8769976292558113
 21
150.0160991505879338
 31
0.0
  0
ARC
  5
A5
100
AcDbEntity
  8
0
 62
256
370
-1
 48
1.0
  6
BYLAYER
100
AcDbCircle
 10
293.8769976292558113
 20
147.0160991505880475
 30
0.0
 40
3.0
100
AcDbArc
 50
90.0
 51
270.0
  0
ARC
  5
A6
100
AcDbEntity
  8
0
 62
256
370
-1
 48
1.0
  6
BYLAYER
100
AcDbCircle
 10
308.8769976292558113
 20
147.0160991505880475
 30
0.0
 40
3.0
100
AcDbArc
 50
270.0
 51
90.0
  0
LINE
  5
A7
100
AcDbEntity
100
AcDbLine
  8
0
 62
256
370
-1
 48
1.0
  6
BYLAYER
 10
308.7012550772354871
 20
132.0028768044010121
 30
0.0
 11
293.7012550772354871
 21
132.0028768044010121
 31
0.0
  0
LINE
  5
A8
100
AcDbEntity
100
AcDbLine
  8
0
 62
256
370
-1
 48
1.0
  6
BYLAYER
 10
308.7012550772355439
 20
138.0028768044008984
 30
0.0
 11
293.7012550772356008
 21
138.0028768044008416
 31
0.0
  0
ARC
  5
A9
100
AcDbEntity
  8
0
 62
256
370
-1
 48
1.0
  6
BYLAYER
100
AcDbCircle
 10
293.7012550772356008
 20
135.0028768044009553
 30
0.0
 40
3.0
100
AcDbArc
 50
90.0
 51
270.0
  0
ARC
  5
AA
100
AcDbEntity
  8
0
 62
256
370
-1
 48
1.0
  6
BYLAYER
100
AcDbCircle
 10
308.7012550772356008
 20
135.0028768044009553
 30
0.0
 40
3.0
100
AcDbArc
 50
270.0
 51
90.0
  0
LINE
  5
AB
100
AcDbEntity
100
AcDbLine
  8
0
 62
256
370
-1
 48
1.0
  6
BYLAYER
 10
315.8269730516176423
 20
75.363840693735483
 30
0.0
 11
317.8269730516176423
 21
75.363840693735483
 31
0.0
  0
LINE
  5
AC
100
AcDbEntity
100
AcDbLine
  8
0
 62
256
370
-1
 48
1.0
  6
BYLAYER
 10
315.8269730516176423
 20
67.3638406937355256
 30
0.0
 11
317.8269730516176423
 21
67.3638406937355256
 31
0.0
  0
LINE
  5
AD
100
AcDbEntity
100
AcDbLine
  8
0
 62
256
370
-1
 48
1.0
  6
BYLAYER
 10
315.8269730516176423
 20
85.3638406937355967
 30
0.0
 11
317.8269730516176423
 21
85.3638406937355967
 31
0.0
  0
LINE
  5
AE
100
AcDbEntity
100
AcDbLine
  8
0
 62
256
370
-1
 48
1.0
  6
BYLAYER
 10
315.8269730516175855
 20
93.3638406937358241
 30
0.0
 11
317.8269730516175855
 21
93.3638406937358241
 31
0.0
  0
LINE
  5
AF
100
AcDbEntity
100
AcDbLine
  8
0
 62
256
370
-1
 48
1.0
  6
BYLAYER
 10
317.8269730516176423
 20
85.3638406937355967
 30
0.0
 11
317.8269730516176423
 21
93.3638406937355967
 31
0.0
  0
LINE
  5
B0
100
AcDbEntity
100
AcDbLine
  8
0
 62
256
370
-1
 48
1.0
  6
BYLAYER
 10
317.8269730516176423
 20
67.3638406937355256
 30
0.0
 11
317.8269730516176423
 21
75.3638406937355256
 31
0.0
  0
LINE
  5
B1
100
AcDbEntity
100
AcDbLine
  8
0
 62
256
370
-1
 48
1.0
  6
BYLAYER
 10
315.8269730516175855
 20
62.3638406937298484
 30
0.0
 11
315.8269730516175855
 21
67.3638406937298555
 31
0.0
  0
LINE
  5
B2
100
AcDbEntity
100
AcDbLine
  8
0
 62
256
370
-1
 48
1.0
  6
BYLAYER
 10
315.8269730516175855
 20
93.3638406937358241
 30
0.0
 11
315.8269730516175855
 21
98.3638406937358241
 31
0.0
  0
LINE
  5
B3
100
AcDbEntity
100
AcDbLine
  8
0
 62
256
370
-1
 48
1.0
  6
BYLAYER
 10
315.8269730516176423
 20
75.363840693735483
 30
0.0
 11
315.8269730516176423
 21
85.363840693735483
 31
0.0
  0
LINE
  5
B4
100
AcDbEntity
100
AcDbLine
  8
0
 62
256
370
-1
 48
1.0
  6
BYLAYER
 10
275.8269730516175287
 20
85.3638406937297418
 30
0.0
 11
273.8269730516175287
 21
85.3638406937297418
 31
0.0
  0
LINE
  5
B5
100
AcDbEntity
100
AcDbLine
  8
0
 62
256
370
-1
 48
1.0
  6
BYLAYER
 10
275.8269730516175287
 20
93.3638406937296992
 30
0.0
 11
273.8269730516175287
 21
93.3638406937296992
 31
0.0
  0
LINE
  5
B6
100
AcDbEntity
100
AcDbLine
  8
0
 62
256
370
-1
 48
1.0
  6
BYLAYER
 10
275.8269730516175287
 20
75.3638406937296281
 30
0.0
 11
273.8269730516175287
 21
75.3638406937296281
 31
0.0
  0
LINE
  5
B7
100
AcDbEntity
100
AcDbLine
  8
0
 62
256
370
-1
 48
1.0
  6
BYLAYER
 10
275.8269730516175855
 20
67.3638406937294008
 30
0.0
 11
273.8269730516175855
 21
67.3638406937294008
 31
0.0
  0
LINE
  5
B8
100
AcDbEntity
100
AcDbLine
  8
0
 62
256
370
-1
 48
1.0
  6
BYLAYER
 10
273.8269730516175287
 20
75.3638406937296281
 30
0.0
 11
273.8269730516175287
 21
67.3638406937296281
 31
0.0
  0
LINE
  5
B9
100
AcDbEntity
100
AcDbLine
  8
0
 62
256
370
-1
 48
1.0
  6
BYLAYER
 10
273.8269730516175287
 20
93.3638406937296992
 30
0.0
 11
273.8269730516175287
 21
85.3638406937296992
 31
0.0
  0
LINE
  5
BA
100
AcDbEntity
100
AcDbLine
  8
0
 62
256
370
-1
 48
1.0
  6
BYLAYER
 10
275.8269730516175855
 20
98.3638406937353693
 30
0.0
 11
275.8269730516175855
 21
93.3638406937353693
 31
0.0
  0
LINE
  5
BB
100
AcDbEntity
100
AcDbLine
  8
0
 62
256
370
-1
 48
1.0
  6
BYLAYER
 10
275.8269730516175855
 20
67.3638406937294008
 30
0.0
 11
275.8269730516175855
 21
62.3638406937294008
 31
0.0
  0
LINE
  5
BC
100
AcDbEntity
100
AcDbLine
  8
0
 62
256
370
-1
 48
1.0
  6
BYLAYER
 10
275.8269730516175287
 20
85.3638406937297418
 30
0.0
 11
275.8269730516175287
 21
75.3638406937297418
 31
0.0
  0
LINE
  5
BD
100
AcDbEntity
100
AcDbLine
  8
0
 62
256
370
-1
 48
1.0
  6
BYLAYER
 10
226.0000000000027853
 20
62.000000000003908
 30
0.0
 11
262.0000000000000568
 21
62.0000000000038938
 31
0.0
  0
LINE
  5
BE
100
AcDbEntity
100
AcDbLine
  8
0
 62
256
370
-1
 48
1.0
  6
BYLAYER
 10
226.0000000000027853
 20
62.000000000003908
 30
0.0
 11
226.0000000000027285
 21
72.0000000000000711
 31
0.0
  0
LINE
  5
BF
100
AcDbEntity
100
AcDbLine
  8
0
 62
256
370
-1
 48
1.0
  6
BYLAYER
 10
262.0
 20
98.0
 30
0.0
 11
252.0000000000001705
 21
97.9999999999999716
 31
0.0
  0
LINE
  5
C0
100
AcDbEntity
100
AcDbLine
  8
0
 62
256
370
-1
 48
1.0
  6
BYLAYER
 10
252.0000000000001705
 20
97.9999999999999716
 30
0.0
 11
226.0000000000027285
 21
72.0000000000000711
 31
0.0
  0
LWPOLYLINE
  5
C1
  8
0
 62
256
370
-1
 48
1.0
  6
BYLAYER
100
AcDbEntity
100
AcDbPolyline
 90
2
 70
0
 10
243.0161595375117827
 20
72.9170577272125797
 30
0.0
 10
243.0161595375117827
 20
72.9170577272125797
 30
0.0
  0
LWPOLYLINE
  5
C2
  8
0
 62
256
370
-1
 48
1.0
  6
BYLAYER
100
AcDbEntity
100
AcDbPolyline
 90
2
 70
0
 10
244.5161595375128627
 20
71.4170577272125087
 30
0.0
 10
256.5161595375119532
 20
71.4170577272125655
 30
0.0
  0
LWPOLYLINE
  5
C3
  8
0
 62
256
370
-1
 48
1.0
  6
BYLAYER
100
AcDbEntity
100
AcDbPolyline
 90
2
 70
0
 10
256.5161595375119532
 20
71.4170577272125655
 30
0.0
 42
0.4142135623730951
 10
258.0161595375119532
 20
72.9170577272126224
 30
0.0
  0
LWPOLYLINE
  5
C4
  8
0
 62
256
370
-1
 48
1.0
  6
BYLAYER
100
AcDbEntity
100
AcDbPolyline
 90
2
 70
0
 10
258.0161595375119532
 20
72.9170577272126224
 30
0.0
 10
258.0161595375119532
 20
72.9170577272126224
 30
0.0
  0
LWPOLYLINE
  5
C5
  8
0
 62
256
370
-1
 48
1.0
  6
BYLAYER
100
AcDbEntity
100
AcDbPolyline
 90
2
 70
0
 10
258.0161595375119532
 20
72.9170577272126224
 30
0.0
 42
0.4142135623730951
 10
256.5161595375119532
 20
74.4170577272123666
 30
0.0
  0
LWPOLYLINE
  5
C6
  8
0
 62
256
370
-1
 48
1.0
  6
BYLAYER
100
AcDbEntity
100
AcDbPolyline
 90
2
 70
0
 10
256.5161595375119532
 20
74.4170577272123666
 30
0.0
 10
244.5161595375114416
 20
74.4170577272125087
 30
0.0
  0
LWPOLYLINE
  5
C7
  8
0
 62
256
370
-1
 48
1.0
  6
BYLAYER
100
AcDbEntity
100
AcDbPolyline
 90
2
 70
0
 10
244.5161595375114416
 20
74.4170577272125087
 30
0.0
 42
0.4142135623730951
 10
243.0161595375117827
 20
72.9170577272125797
 30
0.0
  0
LWPOLYLINE
  5
C8
  8
0
 62
256
370
-1
 48
1.0
  6
BYLAYER
100
AcDbEntity
100
AcDbPolyline
 90
2
 70
0
 10
243.0161595375117827
 20
72.9170577272125797
 30
0.0
 42
0.4142135623730951
 10
244.5161595375128627
 20
71.4170577272125087
 30
0.0
  0
LINE
  5
C9
100
AcDbEntity
100
AcDbLine
  8
0
 62
256
370
-1
 48
1.0
  6
BYLAYER
 10
230.5158513678250074
 20
68.018713823009989
 30
0.0
 11
230.5158513678250074
 21
66.3187138230099578
 31
0.0
  0
LINE
  5
CA
100
AcDbEntity
100
AcDbLine
  8
0
 62
256
370
-1
 48
1.0
  6
BYLAYER
 10
230.5158513678250074
 20
66.3187138230099578
 30
0.0
 11
238.5158513678250074
 21
66.318713823009972
 31
0.0
  0
LINE
  5
CB
100
AcDbEntity
100
AcDbLine
  8
0
 62
256
370
-1
 48
1.0
  6
BYLAYER
 10
230.5158513678250074
 20
68.018713823009989
 30
0.0
 11
238.5158513678250074
 21
68.0187138230099606
 31
0.0
  0
LINE
  5
CC
100
AcDbEntity
100
AcDbLine
  8
0
 62
256
370
-1
 48
1.0
  6
BYLAYER
 10
238.5158513678250074
 20
68.0187138230099606
 30
0.0
 11
238.5158513678250074
 21
66.318713823009972
 31
0.0
  0
LINE
  5
CD
100
AcDbEntity
100
AcDbLine
  8
0
 62
256
370
-1
 48
1.0
  6
BYLAYER
 10
249.5158513678250074
 20
68.0187138230099748
 30
0.0
 11
249.5158513678250074
 21
66.3187138230099436
 31
0.0
  0
LINE
  5
CE
100
AcDbEntity
100
AcDbLine
  8
0
 62
256
370
-1
 48
1.0
  6
BYLAYER
 10
249.5158513678250074
 20
66.3187138230099436
 30
0.0
 11
257.5158513678250074
 21
66.3187138230099293
 31
0.0
  0
LINE
  5
CF
100
AcDbEntity
100
AcDbLine
  8
0
 62
256
370
-1
 48
1.0
  6
BYLAYER
 10
249.5158513678250074
 20
68.0187138230099748
 30
0.0
 11
257.5158513678250074
 21
68.0187138230099464
 31
0.0
  0
LINE
  5
D0
100
AcDbEntity
100
AcDbLine
  8
0
 62
256
370
-1
 48
1.0
  6
BYLAYER
 10
257.5158513678250074
 20
68.0187138230099464
 30
0.0
 11
257.5158513678250074
 21
66.3187138230099293
 31
0.0
  0
LINE
  5
D1
100
AcDbEntity
100
AcDbLine
  8
0
 62
256
370
-1
 48
1.0
  6
BYLAYER
 10
262.0
 20
67.0
 30
0.0
 11
264.0
 21
67.0
 31
0.0
  0
LINE
  5
D2
100
AcDbEntity
100
AcDbLine
  8
0
 62
256
370
-1
 48
1.0
  6
BYLAYER
 10
262.0
 20
75.0
 30
0.0
 11
264.0
 21
75.0
 31
0.0
  0
LINE
  5
D3
100
AcDbEntity
100
AcDbLine
  8
0
 62
256
370
-1
 48
1.0
  6
BYLAYER
 10
262.0
 20
85.0
 30
0.0
 11
264.0
 21
85.0
 31
0.0
  0
LINE
  5
D4
100
AcDbEntity
100
AcDbLine
  8
0
 62
256
370
-1
 48
1.0
  6
BYLAYER
 10
262.0
 20
93.0
 30
0.0
 11
264.0
 21
93.0
 31
0.0
  0
LINE
  5
D5
100
AcDbEntity
100
AcDbLine
  8
0
 62
256
370
-1
 48
1.0
  6
BYLAYER
 10
264.0
 20
67.0
 30
0.0
 11
264.0
 21
75.0
 31
0.0
  0
LINE
  5
D6
100
AcDbEntity
100
AcDbLine
  8
0
 62
256
370
-1
 48
1.0
  6
BYLAYER
 10
264.0
 20
85.0
 30
0.0
 11
264.0
 21
93.0
 31
0.0
  0
LINE
  5
D7
100
AcDbEntity
100
AcDbLine
  8
0
 62
256
370
-1
 48
1.0
  6
BYLAYER
 10
262.0
 20
98.0
 30
0.0
 11
262.0
 21
93.0
 31
0.0
  0
LINE
  5
D8
100
AcDbEntity
100
AcDbLine
  8
0
 62
256
370
-1
 48
1.0
  6
BYLAYER
 10
262.0
 20
85.0
 30
0.0
 11
262.0
 21
75.0
 31
0.0
  0
LINE
  5
D9
100
AcDbEntity
100
AcDbLine
  8
0
 62
256
370
-1
 48
1.0
  6
BYLAYER
 10
262.0
 20
67.0
 30
0.0
 11
262.0000000000000568
 21
62.0000000000038938
 31
0.0
  0
LINE
  5
DA
100
AcDbEntity
100
AcDbLine
  8
0
 62
256
370
-1
 48
1.0
  6
BYLAYER
 10
252.6684680838878876
 20
91.8729422998938503
 30
0.0
 11
255.2461595375118861
 21
93.3611731545313717
 31
0.0
  0
ARC
  5
DB
100
AcDbEntity
  8
0
 62
256
370
-1
 48
1.0
  6
BYLAYER
100
AcDbCircle
 10
252.9384680838879262
 20
91.4052885818502574
 30
0.0
 40
0.5399999999999999
100
AcDbArc
 50
119.9999999999972147
 51
180.0
  0
LINE
  5
DC
100
AcDbEntity
100
AcDbLine
  8
0
 62
256
370
-1
 48
1.0
  6
BYLAYER
 10
255.7861595375118782
 20
93.3611731545313717
 30
0.0
 11
258.3638509911358483
 21
91.8729422998938361
 31
0.0
  0
ARC
  5
DD
100
AcDbEntity
  8
0
 62
256
370
-1
 48
1.0
  6
BYLAYER
100
AcDbCircle
 10
255.5161595375118679
 20
92.8935194364877077
 30
0.0
 40
0.5399999999999999
100
AcDbArc
 50
60.0000000000028351
 51
119.9999999999972147
  0
LINE
  5
DE
100
AcDbEntity
100
AcDbLine
  8
0
 62
256
370
-1
 48
1.0
  6
BYLAYER
 10
258.6338509911358869
 20
91.4052885818502432
 30
0.0
 11
258.6338509911358869
 21
88.4288268725749447
 31
0.0
  0
ARC
  5
DF
100
AcDbEntity
  8
0
 62
256
370
-1
 48
1.0
  6
BYLAYER
100
AcDbCircle
 10
258.0938509911358665
 20
91.4052885818502432
 30
0.0
 40
0.5399999999999999
100
AcDbArc
 50
0.0
 51
60.0000000000028351
  0
LINE
  5
E0
100
AcDbEntity
100
AcDbLine
  8
0
 62
256
370
-1
 48
1.0
  6
BYLAYER
 10
258.3638509911358483
 20
87.961173154531366
 30
0.0
 11
255.7861595375118782
 21
86.4729422998938446
 31
0.0
  0
ARC
  5
E1
100
AcDbEntity
  8
0
 62
256
370
-1
 48
1.0
  6
BYLAYER
100
AcDbCircle
 10
258.0938509911358665
 20
88.4288268725749589
 30
0.0
 40
0.5399999999999999
100
AcDbArc
 50
299.9999999999972147
 51
0.0
  0
LINE
  5
E2
100
AcDbEntity
100
AcDbLine
  8
0
 62
256
370
-1
 48
1.0
  6
BYLAYER
 10
255.2461595375118577
 20
86.4729422998938446
 30
0.0
 11
252.6684680838878876
 21
87.961173154531366
 31
0.0
  0
ARC
  5
E3
100
AcDbEntity
  8
0
 62
256
370
-1
 48
1.0
  6
BYLAYER
100
AcDbCircle
 10
255.5161595375118679
 20
86.9405960179373665
 30
0.0
 40
0.5399999999999999
100
AcDbArc
 50
240.0000000000027853
 51
299.9999999999972147
  0
LINE
  5
E4
100
AcDbEntity
100
AcDbLine
  8
0
 62
256
370
-1
 48
1.0
  6
BYLAYER
 10
252.3984680838879342
 20
91.4052885818502574
 30
0.0
 11
252.3984680838879058
 21
88.4288268725749589
 31
0.0
  0
ARC
  5
E5
100
AcDbEntity
  8
0
 62
256
370
-1
 48
1.0
  6
BYLAYER
100
AcDbCircle
 10
252.9384680838879262
 20
88.4288268725749589
 30
0.0
 40
0.5399999999999999
100
AcDbArc
 50
180.0
 51
240.0000000000027853
  0
LINE
  5
E6
100
AcDbEntity
100
AcDbLine
  8
0
 62
256
370
-1
 48
1.0
  6
BYLAYER
 10
243.6684680838878307
 20
85.8729422998937792
 30
0.0
 11
246.2461595375118293
 21
87.3611731545312864
 31
0.0
  0
ARC
  5
E7
100
AcDbEntity
  8
0
 62
256
370
-1
 48
1.0
  6
BYLAYER
100
AcDbCircle
 10
243.9384680838878694
 20
85.4052885818501863
 30
0.0
 40
0.5399999999999999
100
AcDbArc
 50
119.9999999999972147
 51
180.0
  0
LINE
  5
E8
100
AcDbEntity
100
AcDbLine
  8
0
 62
256
370
-1
 48
1.0
  6
BYLAYER
 10
246.7861595375118213
 20
87.3611731545312864
 30
0.0
 11
249.3638509911358199
 21
85.872942299893765
 31
0.0
  0
ARC
  5
E9
100
AcDbEntity
  8
0
 62
256
370
-1
 48
1.0
  6
BYLAYER
100
AcDbCircle
 10
246.5161595375118111
 20
86.8935194364876509
 30
0.0
 40
0.5399999999999999
100
AcDbArc
 50
60.0000000000028351
 51
119.9999999999972147
  0
LINE
  5
EA
100
AcDbEntity
100
AcDbLine
  8
0
 62
256
370
-1
 48
1.0
  6
BYLAYER
 10
249.6338509911358017
 20
85.4052885818501721
 30
0.0
 11
249.6338509911358017
 21
82.4288268725748736
 31
0.0
  0
ARC
  5
EB
100
AcDbEntity
  8
0
 62
256
370
-1
 48
1.0
  6
BYLAYER
100
AcDbCircle
 10
249.0938509911358096
 20
85.4052885818501721
 30
0.0
 40
0.5399999999999999
100
AcDbArc
 50
0.0
 51
60.0000000000028351
  0
LINE
  5
EC
100
AcDbEntity
100
AcDbLine
  8
0
 62
256
370
-1
 48
1.0
  6
BYLAYER
 10
249.3638509911358199
 20
81.9611731545312949
 30
0.0
 11
246.7861595375118213
 21
80.4729422998937736
 31
0.0
  0
ARC
  5
ED
100
AcDbEntity
  8
0
 62
256
370
-1
 48
1.0
  6
BYLAYER
100
AcDbCircle
 10
249.0938509911358096
 20
82.4288268725748878
 30
0.0
 40
0.5399999999999999
100
AcDbArc
 50
299.9999999999972147
 51
0.0
  0
LINE
  5
EE
100
AcDbEntity
100
AcDbLine
  8
0
 62
256
370
-1
 48
1.0
  6
BYLAYER
 10
246.2461595375118009
 20
80.4729422998937594
 30
0.0
 11
243.6684680838878307
 21
81.9611731545312949
 31
0.0
  0
ARC
  5
EF
100
AcDbEntity
  8
0
 62
256
370
-1
 48
1.0
  6
BYLAYER
100
AcDbCircle
 10
246.5161595375118111
 20
80.9405960179372812
 30
0.0
 40
0.5399999999999999
100
AcDbArc
 50
240.0000000000027853
 51
299.9999999999972147
  0
LINE
  5
F0
100
AcDbEntity
100
AcDbLine
  8
0
 62
256
370
-1
 48
1.0
  6
BYLAYER
 10
243.3984680838878774
 20
85.4052885818501863
 30
0.0
 11
243.3984680838878489
 21
82.4288268725748878
 31
0.0
  0
ARC
  5
F1
100
AcDbEntity
  8
0
 62
256
370
-1
 48
1.0
  6
BYLAYER
100
AcDbCircle
 10
243.9384680838878694
 20
82.4288268725748878
 30
0.0
 40
0.5399999999999999
100
AcDbArc
 50
180.0
 51
240.0000000000027853
  0
LINE
  5
F2
100
AcDbEntity
100
AcDbLine
  8
0
 62
256
370
-1
 48
1.0
  6
BYLAYER
 10
252.1523085463759912
 20
82.9558845726813132
 30
0.0
 11
254.7299999999999898
 21
84.4441154273188204
 31
0.0
  0
ARC
  5
F3
100
AcDbEntity
  8
0
 62
256
370
-1
 48
1.0
  6
BYLAYER
100
AcDbCircle
 10
252.4223085463760299
 20
82.4882308546377203
 30
0.0
 40
0.5399999999999999
100
AcDbArc
 50
119.9999999999972147
 51
180.0
  0
LINE
  5
F4
100
AcDbEntity
100
AcDbLine
  8
0
 62
256
370
-1
 48
1.0
  6
BYLAYER
 10
255.2699999999999818
 20
84.4441154273188204
 30
0.0
 11
257.8476914536239519
 21
82.955884572681299
 31
0.0
  0
ARC
  5
F5
100
AcDbEntity
  8
0
 62
256
370
-1
 48
1.0
  6
BYLAYER
100
AcDbCircle
 10
254.9999999999999716
 20
83.9764617092751848
 30
0.0
 40
0.5399999999999999
100
AcDbArc
 50
60.0000000000028351
 51
119.9999999999972147
  0
LINE
  5
F6
100
AcDbEntity
100
AcDbLine
  8
0
 62
256
370
-1
 48
1.0
  6
BYLAYER
 10
258.1176914536239906
 20
82.4882308546377061
 30
0.0
 11
258.1176914536239906
 21
79.5117691453624076
 31
0.0
  0
ARC
  5
F7
100
AcDbEntity
  8
0
 62
256
370
-1
 48
1.0
  6
BYLAYER
100
AcDbCircle
 10
257.5776914536239701
 20
82.4882308546377061
 30
0.0
 40
0.5399999999999999
100
AcDbArc
 50
0.0
 51
60.0000000000028351
  0
LINE
  5
F8
100
AcDbEntity
100
AcDbLine
  8
0
 62
256
370
-1
 48
1.0
  6
BYLAYER
 10
257.8476914536239519
 20
79.0441154273188289
 30
0.0
 11
255.2699999999999818
 21
77.5558845726813075
 31
0.0
  0
ARC
  5
F9
100
AcDbEntity
  8
0
 62
256
370
-1
 48
1.0
  6
BYLAYER
100
AcDbCircle
 10
257.5776914536239701
 20
79.5117691453624218
 30
0.0
 40
0.5399999999999999
100
AcDbArc
 50
299.9999999999972147
 51
0.0
  0
LINE
  5
FA
100
AcDbEntity
100
AcDbLine
  8
0
 62
256
370
-1
 48
1.0
  6
BYLAYER
 10
254.7299999999999613
 20
77.5558845726812933
 30
0.0
 11
252.1523085463759912
 21
79.0441154273188289
 31
0.0
  0
ARC
  5
FB
100
AcDbEntity
  8
0
 62
256
370
-1
 48
1.0
  6
BYLAYER
100
AcDbCircle
 10
254.9999999999999716
 20
78.0235382907248152
 30
0.0
 40
0.5399999999999999
100
AcDbArc
 50
240.0000000000027853
 51
299.9999999999972147
  0
LINE
  5
FC
100
AcDbEntity
100
AcDbLine
  8
0
 62
256
370
-1
 48
1.0
  6
BYLAYER
 10
251.8823085463760378
 20
82.4882308546377203
 30
0.0
 11
251.8823085463760094
 21
79.5117691453624218
 31
0.0
  0
ARC
  5
FD
100
AcDbEntity
  8
0
 62
256
370
-1
 48
1.0
  6
BYLAYER
100
AcDbCircle
 10
252.4223085463760299
 20
79.5117691453624218
 30
0.0
 40
0.5399999999999999
100
AcDbArc
 50
180.0
 51
240.0000000000027853
  0
LINE
  5
FE
100
AcDbEntity
100
AcDbLine
  8
0
 62
256
370
-1
 48
1.0
  6
BYLAYER
 10
362.6755459328143161
 20
98.926941693931596
 30
0.0
 11
326.6755459328170446
 21
98.9269416939316244
 31
0.0
  0
LINE
  5
FF
100
AcDbEntity
100
AcDbLine
  8
0
 62
256
370
-1
 48
1.0
  6
BYLAYER
 10
362.6755459328143161
 20
98.926941693931596
 30
0.0
 11
362.6755459328143729
 21
88.9269416939354329
 31
0.0
  0
LINE
  5
100
100
AcDbEntity
100
AcDbLine
  8
0
 62
256
370
-1
 48
1.0
  6
BYLAYER
 10
326.6755459328171014
 20
62.9269416939355182
 30
0.0
 11
336.6755459328169309
 21
62.9269416939355466
 31
0.0
  0
LINE
  5
101
100
AcDbEntity
100
AcDbLine
  8
0
 62
256
370
-1
 48
1.0
  6
BYLAYER
 10
336.6755459328169309
 20
62.9269416939355466
 30
0.0
 11
362.6755459328143729
 21
88.9269416939354329
 31
0.0
  0
LWPOLYLINE
  5
102
  8
0
 62
256
370
-1
 48
1.0
  6
BYLAYER
100
AcDbEntity
100
AcDbPolyline
 90
2
 70
0
 10
345.6593863953053187
 20
88.0098839667229385
 30
0.0
 10
345.6593863953053187
 20
88.0098839667229385
 30
0.0
  0
LWPOLYLINE
  5
103
  8
0
 62
256
370
-1
 48
1.0
  6
BYLAYER
100
AcDbEntity
100
AcDbPolyline
 90
2
 70
0
 10
344.1593863953042387
 20
89.5098839667230095
 30
0.0
 10
332.1593863953051482
 20
89.5098839667229527
 30
0.0
  0
LWPOLYLINE
  5
104
  8
0
 62
256
370
-1
 48
1.0
  6
BYLAYER
100
AcDbEntity
100
AcDbPolyline
 90
2
 70
0
 10
332.1593863953051482
 20
89.5098839667229527
 30
0.0
 42
0.4142135623730951
 10
330.6593863953051482
 20
88.00988396672291
 30
0.0
  0
LWPOLYLINE
  5
105
  8
0
 62
256
370
-1
 48
1.0
  6
BYLAYER
100
AcDbEntity
100
AcDbPolyline
 90
2
 70
0
 10
330.6593863953051482
 20
88.00988396672291
 30
0.0
 10
330.6593863953051482
 20
88.00988396672291
 30
0.0
  0
LWPOLYLINE
  5
106
  8
0
 62
256
370
-1
 48
1.0
  6
BYLAYER
100
AcDbEntity
100
AcDbPolyline
 90
2
 70
0
 10
330.6593863953051482
 20
88.00988396672291
 30
0.0
 42
0.4142135623730951
 10
332.1593863953051482
 20
86.5098839667231374
 30
0.0
  0
LWPOLYLINE
  5
107
  8
0
 62
256
370
-1
 48
1.0
  6
BYLAYER
100
AcDbEntity
100
AcDbPolyline
 90
2
 70
0
 10
332.1593863953051482
 20
86.5098839667231374
 30
0.0
 10
344.1593863953056598
 20
86.5098839667230095
 30
0.0
  0
LWPOLYLINE
  5
108
  8
0
 62
256
370
-1
 48
1.0
  6
BYLAYER
100
AcDbEntity
100
AcDbPolyline
 90
2
 70
0
 10
344.1593863953056598
 20
86.5098839667230095
 30
0.0
 42
0.4142135623730951
 10
345.6593863953053187
 20
88.0098839667229385
 30
0.0
  0
LWPOLYLINE
  5
109
  8
0
 62
256
370
-1
 48
1.0
  6
BYLAYER
100
AcDbEntity
100
AcDbPolyline
 90
2
 70
0
 10
345.6593863953053187
 20
88.0098839667229385
 30
0.0
 42
0.4142135623730951
 10
344.1593863953042387
 20
89.5098839667230095
 30
0.0
  0
LINE
  5
10A
100
AcDbEntity
100
AcDbLine
  8
0
 62
256
370
-1
 48
1.0
  6
BYLAYER
 10
358.159694564992094
 20
92.9082278709255434
 30
0.0
 11
358.159694564992094
 21
94.6082278709255604
 31
0.0
  0
LINE
  5
10B
100
AcDbEntity
100
AcDbLine
  8
0
 62
256
370
-1
 48
1.0
  6
BYLAYER
 10
358.159694564992094
 20
94.6082278709255604
 30
0.0
 11
350.159694564992094
 21
94.6082278709255462
 31
0.0
  0
LINE
  5
10C
100
AcDbEntity
100
AcDbLine
  8
0
 62
256
370
-1
 48
1.0
  6
BYLAYER
 10
358.159694564992094
 20
92.9082278709255434
 30
0.0
 11
350.159694564992094
 21
92.9082278709255576
 31
0.0
  0
LINE
  5
10D
100
AcDbEntity
100
AcDbLine
  8
0
 62
256
370
-1
 48
1.0
  6
BYLAYER
 10
350.159694564992094
 20
92.9082278709255576
 30
0.0
 11
350.159694564992094
 21
94.6082278709255462
 31
0.0
  0
LINE
  5
10E
100
AcDbEntity
100
AcDbLine
  8
0
 62
256
370
-1
 48
1.0
  6
BYLAYER
 10
339.159694564992094
 20
92.9082278709255434
 30
0.0
 11
339.159694564992094
 21
94.6082278709255746
 31
0.0
  0
LINE
  5
10F
100
AcDbEntity
100
AcDbLine
  8
0
 62
256
370
-1
 48
1.0
  6
BYLAYER
 10
339.159694564992094
 20
94.6082278709255746
 30
0.0
 11
331.159694564992094
 21
94.6082278709255888
 31
0.0
  0
LINE
  5
110
100
AcDbEntity
100
AcDbLine
  8
0
 62
256
370
-1
 48
1.0
  6
BYLAYER
 10
339.159694564992094
 20
92.9082278709255434
 30
0.0
 11
331.159694564992094
 21
92.9082278709255718
 31
0.0
  0
LINE
  5
111
100
AcDbEntity
100
AcDbLine
  8
0
 62
256
370
-1
 48
1.0
  6
BYLAYER
 10
331.159694564992094
 20
92.9082278709255718
 30
0.0
 11
331.159694564992094
 21
94.6082278709255888
 31
0.0
  0
LINE
  5
112
100
AcDbEntity
100
AcDbLine
  8
0
 62
256
370
-1
 48
1.0
  6
BYLAYER
 10
326.6755459328171014
 20
93.9269416939355324
 30
0.0
 11
324.6755459328171014
 21
93.9269416939355324
 31
0.0
  0
LINE
  5
113
100
AcDbEntity
100
AcDbLine
  8
0
 62
256
370
-1
 48
1.0
  6
BYLAYER
 10
326.6755459328171014
 20
85.9269416939355182
 30
0.0
 11
324.6755459328171014
 21
85.9269416939355182
 31
0.0
  0
LINE
  5
114
100
AcDbEntity
100
AcDbLine
  8
0
 62
256
370
-1
 48
1.0
  6
BYLAYER
 10
326.6755459328171014
 20
75.9269416939355182
 30
0.0
 11
324.6755459328171014
 21
75.9269416939355182
 31
0.0
  0
LINE
  5
115
100
AcDbEntity
100
AcDbLine
  8
0
 62
256
370
-1
 48
1.0
  6
BYLAYER
 10
326.6755459328171014
 20
67.9269416939355182
 30
0.0
 11
324.6755459328171014
 21
67.9269416939355182
 31
0.0
  0
LINE
  5
116
100
AcDbEntity
100
AcDbLine
  8
0
 62
256
370
-1
 48
1.0
  6
BYLAYER
 10
324.6755459328171014
 20
93.9269416939355324
 30
0.0
 11
324.6755459328171014
 21
85.9269416939355182
 31
0.0
  0
LINE
  5
117
100
AcDbEntity
100
AcDbLine
  8
0
 62
256
370
-1
 48
1.0
  6
BYLAYER
 10
324.6755459328171014
 20
75.9269416939355182
 30
0.0
 11
324.6755459328171014
 21
67.9269416939355182
 31
0.0
  0
LINE
  5
118
100
AcDbEntity
100
AcDbLine
  8
0
 62
256
370
-1
 48
1.0
  6
BYLAYER
 10
326.6755459328171014
 20
62.9269416939355182
 30
0.0
 11
326.6755459328171014
 21
67.9269416939355182
 31
0.0
  0
LINE
  5
119
100
AcDbEntity
100
AcDbLine
  8
0
 62
256
370
-1
 48
1.0
  6
BYLAYER
 10
326.6755459328171014
 20
75.9269416939355182
 30
0.0
 11
326.6755459328171014
 21
85.9269416939355182
 31
0.0
  0
LINE
  5
11A
100
AcDbEntity
100
AcDbLine
  8
0
 62
256
370
-1
 48
1.0
  6
BYLAYER
 10
326.6755459328171014
 20
93.9269416939355324
 30
0.0
 11
326.6755459328170446
 21
98.9269416939316244
 31
0.0
  0
LINE
  5
11B
100
AcDbEntity
100
AcDbLine
  8
0
 62
256
370
-1
 48
1.0
  6
BYLAYER
 10
336.0070778489292138
 20
69.0539993940416679
 30
0.0
 11
333.4293863953051869
 21
67.5657685394041465
 31
0.0
  0
ARC
  5
11C
100
AcDbEntity
  8
0
 62
256
370
-1
 48
1.0
  6
BYLAYER
100
AcDbCircle
 10
335.7370778489291752
 20
69.5216531120852608
 30
0.0
 40
0.5399999999999999
100
AcDbArc
 50
299.9999999999972147
 51
0.0
  0
LINE
  5
11D
100
AcDbEntity
100
AcDbLine
  8
0
 62
256
370
-1
 48
1.0
  6
BYLAYER
 10
332.8893863953052232
 20
67.5657685394041465
 30
0.0
 11
330.3116949416812531
 21
69.0539993940416821
 31
0.0
  0
ARC
  5
11E
100
AcDbEntity
  8
0
 62
256
370
-1
 48
1.0
  6
BYLAYER
100
AcDbCircle
 10
333.159386395305205
 20
68.0334222574478105
 30
0.0
 40
0.5399999999999999
100
AcDbArc
 50
240.0000000000028137
 51
299.9999999999972147
  0
LINE
  5
11F
100
AcDbEntity
100
AcDbLine
  8
0
 62
256
370
-1
 48
1.0
  6
BYLAYER
 10
330.0416949416812145
 20
69.521653112085275
 30
0.0
 11
330.0416949416812145
 21
72.4981148213605735
 31
0.0
  0
ARC
  5
120
100
AcDbEntity
  8
0
 62
256
370
-1
 48
1.0
  6
BYLAYER
100
AcDbCircle
 10
330.5816949416812349
 20
69.521653112085275
 30
0.0
 40
0.5399999999999999
100
AcDbArc
 50
180.0
 51
240.0000000000028137
  0
LINE
  5
121
100
AcDbEntity
100
AcDbLine
  8
0
 62
256
370
-1
 48
1.0
  6
BYLAYER
 10
330.3116949416812531
 20
72.9657685394041522
 30
0.0
 11
332.8893863953052232
 21
74.4539993940416878
 31
0.0
  0
ARC
  5
122
100
AcDbEntity
  8
0
 62
256
370
-1
 48
1.0
  6
BYLAYER
100
AcDbCircle
 10
330.5816949416812349
 20
72.4981148213605593
 30
0.0
 40
0.5399999999999999
100
AcDbArc
 50
119.9999999999972147
 51
180.0
  0
LINE
  5
123
100
AcDbEntity
100
AcDbLine
  8
0
 62
256
370
-1
 48
1.0
  6
BYLAYER
 10
333.4293863953052437
 20
74.4539993940416736
 30
0.0
 11
336.0070778489292138
 21
72.9657685394041522
 31
0.0
  0
ARC
  5
124
100
AcDbEntity
  8
0
 62
256
370
-1
 48
1.0
  6
BYLAYER
100
AcDbCircle
 10
333.159386395305205
 20
73.9863456759981517
 30
0.0
 40
0.5399999999999999
100
AcDbArc
 50
60.0000000000027853
 51
119.9999999999972147
  0
LINE
  5
125
100
AcDbEntity
100
AcDbLine
  8
0
 62
256
370
-1
 48
1.0
  6
BYLAYER
 10
336.2770778489291388
 20
69.5216531120852608
 30
0.0
 11
336.2770778489291956
 21
72.4981148213605593
 31
0.0
  0
ARC
  5
126
100
AcDbEntity
  8
0
 62
256
370
-1
 48
1.0
  6
BYLAYER
100
AcDbCircle
 10
335.7370778489291752
 20
72.4981148213605593
 30
0.0
 40
0.5399999999999999
100
AcDbArc
 50
0.0
 51
60.0000000000027853
  0
LINE
  5
127
100
AcDbEntity
100
AcDbLine
  8
0
 62
256
370
-1
 48
1.0
  6
BYLAYER
 10
345.0070778489292707
 20
75.0539993940417389
 30
0.0
 11
342.4293863953053005
 21
73.5657685394042318
 31
0.0
  0
ARC
  5
128
100
AcDbEntity
  8
0
 62
256
370
-1
 48
1.0
  6
BYLAYER
100
AcDbCircle
 10
344.737077848929232
 20
75.5216531120853318
 30
0.0
 40
0.5399999999999999
100
AcDbArc
 50
299.9999999999972147
 51
0.0
  0
LINE
  5
129
100
AcDbEntity
100
AcDbLine
  8
0
 62
256
370
-1
 48
1.0
  6
BYLAYER
 10
341.8893863953052801
 20
73.5657685394042318
 30
0.0
 11
339.3116949416812531
 21
75.0539993940417531
 31
0.0
  0
ARC
  5
12A
100
AcDbEntity
  8
0
 62
256
370
-1
 48
1.0
  6
BYLAYER
100
AcDbCircle
 10
342.1593863953053187
 20
74.0334222574478673
 30
0.0
 40
0.5399999999999999
100
AcDbArc
 50
240.0000000000028137
 51
299.9999999999972147
  0
LINE
  5
12B
100
AcDbEntity
100
AcDbLine
  8
0
 62
256
370
-1
 48
1.0
  6
BYLAYER
 10
339.0416949416812713
 20
75.521653112085346
 30
0.0
 11
339.0416949416812713
 21
78.4981148213606446
 31
0.0
  0
ARC
  5
12C
100
AcDbEntity
  8
0
 62
256
370
-1
 48
1.0
  6
BYLAYER
100
AcDbCircle
 10
339.5816949416812918
 20
75.521653112085346
 30
0.0
 40
0.5399999999999999
100
AcDbArc
 50
180.0
 51
240.0000000000028137
  0
LINE
  5
12D
100
AcDbEntity
100
AcDbLine
  8
0
 62
256
370
-1
 48
1.0
  6
BYLAYER
 10
339.3116949416812531
 20
78.9657685394042232
 30
0.0
 11
341.8893863953052801
 21
80.4539993940417446
 31
0.0
  0
ARC
  5
12E
100
AcDbEntity
  8
0
 62
256
370
-1
 48
1.0
  6
BYLAYER
100
AcDbCircle
 10
339.5816949416812918
 20
78.4981148213606303
 30
0.0
 40
0.5399999999999999
100
AcDbArc
 50
119.9999999999972147
 51
180.0
  0
LINE
  5
12F
100
AcDbEntity
100
AcDbLine
  8
0
 62
256
370
-1
 48
1.0
  6
BYLAYER
 10
342.4293863953053005
 20
80.4539993940417588
 30
0.0
 11
345.0070778489292707
 21
78.9657685394042232
 31
0.0
  0
ARC
  5
130
100
AcDbEntity
  8
0
 62
256
370
-1
 48
1.0
  6
BYLAYER
100
AcDbCircle
 10
342.1593863953052619
 20
79.986345675998237
 30
0.0
 40
0.5399999999999999
100
AcDbArc
 50
60.0000000000027853
 51
119.9999999999972147
  0
LINE
  5
131
100
AcDbEntity
100
AcDbLine
  8
0
 62
256
370
-1
 48
1.0
  6
BYLAYER
 10
345.2770778489291956
 20
75.5216531120853318
 30
0.0
 11
345.2770778489292525
 21
78.4981148213606303
 31
0.0
  0
ARC
  5
132
100
AcDbEntity
  8
0
 62
256
370
-1
 48
1.0
  6
BYLAYER
100
AcDbCircle
 10
344.737077848929232
 20
78.4981148213606303
 30
0.0
 40
0.5399999999999999
100
AcDbArc
 50
0.0
 51
60.0000000000027853
  0
LINE
  5
133
100
AcDbEntity
100
AcDbLine
  8
0
 62
256
370
-1
 48
1.0
  6
BYLAYER
 10
336.5232373864411102
 20
77.971057121254205
 30
0.0
 11
333.9455459328170832
 21
76.4828262666166978
 31
0.0
  0
ARC
  5
134
100
AcDbEntity
  8
0
 62
256
370
-1
 48
1.0
  6
BYLAYER
100
AcDbCircle
 10
336.2532373864410715
 20
78.4387108392977979
 30
0.0
 40
0.5399999999999999
100
AcDbArc
 50
299.9999999999972147
 51
0.0
  0
LINE
  5
135
100
AcDbEntity
100
AcDbLine
  8
0
 62
256
370
-1
 48
1.0
  6
BYLAYER
 10
333.4055459328171196
 20
76.4828262666166978
 30
0.0
 11
330.8278544791931495
 21
77.9710571212542192
 31
0.0
  0
ARC
  5
136
100
AcDbEntity
  8
0
 62
256
370
-1
 48
1.0
  6
BYLAYER
100
AcDbCircle
 10
333.6755459328171582
 20
76.9504799846603333
 30
0.0
 40
0.5399999999999999
100
AcDbArc
 50
240.0000000000028137
 51
299.9999999999972147
  0
LINE
  5
137
100
AcDbEntity
100
AcDbLine
  8
0
 62
256
370
-1
 48
1.0
  6
BYLAYER
 10
330.5578544791931108
 20
78.4387108392978121
 30
0.0
 11
330.5578544791931108
 21
81.4151725485730964
 31
0.0
  0
ARC
  5
138
100
AcDbEntity
  8
0
 62
256
370
-1
 48
1.0
  6
BYLAYER
100
AcDbCircle
 10
331.0978544791931313
 20
78.4387108392978121
 30
0.0
 40
0.5399999999999999
100
AcDbArc
 50
180.0
 51
240.0000000000028137
  0
LINE
  5
139
100
AcDbEntity
100
AcDbLine
  8
0
 62
256
370
-1
 48
1.0
  6
BYLAYER
 10
330.8278544791931495
 20
81.8828262666166609
 30
0.0
 11
333.4055459328171196
 21
83.3710571212542106
 31
0.0
  0
ARC
  5
13A
100
AcDbEntity
  8
0
 62
256
370
-1
 48
1.0
  6
BYLAYER
100
AcDbCircle
 10
331.0978544791931313
 20
81.415172548573139
 30
0.0
 40
0.5399999999999999
100
AcDbArc
 50
119.9999999999972147
 51
180.0
  0
LINE
  5
13B
100
AcDbEntity
100
AcDbLine
  8
0
 62
256
370
-1
 48
1.0
  6
BYLAYER
 10
333.9455459328171401
 20
83.3710571212542249
 30
0.0
 11
336.5232373864411102
 21
81.8828262666167035
 31
0.0
  0
ARC
  5
13C
100
AcDbEntity
  8
0
 62
256
370
-1
 48
1.0
  6
BYLAYER
100
AcDbCircle
 10
333.6755459328171582
 20
82.9034034032106888
 30
0.0
 40
0.5399999999999999
100
AcDbArc
 50
60.0000000000027853
 51
119.9999999999972147
  0
LINE
  5
13D
100
AcDbEntity
100
AcDbLine
  8
0
 62
256
370
-1
 48
1.0
  6
BYLAYER
 10
336.793237386441092
 20
78.4387108392977979
 30
0.0
 11
336.793237386441092
 21
81.4151725485730964
 31
0.0
  0
ARC
  5
13E
100
AcDbEntity
  8
0
 62
256
370
-1
 48
1.0
  6
BYLAYER
100
AcDbCircle
 10
336.2532373864410715
 20
81.4151725485730964
 30
0.0
 40
0.5399999999999999
100
AcDbArc
 50
0.0
 51
60.0000000000027853
  0
LINE
  5
13F
100
AcDbEntity
100
AcDbLine
  8
0
 62
256
370
-1
 48
1.0
  6
BYLAYER
 10
280.9012550772353052
 20
159.3028768043998582
 30
0.0
 11
279.2012550772352597
 21
159.3028768043998582
 31
0.0
  0
LINE
  5
140
100
AcDbEntity
100
AcDbLine
  8
0
 62
256
370
-1
 48
1.0
  6
BYLAYER
 10
280.9012550772353052
 20
159.3028768043998582
 30
0.0
 11
280.9012550772352483
 21
151.3028768043998582
 31
0.0
  0
LINE
  5
141
100
AcDbEntity
100
AcDbLine
  8
0
 62
256
370
-1
 48
1.0
  6
BYLAYER
 10
280.9012550772352483
 20
151.3028768043998582
 30
0.0
 11
279.2012550772352597
 21
151.3028768043998582
 31
0.0
  0
LINE
  5
142
100
AcDbEntity
100
AcDbLine
  8
0
 62
256
370
-1
 48
1.0
  6
BYLAYER
 10
323.2012551070377526
 20
141.3028768044006824
 30
0.0
 11
321.5012551070377071
 21
141.3028768044006824
 31
0.0
  0
LINE
  5
143
100
AcDbEntity
100
AcDbLine
  8
0
 62
256
370
-1
 48
1.0
  6
BYLAYER
 10
321.5012551070377071
 20
141.3028768044006824
 30
0.0
 11
321.5012551070377071
 21
133.3028768044006824
 31
0.0
  0
LINE
  5
144
100
AcDbEntity
100
AcDbLine
  8
0
 62
256
370
-1
 48
1.0
  6
BYLAYER
 10
323.2012551070377526
 20
141.3028768044006824
 30
0.0
 11
323.2012551070376958
 21
133.3028768044006824
 31
0.0
  0
LINE
  5
145
100
AcDbEntity
100
AcDbLine
  8
0
 62
256
370
-1
 48
1.0
  6
BYLAYER
 10
323.2012551070376958
 20
133.3028768044006824
 30
0.0
 11
321.5012551070377071
 21
133.3028768044006824
 31
0.0
  0
LINE
  5
146
100
AcDbEntity
100
AcDbLine
  8
0
 62
256
370
-1
 48
1.0
  6
BYLAYER
 10
323.2012553156542367
 20
159.3028768043996877
 30
0.0
 11
321.5012553156541912
 21
159.3028768043996877
 31
0.0
  0
LINE
  5
147
100
AcDbEntity
100
AcDbLine
  8
0
 62
256
370
-1
 48
1.0
  6
BYLAYER
 10
321.5012553156541912
 20
159.3028768043996877
 30
0.0
 11
321.5012553156541912
 21
151.3028768043996877
 31
0.0
  0
LINE
  5
148
100
AcDbEntity
100
AcDbLine
  8
0
 62
256
370
-1
 48
1.0
  6
BYLAYER
 10
323.2012553156542367
 20
159.3028768043996877
 30
0.0
 11
323.2012553156541799
 21
151.3028768043996877
 31
0.0
  0
LINE
  5
149
100
AcDbEntity
100
AcDbLine
  8
0
 62
256
370
-1
 48
1.0
  6
BYLAYER
 10
323.2012553156541799
 20
151.3028768043996877
 30
0.0
 11
321.5012553156541912
 21
151.3028768043996877
 31
0.0
  0
LINE
  5
14A
100
AcDbEntity
100
AcDbLine
  8
0
 62
256
370
-1
 48
1.0
  6
BYLAYER
 10
280.9012546013303222
 20
141.3028768044007393
 30
0.0
 11
279.2012546013302767
 21
141.3028768044007393
 31
0.0
  0
LINE
  5
14B
100
AcDbEntity
100
AcDbLine
  8
0
 62
256
370
-1
 48
1.0
  6
BYLAYER
 10
279.2012546013302767
 20
141.3028768044007393
 30
0.0
 11
279.2012546013302767
 21
133.3028768044007393
 31
0.0
  0
LINE
  5
14C
100
AcDbEntity
100
AcDbLine
  8
0
 62
256
370
-1
 48
1.0
  6
BYLAYER
 10
280.9012546013303222
 20
141.3028768044007393
 30
0.0
 11
280.9012546013302654
 21
133.3028768044007393
 31
0.0
  0
LINE
  5
14D
100
AcDbEntity
100
AcDbLine
  8
0
 62
256
370
-1
 48
1.0
  6
BYLAYER
 10
280.9012546013302654
 20
133.3028768044007393
 30
0.0
 11
279.2012546013302767
 21
133.3028768044007393
 31
0.0
  0
LINE
  5
14E
100
AcDbEntity
100
AcDbLine
  8
0
 62
256
370
-1
 48
1.0
  6
BYLAYER
 10
279.2012550772352597
 20
159.3028768043998582
 30
0.0
 11
279.2012550772352597
 21
151.3028768043998582
 31
0.0
  0
ENDSEC
  0
SECTION
  2
OBJECTS
  0
DICTIONARY
  5
C
100
AcDbDictionary
280
0
281
1
  3
ACAD_GROUP
350
D
  3
ACAD_LAYOUT
350
1A
  3
ACAD_MLINESTYLE
350
17
  3
ACAD_PLOTSETTINGS
350
19
  3
ACAD_PLOTSTYLENAME
350
E
  3
AcDbVariableDictionary
350
14F
  3
QCAD_OBJECTS
350
150
  0
DICTIONARY
  5
D
100
AcDbDictionary
280
0
281
1
  0
ACDBDICTIONARYWDFLT
  5
E
100
AcDbDictionary
281
1
  3
Normal
350
F
100
AcDbDictionaryWithDefault
340
F
  0
ACDBPLACEHOLDER
  5
F
  0
DICTIONARY
  5
17
100
AcDbDictionary
280
0
281
1
  3
Standard
350
18
  0
MLINESTYLE
  5
18
100
AcDbMlineStyle
  2
STANDARD
 70
0
  3

 62
256
 51
90.0
 52
90.0
 71
2
 49
0.5
 62
256
  6
BYLAYER
 49
-0.5
 62
256
  6
BYLAYER
  0
DICTIONARY
  5
19
100
AcDbDictionary
280
0
281
1
  0
DICTIONARY
  5
1A
100
AcDbDictionary
281
1
  3
Layout1
350
1E
  3
Layout2
350
26
  3
Model
350
22
  0
LAYOUT
  5
1E
100
AcDbPlotSettings
  1

  2
none_device
  4

  6

 40
0.0
 41
0.0
 42
0.0
 43
0.0
 44
0.0
 45
0.0
 46
0.0
 47
0.0
 48
0.0
 49
0.0
140
0.0
141
0.0
142
1.0
143
1.0
 70
688
 72
0
 73
0
 74
5
  7

 75
16
147
1.0
148
0.0
149
0.0
100
AcDbLayout
  1
Layout1
 70
1
 71
1
 10
0.0
 20
0.0
 11
420.0
 21
297.0
 12
0.0
 22
0.0
 32
0.0
 14
100000000000000000000.0
 24
100000000000000000000.0
 34
100000000000000000000.0
 15
-100000000000000000000.0
 25
-100000000000000000000.0
 35
-100000000000000000000.0
146
0.0
 13
0.0
 23
0.0
 33
0.0
 16
1.0
 26
0.0
 36
0.0
 17
0.0
 27
1.0
 37
0.0
 76
0
330
1B
  0
LAYOUT
  5
22
100
AcDbPlotSettings
  1

  2
none_device
  4

  6

 40
0.0
 41
0.0
 42
0.0
 43
0.0
 44
0.0
 45
0.0
 46
0.0
 47
0.0
 48
0.0
 49
0.0
140
0.0
141
0.0
142
1.0
143
1.0
 70
1712
 72
0
 73
0
 74
0
  7

 75
0
147
1.0
148
0.0
149
0.0
100
AcDbLayout
  1
Model
 70
1
 71
0
 10
0.0
 20
0.0
 11
12.0
 21
9.0
 12
0.0
 22
0.0
 32
0.0
 14
0.0
 24
0.0
 34
0.0
 15
0.0
 25
0.0
 35
0.0
146
0.0
 13
0.0
 23
0.0
 33
0.0
 16
1.0
 26
0.0
 36
0.0
 17
0.0
 27
1.0
 37
0.0
 76
0
330
1F
  0
LAYOUT
  5
26
100
AcDbPlotSettings
  1

  2
none_device
  4

  6

 40
0.0
 41
0.0
 42
0.0
 43
0.0
 44
0.0
 45
0.0
 46
0.0
 47
0.0
 48
0.0
 49
0.0
140
0.0
141
0.0
142
1.0
143
1.0
 70
688
 72
0
 73
0
 74
5
  7

 75
16
147
1.0
148
0.0
149
0.0
100
AcDbLayout
  1
Layout2
 70
1
 71
2
 10
0.0
 20
0.0
 11
12.0
 21
9.0
 12
0.0
 22
0.0
 32
0.0
 14
0.0
 24
0.0
 34
0.0
 15
0.0
 25
0.0
 35
0.0
146
0.0
 13
0.0
 23
0.0
 33
0.0
 16
1.0
 26
0.0
 36
0.0
 17
0.0
 27
1.0
 37
0.0
 76
0
330
23
  0
DICTIONARY
  5
14F
100
AcDbDictionary
281
1
  3
DIMASSOC
350
152
  3
HIDETEXT
350
151
  0
DICTIONARYVAR
  5
151
100
DictionaryVariables
280
0
  1
2
  0
DICTIONARYVAR
  5
152
100
DictionaryVariables
280
0
  1
1
  0
DICTIONARY
  5
150
100
AcDbDictionary
281
1
  3
ColorSettings/BackgroundColor
350
153
  3
ColorSettings/ColorMode
350
154
  3
Grid/DisplayGrid00
350
155
  3
Grid/DisplayGrid01
350
156
  3
Grid/DisplayGrid02
350
157
  3
Grid/DisplayGrid03
350
158
  3
Grid/GridSpacingX00
350
159
  3
Grid/GridSpacingX01
350
15A
  3
Grid/GridSpacingX02
350
15B
  3
Grid/GridSpacingX03
350
15C
  3
Grid/GridSpacingY00
350
15D
  3
Grid/GridSpacingY01
350
15E
  3
Grid/GridSpacingY02
350
15F
  3
Grid/GridSpacingY03
350
160
  3
Grid/IsometricGrid00
350
161
  3
Grid/IsometricGrid01
350
162
  3
Grid/IsometricGrid02
350
163
  3
Grid/IsometricGrid03
350
164
  3
Grid/IsometricProjection00
350
165
  3
Grid/IsometricProjection01
350
166
  3
Grid/IsometricProjection02
350
167
  3
Grid/IsometricProjection03
350
168
  3
Grid/MetaGridSpacingX00
350
169
  3
Grid/MetaGridSpacingX01
350
16A
  3
Grid/MetaGridSpacingX02
350
16B
  3
Grid/MetaGridSpacingX03
350
16C
  3
Grid/MetaGridSpacingY00
350
16D
  3
Grid/MetaGridSpacingY01
350
16E
  3
Grid/MetaGridSpacingY02
350
16F
  3
Grid/MetaGridSpacingY03
350
170
  3
MultiPageSettings/Columns
350
171
  3
MultiPageSettings/GlueMarginsBottom
350
172
  3
MultiPageSettings/GlueMarginsLeft
350
173
  3
MultiPageSettings/GlueMarginsRight
350
174
  3
MultiPageSettings/GlueMarginsTop
350
175
  3
MultiPageSettings/PrintCropMarks
350
176
  3
MultiPageSettings/Rows
350
177
  3
PageSettings/OffsetX
350
178
  3
PageSettings/OffsetY
350
179
  3
PageSettings/PageOrientation
350
17A
  3
PageSettings/PaperHeight
350
17B
  3
PageSettings/PaperWidth
350
17C
  3
PageSettings/Scale
350
17D
  3
PageSettings/ShowPaperBorders
350
17E
  3
UnitSettings/PaperUnit
350
17F
  0
XRECORD
  5
153
330
150
100
AcDbXrecord
280
1
1000
White
  0
XRECORD
  5
154
330
150
100
AcDbXrecord
280
1
1000
FullColor
  0
XRECORD
  5
155
330
150
100
AcDbXrecord
280
1
290
1
  0
XRECORD
  5
156
330
150
100
AcDbXrecord
280
1
290
1
  0
XRECORD
  5
157
330
150
100
AcDbXrecord
280
1
290
1
  0
XRECORD
  5
158
330
150
100
AcDbXrecord
280
1
290
1
  0
XRECORD
  5
159
330
150
100
AcDbXrecord
280
1
1000
auto
  0
XRECORD
  5
15A
330
150
100
AcDbXrecord
280
1
1000
auto
  0
XRECORD
  5
15B
330
150
100
AcDbXrecord
280
1
1000
auto
  0
XRECORD
  5
15C
330
150
100
AcDbXrecord
280
1
1000
auto
  0
XRECORD
  5
15D
330
150
100
AcDbXrecord
280
1
1000
auto
  0
XRECORD
  5
15E
330
150
100
AcDbXrecord
280
1
1000
auto
  0
XRECORD
  5
15F
330
150
100
AcDbXrecord
280
1
1000
auto
  0
XRECORD
  5
160
330
150
100
AcDbXrecord
280
1
1000
auto
  0
XRECORD
  5
161
330
150
100
AcDbXrecord
280
1
290
0
  0
XRECORD
  5
162
330
150
100
AcDbXrecord
280
1
290
0
  0
XRECORD
  5
163
330
150
100
AcDbXrecord
280
1
290
0
  0
XRECORD
  5
164
330
150
100
AcDbXrecord
280
1
290
0
  0
XRECORD
  5
165
330
150
100
AcDbXrecord
280
1
 90
0
  0
XRECORD
  5
166
330
150
100
AcDbXrecord
280
1
 90
0
  0
XRECORD
  5
167
330
150
100
AcDbXrecord
280
1
 90
0
  0
XRECORD
  5
168
330
150
100
AcDbXrecord
280
1
 90
0
  0
XRECORD
  5
169
330
150
100
AcDbXrecord
280
1
1000
auto
  0
XRECORD
  5
16A
330
150
100
AcDbXrecord
280
1
1000
auto
  0
XRECORD
  5
16B
330
150
100
AcDbXrecord
280
1
1000
auto
  0
XRECORD
  5
16C
330
150
100
AcDbXrecord
280
1
1000
auto
  0
XRECORD
  5
16D
330
150
100
AcDbXrecord
280
1
1000
auto
  0
XRECORD
  5
16E
330
150
100
AcDbXrecord
280
1
1000
auto
  0
XRECORD
  5
16F
330
150
100
AcDbXrecord
280
1
1000
auto
  0
XRECORD
  5
170
330
150
100
AcDbXrecord
280
1
1000
auto
  0
XRECORD
  5
171
330
150
100
AcDbXrecord
280
1
 90
1
  0
XRECORD
  5
172
330
150
100
AcDbXrecord
280
1
 40
10.0
  0
XRECORD
  5
173
330
150
100
AcDbXrecord
280
1
 40
10.0
  0
XRECORD
  5
174
330
150
100
AcDbXrecord
280
1
 40
10.0
  0
XRECORD
  5
175
330
150
100
AcDbXrecord
280
1
 40
10.0
  0
XRECORD
  5
176
330
150
100
AcDbXrecord
280
1
290
0
  0
XRECORD
  5
177
330
150
100
AcDbXrecord
280
1
 90
1
  0
XRECORD
  5
178
330
150
100
AcDbXrecord
280
1
 40
0.0
  0
XRECORD
  5
179
330
150
100
AcDbXrecord
280
1
 40
0.0
  0
XRECORD
  5
17A
330
150
100
AcDbXrecord
280
1
1000
Portrait
  0
XRECORD
  5
17B
330
150
100
AcDbXrecord
280
1
 40
297.0
  0
XRECORD
  5
17C
330
150
100
AcDbXrecord
280
1
 40
210.0
  0
XRECORD
  5
17D
330
150
100
AcDbXrecord
280
1
1000
1:1
  0
XRECORD
  5
17E
330
150
100
AcDbXrecord
280
1
290
1
  0
XRECORD
  5
17F
330
150
100
AcDbXrecord
280
1
 90
4
  0
ENDSEC
  0
EOF
