999
dxflib 3.7.5.0
  0
SECTION
  2
HEADER
  9
$ACADVER
  1
AC1015
  9
$HANDSEED
  5
FFFF
  9
$DIMADEC
 70
0
  9
$DIMASZ
 40
2.5
  9
$DIMAUNIT
 70
0
  9
$DIMAZIN
 70
2
  9
$DIMDEC
 70
4
  9
$DIMEXE
 40
1.25
  9
$DIMEXO
 40
0.625
  9
$DIMGAP
 40
0.625
  9
$DIMLUNIT
 70
2
  9
$DIMSCALE
 40
1.0
  9
$DIMTSZ
 40
0.0
  9
$DIMTXT
 40
2.5
  9
$DIMZIN
 70
8
  9
$DWGCODEPAGE
  3
ANSI_1252
  9
$INSUNITS
 70
4
  9
$LTSCALE
 40
1
  0
ENDSEC
  0
SECTION
  2
TABLES
  0
TABLE
  2
VPORT
  5
8
100
AcDbSymbolTable
 70
1
  0
VPORT
  5
30
100
AcDbSymbolTableRecord
100
AcDbViewportTableRecord
  2
*Active
 70
0
 10
0.0
 20
0.0
 11
1.0
 21
1.0
 12
286.3055555555554861
 22
148.5
 13
0.0
 23
0.0
 14
10.0
 24
10.0
 15
10.0
 25
10.0
 16
0.0
 26
0.0
 36
1.0
 17
0.0
 27
0.0
 37
0.0
 40
297.0
 41
1.92798353909465
 42
50.0
 43
0.0
 44
0.0
 50
0.0
 51
0.0
 71
0
 72
100
 73
1
 74
3
 75
1
 76
1
 77
0
 78
0
281
0
 65
1
110
0.0
120
0.0
130
0.0
111
1.0
121
0.0
131
0.0
112
0.0
122
1.0
132
0.0
 79
0
146
0.0
  0
ENDTAB
  0
TABLE
  2
LTYPE
  5
5
100
AcDbSymbolTable
 70
3
  0
LTYPE
  5
16
100
AcDbSymbolTableRecord
100
AcDbLinetypeTableRecord
  2
Continuous
 70
0
  3
Solid line
 72
65
 73
0
 40
0.0
  0
LTYPE
  5
15
100
AcDbSymbolTableRecord
100
AcDbLinetypeTableRecord
  2
BYLAYER
 70
0
  3

 72
65
 73
0
 40
0.0
  0
LTYPE
  5
14
100
AcDbSymbolTableRecord
100
AcDbLinetypeTableRecord
  2
BYBLOCK
 70
0
  3

 72
65
 73
0
 40
0.0
  0
ENDTAB
  0
TABLE
  2
LAYER
  5
2
100
AcDbSymbolTable
 70
1
  0
LAYER
  5
10
100
AcDbSymbolTableRecord
100
AcDbLayerTableRecord
  2
0
 70
0
 62
7
420
16777215
  6
Continuous
370
25
390
F
  0
ENDTAB
  0
TABLE
  2
STYLE
  5
3
100
AcDbSymbolTable
 70
1
  0
STYLE
  5
31
100
AcDbSymbolTableRecord
100
AcDbTextStyleTableRecord
  2
Standard
 70
0
 40
0.0
 41
1.0
 50
0.0
 71
0
 42
2.5
  3

  4

1001
ACAD
1000
txt
1071
0
  0
ENDTAB
  0
TABLE
  2
VIEW
  5
6
100
AcDbSymbolTable
 70
0
  0
ENDTAB
  0
TABLE
  2
UCS
  5
7
100
AcDbSymbolTable
 70
0
  0
ENDTAB
  0
TABLE
  2
APPID
  5
9
100
AcDbSymbolTable
 70
1
  0
APPID
  5
12
100
AcDbSymbolTableRecord
100
AcDbRegAppTableRecord
  2
ACAD
 70
0
  0
APPID
  5
32
100
AcDbSymbolTableRecord
100
AcDbRegAppTableRecord
  2
QCAD
 70
0
  0
ENDTAB
  0
TABLE
  2
DIMSTYLE
  5
A
100
AcDbSymbolTable
 70
1
100
AcDbDimStyleTable
 71
0
  0
DIMSTYLE
105
27
100
AcDbSymbolTableRecord
100
AcDbDimStyleTableRecord
  2
Standard
 41
2.5
 42
0.625
 43
3.75
 44
1.25
 70
0
 73
0
 74
0
 77
1
 78
8
140
2.5
141
2.5
143
0.03937007874016
147
0.625
171
3
172
1
271
2
272
2
274
3
278
44
283
0
284
8
340
31
  0
ENDTAB
  0
TABLE
  2
BLOCK_RECORD
  5
1
100
AcDbSymbolTable
 70
1
  0
BLOCK_RECORD
  5
1F
100
AcDbSymbolTableRecord
100
AcDbBlockTableRecord
  2
*Model_Space
340
22
  0
BLOCK_RECORD
  5
1B
100
AcDbSymbolTableRecord
100
AcDbBlockTableRecord
  2
*Paper_Space
340
1E
  0
BLOCK_RECORD
  5
23
100
AcDbSymbolTableRecord
100
AcDbBlockTableRecord
  2
*Paper_Space0
340
26
  0
ENDTAB
  0
ENDSEC
  0
SECTION
  2
BLOCKS
  0
BLOCK
  5
20
100
AcDbEntity
  8
0
100
AcDbBlockBegin
  2
*Model_Space
 70
0
 10
0.0
 20
0.0
 30
0.0
  3
*Model_Space
  1

  0
ENDBLK
  5
21
100
AcDbEntity
  8
0
100
AcDbBlockEnd
  0
BLOCK
  5
1C
100
AcDbEntity
 67
1
  8
0
100
AcDbBlockBegin
  2
*Paper_Space
 70
0
 10
0.0
 20
0.0
 30
0.0
  3
*Paper_Space
  1

  0
ENDBLK
  5
1D
100
AcDbEntity
 67
1
  8
0
100
AcDbBlockEnd
  0
BLOCK
  5
24
100
AcDbEntity
  8
0
100
AcDbBlockBegin
  2
*Paper_Space0
 70
0
 10
0.0
 20
0.0
 30
0.0
  3
*Paper_Space0
  1

  0
ENDBLK
  5
25
100
AcDbEntity
  8
0
100
AcDbBlockEnd
  0
ENDSEC
  0
SECTION
  2
ENTITIES
  0
LINE
  5
33
100
AcDbEntity
100
AcDbLine
  8
0
 62
256
370
-1
 48
1.0
  6
BYLAYER
 10
4.3618556962451356
 20
21.7945238932430208
 30
0.0
 11
4.3618556962451365
 21
33.8945238932430186
 31
0.0
  0
LINE
  5
34
100
AcDbEntity
100
AcDbLine
  8
0
 62
256
370
-1
 48
1.0
  6
BYLAYER
 10
3.9330204155542035
 20
83.7165304986205427
 30
0.0
 11
26.4330204155542035
 21
83.7165304986205427
 31
0.0
  0
LINE
  5
35
100
AcDbEntity
100
AcDbLine
  8
0
 62
256
370
-1
 48
1.0
  6
BYLAYER
 10
103.5669795844458037
 20
83.7165304986205427
 30
0.0
 11
126.0669795844458037
 21
83.7165304986205427
 31
0.0
  0
LINE
  5
36
100
AcDbEntity
100
AcDbLine
  8
0
 62
256
370
-1
 48
1.0
  6
BYLAYER
 10
103.5669795844458037
 20
83.7165304986205427
 30
0.0
 11
96.4959117725803281
 21
76.6454626867550672
 31
0.0
  0
LINE
  5
37
100
AcDbEntity
100
AcDbLine
  8
0
 62
256
370
-1
 48
1.0
  6
BYLAYER
 10
33.504088227419679
 20
76.6454626867550672
 30
0.0
 11
26.4330204155542035
 21
83.7165304986205427
 31
0.0
  0
LINE
  5
38
100
AcDbEntity
100
AcDbLine
  8
0
 62
256
370
-1
 48
1.0
  6
BYLAYER
 10
33.4959117725803281
 20
76.6454626867550672
 30
0.0
 11
96.4959117725803281
 21
76.6454626867550672
 31
0.0
  0
CIRCLE
  5
39
100
AcDbEntity
100
AcDbCircle
  8
0
 62
256
370
-1
 48
1.0
  6
BYLAYER
 10
100.0
 20
50.0
 30
0.0
 40
6.0
  0
CIRCLE
  5
3A
100
AcDbEntity
100
AcDbCircle
  8
0
 62
256
370
-1
 48
1.0
  6
BYLAYER
 10
30.0
 20
50.0
 30
0.0
 40
6.0
  0
CIRCLE
  5
3B
100
AcDbEntity
100
AcDbCircle
  8
0
 62
256
370
-1
 48
1.0
  6
BYLAYER
 10
80.0
 20
50.0
 30
0.0
 40
6.0
  0
CIRCLE
  5
3C
100
AcDbEntity
100
AcDbCircle
  8
0
 62
256
370
-1
 48
1.0
  6
BYLAYER
 10
50.0
 20
50.0
 30
0.0
 40
6.0
  0
LINE
  5
3D
100
AcDbEntity
100
AcDbLine
  8
0
 62
256
370
-1
 48
1.0
  6
BYLAYER
 10
126.0669795844458037
 20
83.7165304986205427
 30
0.0
 11
170.0836216174670597
 21
93.0725565854197328
 31
0.0
  0
LINE
  5
3E
100
AcDbEntity
100
AcDbLine
  8
0
 62
256
370
-1
 48
1.0
  6
BYLAYER
 10
-40.0836216174670525
 20
93.0725565854197043
 30
0.0
 11
3.9330204155542035
 21
83.7165304986205427
 31
0.0
  0
LINE
  5
3F
100
AcDbEntity
100
AcDbLine
  8
0
 62
256
370
-1
 48
1.0
  6
BYLAYER
 10
-47.2820553564707353
 20
61.8927145122921729
 30
0.0
 11
-40.0836216174670525
 21
93.0725565854197043
 31
0.0
  0
LINE
  5
40
100
AcDbEntity
100
AcDbLine
  8
0
 62
256
370
-1
 48
1.0
  6
BYLAYER
 10
170.0836216174670597
 20
93.0725565854197328
 30
0.0
 11
177.2820553564707495
 21
61.8927145122922013
 31
0.0
  0
LINE
  5
41
100
AcDbEntity
100
AcDbLine
  8
0
 62
256
370
-1
 48
1.0
  6
BYLAYER
 10
177.2820553564707495
 20
61.8927145122922013
 30
0.0
 11
147.211891491321694
 21
50.9480699258708043
 31
0.0
  0
LINE
  5
42
100
AcDbEntity
100
AcDbLine
  8
0
 62
256
370
-1
 48
1.0
  6
BYLAYER
 10
-17.2118914913216656
 20
50.9480699258707759
 30
0.0
 11
-47.2820553564707353
 21
61.8927145122921729
 31
0.0
  0
LINE
  5
43
100
AcDbEntity
100
AcDbLine
  8
0
 62
256
370
-1
 48
1.0
  6
BYLAYER
 10
-17.2118914913216656
 20
50.9480699258707759
 30
0.0
 11
4.3618556962451365
 21
33.8945238932430257
 31
0.0
  0
LINE
  5
44
100
AcDbEntity
100
AcDbLine
  8
0
 62
256
370
-1
 48
1.0
  6
BYLAYER
 10
147.211891491321694
 20
50.9480699258708043
 30
0.0
 11
125.6381443037548706
 21
33.8945238932430897
 31
0.0
  0
LINE
  5
45
100
AcDbEntity
100
AcDbLine
  8
0
 62
256
370
-1
 48
1.0
  6
BYLAYER
 10
49.25
 20
69.0
 30
0.0
 11
80.75
 21
69.0
 31
0.0
  0
LINE
  5
46
100
AcDbEntity
100
AcDbLine
  8
0
 62
256
370
-1
 48
1.0
  6
BYLAYER
 10
49.5
 20
63.0000000000000213
 30
0.0
 11
81.0
 21
62.9999999999999858
 31
0.0
  0
ARC
  5
47
100
AcDbEntity
  8
0
 62
256
370
-1
 48
1.0
  6
BYLAYER
100
AcDbCircle
 10
81.1250000000000142
 20
65.9926273162397763
 30
0.0
 40
2.9952367609104305
100
AcDbArc
 50
267.60818473851009
 51
94.35914215592733
  0
ARC
  5
48
100
AcDbEntity
  8
0
 62
256
370
-1
 48
1.0
  6
BYLAYER
100
AcDbCircle
 10
49.1499999999999986
 20
66.0000000000035243
 30
0.0
 40
2.9914925701586421
100
AcDbArc
 50
89.6702511496986006
 51
276.6544250460066223
  0
LINE
  5
49
100
AcDbEntity
100
AcDbLine
  8
0
 62
256
370
-1
 48
1.0
  6
BYLAYER
 10
49.0869372488348716
 20
36.165026267109134
 30
0.0
 11
80.5869372488348716
 21
36.1650262671091411
 31
0.0
  0
LINE
  5
4A
100
AcDbEntity
100
AcDbLine
  8
0
 62
256
370
-1
 48
1.0
  6
BYLAYER
 10
49.3369372488348716
 20
30.1650262671091589
 30
0.0
 11
80.8369372488348716
 21
30.1650262671091269
 31
0.0
  0
ARC
  5
4B
100
AcDbEntity
  8
0
 62
256
370
-1
 48
1.0
  6
BYLAYER
100
AcDbCircle
 10
80.9619372488348858
 20
33.1576535833489245
 30
0.0
 40
2.9952367609104305
100
AcDbArc
 50
267.60818473851009
 51
94.35914215592733
  0
ARC
  5
4C
100
AcDbEntity
  8
0
 62
256
370
-1
 48
1.0
  6
BYLAYER
100
AcDbCircle
 10
48.9869372488348702
 20
33.1650262671126654
 30
0.0
 40
2.9914925701586421
100
AcDbArc
 50
89.6702511496986006
 51
276.6544250460066223
  0
CIRCLE
  5
4D
100
AcDbEntity
100
AcDbCircle
  8
0
 62
256
370
-1
 48
1.0
  6
BYLAYER
 10
-30.505094811341813
 20
86.6787374750383606
 30
0.0
 40
1.5
  0
CIRCLE
  5
4E
100
AcDbEntity
100
AcDbCircle
  8
0
 62
256
370
-1
 48
1.0
  6
BYLAYER
 10
-36.4751429989027685
 20
87.9531779226511077
 30
0.0
 40
1.5
  0
LINE
  5
4F
100
AcDbEntity
100
AcDbLine
  8
0
 62
256
370
-1
 48
1.0
  6
BYLAYER
 10
169.9887199953427057
 20
93.077427755144484
 30
0.0
 11
125.9720779623214355
 21
83.7214016683453224
 31
0.0
  0
LINE
  5
50
100
AcDbEntity
100
AcDbLine
  8
0
 62
256
370
-1
 48
1.0
  6
BYLAYER
 10
177.1871537343463672
 20
61.8975856820169525
 30
0.0
 11
169.9887199953427057
 21
93.077427755144484
 31
0.0
  0
CIRCLE
  5
51
100
AcDbEntity
100
AcDbCircle
  8
0
 62
256
370
-1
 48
1.0
  6
BYLAYER
 10
160.4101931892174377
 20
86.6836086447631402
 30
0.0
 40
1.5
  0
CIRCLE
  5
52
100
AcDbEntity
100
AcDbCircle
  8
0
 62
256
370
-1
 48
1.0
  6
BYLAYER
 10
166.3802413767784003
 20
87.9580490923758873
 30
0.0
 40
1.5
  0
LINE
  5
53
100
AcDbEntity
100
AcDbLine
  8
0
 62
256
370
-1
 48
1.0
  6
BYLAYER
 10
-16.0211838108782985
 20
57.6929092894465327
 30
0.0
 11
-30.821342588256357
 21
63.0797265468258104
 31
0.0
  0
LINE
  5
54
100
AcDbEntity
100
AcDbLine
  8
0
 62
256
370
-1
 48
1.0
  6
BYLAYER
 10
-17.1647058184535375
 20
54.9165839450045326
 30
0.0
 11
-31.9648645958316031
 21
60.3034012023837889
 31
0.0
  0
ARC
  5
55
100
AcDbEntity
  8
0
 62
256
370
-1
 48
1.0
  6
BYLAYER
100
AcDbCircle
 10
-31.5118259728204748
 20
61.730852364257899
 30
0.0
 40
1.4976183804552152
100
AcDbArc
 50
65.64085784407267
 51
252.3918152614899384
  0
ARC
  5
56
100
AcDbEntity
  8
0
 62
256
370
-1
 48
1.0
  6
BYLAYER
100
AcDbCircle
 10
-16.4872293948269757
 20
56.2662693511028493
 30
0.0
 40
1.4957462850793211
100
AcDbArc
 50
243.3455749539934061
 51
70.3297488503013994
  0
LINE
  5
57
100
AcDbEntity
100
AcDbLine
  8
0
 62
256
370
-1
 48
1.0
  6
BYLAYER
 10
147.075122258212474
 20
50.8597995905788309
 30
0.0
 11
177.1452861233615295
 21
61.8044441770002209
 31
0.0
  0
LINE
  5
58
100
AcDbEntity
100
AcDbLine
  8
0
 62
256
370
-1
 48
1.0
  6
BYLAYER
 10
145.8844145777690926
 20
57.6046389541545949
 30
0.0
 11
160.6845733551471653
 21
62.9914562115338654
 31
0.0
  0
LINE
  5
59
100
AcDbEntity
100
AcDbLine
  8
0
 62
256
370
-1
 48
1.0
  6
BYLAYER
 10
147.0279365853443494
 20
54.8283136097125734
 30
0.0
 11
161.8280953627224221
 21
60.2151308670918439
 31
0.0
  0
ARC
  5
5A
100
AcDbEntity
  8
0
 62
256
370
-1
 48
1.0
  6
BYLAYER
100
AcDbCircle
 10
161.3750567397112832
 20
61.6425820289659541
 30
0.0
 40
1.4976183804552152
100
AcDbArc
 50
287.6081847385100332
 51
114.3591421559273016
  0
ARC
  5
5B
100
AcDbEntity
  8
0
 62
256
370
-1
 48
1.0
  6
BYLAYER
100
AcDbCircle
 10
146.3504601617177912
 20
56.1779990158109044
 30
0.0
 40
1.4957462850793211
100
AcDbArc
 50
109.670251149698629
 51
296.6544250460065655
  0
CIRCLE
  5
5C
100
AcDbEntity
100
AcDbCircle
  8
0
 62
256
370
-1
 48
1.0
  6
BYLAYER
 10
8.457587688081686
 20
26.9830967209648342
 30
0.0
 40
1.6000000000000001
  0
CIRCLE
  5
5D
100
AcDbEntity
100
AcDbCircle
  8
0
 62
256
370
-1
 48
1.0
  6
BYLAYER
 10
30.4575876880816878
 20
26.9830967209648307
 30
0.0
 40
1.6000000000000001
  0
CIRCLE
  5
5E
100
AcDbEntity
100
AcDbCircle
  8
0
 62
256
370
-1
 48
1.0
  6
BYLAYER
 10
99.5308357484119455
 20
27.0052281221777832
 30
0.0
 40
1.6000000000000001
  0
CIRCLE
  5
5F
100
AcDbEntity
100
AcDbCircle
  8
0
 62
256
370
-1
 48
1.0
  6
BYLAYER
 10
121.5308357484119455
 20
27.0052281221777797
 30
0.0
 40
1.6000000000000001
  0
CIRCLE
  5
60
100
AcDbEntity
100
AcDbCircle
  8
0
 62
256
370
-1
 48
1.0
  6
BYLAYER
 10
99.5
 20
65.0
 30
0.0
 40
1.6000000000000001
  0
CIRCLE
  5
61
100
AcDbEntity
100
AcDbCircle
  8
0
 62
256
370
-1
 48
1.0
  6
BYLAYER
 10
121.5
 20
65.0
 30
0.0
 40
1.6000000000000001
  0
CIRCLE
  5
62
100
AcDbEntity
100
AcDbCircle
  8
0
 62
256
370
-1
 48
1.0
  6
BYLAYER
 10
8.5
 20
65.0
 30
0.0
 40
1.6000000000000001
  0
CIRCLE
  5
63
100
AcDbEntity
100
AcDbCircle
  8
0
 62
256
370
-1
 48
1.0
  6
BYLAYER
 10
30.5
 20
65.0
 30
0.0
 40
1.6000000000000001
  0
LINE
  5
64
100
AcDbEntity
100
AcDbLine
  8
0
 62
256
370
-1
 48
1.0
  6
BYLAYER
 10
100.0
 20
40.0
 30
0.0
 11
115.0
 21
40.0
 31
0.0
  0
LINE
  5
65
100
AcDbEntity
100
AcDbLine
  8
0
 62
256
370
-1
 48
1.0
  6
BYLAYER
 10
15.0
 20
40.0
 30
0.0
 11
30.0
 21
40.0
 31
0.0
  0
LINE
  5
66
100
AcDbEntity
100
AcDbLine
  8
0
 62
256
370
-1
 48
1.0
  6
BYLAYER
 10
15.0
 20
35.0
 30
0.0
 11
30.0
 21
35.0
 31
0.0
  0
LINE
  5
67
100
AcDbEntity
100
AcDbLine
  8
0
 62
256
370
-1
 48
1.0
  6
BYLAYER
 10
100.0
 20
35.0
 30
0.0
 11
115.0
 21
35.0
 31
0.0
  0
ARC
  5
68
100
AcDbEntity
  8
0
 62
256
370
-1
 48
1.0
  6
BYLAYER
100
AcDbCircle
 10
30.0
 20
37.5
 30
0.0
 40
2.5
100
AcDbArc
 50
270.0
 51
90.0
  0
ARC
  5
69
100
AcDbEntity
  8
0
 62
256
370
-1
 48
1.0
  6
BYLAYER
100
AcDbCircle
 10
115.0
 20
37.5
 30
0.0
 40
2.5
100
AcDbArc
 50
270.0
 51
90.0
  0
ARC
  5
6A
100
AcDbEntity
  8
0
 62
256
370
-1
 48
1.0
  6
BYLAYER
100
AcDbCircle
 10
100.0
 20
37.5
 30
0.0
 40
2.5
100
AcDbArc
 50
90.0
 51
270.0
  0
ARC
  5
6B
100
AcDbEntity
  8
0
 62
256
370
-1
 48
1.0
  6
BYLAYER
100
AcDbCircle
 10
15.0
 20
37.5
 30
0.0
 40
2.5
100
AcDbArc
 50
90.0
 51
270.0
  0
LINE
  5
6C
100
AcDbEntity
100
AcDbLine
  8
0
 62
256
370
-1
 48
1.0
  6
BYLAYER
 10
5.0
 20
80.0
 30
0.0
 11
20.0
 21
80.0
 31
0.0
  0
LINE
  5
6D
100
AcDbEntity
100
AcDbLine
  8
0
 62
256
370
-1
 48
1.0
  6
BYLAYER
 10
5.0
 20
74.0
 30
0.0
 11
20.0
 21
74.0
 31
0.0
  0
LINE
  5
6E
100
AcDbEntity
100
AcDbLine
  8
0
 62
256
370
-1
 48
1.0
  6
BYLAYER
 10
110.0
 20
80.0
 30
0.0
 11
125.0
 21
80.0
 31
0.0
  0
LINE
  5
6F
100
AcDbEntity
100
AcDbLine
  8
0
 62
256
370
-1
 48
1.0
  6
BYLAYER
 10
110.0
 20
74.0
 30
0.0
 11
125.0
 21
74.0
 31
0.0
  0
ARC
  5
70
100
AcDbEntity
  8
0
 62
256
370
-1
 48
1.0
  6
BYLAYER
100
AcDbCircle
 10
20.0
 20
77.0
 30
0.0
 40
3.0
100
AcDbArc
 50
270.0
 51
90.0
  0
ARC
  5
71
100
AcDbEntity
  8
0
 62
256
370
-1
 48
1.0
  6
BYLAYER
100
AcDbCircle
 10
125.0
 20
77.0
 30
0.0
 40
3.0
100
AcDbArc
 50
270.0
 51
90.0
  0
ARC
  5
72
100
AcDbEntity
  8
0
 62
256
370
-1
 48
1.0
  6
BYLAYER
100
AcDbCircle
 10
5.0
 20
77.0
 30
0.0
 40
3.0
100
AcDbArc
 50
90.0
 51
270.0
  0
ARC
  5
73
100
AcDbEntity
  8
0
 62
256
370
-1
 48
1.0
  6
BYLAYER
100
AcDbCircle
 10
110.0
 20
77.0
 30
0.0
 40
3.0
100
AcDbArc
 50
90.0
 51
270.0
  0
CIRCLE
  5
74
100
AcDbEntity
100
AcDbCircle
  8
0
 62
256
370
-1
 48
1.0
  6
BYLAYER
 10
120.0
 20
50.0
 30
0.0
 40
6.0
  0
CIRCLE
  5
75
100
AcDbEntity
100
AcDbCircle
  8
0
 62
256
370
-1
 48
1.0
  6
BYLAYER
 10
10.0
 20
50.0
 30
0.0
 40
6.0
  0
CIRCLE
  5
76
100
AcDbEntity
100
AcDbCircle
  8
0
 62
256
370
-1
 48
1.0
  6
BYLAYER
 10
168.557125571689113
 20
78.5548889146722615
 30
0.0
 40
1.5
  0
CIRCLE
  5
77
100
AcDbEntity
100
AcDbCircle
  8
0
 62
256
370
-1
 48
1.0
  6
BYLAYER
 10
140.0
 20
74.0
 30
0.0
 40
1.5
  0
CIRCLE
  5
78
100
AcDbEntity
100
AcDbCircle
  8
0
 62
256
370
-1
 48
1.0
  6
BYLAYER
 10
-10.0
 20
74.0
 30
0.0
 40
1.5
  0
CIRCLE
  5
79
100
AcDbEntity
100
AcDbCircle
  8
0
 62
256
370
-1
 48
1.0
  6
BYLAYER
 10
136.75
 20
58.5
 30
0.0
 40
1.5
  0
CIRCLE
  5
7A
100
AcDbEntity
100
AcDbCircle
  8
0
 62
256
370
-1
 48
1.0
  6
BYLAYER
 10
-6.913332859357407
 20
58.5867970201453829
 30
0.0
 40
1.5
  0
LINE
  5
7B
100
AcDbEntity
100
AcDbLine
  8
0
 62
256
370
-1
 48
1.0
  6
BYLAYER
 10
125.6381443037548706
 20
21.7945238932430883
 30
0.0
 11
125.6381443037548706
 21
33.8945238932430897
 31
0.0
  0
LINE
  5
7C
100
AcDbEntity
100
AcDbLine
  8
0
 62
256
370
-1
 48
1.0
  6
BYLAYER
 10
93.6381443037548706
 20
21.7945238932430883
 30
0.0
 11
125.6381443037548706
 21
21.7945238932430883
 31
0.0
  0
LINE
  5
7D
100
AcDbEntity
100
AcDbLine
  8
0
 62
256
370
-1
 48
1.0
  6
BYLAYER
 10
4.3618556962451356
 20
21.7945238932430243
 30
0.0
 11
36.3618556962451365
 21
21.7945238932430243
 31
0.0
  0
LINE
  5
7E
100
AcDbEntity
100
AcDbLine
  8
0
 62
256
370
-1
 48
1.0
  6
BYLAYER
 10
93.6381443037548706
 20
21.7945238932430883
 30
0.0
 11
93.6381443037548706
 21
25.7945238932430883
 31
0.0
  0
LINE
  5
7F
100
AcDbEntity
100
AcDbLine
  8
0
 62
256
370
-1
 48
1.0
  6
BYLAYER
 10
36.3618556962451365
 20
21.7945238932430243
 30
0.0
 11
36.3618556962451365
 21
25.7945238932430243
 31
0.0
  0
LINE
  5
80
100
AcDbEntity
100
AcDbLine
  8
0
 62
256
370
-1
 48
1.0
  6
BYLAYER
 10
36.3618556962451365
 20
25.7945238932430243
 30
0.0
 11
93.5618556962451464
 21
25.7945238932430243
 31
0.0
  0
CIRCLE
  5
81
100
AcDbEntity
100
AcDbCircle
  8
0
 62
256
370
-1
 48
1.0
  6
BYLAYER
 10
91.0
 20
29.0
 30
0.0
 40
1.5
  0
CIRCLE
  5
82
100
AcDbEntity
100
AcDbCircle
  8
0
 62
256
370
-1
 48
1.0
  6
BYLAYER
 10
39.0
 20
29.0
 30
0.0
 40
1.5
  0
LINE
  5
83
100
AcDbEntity
100
AcDbLine
  8
0
 62
256
370
-1
 48
1.0
  6
BYLAYER
 10
62.1482203189563336
 20
57.9558845726813132
 30
0.0
 11
64.7259117725803179
 21
59.4441154273188204
 31
0.0
  0
ARC
  5
84
100
AcDbEntity
  8
0
 62
256
370
-1
 48
1.0
  6
BYLAYER
100
AcDbCircle
 10
62.4182203189563722
 20
57.4882308546377203
 30
0.0
 40
0.5399999999999999
100
AcDbArc
 50
119.9999999999972147
 51
180.0
  0
LINE
  5
85
100
AcDbEntity
100
AcDbLine
  8
0
 62
256
370
-1
 48
1.0
  6
BYLAYER
 10
65.2659117725803242
 20
59.4441154273188204
 30
0.0
 11
67.8436032262043085
 21
57.955884572681299
 31
0.0
  0
ARC
  5
86
100
AcDbEntity
  8
0
 62
256
370
-1
 48
1.0
  6
BYLAYER
100
AcDbCircle
 10
64.9959117725803281
 20
58.9764617092751848
 30
0.0
 40
0.5399999999999999
100
AcDbArc
 50
60.0000000000028351
 51
119.9999999999972147
  0
LINE
  5
87
100
AcDbEntity
100
AcDbLine
  8
0
 62
256
370
-1
 48
1.0
  6
BYLAYER
 10
68.1136032262043187
 20
57.4882308546377061
 30
0.0
 11
68.1136032262043045
 21
54.5117691453624076
 31
0.0
  0
ARC
  5
88
100
AcDbEntity
  8
0
 62
256
370
-1
 48
1.0
  6
BYLAYER
100
AcDbCircle
 10
67.5736032262043125
 20
57.4882308546377203
 30
0.0
 40
0.5399999999999999
100
AcDbArc
 50
0.0
 51
60.0000000000028351
  0
LINE
  5
89
100
AcDbEntity
100
AcDbLine
  8
0
 62
256
370
-1
 48
1.0
  6
BYLAYER
 10
67.8436032262043085
 20
54.0441154273188289
 30
0.0
 11
65.2659117725803242
 21
52.5558845726812933
 31
0.0
  0
ARC
  5
8A
100
AcDbEntity
  8
0
 62
256
370
-1
 48
1.0
  6
BYLAYER
100
AcDbCircle
 10
67.5736032262043125
 20
54.5117691453624218
 30
0.0
 40
0.5399999999999999
100
AcDbArc
 50
299.9999999999972147
 51
0.0
  0
LINE
  5
8B
100
AcDbEntity
100
AcDbLine
  8
0
 62
256
370
-1
 48
1.0
  6
BYLAYER
 10
64.7259117725803179
 20
52.5558845726812933
 30
0.0
 11
62.1482203189563194
 21
54.0441154273188289
 31
0.0
  0
ARC
  5
8C
100
AcDbEntity
  8
0
 62
256
370
-1
 48
1.0
  6
BYLAYER
100
AcDbCircle
 10
64.9959117725803139
 20
53.0235382907248152
 30
0.0
 40
0.5399999999999999
100
AcDbArc
 50
240.0000000000027853
 51
299.9999999999972147
  0
LINE
  5
8D
100
AcDbEntity
100
AcDbLine
  8
0
 62
256
370
-1
 48
1.0
  6
BYLAYER
 10
61.878220318956366
 20
57.4882308546377203
 30
0.0
 11
61.878220318956366
 21
54.5117691453624218
 31
0.0
  0
ARC
  5
8E
100
AcDbEntity
  8
0
 62
256
370
-1
 48
1.0
  6
BYLAYER
100
AcDbCircle
 10
62.4182203189563722
 20
54.5117691453624218
 30
0.0
 40
0.5399999999999999
100
AcDbArc
 50
180.0
 51
240.0000000000027853
  0
LINE
  5
8F
100
AcDbEntity
100
AcDbLine
  8
0
 62
256
370
-1
 48
1.0
  6
BYLAYER
 10
62.1482203189563336
 20
45.5320585369716824
 30
0.0
 11
64.7259117725803179
 21
47.0202893916091895
 31
0.0
  0
ARC
  5
90
100
AcDbEntity
  8
0
 62
256
370
-1
 48
1.0
  6
BYLAYER
100
AcDbCircle
 10
62.4182203189563722
 20
45.0644048189280895
 30
0.0
 40
0.5399999999999999
100
AcDbArc
 50
119.9999999999972147
 51
180.0
  0
LINE
  5
91
100
AcDbEntity
100
AcDbLine
  8
0
 62
256
370
-1
 48
1.0
  6
BYLAYER
 10
65.2659117725803242
 20
47.0202893916091895
 30
0.0
 11
67.8436032262043085
 21
45.5320585369716682
 31
0.0
  0
ARC
  5
92
100
AcDbEntity
  8
0
 62
256
370
-1
 48
1.0
  6
BYLAYER
100
AcDbCircle
 10
64.9959117725803281
 20
46.552635673565554
 30
0.0
 40
0.5399999999999999
100
AcDbArc
 50
60.0000000000028351
 51
119.9999999999972147
  0
LINE
  5
93
100
AcDbEntity
100
AcDbLine
  8
0
 62
256
370
-1
 48
1.0
  6
BYLAYER
 10
68.1136032262043187
 20
45.0644048189280753
 30
0.0
 11
68.1136032262043045
 21
42.0879431096527767
 31
0.0
  0
ARC
  5
94
100
AcDbEntity
  8
0
 62
256
370
-1
 48
1.0
  6
BYLAYER
100
AcDbCircle
 10
67.5736032262043125
 20
45.0644048189280895
 30
0.0
 40
0.5399999999999999
100
AcDbArc
 50
0.0
 51
60.0000000000028351
  0
LINE
  5
95
100
AcDbEntity
100
AcDbLine
  8
0
 62
256
370
-1
 48
1.0
  6
BYLAYER
 10
67.8436032262043085
 20
41.620289391609198
 30
0.0
 11
65.2659117725803242
 21
40.1320585369716625
 31
0.0
  0
ARC
  5
96
100
AcDbEntity
  8
0
 62
256
370
-1
 48
1.0
  6
BYLAYER
100
AcDbCircle
 10
67.5736032262043125
 20
42.087943109652791
 30
0.0
 40
0.5399999999999999
100
AcDbArc
 50
299.9999999999972147
 51
0.0
  0
LINE
  5
97
100
AcDbEntity
100
AcDbLine
  8
0
 62
256
370
-1
 48
1.0
  6
BYLAYER
 10
64.7259117725803179
 20
40.1320585369716625
 30
0.0
 11
62.1482203189563194
 21
41.620289391609198
 31
0.0
  0
ARC
  5
98
100
AcDbEntity
  8
0
 62
256
370
-1
 48
1.0
  6
BYLAYER
100
AcDbCircle
 10
64.9959117725803139
 20
40.5997122550151843
 30
0.0
 40
0.5399999999999999
100
AcDbArc
 50
240.0000000000027853
 51
299.9999999999972147
  0
LINE
  5
99
100
AcDbEntity
100
AcDbLine
  8
0
 62
256
370
-1
 48
1.0
  6
BYLAYER
 10
61.878220318956366
 20
45.0644048189280895
 30
0.0
 11
61.878220318956366
 21
42.087943109652791
 31
0.0
  0
ARC
  5
9A
100
AcDbEntity
  8
0
 62
256
370
-1
 48
1.0
  6
BYLAYER
100
AcDbCircle
 10
62.4182203189563722
 20
42.087943109652791
 30
0.0
 40
0.5399999999999999
100
AcDbArc
 50
180.0
 51
240.0000000000027853
  0
LINE
  5
9B
100
AcDbEntity
100
AcDbLine
  8
0
 62
256
370
-1
 48
1.0
  6
BYLAYER
 10
112.8476914536240088
 20
58.0441154273186868
 30
0.0
 11
110.2700000000000244
 21
56.5558845726811796
 31
0.0
  0
ARC
  5
9C
100
AcDbEntity
  8
0
 62
256
370
-1
 48
1.0
  6
BYLAYER
100
AcDbCircle
 10
112.5776914536239701
 20
58.5117691453622797
 30
0.0
 40
0.5399999999999999
100
AcDbArc
 50
299.9999999999972147
 51
0.0
  0
LINE
  5
9D
100
AcDbEntity
100
AcDbLine
  8
0
 62
256
370
-1
 48
1.0
  6
BYLAYER
 10
109.7300000000000182
 20
56.5558845726811796
 30
0.0
 11
107.1523085463760339
 21
58.044115427318701
 31
0.0
  0
ARC
  5
9E
100
AcDbEntity
  8
0
 62
256
370
-1
 48
1.0
  6
BYLAYER
100
AcDbCircle
 10
110.0000000000000142
 20
57.0235382907248152
 30
0.0
 40
0.5399999999999999
100
AcDbArc
 50
240.0000000000028137
 51
299.9999999999972147
  0
LINE
  5
9F
100
AcDbEntity
100
AcDbLine
  8
0
 62
256
370
-1
 48
1.0
  6
BYLAYER
 10
106.8823085463760236
 20
58.5117691453622939
 30
0.0
 11
106.8823085463760378
 21
61.4882308546375924
 31
0.0
  0
ARC
  5
A0
100
AcDbEntity
  8
0
 62
256
370
-1
 48
1.0
  6
BYLAYER
100
AcDbCircle
 10
107.4223085463760299
 20
58.5117691453622797
 30
0.0
 40
0.5399999999999999
100
AcDbArc
 50
180.0
 51
240.0000000000028137
  0
LINE
  5
A1
100
AcDbEntity
100
AcDbLine
  8
0
 62
256
370
-1
 48
1.0
  6
BYLAYER
 10
107.1523085463760339
 20
61.9558845726811711
 30
0.0
 11
109.7300000000000182
 21
63.4441154273187067
 31
0.0
  0
ARC
  5
A2
100
AcDbEntity
  8
0
 62
256
370
-1
 48
1.0
  6
BYLAYER
100
AcDbCircle
 10
107.4223085463760299
 20
61.4882308546375782
 30
0.0
 40
0.5399999999999999
100
AcDbArc
 50
119.9999999999972147
 51
180.0
  0
LINE
  5
A3
100
AcDbEntity
100
AcDbLine
  8
0
 62
256
370
-1
 48
1.0
  6
BYLAYER
 10
110.2700000000000244
 20
63.4441154273187067
 30
0.0
 11
112.847691453624023
 21
61.9558845726811711
 31
0.0
  0
ARC
  5
A4
100
AcDbEntity
  8
0
 62
256
370
-1
 48
1.0
  6
BYLAYER
100
AcDbCircle
 10
110.0000000000000284
 20
62.9764617092751848
 30
0.0
 40
0.5399999999999999
100
AcDbArc
 50
60.0000000000027853
 51
119.9999999999972147
  0
LINE
  5
A5
100
AcDbEntity
100
AcDbLine
  8
0
 62
256
370
-1
 48
1.0
  6
BYLAYER
 10
113.1176914536239764
 20
58.5117691453622797
 30
0.0
 11
113.1176914536239764
 21
61.4882308546375782
 31
0.0
  0
ARC
  5
A6
100
AcDbEntity
  8
0
 62
256
370
-1
 48
1.0
  6
BYLAYER
100
AcDbCircle
 10
112.5776914536239701
 20
61.4882308546375782
 30
0.0
 40
0.5399999999999999
100
AcDbArc
 50
0.0
 51
60.0000000000027853
  0
LINE
  5
A7
100
AcDbEntity
100
AcDbLine
  8
0
 62
256
370
-1
 48
1.0
  6
BYLAYER
 10
22.8476914536240088
 20
58.0441154273186868
 30
0.0
 11
20.2700000000000244
 21
56.5558845726811796
 31
0.0
  0
ARC
  5
A8
100
AcDbEntity
  8
0
 62
256
370
-1
 48
1.0
  6
BYLAYER
100
AcDbCircle
 10
22.5776914536239701
 20
58.5117691453622797
 30
0.0
 40
0.5399999999999999
100
AcDbArc
 50
299.9999999999972147
 51
0.0
  0
LINE
  5
A9
100
AcDbEntity
100
AcDbLine
  8
0
 62
256
370
-1
 48
1.0
  6
BYLAYER
 10
19.7300000000000182
 20
56.5558845726811796
 30
0.0
 11
17.1523085463760339
 21
58.044115427318701
 31
0.0
  0
ARC
  5
AA
100
AcDbEntity
  8
0
 62
256
370
-1
 48
1.0
  6
BYLAYER
100
AcDbCircle
 10
20.0000000000000142
 20
57.0235382907248152
 30
0.0
 40
0.5399999999999999
100
AcDbArc
 50
240.0000000000028137
 51
299.9999999999972147
  0
LINE
  5
AB
100
AcDbEntity
100
AcDbLine
  8
0
 62
256
370
-1
 48
1.0
  6
BYLAYER
 10
16.8823085463760236
 20
58.5117691453622939
 30
0.0
 11
16.8823085463760378
 21
61.4882308546375924
 31
0.0
  0
ARC
  5
AC
100
AcDbEntity
  8
0
 62
256
370
-1
 48
1.0
  6
BYLAYER
100
AcDbCircle
 10
17.4223085463760299
 20
58.5117691453622797
 30
0.0
 40
0.5399999999999999
100
AcDbArc
 50
180.0
 51
240.0000000000028137
  0
LINE
  5
AD
100
AcDbEntity
100
AcDbLine
  8
0
 62
256
370
-1
 48
1.0
  6
BYLAYER
 10
17.1523085463760339
 20
61.9558845726811711
 30
0.0
 11
19.7300000000000182
 21
63.4441154273187067
 31
0.0
  0
ARC
  5
AE
100
AcDbEntity
  8
0
 62
256
370
-1
 48
1.0
  6
BYLAYER
100
AcDbCircle
 10
17.4223085463760299
 20
61.4882308546375782
 30
0.0
 40
0.5399999999999999
100
AcDbArc
 50
119.9999999999972147
 51
180.0
  0
LINE
  5
AF
100
AcDbEntity
100
AcDbLine
  8
0
 62
256
370
-1
 48
1.0
  6
BYLAYER
 10
20.270000000000028
 20
63.4441154273187067
 30
0.0
 11
22.847691453624023
 21
61.9558845726811711
 31
0.0
  0
ARC
  5
B0
100
AcDbEntity
  8
0
 62
256
370
-1
 48
1.0
  6
BYLAYER
100
AcDbCircle
 10
20.0000000000000284
 20
62.9764617092751848
 30
0.0
 40
0.5399999999999999
100
AcDbArc
 50
60.0000000000027853
 51
119.9999999999972147
  0
LINE
  5
B1
100
AcDbEntity
100
AcDbLine
  8
0
 62
256
370
-1
 48
1.0
  6
BYLAYER
 10
23.1176914536239764
 20
58.5117691453622797
 30
0.0
 11
23.1176914536239764
 21
61.4882308546375782
 31
0.0
  0
ARC
  5
B2
100
AcDbEntity
  8
0
 62
256
370
-1
 48
1.0
  6
BYLAYER
100
AcDbCircle
 10
22.5776914536239701
 20
61.4882308546375782
 30
0.0
 40
0.5399999999999999
100
AcDbArc
 50
0.0
 51
60.0000000000027853
  0
CIRCLE
  5
B3
100
AcDbEntity
100
AcDbCircle
  8
0
 62
256
370
-1
 48
1.0
  6
BYLAYER
 10
-38.6520271938134528
 20
78.5500177449474819
 30
0.0
 40
1.5
  0
ENDSEC
  0
SECTION
  2
OBJECTS
  0
DICTIONARY
  5
C
100
AcDbDictionary
280
0
281
1
  3
ACAD_GROUP
350
D
  3
ACAD_LAYOUT
350
1A
  3
ACAD_MLINESTYLE
350
17
  3
ACAD_PLOTSETTINGS
350
19
  3
ACAD_PLOTSTYLENAME
350
E
  3
AcDbVariableDictionary
350
B4
  3
QCAD_OBJECTS
350
B5
  0
DICTIONARY
  5
D
100
AcDbDictionary
280
0
281
1
  0
ACDBDICTIONARYWDFLT
  5
E
100
AcDbDictionary
281
1
  3
Normal
350
F
100
AcDbDictionaryWithDefault
340
F
  0
ACDBPLACEHOLDER
  5
F
  0
DICTIONARY
  5
17
100
AcDbDictionary
280
0
281
1
  3
Standard
350
18
  0
MLINESTYLE
  5
18
100
AcDbMlineStyle
  2
STANDARD
 70
0
  3

 62
256
 51
90.0
 52
90.0
 71
2
 49
0.5
 62
256
  6
BYLAYER
 49
-0.5
 62
256
  6
BYLAYER
  0
DICTIONARY
  5
19
100
AcDbDictionary
280
0
281
1
  0
DICTIONARY
  5
1A
100
AcDbDictionary
281
1
  3
Layout1
350
1E
  3
Layout2
350
26
  3
Model
350
22
  0
LAYOUT
  5
1E
100
AcDbPlotSettings
  1

  2
none_device
  4

  6

 40
0.0
 41
0.0
 42
0.0
 43
0.0
 44
0.0
 45
0.0
 46
0.0
 47
0.0
 48
0.0
 49
0.0
140
0.0
141
0.0
142
1.0
143
1.0
 70
688
 72
0
 73
0
 74
5
  7

 75
16
147
1.0
148
0.0
149
0.0
100
AcDbLayout
  1
Layout1
 70
1
 71
1
 10
0.0
 20
0.0
 11
420.0
 21
297.0
 12
0.0
 22
0.0
 32
0.0
 14
100000000000000000000.0
 24
100000000000000000000.0
 34
100000000000000000000.0
 15
-100000000000000000000.0
 25
-100000000000000000000.0
 35
-100000000000000000000.0
146
0.0
 13
0.0
 23
0.0
 33
0.0
 16
1.0
 26
0.0
 36
0.0
 17
0.0
 27
1.0
 37
0.0
 76
0
330
1B
  0
LAYOUT
  5
22
100
AcDbPlotSettings
  1

  2
none_device
  4

  6

 40
0.0
 41
0.0
 42
0.0
 43
0.0
 44
0.0
 45
0.0
 46
0.0
 47
0.0
 48
0.0
 49
0.0
140
0.0
141
0.0
142
1.0
143
1.0
 70
1712
 72
0
 73
0
 74
0
  7

 75
0
147
1.0
148
0.0
149
0.0
100
AcDbLayout
  1
Model
 70
1
 71
0
 10
0.0
 20
0.0
 11
12.0
 21
9.0
 12
0.0
 22
0.0
 32
0.0
 14
0.0
 24
0.0
 34
0.0
 15
0.0
 25
0.0
 35
0.0
146
0.0
 13
0.0
 23
0.0
 33
0.0
 16
1.0
 26
0.0
 36
0.0
 17
0.0
 27
1.0
 37
0.0
 76
0
330
1F
  0
LAYOUT
  5
26
100
AcDbPlotSettings
  1

  2
none_device
  4

  6

 40
0.0
 41
0.0
 42
0.0
 43
0.0
 44
0.0
 45
0.0
 46
0.0
 47
0.0
 48
0.0
 49
0.0
140
0.0
141
0.0
142
1.0
143
1.0
 70
688
 72
0
 73
0
 74
5
  7

 75
16
147
1.0
148
0.0
149
0.0
100
AcDbLayout
  1
Layout2
 70
1
 71
2
 10
0.0
 20
0.0
 11
12.0
 21
9.0
 12
0.0
 22
0.0
 32
0.0
 14
0.0
 24
0.0
 34
0.0
 15
0.0
 25
0.0
 35
0.0
146
0.0
 13
0.0
 23
0.0
 33
0.0
 16
1.0
 26
0.0
 36
0.0
 17
0.0
 27
1.0
 37
0.0
 76
0
330
23
  0
DICTIONARY
  5
B4
100
AcDbDictionary
281
1
  3
DIMASSOC
350
B7
  3
HIDETEXT
350
B6
  0
DICTIONARYVAR
  5
B6
100
DictionaryVariables
280
0
  1
2
  0
DICTIONARYVAR
  5
B7
100
DictionaryVariables
280
0
  1
1
  0
DICTIONARY
  5
B5
100
AcDbDictionary
281
1
  3
ColorSettings/BackgroundColor
350
B8
  3
ColorSettings/ColorMode
350
B9
  3
Grid/DisplayGrid00
350
BA
  3
Grid/DisplayGrid01
350
BB
  3
Grid/DisplayGrid02
350
BC
  3
Grid/DisplayGrid03
350
BD
  3
Grid/GridSpacingX00
350
BE
  3
Grid/GridSpacingX01
350
BF
  3
Grid/GridSpacingX02
350
C0
  3
Grid/GridSpacingX03
350
C1
  3
Grid/GridSpacingY00
350
C2
  3
Grid/GridSpacingY01
350
C3
  3
Grid/GridSpacingY02
350
C4
  3
Grid/GridSpacingY03
350
C5
  3
Grid/IsometricGrid00
350
C6
  3
Grid/IsometricGrid01
350
C7
  3
Grid/IsometricGrid02
350
C8
  3
Grid/IsometricGrid03
350
C9
  3
Grid/IsometricProjection00
350
CA
  3
Grid/IsometricProjection01
350
CB
  3
Grid/IsometricProjection02
350
CC
  3
Grid/IsometricProjection03
350
CD
  3
Grid/MetaGridSpacingX00
350
CE
  3
Grid/MetaGridSpacingX01
350
CF
  3
Grid/MetaGridSpacingX02
350
D0
  3
Grid/MetaGridSpacingX03
350
D1
  3
Grid/MetaGridSpacingY00
350
D2
  3
Grid/MetaGridSpacingY01
350
D3
  3
Grid/MetaGridSpacingY02
350
D4
  3
Grid/MetaGridSpacingY03
350
D5
  3
MultiPageSettings/Columns
350
D6
  3
MultiPageSettings/GlueMarginsBottom
350
D7
  3
MultiPageSettings/GlueMarginsLeft
350
D8
  3
MultiPageSettings/GlueMarginsRight
350
D9
  3
MultiPageSettings/GlueMarginsTop
350
DA
  3
MultiPageSettings/PrintCropMarks
350
DB
  3
MultiPageSettings/Rows
350
DC
  3
PageSettings/OffsetX
350
DD
  3
PageSettings/OffsetY
350
DE
  3
PageSettings/PageOrientation
350
DF
  3
PageSettings/PaperHeight
350
E0
  3
PageSettings/PaperWidth
350
E1
  3
PageSettings/Scale
350
E2
  3
PageSettings/ShowPaperBorders
350
E3
  3
UnitSettings/PaperUnit
350
E4
  0
XRECORD
  5
B8
330
B5
100
AcDbXrecord
280
1
1000
White
  0
XRECORD
  5
B9
330
B5
100
AcDbXrecord
280
1
1000
FullColor
  0
XRECORD
  5
BA
330
B5
100
AcDbXrecord
280
1
290
1
  0
XRECORD
  5
BB
330
B5
100
AcDbXrecord
280
1
290
1
  0
XRECORD
  5
BC
330
B5
100
AcDbXrecord
280
1
290
1
  0
XRECORD
  5
BD
330
B5
100
AcDbXrecord
280
1
290
1
  0
XRECORD
  5
BE
330
B5
100
AcDbXrecord
280
1
1000
auto
  0
XRECORD
  5
BF
330
B5
100
AcDbXrecord
280
1
1000
auto
  0
XRECORD
  5
C0
330
B5
100
AcDbXrecord
280
1
1000
auto
  0
XRECORD
  5
C1
330
B5
100
AcDbXrecord
280
1
1000
auto
  0
XRECORD
  5
C2
330
B5
100
AcDbXrecord
280
1
1000
auto
  0
XRECORD
  5
C3
330
B5
100
AcDbXrecord
280
1
1000
auto
  0
XRECORD
  5
C4
330
B5
100
AcDbXrecord
280
1
1000
auto
  0
XRECORD
  5
C5
330
B5
100
AcDbXrecord
280
1
1000
auto
  0
XRECORD
  5
C6
330
B5
100
AcDbXrecord
280
1
290
0
  0
XRECORD
  5
C7
330
B5
100
AcDbXrecord
280
1
290
0
  0
XRECORD
  5
C8
330
B5
100
AcDbXrecord
280
1
290
0
  0
XRECORD
  5
C9
330
B5
100
AcDbXrecord
280
1
290
0
  0
XRECORD
  5
CA
330
B5
100
AcDbXrecord
280
1
 90
2
  0
XRECORD
  5
CB
330
B5
100
AcDbXrecord
280
1
 90
0
  0
XRECORD
  5
CC
330
B5
100
AcDbXrecord
280
1
 90
0
  0
XRECORD
  5
CD
330
B5
100
AcDbXrecord
280
1
 90
0
  0
XRECORD
  5
CE
330
B5
100
AcDbXrecord
280
1
1000
auto
  0
XRECORD
  5
CF
330
B5
100
AcDbXrecord
280
1
1000
auto
  0
XRECORD
  5
D0
330
B5
100
AcDbXrecord
280
1
1000
auto
  0
XRECORD
  5
D1
330
B5
100
AcDbXrecord
280
1
1000
auto
  0
XRECORD
  5
D2
330
B5
100
AcDbXrecord
280
1
1000
auto
  0
XRECORD
  5
D3
330
B5
100
AcDbXrecord
280
1
1000
auto
  0
XRECORD
  5
D4
330
B5
100
AcDbXrecord
280
1
1000
auto
  0
XRECORD
  5
D5
330
B5
100
AcDbXrecord
280
1
1000
auto
  0
XRECORD
  5
D6
330
B5
100
AcDbXrecord
280
1
 90
1
  0
XRECORD
  5
D7
330
B5
100
AcDbXrecord
280
1
 40
10.0
  0
XRECORD
  5
D8
330
B5
100
AcDbXrecord
280
1
 40
10.0
  0
XRECORD
  5
D9
330
B5
100
AcDbXrecord
280
1
 40
10.0
  0
XRECORD
  5
DA
330
B5
100
AcDbXrecord
280
1
 40
10.0
  0
XRECORD
  5
DB
330
B5
100
AcDbXrecord
280
1
290
0
  0
XRECORD
  5
DC
330
B5
100
AcDbXrecord
280
1
 90
1
  0
XRECORD
  5
DD
330
B5
100
AcDbXrecord
280
1
 40
0.0
  0
XRECORD
  5
DE
330
B5
100
AcDbXrecord
280
1
 40
0.0
  0
XRECORD
  5
DF
330
B5
100
AcDbXrecord
280
1
1000
Portrait
  0
XRECORD
  5
E0
330
B5
100
AcDbXrecord
280
1
 40
297.0
  0
XRECORD
  5
E1
330
B5
100
AcDbXrecord
280
1
 40
210.0
  0
XRECORD
  5
E2
330
B5
100
AcDbXrecord
280
1
1000
1:1
  0
XRECORD
  5
E3
330
B5
100
AcDbXrecord
280
1
290
1
  0
XRECORD
  5
E4
330
B5
100
AcDbXrecord
280
1
 90
4
  0
ENDSEC
  0
EOF
